%TF.GenerationSoftware,KiCad,Pcbnew,7.0.7*%
%TF.CreationDate,2024-03-27T23:03:55-04:00*%
%TF.ProjectId,pneu_pwr_brd,706e6575-5f70-4777-925f-6272642e6b69,rev?*%
%TF.SameCoordinates,Original*%
%TF.FileFunction,Paste,Top*%
%TF.FilePolarity,Positive*%
%FSLAX46Y46*%
G04 Gerber Fmt 4.6, Leading zero omitted, Abs format (unit mm)*
G04 Created by KiCad (PCBNEW 7.0.7) date 2024-03-27 23:03:55*
%MOMM*%
%LPD*%
G01*
G04 APERTURE LIST*
G04 Aperture macros list*
%AMRoundRect*
0 Rectangle with rounded corners*
0 $1 Rounding radius*
0 $2 $3 $4 $5 $6 $7 $8 $9 X,Y pos of 4 corners*
0 Add a 4 corners polygon primitive as box body*
4,1,4,$2,$3,$4,$5,$6,$7,$8,$9,$2,$3,0*
0 Add four circle primitives for the rounded corners*
1,1,$1+$1,$2,$3*
1,1,$1+$1,$4,$5*
1,1,$1+$1,$6,$7*
1,1,$1+$1,$8,$9*
0 Add four rect primitives between the rounded corners*
20,1,$1+$1,$2,$3,$4,$5,0*
20,1,$1+$1,$4,$5,$6,$7,0*
20,1,$1+$1,$6,$7,$8,$9,0*
20,1,$1+$1,$8,$9,$2,$3,0*%
G04 Aperture macros list end*
%ADD10RoundRect,0.250000X0.450000X-0.350000X0.450000X0.350000X-0.450000X0.350000X-0.450000X-0.350000X0*%
%ADD11R,0.800000X1.900000*%
%ADD12RoundRect,0.250000X0.350000X0.450000X-0.350000X0.450000X-0.350000X-0.450000X0.350000X-0.450000X0*%
%ADD13RoundRect,0.100000X-0.637500X-0.100000X0.637500X-0.100000X0.637500X0.100000X-0.637500X0.100000X0*%
%ADD14RoundRect,0.250000X-0.350000X-0.450000X0.350000X-0.450000X0.350000X0.450000X-0.350000X0.450000X0*%
%ADD15RoundRect,0.250000X0.625000X-0.375000X0.625000X0.375000X-0.625000X0.375000X-0.625000X-0.375000X0*%
G04 APERTURE END LIST*
D10*
%TO.C,R9*%
X141605000Y-86090000D03*
X141605000Y-84090000D03*
%TD*%
D11*
%TO.C,Q1*%
X180787000Y-82145000D03*
X182687000Y-82145000D03*
X181737000Y-79145000D03*
%TD*%
%TO.C,Q2*%
X180787000Y-75668000D03*
X182687000Y-75668000D03*
X181737000Y-72668000D03*
%TD*%
D10*
%TO.C,R11*%
X141732000Y-99425000D03*
X141732000Y-97425000D03*
%TD*%
%TO.C,R7*%
X141478000Y-72628000D03*
X141478000Y-70628000D03*
%TD*%
D12*
%TO.C,R1*%
X183499000Y-66675000D03*
X181499000Y-66675000D03*
%TD*%
D13*
%TO.C,U3*%
X172016500Y-52544000D03*
X172016500Y-53194000D03*
X172016500Y-53844000D03*
X172016500Y-54494000D03*
X172016500Y-55144000D03*
X172016500Y-55794000D03*
X172016500Y-56444000D03*
X172016500Y-57094000D03*
X172016500Y-57744000D03*
X172016500Y-58394000D03*
X172016500Y-59044000D03*
X172016500Y-59694000D03*
X172016500Y-60344000D03*
X172016500Y-60994000D03*
X177741500Y-60994000D03*
X177741500Y-60344000D03*
X177741500Y-59694000D03*
X177741500Y-59044000D03*
X177741500Y-58394000D03*
X177741500Y-57744000D03*
X177741500Y-57094000D03*
X177741500Y-56444000D03*
X177741500Y-55794000D03*
X177741500Y-55144000D03*
X177741500Y-54494000D03*
X177741500Y-53844000D03*
X177741500Y-53194000D03*
X177741500Y-52544000D03*
%TD*%
D14*
%TO.C,R2*%
X181499000Y-69977000D03*
X183499000Y-69977000D03*
%TD*%
D12*
%TO.C,R4*%
X168132000Y-52578000D03*
X166132000Y-52578000D03*
%TD*%
%TO.C,R8*%
X168148000Y-76200000D03*
X166148000Y-76200000D03*
%TD*%
%TO.C,R10*%
X165592000Y-89916000D03*
X163592000Y-89916000D03*
%TD*%
D10*
%TO.C,R5*%
X141478000Y-59166000D03*
X141478000Y-57166000D03*
%TD*%
D12*
%TO.C,R6*%
X168132000Y-62738000D03*
X166132000Y-62738000D03*
%TD*%
D15*
%TO.C,F1*%
X180721000Y-96142000D03*
X180721000Y-93342000D03*
%TD*%
D10*
%TO.C,R3*%
X180721000Y-56499000D03*
X180721000Y-54499000D03*
%TD*%
M02*
