%TF.GenerationSoftware,KiCad,Pcbnew,9.0.7*%
%TF.CreationDate,2026-03-21T01:28:49-04:00*%
%TF.ProjectId,pneu_pwr_brd_11_19_25,706e6575-5f70-4777-925f-6272645f3131,rev?*%
%TF.SameCoordinates,Original*%
%TF.FileFunction,Copper,L4,Bot*%
%TF.FilePolarity,Positive*%
%FSLAX46Y46*%
G04 Gerber Fmt 4.6, Leading zero omitted, Abs format (unit mm)*
G04 Created by KiCad (PCBNEW 9.0.7) date 2026-03-21 01:28:49*
%MOMM*%
%LPD*%
G01*
G04 APERTURE LIST*
G04 Aperture macros list*
%AMRoundRect*
0 Rectangle with rounded corners*
0 $1 Rounding radius*
0 $2 $3 $4 $5 $6 $7 $8 $9 X,Y pos of 4 corners*
0 Add a 4 corners polygon primitive as box body*
4,1,4,$2,$3,$4,$5,$6,$7,$8,$9,$2,$3,0*
0 Add four circle primitives for the rounded corners*
1,1,$1+$1,$2,$3*
1,1,$1+$1,$4,$5*
1,1,$1+$1,$6,$7*
1,1,$1+$1,$8,$9*
0 Add four rect primitives between the rounded corners*
20,1,$1+$1,$2,$3,$4,$5,0*
20,1,$1+$1,$4,$5,$6,$7,0*
20,1,$1+$1,$6,$7,$8,$9,0*
20,1,$1+$1,$8,$9,$2,$3,0*%
G04 Aperture macros list end*
%TA.AperFunction,ComponentPad*%
%ADD10R,1.700000X1.700000*%
%TD*%
%TA.AperFunction,ComponentPad*%
%ADD11O,1.700000X1.700000*%
%TD*%
%TA.AperFunction,ComponentPad*%
%ADD12RoundRect,0.250000X-0.625000X0.350000X-0.625000X-0.350000X0.625000X-0.350000X0.625000X0.350000X0*%
%TD*%
%TA.AperFunction,ComponentPad*%
%ADD13O,1.750000X1.200000*%
%TD*%
%TA.AperFunction,ComponentPad*%
%ADD14R,2.000000X1.905000*%
%TD*%
%TA.AperFunction,ComponentPad*%
%ADD15O,2.000000X1.905000*%
%TD*%
%TA.AperFunction,ComponentPad*%
%ADD16R,1.905000X2.000000*%
%TD*%
%TA.AperFunction,ComponentPad*%
%ADD17O,1.905000X2.000000*%
%TD*%
%TA.AperFunction,ComponentPad*%
%ADD18R,0.850000X0.850000*%
%TD*%
%TA.AperFunction,ComponentPad*%
%ADD19R,2.200000X2.200000*%
%TD*%
%TA.AperFunction,ComponentPad*%
%ADD20O,2.200000X2.200000*%
%TD*%
%TA.AperFunction,ComponentPad*%
%ADD21R,1.600000X1.600000*%
%TD*%
%TA.AperFunction,ComponentPad*%
%ADD22C,1.600000*%
%TD*%
%TA.AperFunction,ComponentPad*%
%ADD23RoundRect,0.250000X0.350000X0.625000X-0.350000X0.625000X-0.350000X-0.625000X0.350000X-0.625000X0*%
%TD*%
%TA.AperFunction,ComponentPad*%
%ADD24O,1.200000X1.750000*%
%TD*%
%TA.AperFunction,ComponentPad*%
%ADD25RoundRect,0.250000X-0.350000X-0.625000X0.350000X-0.625000X0.350000X0.625000X-0.350000X0.625000X0*%
%TD*%
%TA.AperFunction,ComponentPad*%
%ADD26C,1.397000*%
%TD*%
%TA.AperFunction,SMDPad,CuDef*%
%ADD27RoundRect,0.250000X-0.475000X0.337500X-0.475000X-0.337500X0.475000X-0.337500X0.475000X0.337500X0*%
%TD*%
%TA.AperFunction,ViaPad*%
%ADD28C,0.800000*%
%TD*%
%TA.AperFunction,Conductor*%
%ADD29C,1.000000*%
%TD*%
%TA.AperFunction,Conductor*%
%ADD30C,0.250000*%
%TD*%
%TA.AperFunction,Conductor*%
%ADD31C,0.300000*%
%TD*%
G04 APERTURE END LIST*
D10*
%TO.P,J11,1,Pin_1*%
%TO.N,CAN-*%
X87460000Y-49410000D03*
D11*
%TO.P,J11,2,Pin_2*%
X90000000Y-49410000D03*
%TD*%
D12*
%TO.P,J6,1,Pin_1*%
%TO.N,12V*%
X92030000Y-35280000D03*
D13*
%TO.P,J6,2,Pin_2*%
%TO.N,SLN4-*%
X92030000Y-37280000D03*
%TD*%
D14*
%TO.P,U1,1,IN*%
%TO.N,12V*%
X83660000Y-65840000D03*
D15*
%TO.P,U1,2,GND*%
%TO.N,GND*%
X83660000Y-63300000D03*
%TO.P,U1,3,OUT*%
%TO.N,5V*%
X83660000Y-60760000D03*
%TD*%
D16*
%TO.P,Q6,1,G*%
%TO.N,Net-(Q6-G)*%
X91581000Y-29040000D03*
D17*
%TO.P,Q6,2,D*%
%TO.N,SLN4-*%
X89041000Y-29040000D03*
%TO.P,Q6,3,S*%
%TO.N,GND*%
X86501000Y-29040000D03*
%TD*%
D18*
%TO.P,S3_out1,1,1*%
%TO.N,Net-(Q5-G)*%
X107320000Y-23590000D03*
%TD*%
D12*
%TO.P,J3,1,Pin_1*%
%TO.N,12V*%
X132700000Y-35960000D03*
D13*
%TO.P,J3,2,Pin_2*%
%TO.N,SLN1-*%
X132700000Y-37960000D03*
%TD*%
D19*
%TO.P,D4,1,K*%
%TO.N,12V*%
X85490000Y-34030000D03*
D20*
%TO.P,D4,2,A*%
%TO.N,SLN4-*%
X85490000Y-44190000D03*
%TD*%
D18*
%TO.P,S1_TP1,1,1*%
%TO.N,S1CTRL*%
X133910000Y-46760000D03*
%TD*%
%TO.P,SCL,1,1*%
%TO.N,SCL_ext*%
X107240000Y-81150000D03*
%TD*%
D21*
%TO.P,C4,1*%
%TO.N,3.3V*%
X105340000Y-62990000D03*
D22*
%TO.P,C4,2*%
%TO.N,GND*%
X105340000Y-60990000D03*
%TD*%
D19*
%TO.P,D2,1,K*%
%TO.N,12V*%
X112252500Y-34052500D03*
D20*
%TO.P,D2,2,A*%
%TO.N,SLN2-*%
X112252500Y-44212500D03*
%TD*%
D23*
%TO.P,J12,1,Pin_1*%
%TO.N,CAN-*%
X82960000Y-49110000D03*
D24*
%TO.P,J12,2,Pin_2*%
%TO.N,CAN+*%
X80960000Y-49110000D03*
%TD*%
D18*
%TO.P,S1_out1,1,1*%
%TO.N,Net-(Q3-G)*%
X132040000Y-22880000D03*
%TD*%
D25*
%TO.P,J2,1,Pin_1*%
%TO.N,+12V_fuse*%
X97920000Y-79380000D03*
D24*
%TO.P,J2,2,Pin_2*%
%TO.N,GND*%
X99920000Y-79380000D03*
%TD*%
D19*
%TO.P,D1,1,K*%
%TO.N,12V*%
X125770000Y-33910000D03*
D20*
%TO.P,D1,2,A*%
%TO.N,SLN1-*%
X125770000Y-44070000D03*
%TD*%
D18*
%TO.P,S4_out1,1,1*%
%TO.N,Net-(Q6-G)*%
X93650000Y-22840000D03*
%TD*%
D10*
%TO.P,J9,1,Pin_1*%
%TO.N,GND*%
X135280000Y-56190000D03*
D11*
%TO.P,J9,2,Pin_2*%
X135280000Y-58730000D03*
%TO.P,J9,3,Pin_3*%
%TO.N,3.3V*%
X135280000Y-61270000D03*
%TD*%
D18*
%TO.P,S2_TP1,1,1*%
%TO.N,S2CTRL*%
X119440000Y-46290000D03*
%TD*%
%TO.P,SDA,1,1*%
%TO.N,SDA_ext*%
X107270000Y-78480000D03*
%TD*%
D16*
%TO.P,Q3,1,G*%
%TO.N,Net-(Q3-G)*%
X131866500Y-29049500D03*
D17*
%TO.P,Q3,2,D*%
%TO.N,SLN1-*%
X129326500Y-29049500D03*
%TO.P,Q3,3,S*%
%TO.N,GND*%
X126786500Y-29049500D03*
%TD*%
D25*
%TO.P,J13,1,Pin_1*%
%TO.N,USART1_TX*%
X124760000Y-79560000D03*
D24*
%TO.P,J13,2,Pin_2*%
%TO.N,USART1_RX*%
X126760000Y-79560000D03*
%TD*%
D25*
%TO.P,J1,1,Pin_1*%
%TO.N,SDA_ext*%
X115827500Y-79527500D03*
D24*
%TO.P,J1,2,Pin_2*%
%TO.N,SCL_ext*%
X117827500Y-79527500D03*
%TD*%
D10*
%TO.P,J7,1,Pin_1*%
%TO.N,/SWCLK*%
X132720000Y-70880000D03*
D11*
%TO.P,J7,2,Pin_2*%
%TO.N,/SWDIO*%
X130180000Y-70880000D03*
%TO.P,J7,3,Pin_3*%
%TO.N,/NRST*%
X127640000Y-70880000D03*
%TD*%
D18*
%TO.P,S4_TP1,1,1*%
%TO.N,S4CTRL*%
X91800000Y-45490000D03*
%TD*%
%TO.P,S3_TP1,1,1*%
%TO.N,S3CTRL*%
X106340000Y-45890000D03*
%TD*%
D21*
%TO.P,C2,1*%
%TO.N,12V*%
X88190000Y-65580000D03*
D22*
%TO.P,C2,2*%
%TO.N,GND*%
X88190000Y-67580000D03*
%TD*%
D10*
%TO.P,J10,1,Pin_1*%
%TO.N,CAN+*%
X87490000Y-53210000D03*
D11*
%TO.P,J10,2,Pin_2*%
X90030000Y-53210000D03*
%TD*%
D16*
%TO.P,Q5,1,G*%
%TO.N,Net-(Q5-G)*%
X105002000Y-29296000D03*
D17*
%TO.P,Q5,2,D*%
%TO.N,SLN3-*%
X102462000Y-29296000D03*
%TO.P,Q5,3,S*%
%TO.N,GND*%
X99922000Y-29296000D03*
%TD*%
D18*
%TO.P,GND_TP2,1,1*%
%TO.N,GND*%
X116270000Y-21380000D03*
%TD*%
%TO.P,GND_TP1,1,1*%
%TO.N,GND*%
X108840000Y-52050000D03*
%TD*%
D19*
%TO.P,D3,1,K*%
%TO.N,12V*%
X98770000Y-34320000D03*
D20*
%TO.P,D3,2,A*%
%TO.N,SLN3-*%
X98770000Y-44480000D03*
%TD*%
D18*
%TO.P,3.3V_TP_reg1,1,1*%
%TO.N,3.3V*%
X104450000Y-72090000D03*
%TD*%
D12*
%TO.P,J4,1,Pin_1*%
%TO.N,12V*%
X119112500Y-36282500D03*
D13*
%TO.P,J4,2,Pin_2*%
%TO.N,SLN2-*%
X119112500Y-38282500D03*
%TD*%
D12*
%TO.P,J5,1,Pin_1*%
%TO.N,12V*%
X105540000Y-35940000D03*
D13*
%TO.P,J5,2,Pin_2*%
%TO.N,SLN3-*%
X105540000Y-37940000D03*
%TD*%
D18*
%TO.P,S2_out1,1,1*%
%TO.N,Net-(Q4-G)*%
X120480000Y-23670000D03*
%TD*%
D21*
%TO.P,C3,1*%
%TO.N,5V*%
X88090000Y-59850000D03*
D22*
%TO.P,C3,2*%
%TO.N,GND*%
X88090000Y-61850000D03*
%TD*%
D16*
%TO.P,Q4,1,G*%
%TO.N,Net-(Q4-G)*%
X118356500Y-29081500D03*
D17*
%TO.P,Q4,2,D*%
%TO.N,SLN2-*%
X115816500Y-29081500D03*
%TO.P,Q4,3,S*%
%TO.N,GND*%
X113276500Y-29081500D03*
%TD*%
D26*
%TO.P,J8,1,Pin_1*%
%TO.N,3.3V*%
X130907000Y-57912000D03*
%TO.P,J8,2,Pin_2*%
%TO.N,Net-(J8-Pin_2)*%
X130907000Y-60412000D03*
%TO.P,J8,3,Pin_3*%
%TO.N,GND*%
X130907000Y-62912000D03*
%TD*%
D18*
%TO.P,5V_TP1,1,1*%
%TO.N,5V*%
X93340000Y-61830000D03*
%TD*%
%TO.P,3.3V_TP_stm1,1,1*%
%TO.N,3.3V*%
X107610000Y-58040000D03*
%TD*%
D14*
%TO.P,U2,1,GND*%
%TO.N,GND*%
X100910000Y-65840000D03*
D15*
%TO.P,U2,2,VO*%
%TO.N,3.3V*%
X100910000Y-63300000D03*
%TO.P,U2,3,VI*%
%TO.N,12V*%
X100910000Y-60760000D03*
%TD*%
D18*
%TO.P,12V_TP1,1,1*%
%TO.N,12V*%
X95920000Y-71470000D03*
%TD*%
D27*
%TO.P,C9,1*%
%TO.N,GND*%
X118190000Y-59012500D03*
%TO.P,C9,2*%
%TO.N,VBAT*%
X118190000Y-61087500D03*
%TD*%
D28*
%TO.N,GND*%
X102200000Y-69320000D03*
X83050000Y-70050000D03*
X114720000Y-69230000D03*
X79880000Y-37170000D03*
X140990000Y-31170000D03*
X84710000Y-57140000D03*
X140990000Y-48670000D03*
X140990000Y-73170000D03*
X89400000Y-78830000D03*
X79610000Y-59310000D03*
X131472500Y-44322500D03*
X122852500Y-44962500D03*
X79880000Y-33670000D03*
X140990000Y-34670000D03*
X140990000Y-66170000D03*
X107930000Y-68460000D03*
X100800000Y-55080000D03*
X108790000Y-62410000D03*
X116322500Y-24902500D03*
X79880000Y-30170000D03*
X85220000Y-70080000D03*
X95662500Y-44272500D03*
X80870000Y-70010000D03*
X97850000Y-69250000D03*
X119770000Y-71260000D03*
X100030000Y-69290000D03*
X104142500Y-44252500D03*
X103302500Y-25082500D03*
X129922500Y-24792500D03*
X79610000Y-66310000D03*
X113830000Y-68260000D03*
X136352500Y-44732500D03*
X80360000Y-57070000D03*
X79880000Y-40670000D03*
X140990000Y-69670000D03*
X79880000Y-44170000D03*
X97020000Y-65270000D03*
X140990000Y-62670000D03*
X109470000Y-63780000D03*
X140990000Y-45170000D03*
X96980000Y-67450000D03*
X140990000Y-52170000D03*
X97050000Y-63100000D03*
X117622500Y-44432500D03*
X102650000Y-52290000D03*
X79920000Y-27770000D03*
X140990000Y-55670000D03*
X79610000Y-62810000D03*
X89522500Y-24872500D03*
X93190000Y-56780000D03*
X82540000Y-57110000D03*
X110910000Y-76610000D03*
X109522500Y-44722500D03*
X140990000Y-27670000D03*
X114090000Y-55470000D03*
X90642500Y-43772500D03*
X140990000Y-59170000D03*
X140990000Y-38170000D03*
X140990000Y-41670000D03*
%TO.N,12V*%
X89580000Y-70410000D03*
X92590000Y-71380000D03*
X90600000Y-72360000D03*
X91580000Y-70410000D03*
X90600000Y-73360000D03*
X130212500Y-42332500D03*
X116312500Y-42582500D03*
X89600000Y-73360000D03*
X92590000Y-72380000D03*
X92590000Y-73380000D03*
X89600000Y-72360000D03*
X91600000Y-73360000D03*
X90600000Y-71360000D03*
X91600000Y-71360000D03*
X90580000Y-70410000D03*
X89402500Y-42692500D03*
X89600000Y-71360000D03*
X92570000Y-70430000D03*
X91600000Y-72360000D03*
X102822500Y-42882500D03*
%TO.N,VBAT*%
X116780000Y-61087500D03*
%TO.N,5V*%
X95270000Y-59290000D03*
X96610000Y-57860000D03*
%TO.N,3.3V*%
X115490000Y-76595000D03*
X118440000Y-76585000D03*
%TD*%
D29*
%TO.N,SLN1-*%
X131375000Y-37960000D02*
X129326500Y-35911500D01*
X129326500Y-35911500D02*
X129326500Y-29049500D01*
X125770000Y-44070000D02*
X126590000Y-44070000D01*
X132700000Y-37960000D02*
X131375000Y-37960000D01*
X126590000Y-44070000D02*
X132700000Y-37960000D01*
%TO.N,SLN2-*%
X112252500Y-44212500D02*
X118182500Y-38282500D01*
X118182500Y-38282500D02*
X119112500Y-38282500D01*
X115816500Y-36311500D02*
X117787500Y-38282500D01*
X117787500Y-38282500D02*
X119112500Y-38282500D01*
X115816500Y-29081500D02*
X115816500Y-36311500D01*
%TO.N,SLN3-*%
X105213156Y-37940000D02*
X105540000Y-37940000D01*
X102462000Y-29296000D02*
X102462000Y-35188844D01*
X102462000Y-35188844D02*
X105213156Y-37940000D01*
X98820000Y-44560000D02*
X105360000Y-38020000D01*
%TO.N,SLN4-*%
X85490000Y-43820000D02*
X92030000Y-37280000D01*
X90705000Y-37280000D02*
X92030000Y-37280000D01*
X85490000Y-44190000D02*
X85490000Y-43820000D01*
X89041000Y-35616000D02*
X90705000Y-37280000D01*
X89041000Y-29040000D02*
X89041000Y-35616000D01*
D30*
%TO.N,VBAT*%
X118190000Y-61087500D02*
X116547500Y-61087500D01*
X116547500Y-61087500D02*
X116520000Y-61060000D01*
%TO.N,5V*%
X95270000Y-59290000D02*
X95270000Y-59200000D01*
X95270000Y-59200000D02*
X96610000Y-57860000D01*
D31*
%TO.N,3.3V*%
X130779000Y-58040000D02*
X107610000Y-58040000D01*
D30*
X118430000Y-76595000D02*
X118440000Y-76585000D01*
D31*
X115490000Y-76595000D02*
X118430000Y-76595000D01*
X130907000Y-57912000D02*
X130779000Y-58040000D01*
%TD*%
%TA.AperFunction,Conductor*%
%TO.N,GND*%
G36*
X143035652Y-18070072D02*
G01*
X143081407Y-18122876D01*
X143092613Y-18174387D01*
X143092613Y-82906060D01*
X143072928Y-82973099D01*
X143020124Y-83018854D01*
X142968670Y-83030060D01*
X101068974Y-83049387D01*
X78217613Y-83049387D01*
X78150574Y-83029702D01*
X78104819Y-82976898D01*
X78093613Y-82925387D01*
X78093613Y-77918711D01*
X82289500Y-77918711D01*
X82289500Y-78161288D01*
X82313523Y-78343768D01*
X82321162Y-78401789D01*
X82332898Y-78445588D01*
X82383947Y-78636104D01*
X82476773Y-78860205D01*
X82476777Y-78860214D01*
X82491082Y-78884991D01*
X82598064Y-79070289D01*
X82598066Y-79070292D01*
X82598067Y-79070293D01*
X82745733Y-79262736D01*
X82745739Y-79262743D01*
X82917256Y-79434260D01*
X82917262Y-79434265D01*
X83109711Y-79581936D01*
X83319788Y-79703224D01*
X83543900Y-79796054D01*
X83778211Y-79858838D01*
X83958586Y-79882584D01*
X84018711Y-79890500D01*
X84018712Y-79890500D01*
X84261289Y-79890500D01*
X84309388Y-79884167D01*
X84501789Y-79858838D01*
X84736100Y-79796054D01*
X84960212Y-79703224D01*
X85170289Y-79581936D01*
X85362738Y-79434265D01*
X85534265Y-79262738D01*
X85681936Y-79070289D01*
X85803224Y-78860212D01*
X85867522Y-78704983D01*
X96819500Y-78704983D01*
X96819500Y-80055001D01*
X96819501Y-80055018D01*
X96830000Y-80157796D01*
X96830001Y-80157799D01*
X96863021Y-80257445D01*
X96885186Y-80324334D01*
X96977288Y-80473656D01*
X97101344Y-80597712D01*
X97250666Y-80689814D01*
X97417203Y-80744999D01*
X97519991Y-80755500D01*
X98320008Y-80755499D01*
X98320016Y-80755498D01*
X98320019Y-80755498D01*
X98376302Y-80749748D01*
X98422797Y-80744999D01*
X98589334Y-80689814D01*
X98609890Y-80677135D01*
X106314500Y-80677135D01*
X106314500Y-81622870D01*
X106314501Y-81622876D01*
X106320908Y-81682483D01*
X106371202Y-81817328D01*
X106371206Y-81817335D01*
X106457452Y-81932544D01*
X106457455Y-81932547D01*
X106572664Y-82018793D01*
X106572671Y-82018797D01*
X106707517Y-82069091D01*
X106707516Y-82069091D01*
X106714444Y-82069835D01*
X106767127Y-82075500D01*
X107712872Y-82075499D01*
X107772483Y-82069091D01*
X107907331Y-82018796D01*
X108022546Y-81932546D01*
X108108796Y-81817331D01*
X108159091Y-81682483D01*
X108165500Y-81622873D01*
X108165499Y-80677128D01*
X108159091Y-80617517D01*
X108151704Y-80597712D01*
X108108797Y-80482671D01*
X108108793Y-80482664D01*
X108022547Y-80367455D01*
X108022544Y-80367452D01*
X107907335Y-80281206D01*
X107907328Y-80281202D01*
X107772482Y-80230908D01*
X107772483Y-80230908D01*
X107712883Y-80224501D01*
X107712881Y-80224500D01*
X107712873Y-80224500D01*
X107712864Y-80224500D01*
X106767129Y-80224500D01*
X106767123Y-80224501D01*
X106707516Y-80230908D01*
X106572671Y-80281202D01*
X106572664Y-80281206D01*
X106457455Y-80367452D01*
X106457452Y-80367455D01*
X106371206Y-80482664D01*
X106371202Y-80482671D01*
X106320908Y-80617517D01*
X106314501Y-80677116D01*
X106314501Y-80677123D01*
X106314500Y-80677135D01*
X98609890Y-80677135D01*
X98738656Y-80597712D01*
X98862712Y-80473656D01*
X98954814Y-80324334D01*
X99009999Y-80157797D01*
X99020500Y-80055009D01*
X99020499Y-78704992D01*
X99009999Y-78602203D01*
X98954814Y-78435666D01*
X98862712Y-78286344D01*
X98738656Y-78162288D01*
X98738655Y-78162287D01*
X98652821Y-78109345D01*
X98589334Y-78070186D01*
X98422797Y-78015001D01*
X98422795Y-78015000D01*
X98345804Y-78007135D01*
X106344500Y-78007135D01*
X106344500Y-78952870D01*
X106344501Y-78952876D01*
X106350908Y-79012483D01*
X106401202Y-79147328D01*
X106401206Y-79147335D01*
X106487452Y-79262544D01*
X106487455Y-79262547D01*
X106602664Y-79348793D01*
X106602671Y-79348797D01*
X106737517Y-79399091D01*
X106737516Y-79399091D01*
X106744444Y-79399835D01*
X106797127Y-79405500D01*
X107742872Y-79405499D01*
X107802483Y-79399091D01*
X107937331Y-79348796D01*
X108052546Y-79262546D01*
X108138796Y-79147331D01*
X108189091Y-79012483D01*
X108195500Y-78952873D01*
X108195500Y-78852483D01*
X114727000Y-78852483D01*
X114727000Y-80202501D01*
X114727001Y-80202518D01*
X114737500Y-80305296D01*
X114737501Y-80305299D01*
X114792685Y-80471831D01*
X114792687Y-80471836D01*
X114812730Y-80504331D01*
X114884788Y-80621156D01*
X115008844Y-80745212D01*
X115158166Y-80837314D01*
X115324703Y-80892499D01*
X115427491Y-80903000D01*
X116227508Y-80902999D01*
X116227516Y-80902998D01*
X116227519Y-80902998D01*
X116283802Y-80897248D01*
X116330297Y-80892499D01*
X116496834Y-80837314D01*
X116646156Y-80745212D01*
X116770212Y-80621156D01*
X116809810Y-80556956D01*
X116861758Y-80510232D01*
X116930720Y-80499009D01*
X116994803Y-80526852D01*
X117003030Y-80534372D01*
X117110572Y-80641914D01*
X117250712Y-80743732D01*
X117405055Y-80822373D01*
X117569799Y-80875902D01*
X117740889Y-80903000D01*
X117740890Y-80903000D01*
X117914110Y-80903000D01*
X117914111Y-80903000D01*
X118085201Y-80875902D01*
X118249945Y-80822373D01*
X118404288Y-80743732D01*
X118544428Y-80641914D01*
X118666914Y-80519428D01*
X118768732Y-80379288D01*
X118847373Y-80224945D01*
X118900902Y-80060201D01*
X118928000Y-79889111D01*
X118928000Y-79165889D01*
X118900902Y-78994799D01*
X118865220Y-78884983D01*
X123659500Y-78884983D01*
X123659500Y-80235001D01*
X123659501Y-80235018D01*
X123670000Y-80337796D01*
X123670001Y-80337799D01*
X123725185Y-80504331D01*
X123725187Y-80504336D01*
X123743713Y-80534372D01*
X123817288Y-80653656D01*
X123941344Y-80777712D01*
X124090666Y-80869814D01*
X124257203Y-80924999D01*
X124359991Y-80935500D01*
X125160008Y-80935499D01*
X125160016Y-80935498D01*
X125160019Y-80935498D01*
X125216302Y-80929748D01*
X125262797Y-80924999D01*
X125429334Y-80869814D01*
X125578656Y-80777712D01*
X125702712Y-80653656D01*
X125742310Y-80589456D01*
X125794258Y-80542732D01*
X125863220Y-80531509D01*
X125927303Y-80559352D01*
X125935530Y-80566872D01*
X126043072Y-80674414D01*
X126183212Y-80776232D01*
X126337555Y-80854873D01*
X126502299Y-80908402D01*
X126673389Y-80935500D01*
X126673390Y-80935500D01*
X126846610Y-80935500D01*
X126846611Y-80935500D01*
X127017701Y-80908402D01*
X127182445Y-80854873D01*
X127336788Y-80776232D01*
X127476928Y-80674414D01*
X127599414Y-80551928D01*
X127701232Y-80411788D01*
X127779873Y-80257445D01*
X127833402Y-80092701D01*
X127860500Y-79921611D01*
X127860500Y-79198389D01*
X127833402Y-79027299D01*
X127779873Y-78862555D01*
X127701232Y-78708212D01*
X127599414Y-78568072D01*
X127476928Y-78445586D01*
X127336788Y-78343768D01*
X127182445Y-78265127D01*
X127017701Y-78211598D01*
X127017699Y-78211597D01*
X127017698Y-78211597D01*
X126886271Y-78190781D01*
X126846611Y-78184500D01*
X126673389Y-78184500D01*
X126633728Y-78190781D01*
X126502302Y-78211597D01*
X126337552Y-78265128D01*
X126183211Y-78343768D01*
X126043073Y-78445585D01*
X125935530Y-78553128D01*
X125874207Y-78586612D01*
X125804515Y-78581628D01*
X125748582Y-78539756D01*
X125742310Y-78530543D01*
X125736194Y-78520628D01*
X125702712Y-78466344D01*
X125578656Y-78342288D01*
X125453559Y-78265128D01*
X125429336Y-78250187D01*
X125429331Y-78250185D01*
X125427862Y-78249698D01*
X125262797Y-78195001D01*
X125262795Y-78195000D01*
X125160010Y-78184500D01*
X124359998Y-78184500D01*
X124359980Y-78184501D01*
X124257203Y-78195000D01*
X124257200Y-78195001D01*
X124090668Y-78250185D01*
X124090663Y-78250187D01*
X123941342Y-78342289D01*
X123817289Y-78466342D01*
X123725187Y-78615663D01*
X123725185Y-78615668D01*
X123705289Y-78675711D01*
X123670001Y-78782203D01*
X123670001Y-78782204D01*
X123670000Y-78782204D01*
X123659500Y-78884983D01*
X118865220Y-78884983D01*
X118847373Y-78830055D01*
X118768732Y-78675712D01*
X118666914Y-78535572D01*
X118544428Y-78413086D01*
X118404288Y-78311268D01*
X118249945Y-78232627D01*
X118085201Y-78179098D01*
X118085199Y-78179097D01*
X118085198Y-78179097D01*
X117953771Y-78158281D01*
X117914111Y-78152000D01*
X117740889Y-78152000D01*
X117701228Y-78158281D01*
X117569802Y-78179097D01*
X117405052Y-78232628D01*
X117250711Y-78311268D01*
X117110573Y-78413085D01*
X117003030Y-78520628D01*
X116941707Y-78554112D01*
X116872015Y-78549128D01*
X116816082Y-78507256D01*
X116809810Y-78498043D01*
X116790258Y-78466344D01*
X116770212Y-78433844D01*
X116646156Y-78309788D01*
X116521059Y-78232628D01*
X116496836Y-78217687D01*
X116496831Y-78217685D01*
X116495362Y-78217198D01*
X116330297Y-78162501D01*
X116330295Y-78162500D01*
X116227510Y-78152000D01*
X115427498Y-78152000D01*
X115427480Y-78152001D01*
X115324703Y-78162500D01*
X115324700Y-78162501D01*
X115158168Y-78217685D01*
X115158163Y-78217687D01*
X115008842Y-78309789D01*
X114884789Y-78433842D01*
X114792687Y-78583163D01*
X114792685Y-78583168D01*
X114781916Y-78615668D01*
X114737501Y-78749703D01*
X114737501Y-78749704D01*
X114737500Y-78749704D01*
X114727000Y-78852483D01*
X108195500Y-78852483D01*
X108195499Y-78466344D01*
X108195499Y-78007129D01*
X108195498Y-78007123D01*
X108195497Y-78007116D01*
X108189091Y-77947517D01*
X108178347Y-77918712D01*
X108178347Y-77918711D01*
X135309500Y-77918711D01*
X135309500Y-78161288D01*
X135333523Y-78343768D01*
X135341162Y-78401789D01*
X135352898Y-78445588D01*
X135403947Y-78636104D01*
X135496773Y-78860205D01*
X135496777Y-78860214D01*
X135511082Y-78884991D01*
X135618064Y-79070289D01*
X135618066Y-79070292D01*
X135618067Y-79070293D01*
X135765733Y-79262736D01*
X135765739Y-79262743D01*
X135937256Y-79434260D01*
X135937262Y-79434265D01*
X136129711Y-79581936D01*
X136339788Y-79703224D01*
X136563900Y-79796054D01*
X136798211Y-79858838D01*
X136978586Y-79882584D01*
X137038711Y-79890500D01*
X137038712Y-79890500D01*
X137281289Y-79890500D01*
X137329388Y-79884167D01*
X137521789Y-79858838D01*
X137756100Y-79796054D01*
X137980212Y-79703224D01*
X138190289Y-79581936D01*
X138382738Y-79434265D01*
X138554265Y-79262738D01*
X138701936Y-79070289D01*
X138823224Y-78860212D01*
X138916054Y-78636100D01*
X138978838Y-78401789D01*
X139010500Y-78161288D01*
X139010500Y-77918712D01*
X138978838Y-77678211D01*
X138916054Y-77443900D01*
X138823224Y-77219788D01*
X138701936Y-77009711D01*
X138554265Y-76817262D01*
X138554260Y-76817256D01*
X138382743Y-76645739D01*
X138382736Y-76645733D01*
X138190293Y-76498067D01*
X138190292Y-76498066D01*
X138190289Y-76498064D01*
X137980212Y-76376776D01*
X137980205Y-76376773D01*
X137756104Y-76283947D01*
X137521785Y-76221161D01*
X137281289Y-76189500D01*
X137281288Y-76189500D01*
X137038712Y-76189500D01*
X137038711Y-76189500D01*
X136798214Y-76221161D01*
X136563895Y-76283947D01*
X136339794Y-76376773D01*
X136339785Y-76376777D01*
X136157851Y-76481817D01*
X136132760Y-76496304D01*
X136129706Y-76498067D01*
X135937263Y-76645733D01*
X135937256Y-76645739D01*
X135765739Y-76817256D01*
X135765733Y-76817263D01*
X135618067Y-77009706D01*
X135618064Y-77009710D01*
X135618064Y-77009711D01*
X135611227Y-77021553D01*
X135496777Y-77219785D01*
X135496773Y-77219794D01*
X135403947Y-77443895D01*
X135341161Y-77678214D01*
X135309500Y-77918711D01*
X108178347Y-77918711D01*
X108138797Y-77812671D01*
X108138793Y-77812664D01*
X108052547Y-77697455D01*
X108052544Y-77697452D01*
X107937335Y-77611206D01*
X107937328Y-77611202D01*
X107802482Y-77560908D01*
X107802483Y-77560908D01*
X107742883Y-77554501D01*
X107742881Y-77554500D01*
X107742873Y-77554500D01*
X107742864Y-77554500D01*
X106797129Y-77554500D01*
X106797123Y-77554501D01*
X106737516Y-77560908D01*
X106602671Y-77611202D01*
X106602664Y-77611206D01*
X106487455Y-77697452D01*
X106487452Y-77697455D01*
X106401206Y-77812664D01*
X106401202Y-77812671D01*
X106350908Y-77947517D01*
X106344782Y-78004500D01*
X106344501Y-78007123D01*
X106344500Y-78007135D01*
X98345804Y-78007135D01*
X98320010Y-78004500D01*
X97519998Y-78004500D01*
X97519980Y-78004501D01*
X97417203Y-78015000D01*
X97417200Y-78015001D01*
X97250668Y-78070185D01*
X97250663Y-78070187D01*
X97101342Y-78162289D01*
X96977289Y-78286342D01*
X96885187Y-78435663D01*
X96885186Y-78435666D01*
X96830001Y-78602203D01*
X96830001Y-78602204D01*
X96830000Y-78602204D01*
X96819500Y-78704983D01*
X85867522Y-78704983D01*
X85896054Y-78636100D01*
X85958838Y-78401789D01*
X85990500Y-78161288D01*
X85990500Y-77918712D01*
X85958838Y-77678211D01*
X85896054Y-77443900D01*
X85803224Y-77219788D01*
X85681936Y-77009711D01*
X85534265Y-76817262D01*
X85534260Y-76817256D01*
X85362743Y-76645739D01*
X85362736Y-76645733D01*
X85301302Y-76598593D01*
X85181028Y-76506304D01*
X114589500Y-76506304D01*
X114589500Y-76683695D01*
X114624103Y-76857658D01*
X114624106Y-76857667D01*
X114691983Y-77021540D01*
X114691990Y-77021553D01*
X114790535Y-77169034D01*
X114790538Y-77169038D01*
X114915961Y-77294461D01*
X114915965Y-77294464D01*
X115063446Y-77393009D01*
X115063459Y-77393016D01*
X115186294Y-77443895D01*
X115227334Y-77460894D01*
X115227336Y-77460894D01*
X115227341Y-77460896D01*
X115401304Y-77495499D01*
X115401307Y-77495500D01*
X115401309Y-77495500D01*
X115578693Y-77495500D01*
X115578694Y-77495499D01*
X115636682Y-77483964D01*
X115752658Y-77460896D01*
X115752661Y-77460894D01*
X115752666Y-77460894D01*
X115916547Y-77393013D01*
X116064035Y-77294464D01*
X116064038Y-77294461D01*
X116076681Y-77281819D01*
X116138004Y-77248334D01*
X116164362Y-77245500D01*
X117775638Y-77245500D01*
X117842677Y-77265185D01*
X117863319Y-77281819D01*
X117865961Y-77284461D01*
X117865965Y-77284464D01*
X118013446Y-77383009D01*
X118013459Y-77383016D01*
X118136363Y-77433923D01*
X118177334Y-77450894D01*
X118177336Y-77450894D01*
X118177341Y-77450896D01*
X118351304Y-77485499D01*
X118351307Y-77485500D01*
X118351309Y-77485500D01*
X118528693Y-77485500D01*
X118528694Y-77485499D01*
X118586682Y-77473964D01*
X118702658Y-77450896D01*
X118702661Y-77450894D01*
X118702666Y-77450894D01*
X118866547Y-77383013D01*
X119014035Y-77284464D01*
X119139464Y-77159035D01*
X119238013Y-77011547D01*
X119238774Y-77009711D01*
X119301751Y-76857667D01*
X119305894Y-76847666D01*
X119340500Y-76673691D01*
X119340500Y-76496309D01*
X119340500Y-76496306D01*
X119340499Y-76496304D01*
X119305896Y-76322341D01*
X119305893Y-76322332D01*
X119238016Y-76158459D01*
X119238009Y-76158446D01*
X119139464Y-76010965D01*
X119139461Y-76010961D01*
X119014038Y-75885538D01*
X119014034Y-75885535D01*
X118866553Y-75786990D01*
X118866540Y-75786983D01*
X118702667Y-75719106D01*
X118702658Y-75719103D01*
X118528694Y-75684500D01*
X118528691Y-75684500D01*
X118351309Y-75684500D01*
X118351306Y-75684500D01*
X118177341Y-75719103D01*
X118177332Y-75719106D01*
X118013459Y-75786983D01*
X118013446Y-75786990D01*
X117865965Y-75885535D01*
X117865961Y-75885538D01*
X117843319Y-75908181D01*
X117781996Y-75941666D01*
X117755638Y-75944500D01*
X116164362Y-75944500D01*
X116097323Y-75924815D01*
X116076681Y-75908181D01*
X116064038Y-75895538D01*
X116064034Y-75895535D01*
X115916553Y-75796990D01*
X115916540Y-75796983D01*
X115752667Y-75729106D01*
X115752658Y-75729103D01*
X115578694Y-75694500D01*
X115578691Y-75694500D01*
X115401309Y-75694500D01*
X115401306Y-75694500D01*
X115227341Y-75729103D01*
X115227332Y-75729106D01*
X115063459Y-75796983D01*
X115063446Y-75796990D01*
X114915965Y-75895535D01*
X114915961Y-75895538D01*
X114790538Y-76020961D01*
X114790535Y-76020965D01*
X114691990Y-76168446D01*
X114691983Y-76168459D01*
X114624106Y-76332332D01*
X114624103Y-76332341D01*
X114589500Y-76506304D01*
X85181028Y-76506304D01*
X85170293Y-76498067D01*
X85170292Y-76498066D01*
X85170289Y-76498064D01*
X84960212Y-76376776D01*
X84960205Y-76376773D01*
X84736104Y-76283947D01*
X84501785Y-76221161D01*
X84261289Y-76189500D01*
X84261288Y-76189500D01*
X84018712Y-76189500D01*
X84018711Y-76189500D01*
X83778214Y-76221161D01*
X83543895Y-76283947D01*
X83319794Y-76376773D01*
X83319785Y-76376777D01*
X83137851Y-76481817D01*
X83112760Y-76496304D01*
X83109706Y-76498067D01*
X82917263Y-76645733D01*
X82917256Y-76645739D01*
X82745739Y-76817256D01*
X82745733Y-76817263D01*
X82598067Y-77009706D01*
X82598064Y-77009710D01*
X82598064Y-77009711D01*
X82591227Y-77021553D01*
X82476777Y-77219785D01*
X82476773Y-77219794D01*
X82383947Y-77443895D01*
X82321161Y-77678214D01*
X82289500Y-77918711D01*
X78093613Y-77918711D01*
X78093613Y-70321304D01*
X88679500Y-70321304D01*
X88679500Y-70498695D01*
X88714103Y-70672658D01*
X88714106Y-70672667D01*
X88781984Y-70836542D01*
X88781988Y-70836549D01*
X88782292Y-70837004D01*
X88782377Y-70837278D01*
X88784856Y-70841914D01*
X88783976Y-70842384D01*
X88803167Y-70903682D01*
X88793749Y-70953341D01*
X88734106Y-71097334D01*
X88734105Y-71097338D01*
X88734104Y-71097341D01*
X88734103Y-71097341D01*
X88699500Y-71271304D01*
X88699500Y-71448695D01*
X88734103Y-71622658D01*
X88734106Y-71622667D01*
X88801983Y-71786540D01*
X88801990Y-71786553D01*
X88805037Y-71791113D01*
X88825912Y-71857792D01*
X88807425Y-71925171D01*
X88805037Y-71928887D01*
X88801990Y-71933446D01*
X88801983Y-71933459D01*
X88734106Y-72097332D01*
X88734103Y-72097341D01*
X88699500Y-72271304D01*
X88699500Y-72448695D01*
X88734103Y-72622658D01*
X88734106Y-72622667D01*
X88801983Y-72786540D01*
X88801990Y-72786553D01*
X88805037Y-72791113D01*
X88825912Y-72857792D01*
X88807425Y-72925171D01*
X88805037Y-72928887D01*
X88801990Y-72933446D01*
X88801983Y-72933459D01*
X88734106Y-73097332D01*
X88734103Y-73097341D01*
X88699500Y-73271304D01*
X88699500Y-73448695D01*
X88734103Y-73622658D01*
X88734106Y-73622667D01*
X88801983Y-73786540D01*
X88801990Y-73786553D01*
X88900535Y-73934034D01*
X88900538Y-73934038D01*
X89025961Y-74059461D01*
X89025965Y-74059464D01*
X89173446Y-74158009D01*
X89173459Y-74158016D01*
X89296363Y-74208923D01*
X89337334Y-74225894D01*
X89337336Y-74225894D01*
X89337341Y-74225896D01*
X89511304Y-74260499D01*
X89511307Y-74260500D01*
X89511309Y-74260500D01*
X89688693Y-74260500D01*
X89688694Y-74260499D01*
X89762125Y-74245893D01*
X89862658Y-74225896D01*
X89862661Y-74225894D01*
X89862666Y-74225894D01*
X90026547Y-74158013D01*
X90031107Y-74154965D01*
X90097783Y-74134086D01*
X90165163Y-74152569D01*
X90168867Y-74154948D01*
X90173453Y-74158013D01*
X90173455Y-74158014D01*
X90173457Y-74158015D01*
X90221745Y-74178016D01*
X90337334Y-74225894D01*
X90337336Y-74225894D01*
X90337341Y-74225896D01*
X90511304Y-74260499D01*
X90511307Y-74260500D01*
X90511309Y-74260500D01*
X90688693Y-74260500D01*
X90688694Y-74260499D01*
X90762125Y-74245893D01*
X90862658Y-74225896D01*
X90862661Y-74225894D01*
X90862666Y-74225894D01*
X91026547Y-74158013D01*
X91031107Y-74154965D01*
X91097783Y-74134086D01*
X91165163Y-74152569D01*
X91168867Y-74154948D01*
X91173453Y-74158013D01*
X91173455Y-74158014D01*
X91173457Y-74158015D01*
X91221745Y-74178016D01*
X91337334Y-74225894D01*
X91337336Y-74225894D01*
X91337341Y-74225896D01*
X91511304Y-74260499D01*
X91511307Y-74260500D01*
X91511309Y-74260500D01*
X91688693Y-74260500D01*
X91688694Y-74260499D01*
X91762125Y-74245893D01*
X91862658Y-74225896D01*
X91862660Y-74225895D01*
X91862666Y-74225894D01*
X92026547Y-74158013D01*
X92026550Y-74158010D01*
X92031349Y-74156023D01*
X92100819Y-74148554D01*
X92147691Y-74167481D01*
X92163453Y-74178013D01*
X92163456Y-74178014D01*
X92163457Y-74178015D01*
X92272707Y-74223267D01*
X92327334Y-74245894D01*
X92327336Y-74245894D01*
X92327341Y-74245896D01*
X92501304Y-74280499D01*
X92501307Y-74280500D01*
X92501309Y-74280500D01*
X92678693Y-74280500D01*
X92678694Y-74280499D01*
X92736682Y-74268964D01*
X92852658Y-74245896D01*
X92852661Y-74245894D01*
X92852666Y-74245894D01*
X93016547Y-74178013D01*
X93164035Y-74079464D01*
X93289464Y-73954035D01*
X93388013Y-73806547D01*
X93455894Y-73642666D01*
X93459873Y-73622666D01*
X93490499Y-73468695D01*
X93490500Y-73468693D01*
X93490500Y-73291306D01*
X93490499Y-73291304D01*
X93455896Y-73117341D01*
X93455893Y-73117332D01*
X93388015Y-72953457D01*
X93388014Y-72953455D01*
X93388013Y-72953453D01*
X93384965Y-72948892D01*
X93364086Y-72882217D01*
X93382569Y-72814837D01*
X93384948Y-72811132D01*
X93388013Y-72806547D01*
X93455894Y-72642666D01*
X93459873Y-72622666D01*
X93490499Y-72468695D01*
X93490500Y-72468693D01*
X93490500Y-72291306D01*
X93490499Y-72291304D01*
X93455896Y-72117341D01*
X93455893Y-72117332D01*
X93443555Y-72087546D01*
X93395834Y-71972335D01*
X93388015Y-71953457D01*
X93388014Y-71953455D01*
X93388013Y-71953453D01*
X93384965Y-71948892D01*
X93364086Y-71882217D01*
X93382569Y-71814837D01*
X93384948Y-71811132D01*
X93388013Y-71806547D01*
X93455894Y-71642666D01*
X93459873Y-71622666D01*
X93490499Y-71468695D01*
X93490500Y-71468693D01*
X93490500Y-71291306D01*
X93490499Y-71291304D01*
X93455896Y-71117341D01*
X93455894Y-71117338D01*
X93455894Y-71117334D01*
X93406106Y-70997135D01*
X94994500Y-70997135D01*
X94994500Y-71942870D01*
X94994501Y-71942876D01*
X95000908Y-72002483D01*
X95051202Y-72137328D01*
X95051206Y-72137335D01*
X95137452Y-72252544D01*
X95137455Y-72252547D01*
X95252664Y-72338793D01*
X95252671Y-72338797D01*
X95387517Y-72389091D01*
X95387516Y-72389091D01*
X95394444Y-72389835D01*
X95447127Y-72395500D01*
X96392872Y-72395499D01*
X96452483Y-72389091D01*
X96587331Y-72338796D01*
X96702546Y-72252546D01*
X96788796Y-72137331D01*
X96839091Y-72002483D01*
X96845500Y-71942873D01*
X96845499Y-71617135D01*
X103524500Y-71617135D01*
X103524500Y-72562870D01*
X103524501Y-72562876D01*
X103530908Y-72622483D01*
X103581202Y-72757328D01*
X103581206Y-72757335D01*
X103667452Y-72872544D01*
X103667455Y-72872547D01*
X103782664Y-72958793D01*
X103782671Y-72958797D01*
X103917517Y-73009091D01*
X103917516Y-73009091D01*
X103924444Y-73009835D01*
X103977127Y-73015500D01*
X104922872Y-73015499D01*
X104982483Y-73009091D01*
X105117331Y-72958796D01*
X105232546Y-72872546D01*
X105318796Y-72757331D01*
X105369091Y-72622483D01*
X105375500Y-72562873D01*
X105375499Y-71617128D01*
X105369091Y-71557517D01*
X105360319Y-71533999D01*
X105318797Y-71422671D01*
X105318793Y-71422664D01*
X105232547Y-71307455D01*
X105232544Y-71307452D01*
X105117335Y-71221206D01*
X105117328Y-71221202D01*
X104982482Y-71170908D01*
X104982483Y-71170908D01*
X104922883Y-71164501D01*
X104922881Y-71164500D01*
X104922873Y-71164500D01*
X104922864Y-71164500D01*
X103977129Y-71164500D01*
X103977123Y-71164501D01*
X103917516Y-71170908D01*
X103782671Y-71221202D01*
X103782664Y-71221206D01*
X103667455Y-71307452D01*
X103667452Y-71307455D01*
X103581206Y-71422664D01*
X103581202Y-71422671D01*
X103530908Y-71557517D01*
X103524857Y-71613805D01*
X103524501Y-71617123D01*
X103524500Y-71617135D01*
X96845499Y-71617135D01*
X96845499Y-71468695D01*
X96845499Y-70997129D01*
X96845498Y-70997123D01*
X96845497Y-70997116D01*
X96839091Y-70937517D01*
X96839091Y-70937516D01*
X96792342Y-70812174D01*
X96788797Y-70802672D01*
X96788797Y-70802671D01*
X96788796Y-70802669D01*
X96788794Y-70802666D01*
X96788793Y-70802664D01*
X96767120Y-70773713D01*
X126289500Y-70773713D01*
X126289500Y-70986286D01*
X126317726Y-71164501D01*
X126322754Y-71196243D01*
X126353641Y-71291304D01*
X126388444Y-71398414D01*
X126484951Y-71587820D01*
X126609890Y-71759786D01*
X126760213Y-71910109D01*
X126932179Y-72035048D01*
X126932181Y-72035049D01*
X126932184Y-72035051D01*
X127121588Y-72131557D01*
X127323757Y-72197246D01*
X127533713Y-72230500D01*
X127533714Y-72230500D01*
X127746286Y-72230500D01*
X127746287Y-72230500D01*
X127956243Y-72197246D01*
X128158412Y-72131557D01*
X128347816Y-72035051D01*
X128434138Y-71972335D01*
X128519786Y-71910109D01*
X128519788Y-71910106D01*
X128519792Y-71910104D01*
X128670104Y-71759792D01*
X128670106Y-71759788D01*
X128670109Y-71759786D01*
X128795048Y-71587820D01*
X128795047Y-71587820D01*
X128795051Y-71587816D01*
X128799514Y-71579054D01*
X128847488Y-71528259D01*
X128915308Y-71511463D01*
X128981444Y-71533999D01*
X129020486Y-71579056D01*
X129024951Y-71587820D01*
X129149890Y-71759786D01*
X129300213Y-71910109D01*
X129472179Y-72035048D01*
X129472181Y-72035049D01*
X129472184Y-72035051D01*
X129661588Y-72131557D01*
X129863757Y-72197246D01*
X130073713Y-72230500D01*
X130073714Y-72230500D01*
X130286286Y-72230500D01*
X130286287Y-72230500D01*
X130496243Y-72197246D01*
X130698412Y-72131557D01*
X130887816Y-72035051D01*
X131014689Y-71942873D01*
X131059784Y-71910110D01*
X131059784Y-71910109D01*
X131059792Y-71910104D01*
X131173329Y-71796566D01*
X131234648Y-71763084D01*
X131304340Y-71768068D01*
X131360274Y-71809939D01*
X131377189Y-71840917D01*
X131426202Y-71972328D01*
X131426206Y-71972335D01*
X131512452Y-72087544D01*
X131512455Y-72087547D01*
X131627664Y-72173793D01*
X131627671Y-72173797D01*
X131762517Y-72224091D01*
X131762516Y-72224091D01*
X131769444Y-72224835D01*
X131822127Y-72230500D01*
X133617872Y-72230499D01*
X133677483Y-72224091D01*
X133812331Y-72173796D01*
X133927546Y-72087546D01*
X134013796Y-71972331D01*
X134064091Y-71837483D01*
X134070500Y-71777873D01*
X134070499Y-69982128D01*
X134064091Y-69922517D01*
X134062810Y-69919083D01*
X134013797Y-69787671D01*
X134013793Y-69787664D01*
X133927547Y-69672455D01*
X133927544Y-69672452D01*
X133812335Y-69586206D01*
X133812328Y-69586202D01*
X133677482Y-69535908D01*
X133677483Y-69535908D01*
X133617883Y-69529501D01*
X133617881Y-69529500D01*
X133617873Y-69529500D01*
X133617864Y-69529500D01*
X131822129Y-69529500D01*
X131822123Y-69529501D01*
X131762516Y-69535908D01*
X131627671Y-69586202D01*
X131627664Y-69586206D01*
X131512455Y-69672452D01*
X131512452Y-69672455D01*
X131426206Y-69787664D01*
X131426203Y-69787669D01*
X131377189Y-69919083D01*
X131335317Y-69975016D01*
X131269853Y-69999433D01*
X131201580Y-69984581D01*
X131173326Y-69963430D01*
X131059786Y-69849890D01*
X130887820Y-69724951D01*
X130698414Y-69628444D01*
X130698413Y-69628443D01*
X130698412Y-69628443D01*
X130496243Y-69562754D01*
X130496241Y-69562753D01*
X130496240Y-69562753D01*
X130334957Y-69537208D01*
X130286287Y-69529500D01*
X130073713Y-69529500D01*
X130025042Y-69537208D01*
X129863760Y-69562753D01*
X129661585Y-69628444D01*
X129472179Y-69724951D01*
X129300213Y-69849890D01*
X129149890Y-70000213D01*
X129024949Y-70172182D01*
X129020484Y-70180946D01*
X128972509Y-70231742D01*
X128904688Y-70248536D01*
X128838553Y-70225998D01*
X128799516Y-70180946D01*
X128795050Y-70172182D01*
X128670109Y-70000213D01*
X128519786Y-69849890D01*
X128347820Y-69724951D01*
X128158414Y-69628444D01*
X128158413Y-69628443D01*
X128158412Y-69628443D01*
X127956243Y-69562754D01*
X127956241Y-69562753D01*
X127956240Y-69562753D01*
X127794957Y-69537208D01*
X127746287Y-69529500D01*
X127533713Y-69529500D01*
X127485042Y-69537208D01*
X127323760Y-69562753D01*
X127121585Y-69628444D01*
X126932179Y-69724951D01*
X126760213Y-69849890D01*
X126609890Y-70000213D01*
X126484951Y-70172179D01*
X126388444Y-70361585D01*
X126322753Y-70563760D01*
X126289500Y-70773713D01*
X96767120Y-70773713D01*
X96702547Y-70687455D01*
X96702544Y-70687452D01*
X96587335Y-70601206D01*
X96587328Y-70601202D01*
X96452482Y-70550908D01*
X96452483Y-70550908D01*
X96392883Y-70544501D01*
X96392881Y-70544500D01*
X96392873Y-70544500D01*
X96392864Y-70544500D01*
X95447129Y-70544500D01*
X95447123Y-70544501D01*
X95387516Y-70550908D01*
X95252671Y-70601202D01*
X95252664Y-70601206D01*
X95137455Y-70687452D01*
X95137452Y-70687455D01*
X95051206Y-70802664D01*
X95051202Y-70802671D01*
X95000908Y-70937517D01*
X94995665Y-70986287D01*
X94994501Y-70997123D01*
X94994500Y-70997135D01*
X93406106Y-70997135D01*
X93388013Y-70953453D01*
X93381645Y-70943923D01*
X93377262Y-70933933D01*
X93374142Y-70909675D01*
X93366832Y-70886334D01*
X93369399Y-70872790D01*
X93368351Y-70864634D01*
X93372671Y-70855534D01*
X93376251Y-70836658D01*
X93376299Y-70836542D01*
X93435894Y-70692666D01*
X93436932Y-70687452D01*
X93470499Y-70518695D01*
X93470500Y-70518693D01*
X93470500Y-70341306D01*
X93470499Y-70341304D01*
X93435896Y-70167341D01*
X93435893Y-70167332D01*
X93368016Y-70003459D01*
X93368009Y-70003446D01*
X93269464Y-69855965D01*
X93269461Y-69855961D01*
X93144038Y-69730538D01*
X93144034Y-69730535D01*
X92996553Y-69631990D01*
X92996540Y-69631983D01*
X92832667Y-69564106D01*
X92832658Y-69564103D01*
X92658694Y-69529500D01*
X92658691Y-69529500D01*
X92481309Y-69529500D01*
X92481306Y-69529500D01*
X92307341Y-69564103D01*
X92307332Y-69564106D01*
X92138649Y-69633976D01*
X92069179Y-69641445D01*
X92022308Y-69622518D01*
X92006547Y-69611987D01*
X92006543Y-69611985D01*
X92006541Y-69611984D01*
X92006542Y-69611984D01*
X91842667Y-69544106D01*
X91842658Y-69544103D01*
X91668694Y-69509500D01*
X91668691Y-69509500D01*
X91491309Y-69509500D01*
X91491306Y-69509500D01*
X91317341Y-69544103D01*
X91317332Y-69544106D01*
X91153459Y-69611983D01*
X91153446Y-69611990D01*
X91148887Y-69615037D01*
X91082208Y-69635912D01*
X91014829Y-69617425D01*
X91011113Y-69615037D01*
X91006553Y-69611990D01*
X91006540Y-69611983D01*
X90842667Y-69544106D01*
X90842658Y-69544103D01*
X90668694Y-69509500D01*
X90668691Y-69509500D01*
X90491309Y-69509500D01*
X90491306Y-69509500D01*
X90317341Y-69544103D01*
X90317332Y-69544106D01*
X90153459Y-69611983D01*
X90153446Y-69611990D01*
X90148887Y-69615037D01*
X90082208Y-69635912D01*
X90014829Y-69617425D01*
X90011113Y-69615037D01*
X90006553Y-69611990D01*
X90006540Y-69611983D01*
X89842667Y-69544106D01*
X89842658Y-69544103D01*
X89668694Y-69509500D01*
X89668691Y-69509500D01*
X89491309Y-69509500D01*
X89491306Y-69509500D01*
X89317341Y-69544103D01*
X89317332Y-69544106D01*
X89153459Y-69611983D01*
X89153446Y-69611990D01*
X89005965Y-69710535D01*
X89005961Y-69710538D01*
X88880538Y-69835961D01*
X88880535Y-69835965D01*
X88781990Y-69983446D01*
X88781983Y-69983459D01*
X88714106Y-70147332D01*
X88714103Y-70147341D01*
X88679500Y-70321304D01*
X78093613Y-70321304D01*
X78093613Y-64839635D01*
X82159500Y-64839635D01*
X82159500Y-66840370D01*
X82159501Y-66840376D01*
X82165908Y-66899983D01*
X82216202Y-67034828D01*
X82216206Y-67034835D01*
X82302452Y-67150044D01*
X82302455Y-67150047D01*
X82417664Y-67236293D01*
X82417671Y-67236297D01*
X82552517Y-67286591D01*
X82552516Y-67286591D01*
X82559444Y-67287335D01*
X82612127Y-67293000D01*
X84707872Y-67292999D01*
X84767483Y-67286591D01*
X84902331Y-67236296D01*
X85017546Y-67150046D01*
X85103796Y-67034831D01*
X85154091Y-66899983D01*
X85160500Y-66840373D01*
X85160499Y-64839628D01*
X85154091Y-64780017D01*
X85153285Y-64777858D01*
X85151153Y-64772138D01*
X85136233Y-64732135D01*
X86889500Y-64732135D01*
X86889500Y-66427870D01*
X86889501Y-66427876D01*
X86895908Y-66487483D01*
X86946202Y-66622328D01*
X86946206Y-66622335D01*
X87032452Y-66737544D01*
X87032455Y-66737547D01*
X87147664Y-66823793D01*
X87147671Y-66823797D01*
X87282517Y-66874091D01*
X87282516Y-66874091D01*
X87289444Y-66874835D01*
X87342127Y-66880500D01*
X89037872Y-66880499D01*
X89097483Y-66874091D01*
X89232331Y-66823796D01*
X89347546Y-66737546D01*
X89433796Y-66622331D01*
X89484091Y-66487483D01*
X89490500Y-66427873D01*
X89490499Y-64732128D01*
X89484091Y-64672517D01*
X89474405Y-64646548D01*
X89433797Y-64537671D01*
X89433793Y-64537664D01*
X89347547Y-64422455D01*
X89347544Y-64422452D01*
X89232335Y-64336206D01*
X89232328Y-64336202D01*
X89097482Y-64285908D01*
X89097483Y-64285908D01*
X89037883Y-64279501D01*
X89037881Y-64279500D01*
X89037873Y-64279500D01*
X89037864Y-64279500D01*
X87342129Y-64279500D01*
X87342123Y-64279501D01*
X87282516Y-64285908D01*
X87147671Y-64336202D01*
X87147664Y-64336206D01*
X87032455Y-64422452D01*
X87032452Y-64422455D01*
X86946206Y-64537664D01*
X86946202Y-64537671D01*
X86895908Y-64672517D01*
X86889501Y-64732116D01*
X86889501Y-64732123D01*
X86889500Y-64732135D01*
X85136233Y-64732135D01*
X85103797Y-64645171D01*
X85103793Y-64645164D01*
X85017547Y-64529955D01*
X85017544Y-64529952D01*
X84902335Y-64443706D01*
X84902328Y-64443702D01*
X84767482Y-64393408D01*
X84767483Y-64393408D01*
X84707883Y-64387001D01*
X84707881Y-64387000D01*
X84707873Y-64387000D01*
X84707864Y-64387000D01*
X82612129Y-64387000D01*
X82612123Y-64387001D01*
X82552516Y-64393408D01*
X82417671Y-64443702D01*
X82417664Y-64443706D01*
X82302455Y-64529952D01*
X82302452Y-64529955D01*
X82216206Y-64645164D01*
X82216202Y-64645171D01*
X82165908Y-64780017D01*
X82159501Y-64839616D01*
X82159501Y-64839623D01*
X82159500Y-64839635D01*
X78093613Y-64839635D01*
X78093613Y-60645646D01*
X82159500Y-60645646D01*
X82159500Y-60874353D01*
X82195278Y-61100246D01*
X82195278Y-61100249D01*
X82265950Y-61317755D01*
X82295773Y-61376286D01*
X82369783Y-61521538D01*
X82504214Y-61706566D01*
X82665934Y-61868286D01*
X82850962Y-62002717D01*
X83042166Y-62100140D01*
X83054744Y-62106549D01*
X83272251Y-62177221D01*
X83272252Y-62177221D01*
X83272255Y-62177222D01*
X83498146Y-62213000D01*
X83498147Y-62213000D01*
X83821853Y-62213000D01*
X83821854Y-62213000D01*
X84047745Y-62177222D01*
X84047748Y-62177221D01*
X84047749Y-62177221D01*
X84265255Y-62106549D01*
X84265255Y-62106548D01*
X84265258Y-62106548D01*
X84469038Y-62002717D01*
X84654066Y-61868286D01*
X84815786Y-61706566D01*
X84950217Y-61521538D01*
X85033984Y-61357135D01*
X92414500Y-61357135D01*
X92414500Y-62302870D01*
X92414501Y-62302876D01*
X92420908Y-62362483D01*
X92471202Y-62497328D01*
X92471206Y-62497335D01*
X92557452Y-62612544D01*
X92557455Y-62612547D01*
X92672664Y-62698793D01*
X92672671Y-62698797D01*
X92807517Y-62749091D01*
X92807516Y-62749091D01*
X92814444Y-62749835D01*
X92867127Y-62755500D01*
X93812872Y-62755499D01*
X93872483Y-62749091D01*
X94007331Y-62698796D01*
X94122546Y-62612546D01*
X94208796Y-62497331D01*
X94259091Y-62362483D01*
X94265500Y-62302873D01*
X94265499Y-61357128D01*
X94259091Y-61297517D01*
X94220145Y-61193098D01*
X94208797Y-61162671D01*
X94208793Y-61162664D01*
X94122547Y-61047455D01*
X94122544Y-61047452D01*
X94007335Y-60961206D01*
X94007328Y-60961202D01*
X93872482Y-60910908D01*
X93872483Y-60910908D01*
X93812883Y-60904501D01*
X93812881Y-60904500D01*
X93812873Y-60904500D01*
X93812864Y-60904500D01*
X92867129Y-60904500D01*
X92867123Y-60904501D01*
X92807516Y-60910908D01*
X92672671Y-60961202D01*
X92672664Y-60961206D01*
X92557455Y-61047452D01*
X92557452Y-61047455D01*
X92471206Y-61162664D01*
X92471202Y-61162671D01*
X92420908Y-61297517D01*
X92415249Y-61350158D01*
X92414501Y-61357123D01*
X92414500Y-61357135D01*
X85033984Y-61357135D01*
X85054048Y-61317758D01*
X85054262Y-61317098D01*
X85054785Y-61315492D01*
X85054785Y-61315491D01*
X85054786Y-61315488D01*
X85124721Y-61100249D01*
X85124721Y-61100248D01*
X85124722Y-61100245D01*
X85160500Y-60874354D01*
X85160500Y-60645646D01*
X85124722Y-60419755D01*
X85124721Y-60419751D01*
X85124721Y-60419750D01*
X85054049Y-60202244D01*
X85031143Y-60157288D01*
X84950217Y-59998462D01*
X84815786Y-59813434D01*
X84654066Y-59651714D01*
X84469038Y-59517283D01*
X84430125Y-59497456D01*
X84265255Y-59413450D01*
X84047748Y-59342778D01*
X83878326Y-59315944D01*
X83821854Y-59307000D01*
X83498146Y-59307000D01*
X83422849Y-59318926D01*
X83272253Y-59342778D01*
X83272250Y-59342778D01*
X83054744Y-59413450D01*
X82850961Y-59517283D01*
X82802260Y-59552667D01*
X82665934Y-59651714D01*
X82665932Y-59651716D01*
X82665931Y-59651716D01*
X82504216Y-59813431D01*
X82504216Y-59813432D01*
X82504214Y-59813434D01*
X82467451Y-59864034D01*
X82369783Y-59998461D01*
X82265950Y-60202244D01*
X82195278Y-60419750D01*
X82195278Y-60419753D01*
X82159500Y-60645646D01*
X78093613Y-60645646D01*
X78093613Y-59002135D01*
X86789500Y-59002135D01*
X86789500Y-60697870D01*
X86789501Y-60697876D01*
X86795908Y-60757483D01*
X86846202Y-60892328D01*
X86846206Y-60892335D01*
X86932452Y-61007544D01*
X86932455Y-61007547D01*
X87047664Y-61093793D01*
X87047671Y-61093797D01*
X87182517Y-61144091D01*
X87182516Y-61144091D01*
X87189444Y-61144835D01*
X87242127Y-61150500D01*
X88937872Y-61150499D01*
X88997483Y-61144091D01*
X89132331Y-61093796D01*
X89247546Y-61007546D01*
X89333796Y-60892331D01*
X89384091Y-60757483D01*
X89390500Y-60697873D01*
X89390500Y-60645646D01*
X99409500Y-60645646D01*
X99409500Y-60874353D01*
X99445278Y-61100246D01*
X99445278Y-61100249D01*
X99515950Y-61317755D01*
X99545773Y-61376286D01*
X99619783Y-61521538D01*
X99754214Y-61706566D01*
X99915934Y-61868286D01*
X99950853Y-61893656D01*
X100000438Y-61929682D01*
X100043103Y-61985013D01*
X100049082Y-62054626D01*
X100016476Y-62116421D01*
X100000438Y-62130318D01*
X99915932Y-62191715D01*
X99754216Y-62353431D01*
X99754216Y-62353432D01*
X99754214Y-62353434D01*
X99747640Y-62362483D01*
X99619783Y-62538461D01*
X99515950Y-62742244D01*
X99445278Y-62959750D01*
X99445278Y-62959753D01*
X99409500Y-63185646D01*
X99409500Y-63414353D01*
X99445278Y-63640246D01*
X99445278Y-63640249D01*
X99515950Y-63857755D01*
X99515952Y-63857758D01*
X99619783Y-64061538D01*
X99754214Y-64246566D01*
X99915934Y-64408286D01*
X100100962Y-64542717D01*
X100304742Y-64646548D01*
X100304744Y-64646549D01*
X100522251Y-64717221D01*
X100522252Y-64717221D01*
X100522255Y-64717222D01*
X100748146Y-64753000D01*
X100748147Y-64753000D01*
X101071853Y-64753000D01*
X101071854Y-64753000D01*
X101297745Y-64717222D01*
X101297748Y-64717221D01*
X101297749Y-64717221D01*
X101515255Y-64646549D01*
X101515255Y-64646548D01*
X101515258Y-64646548D01*
X101719038Y-64542717D01*
X101904066Y-64408286D01*
X102065786Y-64246566D01*
X102200217Y-64061538D01*
X102304048Y-63857758D01*
X102374722Y-63640245D01*
X102410500Y-63414354D01*
X102410500Y-63185646D01*
X102374722Y-62959755D01*
X102374721Y-62959751D01*
X102374721Y-62959750D01*
X102304049Y-62742244D01*
X102237965Y-62612547D01*
X102200217Y-62538462D01*
X102065786Y-62353434D01*
X101904066Y-62191714D01*
X101835827Y-62142135D01*
X104039500Y-62142135D01*
X104039500Y-63837870D01*
X104039501Y-63837876D01*
X104045908Y-63897483D01*
X104096202Y-64032328D01*
X104096206Y-64032335D01*
X104182452Y-64147544D01*
X104182455Y-64147547D01*
X104297664Y-64233793D01*
X104297671Y-64233797D01*
X104432517Y-64284091D01*
X104432516Y-64284091D01*
X104439444Y-64284835D01*
X104492127Y-64290500D01*
X106187872Y-64290499D01*
X106247483Y-64284091D01*
X106382331Y-64233796D01*
X106497546Y-64147546D01*
X106583796Y-64032331D01*
X106634091Y-63897483D01*
X106640500Y-63837873D01*
X106640499Y-62142128D01*
X106634091Y-62082517D01*
X106624679Y-62057283D01*
X106583797Y-61947671D01*
X106583793Y-61947664D01*
X106497547Y-61832455D01*
X106497544Y-61832452D01*
X106382335Y-61746206D01*
X106382328Y-61746202D01*
X106247482Y-61695908D01*
X106247483Y-61695908D01*
X106187883Y-61689501D01*
X106187881Y-61689500D01*
X106187873Y-61689500D01*
X106187864Y-61689500D01*
X104492129Y-61689500D01*
X104492123Y-61689501D01*
X104432516Y-61695908D01*
X104297671Y-61746202D01*
X104297664Y-61746206D01*
X104182455Y-61832452D01*
X104182452Y-61832455D01*
X104096206Y-61947664D01*
X104096202Y-61947671D01*
X104045908Y-62082517D01*
X104039501Y-62142116D01*
X104039501Y-62142123D01*
X104039500Y-62142135D01*
X101835827Y-62142135D01*
X101816880Y-62128369D01*
X101814309Y-62126283D01*
X101796291Y-62100140D01*
X101776896Y-62074988D01*
X101776602Y-62071574D01*
X101774659Y-62068754D01*
X101773634Y-62037015D01*
X101770917Y-62005375D01*
X101772515Y-62002345D01*
X101772405Y-61998921D01*
X101788705Y-61971661D01*
X101803523Y-61943580D01*
X101807622Y-61940027D01*
X101808264Y-61938955D01*
X101809659Y-61938262D01*
X101819556Y-61929685D01*
X101904066Y-61868286D01*
X102065786Y-61706566D01*
X102200217Y-61521538D01*
X102304048Y-61317758D01*
X102310625Y-61297516D01*
X102374721Y-61100249D01*
X102374721Y-61100248D01*
X102374722Y-61100245D01*
X102390789Y-60998804D01*
X115879500Y-60998804D01*
X115879500Y-61176195D01*
X115914103Y-61350158D01*
X115914106Y-61350167D01*
X115981983Y-61514040D01*
X115981990Y-61514053D01*
X116080535Y-61661534D01*
X116080538Y-61661538D01*
X116205961Y-61786961D01*
X116205965Y-61786964D01*
X116353446Y-61885509D01*
X116353459Y-61885516D01*
X116476363Y-61936423D01*
X116517334Y-61953394D01*
X116517336Y-61953394D01*
X116517341Y-61953396D01*
X116691304Y-61987999D01*
X116691307Y-61988000D01*
X116691309Y-61988000D01*
X116868693Y-61988000D01*
X116868694Y-61987999D01*
X117042666Y-61953394D01*
X117064661Y-61944282D01*
X117134130Y-61936814D01*
X117196609Y-61968089D01*
X117199795Y-61971163D01*
X117246344Y-62017712D01*
X117395666Y-62109814D01*
X117562203Y-62164999D01*
X117664991Y-62175500D01*
X118715008Y-62175499D01*
X118715016Y-62175498D01*
X118715019Y-62175498D01*
X118771302Y-62169748D01*
X118817797Y-62164999D01*
X118984334Y-62109814D01*
X119133656Y-62017712D01*
X119257712Y-61893656D01*
X119349814Y-61744334D01*
X119404999Y-61577797D01*
X119415500Y-61475009D01*
X119415499Y-60699992D01*
X119415282Y-60697872D01*
X119404999Y-60597203D01*
X119404998Y-60597200D01*
X119377251Y-60513465D01*
X119349814Y-60430666D01*
X119257712Y-60281344D01*
X119133656Y-60157288D01*
X118984334Y-60065186D01*
X118817797Y-60010001D01*
X118817795Y-60010000D01*
X118715010Y-59999500D01*
X117664998Y-59999500D01*
X117664980Y-59999501D01*
X117562203Y-60010000D01*
X117562200Y-60010001D01*
X117395668Y-60065185D01*
X117395663Y-60065187D01*
X117303857Y-60121813D01*
X117246344Y-60157288D01*
X117246342Y-60157289D01*
X117246340Y-60157291D01*
X117199792Y-60203838D01*
X117138468Y-60237322D01*
X117068776Y-60232336D01*
X117064683Y-60230725D01*
X117042666Y-60221606D01*
X117042662Y-60221605D01*
X117042658Y-60221603D01*
X116868694Y-60187000D01*
X116868691Y-60187000D01*
X116691309Y-60187000D01*
X116691306Y-60187000D01*
X116517341Y-60221603D01*
X116517332Y-60221606D01*
X116353459Y-60289483D01*
X116353446Y-60289490D01*
X116205965Y-60388035D01*
X116205961Y-60388038D01*
X116080538Y-60513461D01*
X116080535Y-60513465D01*
X115981990Y-60660946D01*
X115981983Y-60660959D01*
X115914106Y-60824832D01*
X115914103Y-60824841D01*
X115879500Y-60998804D01*
X102390789Y-60998804D01*
X102410500Y-60874354D01*
X102410500Y-60645646D01*
X102374722Y-60419755D01*
X102374721Y-60419751D01*
X102374721Y-60419750D01*
X102304049Y-60202244D01*
X102281143Y-60157288D01*
X102200217Y-59998462D01*
X102065786Y-59813434D01*
X101904066Y-59651714D01*
X101719038Y-59517283D01*
X101680125Y-59497456D01*
X101515255Y-59413450D01*
X101297748Y-59342778D01*
X101128326Y-59315944D01*
X101071854Y-59307000D01*
X100748146Y-59307000D01*
X100672849Y-59318926D01*
X100522253Y-59342778D01*
X100522250Y-59342778D01*
X100304744Y-59413450D01*
X100100961Y-59517283D01*
X100052260Y-59552667D01*
X99915934Y-59651714D01*
X99915932Y-59651716D01*
X99915931Y-59651716D01*
X99754216Y-59813431D01*
X99754216Y-59813432D01*
X99754214Y-59813434D01*
X99717451Y-59864034D01*
X99619783Y-59998461D01*
X99515950Y-60202244D01*
X99445278Y-60419750D01*
X99445278Y-60419753D01*
X99409500Y-60645646D01*
X89390500Y-60645646D01*
X89390499Y-59201304D01*
X94369500Y-59201304D01*
X94369500Y-59378695D01*
X94404103Y-59552658D01*
X94404106Y-59552667D01*
X94471983Y-59716540D01*
X94471990Y-59716553D01*
X94570535Y-59864034D01*
X94570538Y-59864038D01*
X94695961Y-59989461D01*
X94695965Y-59989464D01*
X94843446Y-60088009D01*
X94843459Y-60088016D01*
X94966363Y-60138923D01*
X95007334Y-60155894D01*
X95007336Y-60155894D01*
X95007341Y-60155896D01*
X95181304Y-60190499D01*
X95181307Y-60190500D01*
X95181309Y-60190500D01*
X95358693Y-60190500D01*
X95358694Y-60190499D01*
X95416682Y-60178964D01*
X95532658Y-60155896D01*
X95532661Y-60155894D01*
X95532666Y-60155894D01*
X95696547Y-60088013D01*
X95844035Y-59989464D01*
X95969464Y-59864035D01*
X96068013Y-59716547D01*
X96135894Y-59552666D01*
X96146877Y-59497454D01*
X96158964Y-59436682D01*
X96170500Y-59378691D01*
X96170500Y-59235451D01*
X96190185Y-59168412D01*
X96206819Y-59147770D01*
X96557771Y-58796819D01*
X96619094Y-58763334D01*
X96645452Y-58760500D01*
X96698693Y-58760500D01*
X96698694Y-58760499D01*
X96800801Y-58740189D01*
X96872658Y-58725896D01*
X96872661Y-58725894D01*
X96872666Y-58725894D01*
X97036547Y-58658013D01*
X97184035Y-58559464D01*
X97309464Y-58434035D01*
X97408013Y-58286547D01*
X97475894Y-58122666D01*
X97510500Y-57948691D01*
X97510500Y-57771309D01*
X97510500Y-57771306D01*
X97510499Y-57771304D01*
X97475896Y-57597341D01*
X97475893Y-57597332D01*
X97463385Y-57567135D01*
X106684500Y-57567135D01*
X106684500Y-58512870D01*
X106684501Y-58512876D01*
X106690908Y-58572483D01*
X106741202Y-58707328D01*
X106741206Y-58707335D01*
X106827452Y-58822544D01*
X106827455Y-58822547D01*
X106942664Y-58908793D01*
X106942671Y-58908797D01*
X107077517Y-58959091D01*
X107077516Y-58959091D01*
X107084444Y-58959835D01*
X107137127Y-58965500D01*
X108082872Y-58965499D01*
X108142483Y-58959091D01*
X108277331Y-58908796D01*
X108392546Y-58822546D01*
X108454199Y-58740188D01*
X108510132Y-58698318D01*
X108553465Y-58690500D01*
X129938495Y-58690500D01*
X130005534Y-58710185D01*
X130026176Y-58726818D01*
X130125904Y-58826546D01*
X130278587Y-58937477D01*
X130358034Y-58977957D01*
X130446739Y-59023155D01*
X130446741Y-59023155D01*
X130446744Y-59023157D01*
X130511105Y-59044069D01*
X130568780Y-59083507D01*
X130595978Y-59147866D01*
X130584063Y-59216712D01*
X130536819Y-59268188D01*
X130511107Y-59279929D01*
X130488775Y-59287185D01*
X130446739Y-59300844D01*
X130278586Y-59386523D01*
X130191475Y-59449813D01*
X130125904Y-59497454D01*
X130125902Y-59497456D01*
X130125901Y-59497456D01*
X129992456Y-59630901D01*
X129992456Y-59630902D01*
X129992454Y-59630904D01*
X129944813Y-59696475D01*
X129881523Y-59783586D01*
X129795844Y-59951741D01*
X129737522Y-60131236D01*
X129708000Y-60317631D01*
X129708000Y-60506368D01*
X129732483Y-60660946D01*
X129737523Y-60692767D01*
X129795843Y-60872256D01*
X129881523Y-61040413D01*
X129992454Y-61193096D01*
X130125904Y-61326546D01*
X130278587Y-61437477D01*
X130446744Y-61523157D01*
X130626233Y-61581477D01*
X130696134Y-61592548D01*
X130812632Y-61611000D01*
X130812637Y-61611000D01*
X131001368Y-61611000D01*
X131104920Y-61594598D01*
X131187767Y-61581477D01*
X131367256Y-61523157D01*
X131535413Y-61437477D01*
X131688096Y-61326546D01*
X131821546Y-61193096D01*
X131842894Y-61163713D01*
X133929500Y-61163713D01*
X133929500Y-61376286D01*
X133952505Y-61521538D01*
X133962754Y-61586243D01*
X134014729Y-61746206D01*
X134028444Y-61788414D01*
X134124951Y-61977820D01*
X134249890Y-62149786D01*
X134400213Y-62300109D01*
X134572179Y-62425048D01*
X134572181Y-62425049D01*
X134572184Y-62425051D01*
X134761588Y-62521557D01*
X134963757Y-62587246D01*
X135173713Y-62620500D01*
X135173714Y-62620500D01*
X135386286Y-62620500D01*
X135386287Y-62620500D01*
X135596243Y-62587246D01*
X135798412Y-62521557D01*
X135987816Y-62425051D01*
X136073934Y-62362483D01*
X136159786Y-62300109D01*
X136159788Y-62300106D01*
X136159792Y-62300104D01*
X136310104Y-62149792D01*
X136310106Y-62149788D01*
X136310109Y-62149786D01*
X136435048Y-61977820D01*
X136435047Y-61977820D01*
X136435051Y-61977816D01*
X136531557Y-61788412D01*
X136597246Y-61586243D01*
X136630500Y-61376287D01*
X136630500Y-61163713D01*
X136597246Y-60953757D01*
X136531557Y-60751588D01*
X136435051Y-60562184D01*
X136435049Y-60562181D01*
X136435048Y-60562179D01*
X136310109Y-60390213D01*
X136159786Y-60239890D01*
X135987820Y-60114951D01*
X135798414Y-60018444D01*
X135798413Y-60018443D01*
X135798412Y-60018443D01*
X135596243Y-59952754D01*
X135596241Y-59952753D01*
X135596240Y-59952753D01*
X135434957Y-59927208D01*
X135386287Y-59919500D01*
X135173713Y-59919500D01*
X135125042Y-59927208D01*
X134963760Y-59952753D01*
X134761585Y-60018444D01*
X134572179Y-60114951D01*
X134400213Y-60239890D01*
X134249890Y-60390213D01*
X134124951Y-60562179D01*
X134028444Y-60751585D01*
X133962753Y-60953760D01*
X133929500Y-61163713D01*
X131842894Y-61163713D01*
X131932477Y-61040413D01*
X132018157Y-60872256D01*
X132076477Y-60692767D01*
X132097160Y-60562179D01*
X132106000Y-60506368D01*
X132106000Y-60317631D01*
X132080604Y-60157289D01*
X132076477Y-60131233D01*
X132018157Y-59951744D01*
X131932477Y-59783587D01*
X131821546Y-59630904D01*
X131688096Y-59497454D01*
X131535413Y-59386523D01*
X131367256Y-59300843D01*
X131302894Y-59279930D01*
X131245219Y-59240493D01*
X131218021Y-59176135D01*
X131229936Y-59107288D01*
X131277180Y-59055813D01*
X131302892Y-59044070D01*
X131367256Y-59023157D01*
X131535413Y-58937477D01*
X131688096Y-58826546D01*
X131821546Y-58693096D01*
X131932477Y-58540413D01*
X132018157Y-58372256D01*
X132076477Y-58192767D01*
X132089598Y-58109920D01*
X132106000Y-58006368D01*
X132106000Y-57817631D01*
X132076477Y-57631236D01*
X132076477Y-57631233D01*
X132018157Y-57451744D01*
X131932477Y-57283587D01*
X131821546Y-57130904D01*
X131688096Y-56997454D01*
X131535413Y-56886523D01*
X131367256Y-56800843D01*
X131187767Y-56742523D01*
X131187765Y-56742522D01*
X131187763Y-56742522D01*
X131001368Y-56713000D01*
X131001363Y-56713000D01*
X130812637Y-56713000D01*
X130812632Y-56713000D01*
X130626236Y-56742522D01*
X130446741Y-56800844D01*
X130278586Y-56886523D01*
X130191475Y-56949813D01*
X130125904Y-56997454D01*
X130125902Y-56997456D01*
X130125901Y-56997456D01*
X129992456Y-57130901D01*
X129992456Y-57130902D01*
X129992454Y-57130904D01*
X129970926Y-57160535D01*
X129881523Y-57283586D01*
X129862055Y-57321795D01*
X129814080Y-57372591D01*
X129751570Y-57389500D01*
X108553465Y-57389500D01*
X108486426Y-57369815D01*
X108454198Y-57339811D01*
X108392546Y-57257454D01*
X108369709Y-57240358D01*
X108277335Y-57171206D01*
X108277328Y-57171202D01*
X108142482Y-57120908D01*
X108142483Y-57120908D01*
X108082883Y-57114501D01*
X108082881Y-57114500D01*
X108082873Y-57114500D01*
X108082864Y-57114500D01*
X107137129Y-57114500D01*
X107137123Y-57114501D01*
X107077516Y-57120908D01*
X106942671Y-57171202D01*
X106942664Y-57171206D01*
X106827455Y-57257452D01*
X106827452Y-57257455D01*
X106741206Y-57372664D01*
X106741202Y-57372671D01*
X106690908Y-57507517D01*
X106684501Y-57567116D01*
X106684500Y-57567135D01*
X97463385Y-57567135D01*
X97408016Y-57433459D01*
X97408009Y-57433446D01*
X97309464Y-57285965D01*
X97309461Y-57285961D01*
X97184038Y-57160538D01*
X97184034Y-57160535D01*
X97036553Y-57061990D01*
X97036540Y-57061983D01*
X96872667Y-56994106D01*
X96872658Y-56994103D01*
X96698694Y-56959500D01*
X96698691Y-56959500D01*
X96521309Y-56959500D01*
X96521306Y-56959500D01*
X96347341Y-56994103D01*
X96347332Y-56994106D01*
X96183459Y-57061983D01*
X96183446Y-57061990D01*
X96035965Y-57160535D01*
X96035961Y-57160538D01*
X95910538Y-57285961D01*
X95910535Y-57285965D01*
X95811990Y-57433446D01*
X95811983Y-57433459D01*
X95744106Y-57597332D01*
X95744103Y-57597341D01*
X95709500Y-57771304D01*
X95709500Y-57824548D01*
X95689815Y-57891587D01*
X95673181Y-57912229D01*
X95226133Y-58359276D01*
X95164810Y-58392761D01*
X95162644Y-58393212D01*
X95007340Y-58424104D01*
X95007332Y-58424106D01*
X94843459Y-58491983D01*
X94843446Y-58491990D01*
X94695965Y-58590535D01*
X94695961Y-58590538D01*
X94570538Y-58715961D01*
X94570535Y-58715965D01*
X94471990Y-58863446D01*
X94471983Y-58863459D01*
X94404106Y-59027332D01*
X94404103Y-59027341D01*
X94369500Y-59201304D01*
X89390499Y-59201304D01*
X89390499Y-59002128D01*
X89384091Y-58942517D01*
X89382211Y-58937477D01*
X89333797Y-58807671D01*
X89333793Y-58807664D01*
X89247547Y-58692455D01*
X89247544Y-58692452D01*
X89132335Y-58606206D01*
X89132328Y-58606202D01*
X88997482Y-58555908D01*
X88997483Y-58555908D01*
X88937883Y-58549501D01*
X88937881Y-58549500D01*
X88937873Y-58549500D01*
X88937864Y-58549500D01*
X87242129Y-58549500D01*
X87242123Y-58549501D01*
X87182516Y-58555908D01*
X87047671Y-58606202D01*
X87047664Y-58606206D01*
X86932455Y-58692452D01*
X86932452Y-58692455D01*
X86846206Y-58807664D01*
X86846202Y-58807671D01*
X86795908Y-58942517D01*
X86789501Y-59002116D01*
X86789501Y-59002123D01*
X86789500Y-59002135D01*
X78093613Y-59002135D01*
X78093613Y-52312135D01*
X86139500Y-52312135D01*
X86139500Y-54107870D01*
X86139501Y-54107876D01*
X86145908Y-54167483D01*
X86196202Y-54302328D01*
X86196206Y-54302335D01*
X86282452Y-54417544D01*
X86282455Y-54417547D01*
X86397664Y-54503793D01*
X86397671Y-54503797D01*
X86532517Y-54554091D01*
X86532516Y-54554091D01*
X86539444Y-54554835D01*
X86592127Y-54560500D01*
X88387872Y-54560499D01*
X88447483Y-54554091D01*
X88582331Y-54503796D01*
X88697546Y-54417546D01*
X88783796Y-54302331D01*
X88832810Y-54170916D01*
X88874681Y-54114984D01*
X88940145Y-54090566D01*
X89008418Y-54105417D01*
X89036673Y-54126569D01*
X89150213Y-54240109D01*
X89322179Y-54365048D01*
X89322181Y-54365049D01*
X89322184Y-54365051D01*
X89511588Y-54461557D01*
X89713757Y-54527246D01*
X89923713Y-54560500D01*
X89923714Y-54560500D01*
X90136286Y-54560500D01*
X90136287Y-54560500D01*
X90346243Y-54527246D01*
X90548412Y-54461557D01*
X90737816Y-54365051D01*
X90824138Y-54302335D01*
X90909786Y-54240109D01*
X90909788Y-54240106D01*
X90909792Y-54240104D01*
X91060104Y-54089792D01*
X91060106Y-54089788D01*
X91060109Y-54089786D01*
X91185048Y-53917820D01*
X91185047Y-53917820D01*
X91185051Y-53917816D01*
X91281557Y-53728412D01*
X91347246Y-53526243D01*
X91380500Y-53316287D01*
X91380500Y-53103713D01*
X91347246Y-52893757D01*
X91281557Y-52691588D01*
X91185051Y-52502184D01*
X91185049Y-52502181D01*
X91185048Y-52502179D01*
X91060109Y-52330213D01*
X90909786Y-52179890D01*
X90737820Y-52054951D01*
X90548414Y-51958444D01*
X90548413Y-51958443D01*
X90548412Y-51958443D01*
X90346243Y-51892754D01*
X90346241Y-51892753D01*
X90346240Y-51892753D01*
X90184957Y-51867208D01*
X90136287Y-51859500D01*
X89923713Y-51859500D01*
X89875042Y-51867208D01*
X89713760Y-51892753D01*
X89511585Y-51958444D01*
X89322179Y-52054951D01*
X89150215Y-52179889D01*
X89036673Y-52293431D01*
X88975350Y-52326915D01*
X88905658Y-52321931D01*
X88849725Y-52280059D01*
X88832810Y-52249082D01*
X88783797Y-52117671D01*
X88783793Y-52117664D01*
X88697547Y-52002455D01*
X88697544Y-52002452D01*
X88582335Y-51916206D01*
X88582328Y-51916202D01*
X88447482Y-51865908D01*
X88447483Y-51865908D01*
X88387883Y-51859501D01*
X88387881Y-51859500D01*
X88387873Y-51859500D01*
X88387864Y-51859500D01*
X86592129Y-51859500D01*
X86592123Y-51859501D01*
X86532516Y-51865908D01*
X86397671Y-51916202D01*
X86397664Y-51916206D01*
X86282455Y-52002452D01*
X86282452Y-52002455D01*
X86196206Y-52117664D01*
X86196202Y-52117671D01*
X86145908Y-52252517D01*
X86139501Y-52312116D01*
X86139500Y-52312135D01*
X78093613Y-52312135D01*
X78093613Y-48748389D01*
X79859500Y-48748389D01*
X79859500Y-49471611D01*
X79886598Y-49642701D01*
X79940127Y-49807445D01*
X80018768Y-49961788D01*
X80120586Y-50101928D01*
X80243072Y-50224414D01*
X80383212Y-50326232D01*
X80537555Y-50404873D01*
X80702299Y-50458402D01*
X80873389Y-50485500D01*
X80873390Y-50485500D01*
X81046610Y-50485500D01*
X81046611Y-50485500D01*
X81217701Y-50458402D01*
X81382445Y-50404873D01*
X81536788Y-50326232D01*
X81676928Y-50224414D01*
X81784472Y-50116869D01*
X81845791Y-50083387D01*
X81915483Y-50088371D01*
X81971417Y-50130242D01*
X81977688Y-50139456D01*
X82017285Y-50203652D01*
X82017288Y-50203656D01*
X82141344Y-50327712D01*
X82290666Y-50419814D01*
X82457203Y-50474999D01*
X82559991Y-50485500D01*
X83360008Y-50485499D01*
X83360016Y-50485498D01*
X83360019Y-50485498D01*
X83416302Y-50479748D01*
X83462797Y-50474999D01*
X83629334Y-50419814D01*
X83778656Y-50327712D01*
X83902712Y-50203656D01*
X83994814Y-50054334D01*
X84049999Y-49887797D01*
X84060500Y-49785009D01*
X84060499Y-48512135D01*
X86109500Y-48512135D01*
X86109500Y-50307870D01*
X86109501Y-50307876D01*
X86115908Y-50367483D01*
X86166202Y-50502328D01*
X86166206Y-50502335D01*
X86252452Y-50617544D01*
X86252455Y-50617547D01*
X86367664Y-50703793D01*
X86367671Y-50703797D01*
X86502517Y-50754091D01*
X86502516Y-50754091D01*
X86509444Y-50754835D01*
X86562127Y-50760500D01*
X88357872Y-50760499D01*
X88417483Y-50754091D01*
X88552331Y-50703796D01*
X88667546Y-50617546D01*
X88753796Y-50502331D01*
X88802810Y-50370916D01*
X88844681Y-50314984D01*
X88910145Y-50290566D01*
X88978418Y-50305417D01*
X89006673Y-50326569D01*
X89120213Y-50440109D01*
X89292179Y-50565048D01*
X89292181Y-50565049D01*
X89292184Y-50565051D01*
X89481588Y-50661557D01*
X89683757Y-50727246D01*
X89893713Y-50760500D01*
X89893714Y-50760500D01*
X90106286Y-50760500D01*
X90106287Y-50760500D01*
X90316243Y-50727246D01*
X90518412Y-50661557D01*
X90707816Y-50565051D01*
X90794138Y-50502335D01*
X90879786Y-50440109D01*
X90879788Y-50440106D01*
X90879792Y-50440104D01*
X91030104Y-50289792D01*
X91030106Y-50289788D01*
X91030109Y-50289786D01*
X91155048Y-50117820D01*
X91155047Y-50117820D01*
X91155051Y-50117816D01*
X91251557Y-49928412D01*
X91317246Y-49726243D01*
X91350500Y-49516287D01*
X91350500Y-49303713D01*
X91317246Y-49093757D01*
X91251557Y-48891588D01*
X91155051Y-48702184D01*
X91155049Y-48702181D01*
X91155048Y-48702179D01*
X91030109Y-48530213D01*
X90879786Y-48379890D01*
X90707820Y-48254951D01*
X90518414Y-48158444D01*
X90518413Y-48158443D01*
X90518412Y-48158443D01*
X90316243Y-48092754D01*
X90316241Y-48092753D01*
X90316240Y-48092753D01*
X90154957Y-48067208D01*
X90106287Y-48059500D01*
X89893713Y-48059500D01*
X89845042Y-48067208D01*
X89683760Y-48092753D01*
X89481585Y-48158444D01*
X89292179Y-48254951D01*
X89120215Y-48379889D01*
X89006673Y-48493431D01*
X88945350Y-48526915D01*
X88875658Y-48521931D01*
X88819725Y-48480059D01*
X88802810Y-48449082D01*
X88753797Y-48317671D01*
X88753793Y-48317664D01*
X88667547Y-48202455D01*
X88667544Y-48202452D01*
X88552335Y-48116206D01*
X88552328Y-48116202D01*
X88417482Y-48065908D01*
X88417483Y-48065908D01*
X88357883Y-48059501D01*
X88357881Y-48059500D01*
X88357873Y-48059500D01*
X88357864Y-48059500D01*
X86562129Y-48059500D01*
X86562123Y-48059501D01*
X86502516Y-48065908D01*
X86367671Y-48116202D01*
X86367664Y-48116206D01*
X86252455Y-48202452D01*
X86252452Y-48202455D01*
X86166206Y-48317664D01*
X86166202Y-48317671D01*
X86115908Y-48452517D01*
X86109501Y-48512116D01*
X86109500Y-48512135D01*
X84060499Y-48512135D01*
X84060499Y-48434992D01*
X84049999Y-48332203D01*
X83994814Y-48165666D01*
X83902712Y-48016344D01*
X83778656Y-47892288D01*
X83653559Y-47815128D01*
X83629336Y-47800187D01*
X83629331Y-47800185D01*
X83627862Y-47799698D01*
X83462797Y-47745001D01*
X83462795Y-47745000D01*
X83360010Y-47734500D01*
X82559998Y-47734500D01*
X82559980Y-47734501D01*
X82457203Y-47745000D01*
X82457200Y-47745001D01*
X82290668Y-47800185D01*
X82290663Y-47800187D01*
X82141342Y-47892289D01*
X82017287Y-48016344D01*
X81977688Y-48080544D01*
X81925739Y-48127268D01*
X81856777Y-48138489D01*
X81792695Y-48110645D01*
X81784469Y-48103127D01*
X81676930Y-47995588D01*
X81676928Y-47995586D01*
X81536788Y-47893768D01*
X81382445Y-47815127D01*
X81217701Y-47761598D01*
X81217699Y-47761597D01*
X81217698Y-47761597D01*
X81086271Y-47740781D01*
X81046611Y-47734500D01*
X80873389Y-47734500D01*
X80833728Y-47740781D01*
X80702302Y-47761597D01*
X80537552Y-47815128D01*
X80383211Y-47893768D01*
X80303256Y-47951859D01*
X80243072Y-47995586D01*
X80243070Y-47995588D01*
X80243069Y-47995588D01*
X80120588Y-48118069D01*
X80120588Y-48118070D01*
X80120586Y-48118072D01*
X80113905Y-48127268D01*
X80018768Y-48258211D01*
X79940128Y-48412552D01*
X79886597Y-48577302D01*
X79866819Y-48702179D01*
X79859500Y-48748389D01*
X78093613Y-48748389D01*
X78093613Y-44064038D01*
X83889500Y-44064038D01*
X83889500Y-44315961D01*
X83928910Y-44564785D01*
X84006760Y-44804383D01*
X84084784Y-44957511D01*
X84115163Y-45017135D01*
X84121132Y-45028848D01*
X84269201Y-45232649D01*
X84269205Y-45232654D01*
X84447345Y-45410794D01*
X84447350Y-45410798D01*
X84625117Y-45539952D01*
X84651155Y-45558870D01*
X84776358Y-45622664D01*
X84875616Y-45673239D01*
X84875618Y-45673239D01*
X84875621Y-45673241D01*
X85115215Y-45751090D01*
X85364038Y-45790500D01*
X85364039Y-45790500D01*
X85615961Y-45790500D01*
X85615962Y-45790500D01*
X85864785Y-45751090D01*
X86104379Y-45673241D01*
X86328845Y-45558870D01*
X86532656Y-45410793D01*
X86710793Y-45232656D01*
X86858870Y-45028845D01*
X86864837Y-45017135D01*
X90874500Y-45017135D01*
X90874500Y-45962870D01*
X90874501Y-45962876D01*
X90880908Y-46022483D01*
X90931202Y-46157328D01*
X90931206Y-46157335D01*
X91017452Y-46272544D01*
X91017455Y-46272547D01*
X91132664Y-46358793D01*
X91132671Y-46358797D01*
X91267517Y-46409091D01*
X91267516Y-46409091D01*
X91274444Y-46409835D01*
X91327127Y-46415500D01*
X92272872Y-46415499D01*
X92332483Y-46409091D01*
X92467331Y-46358796D01*
X92582546Y-46272546D01*
X92668796Y-46157331D01*
X92719091Y-46022483D01*
X92725500Y-45962873D01*
X92725499Y-45017128D01*
X92719091Y-44957517D01*
X92719089Y-44957512D01*
X92668797Y-44822671D01*
X92668793Y-44822664D01*
X92582547Y-44707455D01*
X92582544Y-44707452D01*
X92467335Y-44621206D01*
X92467328Y-44621202D01*
X92332482Y-44570908D01*
X92332483Y-44570908D01*
X92272883Y-44564501D01*
X92272881Y-44564500D01*
X92272873Y-44564500D01*
X92272864Y-44564500D01*
X91327129Y-44564500D01*
X91327123Y-44564501D01*
X91267516Y-44570908D01*
X91132671Y-44621202D01*
X91132664Y-44621206D01*
X91017455Y-44707452D01*
X91017452Y-44707455D01*
X90931206Y-44822664D01*
X90931202Y-44822671D01*
X90880908Y-44957517D01*
X90874501Y-45017116D01*
X90874501Y-45017123D01*
X90874500Y-45017135D01*
X86864837Y-45017135D01*
X86973241Y-44804379D01*
X87051090Y-44564785D01*
X87084469Y-44354038D01*
X97169500Y-44354038D01*
X97169500Y-44605962D01*
X97203823Y-44822669D01*
X97208910Y-44854785D01*
X97286760Y-45094383D01*
X97365413Y-45248747D01*
X97386839Y-45290798D01*
X97401132Y-45318848D01*
X97549201Y-45522649D01*
X97549205Y-45522654D01*
X97727345Y-45700794D01*
X97727350Y-45700798D01*
X97850815Y-45790500D01*
X97931155Y-45848870D01*
X98074184Y-45921747D01*
X98155616Y-45963239D01*
X98155618Y-45963239D01*
X98155621Y-45963241D01*
X98395215Y-46041090D01*
X98644038Y-46080500D01*
X98644039Y-46080500D01*
X98895961Y-46080500D01*
X98895962Y-46080500D01*
X99144785Y-46041090D01*
X99384379Y-45963241D01*
X99608845Y-45848870D01*
X99812656Y-45700793D01*
X99990793Y-45522656D01*
X100051667Y-45438870D01*
X100067459Y-45417135D01*
X105414500Y-45417135D01*
X105414500Y-46362870D01*
X105414501Y-46362876D01*
X105420908Y-46422483D01*
X105471202Y-46557328D01*
X105471206Y-46557335D01*
X105557452Y-46672544D01*
X105557455Y-46672547D01*
X105672664Y-46758793D01*
X105672671Y-46758797D01*
X105807517Y-46809091D01*
X105807516Y-46809091D01*
X105814444Y-46809835D01*
X105867127Y-46815500D01*
X106812872Y-46815499D01*
X106872483Y-46809091D01*
X107007331Y-46758796D01*
X107122546Y-46672546D01*
X107208796Y-46557331D01*
X107259091Y-46422483D01*
X107265500Y-46362873D01*
X107265499Y-45817135D01*
X118514500Y-45817135D01*
X118514500Y-46762870D01*
X118514501Y-46762876D01*
X118520908Y-46822483D01*
X118571202Y-46957328D01*
X118571206Y-46957335D01*
X118657452Y-47072544D01*
X118657455Y-47072547D01*
X118772664Y-47158793D01*
X118772671Y-47158797D01*
X118907517Y-47209091D01*
X118907516Y-47209091D01*
X118914444Y-47209835D01*
X118967127Y-47215500D01*
X119912872Y-47215499D01*
X119972483Y-47209091D01*
X120107331Y-47158796D01*
X120222546Y-47072546D01*
X120308796Y-46957331D01*
X120359091Y-46822483D01*
X120365500Y-46762873D01*
X120365499Y-46287135D01*
X132984500Y-46287135D01*
X132984500Y-47232870D01*
X132984501Y-47232876D01*
X132990908Y-47292483D01*
X133041202Y-47427328D01*
X133041206Y-47427335D01*
X133127452Y-47542544D01*
X133127455Y-47542547D01*
X133242664Y-47628793D01*
X133242671Y-47628797D01*
X133377517Y-47679091D01*
X133377516Y-47679091D01*
X133384444Y-47679835D01*
X133437127Y-47685500D01*
X134382872Y-47685499D01*
X134442483Y-47679091D01*
X134577331Y-47628796D01*
X134692546Y-47542546D01*
X134778796Y-47427331D01*
X134829091Y-47292483D01*
X134835500Y-47232873D01*
X134835499Y-46287128D01*
X134829091Y-46227517D01*
X134802913Y-46157331D01*
X134778797Y-46092671D01*
X134778793Y-46092664D01*
X134692547Y-45977455D01*
X134692544Y-45977452D01*
X134577335Y-45891206D01*
X134577328Y-45891202D01*
X134442482Y-45840908D01*
X134442483Y-45840908D01*
X134382883Y-45834501D01*
X134382881Y-45834500D01*
X134382873Y-45834500D01*
X134382864Y-45834500D01*
X133437129Y-45834500D01*
X133437123Y-45834501D01*
X133377516Y-45840908D01*
X133242671Y-45891202D01*
X133242664Y-45891206D01*
X133127455Y-45977452D01*
X133127452Y-45977455D01*
X133041206Y-46092664D01*
X133041202Y-46092671D01*
X132990908Y-46227517D01*
X132984501Y-46287116D01*
X132984501Y-46287123D01*
X132984500Y-46287135D01*
X120365499Y-46287135D01*
X120365499Y-45817128D01*
X120359091Y-45757517D01*
X120337936Y-45700798D01*
X120308797Y-45622671D01*
X120308793Y-45622664D01*
X120222547Y-45507455D01*
X120222544Y-45507452D01*
X120107335Y-45421206D01*
X120107328Y-45421202D01*
X119972482Y-45370908D01*
X119972483Y-45370908D01*
X119912883Y-45364501D01*
X119912881Y-45364500D01*
X119912873Y-45364500D01*
X119912864Y-45364500D01*
X118967129Y-45364500D01*
X118967123Y-45364501D01*
X118907516Y-45370908D01*
X118772671Y-45421202D01*
X118772664Y-45421206D01*
X118657455Y-45507452D01*
X118657452Y-45507455D01*
X118571206Y-45622664D01*
X118571202Y-45622671D01*
X118520908Y-45757517D01*
X118514501Y-45817116D01*
X118514501Y-45817123D01*
X118514500Y-45817135D01*
X107265499Y-45817135D01*
X107265499Y-45417128D01*
X107259091Y-45357517D01*
X107244668Y-45318848D01*
X107208797Y-45222671D01*
X107208793Y-45222664D01*
X107122547Y-45107455D01*
X107122544Y-45107452D01*
X107007335Y-45021206D01*
X107007328Y-45021202D01*
X106872482Y-44970908D01*
X106872483Y-44970908D01*
X106812883Y-44964501D01*
X106812881Y-44964500D01*
X106812873Y-44964500D01*
X106812864Y-44964500D01*
X105867129Y-44964500D01*
X105867123Y-44964501D01*
X105807516Y-44970908D01*
X105672671Y-45021202D01*
X105672664Y-45021206D01*
X105557455Y-45107452D01*
X105557452Y-45107455D01*
X105471206Y-45222664D01*
X105471202Y-45222671D01*
X105420908Y-45357517D01*
X105415181Y-45410793D01*
X105414501Y-45417123D01*
X105414500Y-45417135D01*
X100067459Y-45417135D01*
X100122832Y-45340921D01*
X100133587Y-45326115D01*
X100138870Y-45318845D01*
X100253241Y-45094379D01*
X100331090Y-44854785D01*
X100370500Y-44605962D01*
X100370500Y-44475782D01*
X100390185Y-44408743D01*
X100406819Y-44388101D01*
X100708382Y-44086538D01*
X110652000Y-44086538D01*
X110652000Y-44338461D01*
X110691410Y-44587285D01*
X110769260Y-44826883D01*
X110811024Y-44908848D01*
X110872167Y-45028848D01*
X110883632Y-45051348D01*
X111031701Y-45255149D01*
X111031705Y-45255154D01*
X111209845Y-45433294D01*
X111209850Y-45433298D01*
X111311915Y-45507452D01*
X111413655Y-45581370D01*
X111556684Y-45654247D01*
X111638116Y-45695739D01*
X111638118Y-45695739D01*
X111638121Y-45695741D01*
X111877715Y-45773590D01*
X112126538Y-45813000D01*
X112126539Y-45813000D01*
X112378461Y-45813000D01*
X112378462Y-45813000D01*
X112627285Y-45773590D01*
X112866879Y-45695741D01*
X113091345Y-45581370D01*
X113295156Y-45433293D01*
X113473293Y-45255156D01*
X113621370Y-45051345D01*
X113735741Y-44826879D01*
X113813590Y-44587285D01*
X113853000Y-44338462D01*
X113853000Y-44086538D01*
X113853000Y-44081666D01*
X113854310Y-44081666D01*
X113860386Y-44053730D01*
X113867479Y-44019915D01*
X113867852Y-44019412D01*
X113867920Y-44019101D01*
X113889067Y-43990851D01*
X113935880Y-43944038D01*
X124169500Y-43944038D01*
X124169500Y-44195961D01*
X124208910Y-44444785D01*
X124286760Y-44684383D01*
X124298683Y-44707782D01*
X124399355Y-44905362D01*
X124401132Y-44908848D01*
X124549201Y-45112649D01*
X124549205Y-45112654D01*
X124727345Y-45290794D01*
X124727350Y-45290798D01*
X124837613Y-45370908D01*
X124931155Y-45438870D01*
X125065755Y-45507452D01*
X125155616Y-45553239D01*
X125155618Y-45553239D01*
X125155621Y-45553241D01*
X125395215Y-45631090D01*
X125644038Y-45670500D01*
X125644039Y-45670500D01*
X125895961Y-45670500D01*
X125895962Y-45670500D01*
X126144785Y-45631090D01*
X126384379Y-45553241D01*
X126608845Y-45438870D01*
X126812656Y-45290793D01*
X126990793Y-45112656D01*
X127098434Y-44964501D01*
X127129099Y-44922294D01*
X127160524Y-44892078D01*
X127227782Y-44847139D01*
X127367139Y-44707782D01*
X127367140Y-44707780D01*
X127374206Y-44700714D01*
X127374209Y-44700710D01*
X129268149Y-42806769D01*
X129329470Y-42773286D01*
X129399162Y-42778270D01*
X129455095Y-42820142D01*
X129458930Y-42825561D01*
X129513035Y-42906534D01*
X129513038Y-42906538D01*
X129638461Y-43031961D01*
X129638465Y-43031964D01*
X129785946Y-43130509D01*
X129785959Y-43130516D01*
X129880907Y-43169844D01*
X129949834Y-43198394D01*
X129949836Y-43198394D01*
X129949841Y-43198396D01*
X130123804Y-43232999D01*
X130123807Y-43233000D01*
X130123809Y-43233000D01*
X130301193Y-43233000D01*
X130301194Y-43232999D01*
X130359182Y-43221464D01*
X130475158Y-43198396D01*
X130475161Y-43198394D01*
X130475166Y-43198394D01*
X130639047Y-43130513D01*
X130786535Y-43031964D01*
X130911964Y-42906535D01*
X131010513Y-42759047D01*
X131078394Y-42595166D01*
X131080067Y-42586759D01*
X131112999Y-42421195D01*
X131113000Y-42421193D01*
X131113000Y-42243806D01*
X131112999Y-42243804D01*
X131078396Y-42069841D01*
X131078393Y-42069832D01*
X131010516Y-41905959D01*
X131010509Y-41905946D01*
X130911964Y-41758465D01*
X130911961Y-41758461D01*
X130786538Y-41633038D01*
X130786534Y-41633035D01*
X130705561Y-41578930D01*
X130660756Y-41525317D01*
X130652049Y-41455992D01*
X130682204Y-41392965D01*
X130686751Y-41388167D01*
X132978101Y-39096819D01*
X133039424Y-39063334D01*
X133056793Y-39061466D01*
X133056748Y-39060883D01*
X133061608Y-39060500D01*
X133061611Y-39060500D01*
X133232701Y-39033402D01*
X133397445Y-38979873D01*
X133551788Y-38901232D01*
X133691928Y-38799414D01*
X133814414Y-38676928D01*
X133916232Y-38536788D01*
X133994873Y-38382445D01*
X134048402Y-38217701D01*
X134075500Y-38046611D01*
X134075500Y-37873389D01*
X134048402Y-37702299D01*
X133994873Y-37537555D01*
X133916232Y-37383212D01*
X133814414Y-37243072D01*
X133706872Y-37135530D01*
X133673387Y-37074207D01*
X133678371Y-37004515D01*
X133720243Y-36948582D01*
X133729457Y-36942310D01*
X133793656Y-36902712D01*
X133917712Y-36778656D01*
X134009814Y-36629334D01*
X134064999Y-36462797D01*
X134075500Y-36360009D01*
X134075499Y-35559992D01*
X134072782Y-35533398D01*
X134064999Y-35457203D01*
X134064998Y-35457200D01*
X134035290Y-35367547D01*
X134009814Y-35290666D01*
X133917712Y-35141344D01*
X133793656Y-35017288D01*
X133644334Y-34925186D01*
X133477797Y-34870001D01*
X133477795Y-34870000D01*
X133375010Y-34859500D01*
X132024998Y-34859500D01*
X132024981Y-34859501D01*
X131922203Y-34870000D01*
X131922200Y-34870001D01*
X131755668Y-34925185D01*
X131755663Y-34925187D01*
X131606342Y-35017289D01*
X131482289Y-35141342D01*
X131390187Y-35290663D01*
X131390185Y-35290668D01*
X131364711Y-35367544D01*
X131335001Y-35457203D01*
X131335001Y-35457204D01*
X131335000Y-35457204D01*
X131324500Y-35559983D01*
X131324500Y-36195217D01*
X131304815Y-36262256D01*
X131252011Y-36308011D01*
X131182853Y-36317955D01*
X131119297Y-36288930D01*
X131112819Y-36282898D01*
X130363319Y-35533398D01*
X130329834Y-35472075D01*
X130327000Y-35445717D01*
X130327000Y-30473091D01*
X130346685Y-30406052D01*
X130399489Y-30360297D01*
X130468647Y-30350353D01*
X130532203Y-30379378D01*
X130550267Y-30398781D01*
X130556454Y-30407046D01*
X130556455Y-30407047D01*
X130671664Y-30493293D01*
X130671671Y-30493297D01*
X130806517Y-30543591D01*
X130806516Y-30543591D01*
X130813444Y-30544335D01*
X130866127Y-30550000D01*
X132866872Y-30549999D01*
X132926483Y-30543591D01*
X133061331Y-30493296D01*
X133176546Y-30407046D01*
X133262796Y-30291831D01*
X133313091Y-30156983D01*
X133319500Y-30097373D01*
X133319499Y-28001628D01*
X133313091Y-27942017D01*
X133311762Y-27938455D01*
X133262797Y-27807171D01*
X133262793Y-27807164D01*
X133176547Y-27691955D01*
X133176544Y-27691952D01*
X133061335Y-27605706D01*
X133061328Y-27605702D01*
X132926482Y-27555408D01*
X132926483Y-27555408D01*
X132866883Y-27549001D01*
X132866881Y-27549000D01*
X132866873Y-27549000D01*
X132866864Y-27549000D01*
X130866129Y-27549000D01*
X130866123Y-27549001D01*
X130806516Y-27555408D01*
X130671671Y-27605702D01*
X130671664Y-27605706D01*
X130556455Y-27691952D01*
X130556452Y-27691955D01*
X130470206Y-27807164D01*
X130470203Y-27807170D01*
X130459808Y-27835041D01*
X130417936Y-27890974D01*
X130352472Y-27915391D01*
X130284199Y-27900539D01*
X130270750Y-27892031D01*
X130088038Y-27759283D01*
X130018697Y-27723952D01*
X129884255Y-27655450D01*
X129666748Y-27584778D01*
X129481312Y-27555408D01*
X129440854Y-27549000D01*
X129212146Y-27549000D01*
X129171688Y-27555408D01*
X128986253Y-27584778D01*
X128986250Y-27584778D01*
X128768744Y-27655450D01*
X128564961Y-27759283D01*
X128499051Y-27807170D01*
X128379934Y-27893714D01*
X128379932Y-27893716D01*
X128379931Y-27893716D01*
X128218216Y-28055431D01*
X128218216Y-28055432D01*
X128218214Y-28055434D01*
X128210430Y-28066148D01*
X128083783Y-28240461D01*
X127979950Y-28444244D01*
X127909278Y-28661750D01*
X127909278Y-28661753D01*
X127873500Y-28887646D01*
X127873500Y-29211353D01*
X127909278Y-29437246D01*
X127909278Y-29437249D01*
X127979950Y-29654755D01*
X128083783Y-29858538D01*
X128218214Y-30043566D01*
X128218216Y-30043568D01*
X128289681Y-30115033D01*
X128323166Y-30176356D01*
X128326000Y-30202714D01*
X128326000Y-36010041D01*
X128333198Y-36046229D01*
X128364449Y-36203336D01*
X128372475Y-36222712D01*
X128376392Y-36232169D01*
X128376393Y-36232172D01*
X128439866Y-36385411D01*
X128439871Y-36385420D01*
X128549359Y-36549280D01*
X128549360Y-36549281D01*
X128549361Y-36549282D01*
X128688718Y-36688639D01*
X128688719Y-36688639D01*
X128695786Y-36695706D01*
X128695785Y-36695706D01*
X128695788Y-36695708D01*
X130534899Y-38534820D01*
X130568383Y-38596141D01*
X130563399Y-38665833D01*
X130534898Y-38710180D01*
X126629558Y-42615520D01*
X126568235Y-42649005D01*
X126498543Y-42644021D01*
X126485582Y-42638324D01*
X126384383Y-42586761D01*
X126384382Y-42586760D01*
X126384379Y-42586759D01*
X126144785Y-42508910D01*
X125895962Y-42469500D01*
X125644038Y-42469500D01*
X125519626Y-42489205D01*
X125395214Y-42508910D01*
X125155616Y-42586760D01*
X124931151Y-42701132D01*
X124727350Y-42849201D01*
X124727345Y-42849205D01*
X124549205Y-43027345D01*
X124549201Y-43027350D01*
X124401132Y-43231151D01*
X124286760Y-43455616D01*
X124208910Y-43695214D01*
X124169500Y-43944038D01*
X113935880Y-43944038D01*
X115214236Y-42665682D01*
X115275558Y-42632199D01*
X115345250Y-42637183D01*
X115401183Y-42679055D01*
X115423533Y-42729174D01*
X115446603Y-42845158D01*
X115446606Y-42845167D01*
X115514483Y-43009040D01*
X115514490Y-43009053D01*
X115613035Y-43156534D01*
X115613038Y-43156538D01*
X115738461Y-43281961D01*
X115738465Y-43281964D01*
X115885946Y-43380509D01*
X115885959Y-43380516D01*
X116008863Y-43431423D01*
X116049834Y-43448394D01*
X116049836Y-43448394D01*
X116049841Y-43448396D01*
X116223804Y-43482999D01*
X116223807Y-43483000D01*
X116223809Y-43483000D01*
X116401193Y-43483000D01*
X116401194Y-43482999D01*
X116459182Y-43471464D01*
X116575158Y-43448396D01*
X116575161Y-43448394D01*
X116575166Y-43448394D01*
X116739047Y-43380513D01*
X116886535Y-43281964D01*
X117011964Y-43156535D01*
X117110513Y-43009047D01*
X117178394Y-42845166D01*
X117178700Y-42843632D01*
X117212999Y-42671195D01*
X117213000Y-42671193D01*
X117213000Y-42493806D01*
X117212999Y-42493804D01*
X117178396Y-42319841D01*
X117178393Y-42319832D01*
X117110516Y-42155959D01*
X117110509Y-42155946D01*
X117011964Y-42008465D01*
X117011961Y-42008461D01*
X116886538Y-41883038D01*
X116886534Y-41883035D01*
X116739053Y-41784490D01*
X116739040Y-41784483D01*
X116575167Y-41716606D01*
X116575158Y-41716603D01*
X116459174Y-41693533D01*
X116397263Y-41661148D01*
X116362688Y-41600432D01*
X116366428Y-41530663D01*
X116395682Y-41484237D01*
X118486971Y-39392948D01*
X118548292Y-39359465D01*
X118594043Y-39358158D01*
X118750889Y-39383000D01*
X118750890Y-39383000D01*
X119474110Y-39383000D01*
X119474111Y-39383000D01*
X119645201Y-39355902D01*
X119809945Y-39302373D01*
X119964288Y-39223732D01*
X120104428Y-39121914D01*
X120226914Y-38999428D01*
X120328732Y-38859288D01*
X120407373Y-38704945D01*
X120460902Y-38540201D01*
X120488000Y-38369111D01*
X120488000Y-38195889D01*
X120460902Y-38024799D01*
X120407373Y-37860055D01*
X120328732Y-37705712D01*
X120226914Y-37565572D01*
X120119372Y-37458030D01*
X120085887Y-37396707D01*
X120090871Y-37327015D01*
X120132743Y-37271082D01*
X120141957Y-37264810D01*
X120177203Y-37243070D01*
X120206156Y-37225212D01*
X120330212Y-37101156D01*
X120422314Y-36951834D01*
X120477499Y-36785297D01*
X120488000Y-36682509D01*
X120487999Y-35882492D01*
X120484242Y-35845718D01*
X120477499Y-35779703D01*
X120477498Y-35779700D01*
X120444466Y-35680016D01*
X120422314Y-35613166D01*
X120330212Y-35463844D01*
X120206156Y-35339788D01*
X120076769Y-35259982D01*
X120056836Y-35247687D01*
X120056831Y-35247685D01*
X120055362Y-35247198D01*
X119890297Y-35192501D01*
X119890295Y-35192500D01*
X119787510Y-35182000D01*
X118437498Y-35182000D01*
X118437481Y-35182001D01*
X118334703Y-35192500D01*
X118334700Y-35192501D01*
X118168168Y-35247685D01*
X118168163Y-35247687D01*
X118018842Y-35339789D01*
X117894789Y-35463842D01*
X117802687Y-35613163D01*
X117802685Y-35613168D01*
X117789486Y-35653000D01*
X117747501Y-35779703D01*
X117747501Y-35779704D01*
X117747500Y-35779704D01*
X117737000Y-35882483D01*
X117737000Y-36517718D01*
X117717315Y-36584757D01*
X117664511Y-36630512D01*
X117595353Y-36640456D01*
X117531797Y-36611431D01*
X117525319Y-36605399D01*
X116853319Y-35933399D01*
X116819834Y-35872076D01*
X116817000Y-35845718D01*
X116817000Y-32762135D01*
X124169500Y-32762135D01*
X124169500Y-35057870D01*
X124169501Y-35057876D01*
X124175908Y-35117483D01*
X124226202Y-35252328D01*
X124226206Y-35252335D01*
X124312452Y-35367544D01*
X124312455Y-35367547D01*
X124427664Y-35453793D01*
X124427671Y-35453797D01*
X124562517Y-35504091D01*
X124562516Y-35504091D01*
X124569444Y-35504835D01*
X124622127Y-35510500D01*
X126917872Y-35510499D01*
X126977483Y-35504091D01*
X127112331Y-35453796D01*
X127227546Y-35367546D01*
X127313796Y-35252331D01*
X127364091Y-35117483D01*
X127370500Y-35057873D01*
X127370499Y-32762128D01*
X127364091Y-32702517D01*
X127358551Y-32687664D01*
X127313797Y-32567671D01*
X127313793Y-32567664D01*
X127227547Y-32452455D01*
X127227544Y-32452452D01*
X127112335Y-32366206D01*
X127112328Y-32366202D01*
X126977482Y-32315908D01*
X126977483Y-32315908D01*
X126917883Y-32309501D01*
X126917881Y-32309500D01*
X126917873Y-32309500D01*
X126917864Y-32309500D01*
X124622129Y-32309500D01*
X124622123Y-32309501D01*
X124562516Y-32315908D01*
X124427671Y-32366202D01*
X124427664Y-32366206D01*
X124312455Y-32452452D01*
X124312452Y-32452455D01*
X124226206Y-32567664D01*
X124226202Y-32567671D01*
X124175908Y-32702517D01*
X124169501Y-32762116D01*
X124169501Y-32762123D01*
X124169500Y-32762135D01*
X116817000Y-32762135D01*
X116817000Y-30505091D01*
X116836685Y-30438052D01*
X116889489Y-30392297D01*
X116958647Y-30382353D01*
X117022203Y-30411378D01*
X117040267Y-30430781D01*
X117046454Y-30439046D01*
X117046455Y-30439047D01*
X117161664Y-30525293D01*
X117161671Y-30525297D01*
X117296517Y-30575591D01*
X117296516Y-30575591D01*
X117303444Y-30576335D01*
X117356127Y-30582000D01*
X119356872Y-30581999D01*
X119416483Y-30575591D01*
X119551331Y-30525296D01*
X119666546Y-30439046D01*
X119752796Y-30323831D01*
X119803091Y-30188983D01*
X119809500Y-30129373D01*
X119809499Y-28033628D01*
X119803091Y-27974017D01*
X119793160Y-27947391D01*
X119752797Y-27839171D01*
X119752793Y-27839164D01*
X119666547Y-27723955D01*
X119666544Y-27723952D01*
X119551335Y-27637706D01*
X119551328Y-27637702D01*
X119416482Y-27587408D01*
X119416483Y-27587408D01*
X119356883Y-27581001D01*
X119356881Y-27581000D01*
X119356873Y-27581000D01*
X119356864Y-27581000D01*
X117356129Y-27581000D01*
X117356123Y-27581001D01*
X117296516Y-27587408D01*
X117161671Y-27637702D01*
X117161664Y-27637706D01*
X117046455Y-27723952D01*
X117046452Y-27723955D01*
X116960206Y-27839164D01*
X116960203Y-27839170D01*
X116949808Y-27867041D01*
X116907936Y-27922974D01*
X116842472Y-27947391D01*
X116774199Y-27932539D01*
X116760750Y-27924031D01*
X116578038Y-27791283D01*
X116374255Y-27687450D01*
X116156748Y-27616778D01*
X115954707Y-27584778D01*
X115930854Y-27581000D01*
X115702146Y-27581000D01*
X115661688Y-27587408D01*
X115476253Y-27616778D01*
X115476250Y-27616778D01*
X115258744Y-27687450D01*
X115054961Y-27791283D01*
X114971109Y-27852206D01*
X114869934Y-27925714D01*
X114869932Y-27925716D01*
X114869931Y-27925716D01*
X114708216Y-28087431D01*
X114708216Y-28087432D01*
X114708214Y-28087434D01*
X114671858Y-28137474D01*
X114573783Y-28272461D01*
X114469950Y-28476244D01*
X114399278Y-28693750D01*
X114399278Y-28693753D01*
X114363500Y-28919646D01*
X114363500Y-29243353D01*
X114399278Y-29469246D01*
X114399278Y-29469249D01*
X114469950Y-29686755D01*
X114469952Y-29686758D01*
X114573783Y-29890538D01*
X114708214Y-30075566D01*
X114708216Y-30075568D01*
X114779681Y-30147033D01*
X114813166Y-30208356D01*
X114816000Y-30234714D01*
X114816000Y-36410044D01*
X114854447Y-36603329D01*
X114854448Y-36603333D01*
X114854449Y-36603336D01*
X114857803Y-36611431D01*
X114859902Y-36616499D01*
X114859903Y-36616503D01*
X114929864Y-36785407D01*
X114929871Y-36785420D01*
X115039360Y-36949281D01*
X115039363Y-36949285D01*
X115183037Y-37092959D01*
X115183059Y-37092979D01*
X116482398Y-38392318D01*
X116515883Y-38453641D01*
X116510899Y-38523333D01*
X116482398Y-38567680D01*
X112474151Y-42575927D01*
X112412828Y-42609412D01*
X112383334Y-42611419D01*
X112383334Y-42612000D01*
X112378462Y-42612000D01*
X112126538Y-42612000D01*
X112019780Y-42628909D01*
X111877714Y-42651410D01*
X111638116Y-42729260D01*
X111413651Y-42843632D01*
X111209850Y-42991701D01*
X111209845Y-42991705D01*
X111031705Y-43169845D01*
X111031701Y-43169850D01*
X110883632Y-43373651D01*
X110769260Y-43598116D01*
X110691410Y-43837714D01*
X110652000Y-44086538D01*
X100708382Y-44086538D01*
X100800935Y-43993985D01*
X101236527Y-43558393D01*
X101741657Y-43053262D01*
X101802978Y-43019779D01*
X101872669Y-43024763D01*
X101928603Y-43066635D01*
X101950953Y-43116750D01*
X101956605Y-43145164D01*
X101956606Y-43145167D01*
X102024483Y-43309040D01*
X102024490Y-43309053D01*
X102123035Y-43456534D01*
X102123038Y-43456538D01*
X102248461Y-43581961D01*
X102248465Y-43581964D01*
X102395946Y-43680509D01*
X102395959Y-43680516D01*
X102469382Y-43710928D01*
X102559834Y-43748394D01*
X102559836Y-43748394D01*
X102559841Y-43748396D01*
X102733804Y-43782999D01*
X102733807Y-43783000D01*
X102733809Y-43783000D01*
X102911193Y-43783000D01*
X102911194Y-43782999D01*
X102969182Y-43771464D01*
X103085158Y-43748396D01*
X103085161Y-43748394D01*
X103085166Y-43748394D01*
X103249047Y-43680513D01*
X103396535Y-43581964D01*
X103521964Y-43456535D01*
X103620513Y-43309047D01*
X103688394Y-43145166D01*
X103691310Y-43130509D01*
X103722999Y-42971195D01*
X103723000Y-42971193D01*
X103723000Y-42793806D01*
X103722999Y-42793804D01*
X103688396Y-42619841D01*
X103688393Y-42619832D01*
X103620516Y-42455959D01*
X103620509Y-42455946D01*
X103521964Y-42308465D01*
X103521961Y-42308461D01*
X103396538Y-42183038D01*
X103396534Y-42183035D01*
X103249053Y-42084490D01*
X103249040Y-42084483D01*
X103085167Y-42016606D01*
X103085158Y-42016603D01*
X103056754Y-42010954D01*
X102994843Y-41978569D01*
X102960269Y-41917854D01*
X102964008Y-41848084D01*
X102993262Y-41801658D01*
X105718102Y-39076819D01*
X105779425Y-39043334D01*
X105805783Y-39040500D01*
X105901610Y-39040500D01*
X105901611Y-39040500D01*
X106072701Y-39013402D01*
X106237445Y-38959873D01*
X106391788Y-38881232D01*
X106531928Y-38779414D01*
X106654414Y-38656928D01*
X106756232Y-38516788D01*
X106834873Y-38362445D01*
X106888402Y-38197701D01*
X106915500Y-38026611D01*
X106915500Y-37853389D01*
X106888402Y-37682299D01*
X106834873Y-37517555D01*
X106756232Y-37363212D01*
X106654414Y-37223072D01*
X106546872Y-37115530D01*
X106513387Y-37054207D01*
X106518371Y-36984515D01*
X106560243Y-36928582D01*
X106569457Y-36922310D01*
X106633656Y-36882712D01*
X106757712Y-36758656D01*
X106849814Y-36609334D01*
X106904999Y-36442797D01*
X106915500Y-36340009D01*
X106915499Y-35539992D01*
X106914825Y-35533398D01*
X106904999Y-35437203D01*
X106904998Y-35437200D01*
X106849814Y-35270666D01*
X106757712Y-35121344D01*
X106633656Y-34997288D01*
X106516761Y-34925187D01*
X106484336Y-34905187D01*
X106484331Y-34905185D01*
X106482862Y-34904698D01*
X106317797Y-34850001D01*
X106317795Y-34850000D01*
X106215010Y-34839500D01*
X104864998Y-34839500D01*
X104864981Y-34839501D01*
X104762203Y-34850000D01*
X104762200Y-34850001D01*
X104595668Y-34905185D01*
X104595663Y-34905187D01*
X104446342Y-34997289D01*
X104322289Y-35121342D01*
X104230187Y-35270663D01*
X104230185Y-35270668D01*
X104225859Y-35283724D01*
X104186084Y-35341168D01*
X104121567Y-35367988D01*
X104052792Y-35355671D01*
X104020473Y-35332397D01*
X103498819Y-34810743D01*
X103465334Y-34749420D01*
X103462500Y-34723062D01*
X103462500Y-32904635D01*
X110652000Y-32904635D01*
X110652000Y-35200370D01*
X110652001Y-35200376D01*
X110658408Y-35259983D01*
X110708702Y-35394828D01*
X110708706Y-35394835D01*
X110794952Y-35510044D01*
X110794955Y-35510047D01*
X110910164Y-35596293D01*
X110910171Y-35596297D01*
X111045017Y-35646591D01*
X111045016Y-35646591D01*
X111051944Y-35647335D01*
X111104627Y-35653000D01*
X113400372Y-35652999D01*
X113459983Y-35646591D01*
X113594831Y-35596296D01*
X113710046Y-35510046D01*
X113796296Y-35394831D01*
X113846591Y-35259983D01*
X113853000Y-35200373D01*
X113852999Y-32904628D01*
X113846591Y-32845017D01*
X113820925Y-32776204D01*
X113796297Y-32710171D01*
X113796293Y-32710164D01*
X113710047Y-32594955D01*
X113710044Y-32594952D01*
X113594835Y-32508706D01*
X113594828Y-32508702D01*
X113459982Y-32458408D01*
X113459983Y-32458408D01*
X113400383Y-32452001D01*
X113400381Y-32452000D01*
X113400373Y-32452000D01*
X113400364Y-32452000D01*
X111104629Y-32452000D01*
X111104623Y-32452001D01*
X111045016Y-32458408D01*
X110910171Y-32508702D01*
X110910164Y-32508706D01*
X110794955Y-32594952D01*
X110794952Y-32594955D01*
X110708706Y-32710164D01*
X110708702Y-32710171D01*
X110658408Y-32845017D01*
X110654418Y-32882135D01*
X110652001Y-32904623D01*
X110652000Y-32904635D01*
X103462500Y-32904635D01*
X103462500Y-30719591D01*
X103482185Y-30652552D01*
X103534989Y-30606797D01*
X103604147Y-30596853D01*
X103667703Y-30625878D01*
X103685767Y-30645281D01*
X103691954Y-30653546D01*
X103691955Y-30653547D01*
X103807164Y-30739793D01*
X103807171Y-30739797D01*
X103942017Y-30790091D01*
X103942016Y-30790091D01*
X103948944Y-30790835D01*
X104001627Y-30796500D01*
X106002372Y-30796499D01*
X106061983Y-30790091D01*
X106196831Y-30739796D01*
X106312046Y-30653546D01*
X106398296Y-30538331D01*
X106448591Y-30403483D01*
X106455000Y-30343873D01*
X106454999Y-28248128D01*
X106448591Y-28188517D01*
X106438660Y-28161891D01*
X106398297Y-28053671D01*
X106398293Y-28053664D01*
X106312047Y-27938455D01*
X106312044Y-27938452D01*
X106196835Y-27852206D01*
X106196828Y-27852202D01*
X106061982Y-27801908D01*
X106061983Y-27801908D01*
X106002383Y-27795501D01*
X106002381Y-27795500D01*
X106002373Y-27795500D01*
X106002364Y-27795500D01*
X104001629Y-27795500D01*
X104001623Y-27795501D01*
X103942016Y-27801908D01*
X103807171Y-27852202D01*
X103807164Y-27852206D01*
X103691955Y-27938452D01*
X103691952Y-27938455D01*
X103605706Y-28053664D01*
X103605703Y-28053670D01*
X103595308Y-28081541D01*
X103553436Y-28137474D01*
X103487972Y-28161891D01*
X103419699Y-28147039D01*
X103406250Y-28138531D01*
X103223538Y-28005783D01*
X103215374Y-28001623D01*
X103019755Y-27901950D01*
X102802248Y-27831278D01*
X102616812Y-27801908D01*
X102576354Y-27795500D01*
X102347646Y-27795500D01*
X102307188Y-27801908D01*
X102121753Y-27831278D01*
X102121750Y-27831278D01*
X101904244Y-27901950D01*
X101700461Y-28005783D01*
X101632126Y-28055432D01*
X101515434Y-28140214D01*
X101515432Y-28140216D01*
X101515431Y-28140216D01*
X101353716Y-28301931D01*
X101353716Y-28301932D01*
X101353714Y-28301934D01*
X101295980Y-28381396D01*
X101219283Y-28486961D01*
X101115450Y-28690744D01*
X101044778Y-28908250D01*
X101044778Y-28908253D01*
X101009000Y-29134146D01*
X101009000Y-29457853D01*
X101044778Y-29683746D01*
X101044778Y-29683749D01*
X101115450Y-29901255D01*
X101183122Y-30034068D01*
X101219283Y-30105038D01*
X101353714Y-30290066D01*
X101353716Y-30290068D01*
X101425181Y-30361533D01*
X101458666Y-30422856D01*
X101461500Y-30449214D01*
X101461500Y-35287386D01*
X101462153Y-35290668D01*
X101477183Y-35366229D01*
X101491300Y-35437200D01*
X101497400Y-35467868D01*
X101499949Y-35480679D01*
X101499950Y-35480684D01*
X101575364Y-35662751D01*
X101575371Y-35662764D01*
X101684860Y-35826625D01*
X101684863Y-35826629D01*
X101828537Y-35970303D01*
X101828559Y-35970323D01*
X103823976Y-37965740D01*
X103857461Y-38027063D01*
X103852477Y-38096755D01*
X103823976Y-38141102D01*
X99104328Y-42860750D01*
X99043005Y-42894235D01*
X98997248Y-42895542D01*
X98895966Y-42879500D01*
X98895962Y-42879500D01*
X98644038Y-42879500D01*
X98551006Y-42894235D01*
X98395214Y-42918910D01*
X98155616Y-42996760D01*
X97931151Y-43111132D01*
X97727350Y-43259201D01*
X97727345Y-43259205D01*
X97549205Y-43437345D01*
X97549201Y-43437350D01*
X97401132Y-43641151D01*
X97286760Y-43865616D01*
X97208910Y-44105214D01*
X97208910Y-44105215D01*
X97169500Y-44354038D01*
X87084469Y-44354038D01*
X87090500Y-44315962D01*
X87090500Y-44064038D01*
X87051090Y-43815215D01*
X87039897Y-43780769D01*
X87037903Y-43710928D01*
X87070146Y-43654773D01*
X88307531Y-42417388D01*
X88368852Y-42383905D01*
X88438544Y-42388889D01*
X88494477Y-42430761D01*
X88518894Y-42496225D01*
X88516828Y-42529261D01*
X88502000Y-42603809D01*
X88502000Y-42781195D01*
X88536603Y-42955158D01*
X88536606Y-42955167D01*
X88604483Y-43119040D01*
X88604490Y-43119053D01*
X88703035Y-43266534D01*
X88703038Y-43266538D01*
X88828461Y-43391961D01*
X88828465Y-43391964D01*
X88975946Y-43490509D01*
X88975959Y-43490516D01*
X89098863Y-43541423D01*
X89139834Y-43558394D01*
X89139836Y-43558394D01*
X89139841Y-43558396D01*
X89313804Y-43592999D01*
X89313807Y-43593000D01*
X89313809Y-43593000D01*
X89491193Y-43593000D01*
X89491194Y-43592999D01*
X89578586Y-43575616D01*
X89665158Y-43558396D01*
X89665161Y-43558394D01*
X89665166Y-43558394D01*
X89829047Y-43490513D01*
X89976535Y-43391964D01*
X90101964Y-43266535D01*
X90200513Y-43119047D01*
X90201465Y-43116750D01*
X90210458Y-43095035D01*
X90268394Y-42955166D01*
X90278068Y-42906535D01*
X90302999Y-42781195D01*
X90303000Y-42781193D01*
X90303000Y-42603806D01*
X90302999Y-42603804D01*
X90268396Y-42429841D01*
X90268393Y-42429832D01*
X90263239Y-42417390D01*
X90218122Y-42308465D01*
X90200516Y-42265959D01*
X90200509Y-42265946D01*
X90101964Y-42118465D01*
X90101961Y-42118461D01*
X89976538Y-41993038D01*
X89976534Y-41993035D01*
X89829053Y-41894490D01*
X89829040Y-41894483D01*
X89665167Y-41826606D01*
X89665158Y-41826603D01*
X89491194Y-41792000D01*
X89491191Y-41792000D01*
X89313809Y-41792000D01*
X89239261Y-41806828D01*
X89169670Y-41800599D01*
X89114493Y-41757736D01*
X89091249Y-41691846D01*
X89107317Y-41623849D01*
X89127385Y-41597534D01*
X92308102Y-38416819D01*
X92369425Y-38383334D01*
X92386793Y-38381466D01*
X92386748Y-38380883D01*
X92391608Y-38380500D01*
X92391611Y-38380500D01*
X92562701Y-38353402D01*
X92727445Y-38299873D01*
X92881788Y-38221232D01*
X93021928Y-38119414D01*
X93144414Y-37996928D01*
X93246232Y-37856788D01*
X93324873Y-37702445D01*
X93378402Y-37537701D01*
X93405500Y-37366611D01*
X93405500Y-37193389D01*
X93378402Y-37022299D01*
X93324873Y-36857555D01*
X93246232Y-36703212D01*
X93144414Y-36563072D01*
X93036872Y-36455530D01*
X93003387Y-36394207D01*
X93008371Y-36324515D01*
X93050243Y-36268582D01*
X93059457Y-36262310D01*
X93073286Y-36253780D01*
X93123656Y-36222712D01*
X93247712Y-36098656D01*
X93339814Y-35949334D01*
X93394999Y-35782797D01*
X93405500Y-35680009D01*
X93405499Y-34879992D01*
X93404478Y-34870001D01*
X93394999Y-34777203D01*
X93394998Y-34777200D01*
X93394078Y-34774424D01*
X93339814Y-34610666D01*
X93247712Y-34461344D01*
X93123656Y-34337288D01*
X92974334Y-34245186D01*
X92807797Y-34190001D01*
X92807795Y-34190000D01*
X92705010Y-34179500D01*
X91354998Y-34179500D01*
X91354981Y-34179501D01*
X91252203Y-34190000D01*
X91252200Y-34190001D01*
X91085668Y-34245185D01*
X91085663Y-34245187D01*
X90936342Y-34337289D01*
X90812289Y-34461342D01*
X90720187Y-34610663D01*
X90720186Y-34610666D01*
X90665001Y-34777203D01*
X90665001Y-34777204D01*
X90665000Y-34777204D01*
X90654500Y-34879983D01*
X90654500Y-35515217D01*
X90634815Y-35582256D01*
X90582011Y-35628011D01*
X90512853Y-35637955D01*
X90449297Y-35608930D01*
X90442819Y-35602898D01*
X90077819Y-35237898D01*
X90044334Y-35176575D01*
X90041500Y-35150217D01*
X90041500Y-33172135D01*
X97169500Y-33172135D01*
X97169501Y-35467868D01*
X97169501Y-35467876D01*
X97175908Y-35527483D01*
X97226202Y-35662328D01*
X97226206Y-35662335D01*
X97312452Y-35777544D01*
X97312455Y-35777547D01*
X97427664Y-35863793D01*
X97427671Y-35863797D01*
X97562517Y-35914091D01*
X97562516Y-35914091D01*
X97569444Y-35914835D01*
X97622127Y-35920500D01*
X99917872Y-35920499D01*
X99977483Y-35914091D01*
X100112331Y-35863796D01*
X100227546Y-35777546D01*
X100313796Y-35662331D01*
X100364091Y-35527483D01*
X100370500Y-35467873D01*
X100370499Y-33172128D01*
X100364091Y-33112517D01*
X100313796Y-32977669D01*
X100313795Y-32977668D01*
X100313793Y-32977664D01*
X100227547Y-32862455D01*
X100227544Y-32862452D01*
X100112335Y-32776206D01*
X100112328Y-32776202D01*
X99977482Y-32725908D01*
X99977483Y-32725908D01*
X99917883Y-32719501D01*
X99917881Y-32719500D01*
X99917873Y-32719500D01*
X99917864Y-32719500D01*
X97622129Y-32719500D01*
X97622123Y-32719501D01*
X97562516Y-32725908D01*
X97427671Y-32776202D01*
X97427664Y-32776206D01*
X97312455Y-32862452D01*
X97312452Y-32862455D01*
X97226206Y-32977664D01*
X97226202Y-32977671D01*
X97175908Y-33112517D01*
X97169501Y-33172116D01*
X97169501Y-33172123D01*
X97169500Y-33172135D01*
X90041500Y-33172135D01*
X90041500Y-30463591D01*
X90061185Y-30396552D01*
X90113989Y-30350797D01*
X90183147Y-30340853D01*
X90246703Y-30369878D01*
X90264767Y-30389281D01*
X90270954Y-30397546D01*
X90270955Y-30397547D01*
X90386164Y-30483793D01*
X90386171Y-30483797D01*
X90521017Y-30534091D01*
X90521016Y-30534091D01*
X90527944Y-30534835D01*
X90580627Y-30540500D01*
X92581372Y-30540499D01*
X92640983Y-30534091D01*
X92775831Y-30483796D01*
X92891046Y-30397546D01*
X92977296Y-30282331D01*
X93027591Y-30147483D01*
X93034000Y-30087873D01*
X93033999Y-27992128D01*
X93027591Y-27932517D01*
X93025054Y-27925716D01*
X92977297Y-27797671D01*
X92977293Y-27797664D01*
X92891047Y-27682455D01*
X92891044Y-27682452D01*
X92775835Y-27596206D01*
X92775828Y-27596202D01*
X92640982Y-27545908D01*
X92640983Y-27545908D01*
X92581383Y-27539501D01*
X92581381Y-27539500D01*
X92581373Y-27539500D01*
X92581364Y-27539500D01*
X90580629Y-27539500D01*
X90580623Y-27539501D01*
X90521016Y-27545908D01*
X90386171Y-27596202D01*
X90386164Y-27596206D01*
X90270955Y-27682452D01*
X90270952Y-27682455D01*
X90184706Y-27797664D01*
X90184703Y-27797670D01*
X90174308Y-27825541D01*
X90132436Y-27881474D01*
X90066972Y-27905891D01*
X89998699Y-27891039D01*
X89985250Y-27882531D01*
X89802538Y-27749783D01*
X89751842Y-27723952D01*
X89598755Y-27645950D01*
X89381248Y-27575278D01*
X89195812Y-27545908D01*
X89155354Y-27539500D01*
X88926646Y-27539500D01*
X88886188Y-27545908D01*
X88700753Y-27575278D01*
X88700750Y-27575278D01*
X88483244Y-27645950D01*
X88279461Y-27749783D01*
X88200474Y-27807171D01*
X88094434Y-27884214D01*
X88094432Y-27884216D01*
X88094431Y-27884216D01*
X87932716Y-28045931D01*
X87932716Y-28045932D01*
X87932714Y-28045934D01*
X87874980Y-28125396D01*
X87798283Y-28230961D01*
X87694450Y-28434744D01*
X87623778Y-28652250D01*
X87623778Y-28652253D01*
X87588000Y-28878146D01*
X87588000Y-29201853D01*
X87623778Y-29427746D01*
X87623778Y-29427749D01*
X87694450Y-29645255D01*
X87715597Y-29686758D01*
X87798283Y-29849038D01*
X87932714Y-30034066D01*
X87932716Y-30034068D01*
X88004181Y-30105533D01*
X88037666Y-30166856D01*
X88040500Y-30193214D01*
X88040500Y-35714544D01*
X88078946Y-35907828D01*
X88078947Y-35907829D01*
X88078948Y-35907831D01*
X88078949Y-35907836D01*
X88084195Y-35920499D01*
X88084197Y-35920504D01*
X88084196Y-35920504D01*
X88154364Y-36089907D01*
X88154371Y-36089920D01*
X88263859Y-36253780D01*
X88263860Y-36253781D01*
X88263861Y-36253782D01*
X88403218Y-36393139D01*
X88403219Y-36393139D01*
X88410286Y-36400206D01*
X88410285Y-36400206D01*
X88410288Y-36400208D01*
X89864899Y-37854820D01*
X89898383Y-37916141D01*
X89893399Y-37985833D01*
X89864898Y-38030180D01*
X85323067Y-42572011D01*
X85261744Y-42605496D01*
X85254785Y-42606803D01*
X85115217Y-42628909D01*
X84875618Y-42706760D01*
X84651151Y-42821132D01*
X84447350Y-42969201D01*
X84447345Y-42969205D01*
X84269205Y-43147345D01*
X84269201Y-43147350D01*
X84121132Y-43351151D01*
X84006760Y-43575616D01*
X83928910Y-43815214D01*
X83889500Y-44064038D01*
X78093613Y-44064038D01*
X78093613Y-32882135D01*
X83889500Y-32882135D01*
X83889500Y-35177870D01*
X83889501Y-35177876D01*
X83895908Y-35237483D01*
X83946202Y-35372328D01*
X83946206Y-35372335D01*
X84032452Y-35487544D01*
X84032455Y-35487547D01*
X84147664Y-35573793D01*
X84147671Y-35573797D01*
X84282517Y-35624091D01*
X84282516Y-35624091D01*
X84289444Y-35624835D01*
X84342127Y-35630500D01*
X86637872Y-35630499D01*
X86697483Y-35624091D01*
X86832331Y-35573796D01*
X86947546Y-35487546D01*
X87033796Y-35372331D01*
X87084091Y-35237483D01*
X87090500Y-35177873D01*
X87090499Y-32882128D01*
X87084091Y-32822517D01*
X87066817Y-32776204D01*
X87033797Y-32687671D01*
X87033793Y-32687664D01*
X86947547Y-32572455D01*
X86947544Y-32572452D01*
X86832335Y-32486206D01*
X86832328Y-32486202D01*
X86697482Y-32435908D01*
X86697483Y-32435908D01*
X86637883Y-32429501D01*
X86637881Y-32429500D01*
X86637873Y-32429500D01*
X86637864Y-32429500D01*
X84342129Y-32429500D01*
X84342123Y-32429501D01*
X84282516Y-32435908D01*
X84147671Y-32486202D01*
X84147664Y-32486206D01*
X84032455Y-32572452D01*
X84032452Y-32572455D01*
X83946206Y-32687664D01*
X83946202Y-32687671D01*
X83895908Y-32822517D01*
X83891615Y-32862452D01*
X83889501Y-32882123D01*
X83889500Y-32882135D01*
X78093613Y-32882135D01*
X78093613Y-22938711D01*
X82289500Y-22938711D01*
X82289500Y-23181288D01*
X82321161Y-23421785D01*
X82383947Y-23656104D01*
X82445829Y-23805499D01*
X82476776Y-23880212D01*
X82598064Y-24090289D01*
X82598066Y-24090292D01*
X82598067Y-24090293D01*
X82745733Y-24282736D01*
X82745739Y-24282743D01*
X82917256Y-24454260D01*
X82917263Y-24454266D01*
X82997064Y-24515499D01*
X83109711Y-24601936D01*
X83319788Y-24723224D01*
X83543900Y-24816054D01*
X83778211Y-24878838D01*
X83958586Y-24902584D01*
X84018711Y-24910500D01*
X84018712Y-24910500D01*
X84261289Y-24910500D01*
X84309388Y-24904167D01*
X84501789Y-24878838D01*
X84736100Y-24816054D01*
X84960212Y-24723224D01*
X85170289Y-24601936D01*
X85362738Y-24454265D01*
X85534265Y-24282738D01*
X85681936Y-24090289D01*
X85803224Y-23880212D01*
X85896054Y-23656100D01*
X85958838Y-23421789D01*
X85990500Y-23181288D01*
X85990500Y-22938712D01*
X85958838Y-22698211D01*
X85896054Y-22463900D01*
X85896051Y-22463892D01*
X85874250Y-22411258D01*
X85855974Y-22367135D01*
X92724500Y-22367135D01*
X92724500Y-23312870D01*
X92724501Y-23312876D01*
X92730908Y-23372483D01*
X92781202Y-23507328D01*
X92781206Y-23507335D01*
X92867452Y-23622544D01*
X92867455Y-23622547D01*
X92982664Y-23708793D01*
X92982671Y-23708797D01*
X93117517Y-23759091D01*
X93117516Y-23759091D01*
X93124444Y-23759835D01*
X93177127Y-23765500D01*
X94122872Y-23765499D01*
X94182483Y-23759091D01*
X94317331Y-23708796D01*
X94432546Y-23622546D01*
X94518796Y-23507331D01*
X94569091Y-23372483D01*
X94575500Y-23312873D01*
X94575500Y-23117135D01*
X106394500Y-23117135D01*
X106394500Y-24062870D01*
X106394501Y-24062876D01*
X106400908Y-24122483D01*
X106451202Y-24257328D01*
X106451206Y-24257335D01*
X106537452Y-24372544D01*
X106537455Y-24372547D01*
X106652664Y-24458793D01*
X106652671Y-24458797D01*
X106787517Y-24509091D01*
X106787516Y-24509091D01*
X106794444Y-24509835D01*
X106847127Y-24515500D01*
X107792872Y-24515499D01*
X107852483Y-24509091D01*
X107987331Y-24458796D01*
X108102546Y-24372546D01*
X108188796Y-24257331D01*
X108239091Y-24122483D01*
X108245500Y-24062873D01*
X108245499Y-23197135D01*
X119554500Y-23197135D01*
X119554500Y-24142870D01*
X119554501Y-24142876D01*
X119560908Y-24202483D01*
X119611202Y-24337328D01*
X119611206Y-24337335D01*
X119697452Y-24452544D01*
X119697455Y-24452547D01*
X119812664Y-24538793D01*
X119812671Y-24538797D01*
X119947517Y-24589091D01*
X119947516Y-24589091D01*
X119954444Y-24589835D01*
X120007127Y-24595500D01*
X120952872Y-24595499D01*
X121012483Y-24589091D01*
X121147331Y-24538796D01*
X121262546Y-24452546D01*
X121348796Y-24337331D01*
X121399091Y-24202483D01*
X121405500Y-24142873D01*
X121405499Y-23197128D01*
X121399091Y-23137517D01*
X121391486Y-23117128D01*
X121348797Y-23002671D01*
X121348793Y-23002664D01*
X121262547Y-22887455D01*
X121262544Y-22887452D01*
X121147335Y-22801206D01*
X121147328Y-22801202D01*
X121012482Y-22750908D01*
X121012483Y-22750908D01*
X120952883Y-22744501D01*
X120952881Y-22744500D01*
X120952873Y-22744500D01*
X120952864Y-22744500D01*
X120007129Y-22744500D01*
X120007123Y-22744501D01*
X119947516Y-22750908D01*
X119812671Y-22801202D01*
X119812664Y-22801206D01*
X119697455Y-22887452D01*
X119697452Y-22887455D01*
X119611206Y-23002664D01*
X119611202Y-23002671D01*
X119560908Y-23137517D01*
X119556203Y-23181288D01*
X119554501Y-23197123D01*
X119554500Y-23197135D01*
X108245499Y-23197135D01*
X108245499Y-23117128D01*
X108239091Y-23057517D01*
X108194779Y-22938711D01*
X108188797Y-22922671D01*
X108188793Y-22922664D01*
X108102547Y-22807455D01*
X108102544Y-22807452D01*
X107987335Y-22721206D01*
X107987328Y-22721202D01*
X107852482Y-22670908D01*
X107852483Y-22670908D01*
X107792883Y-22664501D01*
X107792881Y-22664500D01*
X107792873Y-22664500D01*
X107792864Y-22664500D01*
X106847129Y-22664500D01*
X106847123Y-22664501D01*
X106787516Y-22670908D01*
X106652671Y-22721202D01*
X106652664Y-22721206D01*
X106537455Y-22807452D01*
X106537452Y-22807455D01*
X106451206Y-22922664D01*
X106451202Y-22922671D01*
X106400908Y-23057517D01*
X106394857Y-23113805D01*
X106394501Y-23117123D01*
X106394500Y-23117135D01*
X94575500Y-23117135D01*
X94575499Y-22807455D01*
X94575499Y-22407135D01*
X131114500Y-22407135D01*
X131114500Y-23352870D01*
X131114501Y-23352876D01*
X131120908Y-23412483D01*
X131171202Y-23547328D01*
X131171206Y-23547335D01*
X131257452Y-23662544D01*
X131257455Y-23662547D01*
X131372664Y-23748793D01*
X131372671Y-23748797D01*
X131507517Y-23799091D01*
X131507516Y-23799091D01*
X131514444Y-23799835D01*
X131567127Y-23805500D01*
X132512872Y-23805499D01*
X132572483Y-23799091D01*
X132707331Y-23748796D01*
X132822546Y-23662546D01*
X132908796Y-23547331D01*
X132959091Y-23412483D01*
X132965500Y-23352873D01*
X132965499Y-22938711D01*
X135309500Y-22938711D01*
X135309500Y-23181288D01*
X135341161Y-23421785D01*
X135403947Y-23656104D01*
X135465829Y-23805499D01*
X135496776Y-23880212D01*
X135618064Y-24090289D01*
X135618066Y-24090292D01*
X135618067Y-24090293D01*
X135765733Y-24282736D01*
X135765739Y-24282743D01*
X135937256Y-24454260D01*
X135937263Y-24454266D01*
X136017064Y-24515499D01*
X136129711Y-24601936D01*
X136339788Y-24723224D01*
X136563900Y-24816054D01*
X136798211Y-24878838D01*
X136978586Y-24902584D01*
X137038711Y-24910500D01*
X137038712Y-24910500D01*
X137281289Y-24910500D01*
X137329388Y-24904167D01*
X137521789Y-24878838D01*
X137756100Y-24816054D01*
X137980212Y-24723224D01*
X138190289Y-24601936D01*
X138382738Y-24454265D01*
X138554265Y-24282738D01*
X138701936Y-24090289D01*
X138823224Y-23880212D01*
X138916054Y-23656100D01*
X138978838Y-23421789D01*
X139010500Y-23181288D01*
X139010500Y-22938712D01*
X138978838Y-22698211D01*
X138916054Y-22463900D01*
X138823224Y-22239788D01*
X138701936Y-22029711D01*
X138641018Y-21950321D01*
X138554266Y-21837263D01*
X138554260Y-21837256D01*
X138382743Y-21665739D01*
X138382736Y-21665733D01*
X138190293Y-21518067D01*
X138190292Y-21518066D01*
X138190289Y-21518064D01*
X137980212Y-21396776D01*
X137980205Y-21396773D01*
X137756104Y-21303947D01*
X137521785Y-21241161D01*
X137281289Y-21209500D01*
X137281288Y-21209500D01*
X137038712Y-21209500D01*
X137038711Y-21209500D01*
X136798214Y-21241161D01*
X136563895Y-21303947D01*
X136339794Y-21396773D01*
X136339785Y-21396777D01*
X136129706Y-21518067D01*
X135937263Y-21665733D01*
X135937256Y-21665739D01*
X135765739Y-21837256D01*
X135765733Y-21837263D01*
X135618067Y-22029706D01*
X135496777Y-22239785D01*
X135496773Y-22239794D01*
X135403947Y-22463895D01*
X135341161Y-22698214D01*
X135309500Y-22938711D01*
X132965499Y-22938711D01*
X132965499Y-22807455D01*
X132965499Y-22407129D01*
X132965498Y-22407123D01*
X132965497Y-22407116D01*
X132959091Y-22347517D01*
X132908796Y-22212669D01*
X132908795Y-22212668D01*
X132908793Y-22212664D01*
X132822547Y-22097455D01*
X132822544Y-22097452D01*
X132707335Y-22011206D01*
X132707328Y-22011202D01*
X132572482Y-21960908D01*
X132572483Y-21960908D01*
X132512883Y-21954501D01*
X132512881Y-21954500D01*
X132512873Y-21954500D01*
X132512864Y-21954500D01*
X131567129Y-21954500D01*
X131567123Y-21954501D01*
X131507516Y-21960908D01*
X131372671Y-22011202D01*
X131372664Y-22011206D01*
X131257455Y-22097452D01*
X131257452Y-22097455D01*
X131171206Y-22212664D01*
X131171202Y-22212671D01*
X131120908Y-22347517D01*
X131114857Y-22403806D01*
X131114501Y-22407123D01*
X131114500Y-22407135D01*
X94575499Y-22407135D01*
X94575499Y-22403806D01*
X94575499Y-22367129D01*
X94575498Y-22367123D01*
X94575497Y-22367116D01*
X94569091Y-22307517D01*
X94518796Y-22172669D01*
X94518795Y-22172668D01*
X94518793Y-22172664D01*
X94432547Y-22057455D01*
X94432544Y-22057452D01*
X94317335Y-21971206D01*
X94317328Y-21971202D01*
X94182482Y-21920908D01*
X94182483Y-21920908D01*
X94122883Y-21914501D01*
X94122881Y-21914500D01*
X94122873Y-21914500D01*
X94122864Y-21914500D01*
X93177129Y-21914500D01*
X93177123Y-21914501D01*
X93117516Y-21920908D01*
X92982671Y-21971202D01*
X92982664Y-21971206D01*
X92867455Y-22057452D01*
X92867452Y-22057455D01*
X92781206Y-22172664D01*
X92781202Y-22172671D01*
X92730908Y-22307517D01*
X92726608Y-22347516D01*
X92724501Y-22367123D01*
X92724500Y-22367135D01*
X85855974Y-22367135D01*
X85803227Y-22239794D01*
X85803222Y-22239785D01*
X85787568Y-22212671D01*
X85681936Y-22029711D01*
X85621018Y-21950321D01*
X85534266Y-21837263D01*
X85534260Y-21837256D01*
X85362743Y-21665739D01*
X85362736Y-21665733D01*
X85170293Y-21518067D01*
X85170292Y-21518066D01*
X85170289Y-21518064D01*
X84960212Y-21396776D01*
X84960205Y-21396773D01*
X84736104Y-21303947D01*
X84501785Y-21241161D01*
X84261289Y-21209500D01*
X84261288Y-21209500D01*
X84018712Y-21209500D01*
X84018711Y-21209500D01*
X83778214Y-21241161D01*
X83543895Y-21303947D01*
X83319794Y-21396773D01*
X83319785Y-21396777D01*
X83109706Y-21518067D01*
X82917263Y-21665733D01*
X82917256Y-21665739D01*
X82745739Y-21837256D01*
X82745733Y-21837263D01*
X82598067Y-22029706D01*
X82476777Y-22239785D01*
X82476773Y-22239794D01*
X82383947Y-22463895D01*
X82321161Y-22698214D01*
X82289500Y-22938711D01*
X78093613Y-22938711D01*
X78093613Y-18174387D01*
X78113298Y-18107348D01*
X78166102Y-18061593D01*
X78217613Y-18050387D01*
X142968613Y-18050387D01*
X143035652Y-18070072D01*
G37*
%TD.AperFunction*%
%TD*%
M02*
