%TF.GenerationSoftware,KiCad,Pcbnew,9.0.7*%
%TF.CreationDate,2026-03-21T01:28:49-04:00*%
%TF.ProjectId,pneu_pwr_brd_11_19_25,706e6575-5f70-4777-925f-6272645f3131,rev?*%
%TF.SameCoordinates,Original*%
%TF.FileFunction,Paste,Top*%
%TF.FilePolarity,Positive*%
%FSLAX46Y46*%
G04 Gerber Fmt 4.6, Leading zero omitted, Abs format (unit mm)*
G04 Created by KiCad (PCBNEW 9.0.7) date 2026-03-21 01:28:49*
%MOMM*%
%LPD*%
G01*
G04 APERTURE LIST*
G04 Aperture macros list*
%AMRoundRect*
0 Rectangle with rounded corners*
0 $1 Rounding radius*
0 $2 $3 $4 $5 $6 $7 $8 $9 X,Y pos of 4 corners*
0 Add a 4 corners polygon primitive as box body*
4,1,4,$2,$3,$4,$5,$6,$7,$8,$9,$2,$3,0*
0 Add four circle primitives for the rounded corners*
1,1,$1+$1,$2,$3*
1,1,$1+$1,$4,$5*
1,1,$1+$1,$6,$7*
1,1,$1+$1,$8,$9*
0 Add four rect primitives between the rounded corners*
20,1,$1+$1,$2,$3,$4,$5,0*
20,1,$1+$1,$4,$5,$6,$7,0*
20,1,$1+$1,$6,$7,$8,$9,0*
20,1,$1+$1,$8,$9,$2,$3,0*%
G04 Aperture macros list end*
%ADD10RoundRect,0.200000X0.200000X0.275000X-0.200000X0.275000X-0.200000X-0.275000X0.200000X-0.275000X0*%
%ADD11RoundRect,0.150000X-0.512500X-0.150000X0.512500X-0.150000X0.512500X0.150000X-0.512500X0.150000X0*%
%ADD12RoundRect,0.140000X0.170000X-0.140000X0.170000X0.140000X-0.170000X0.140000X-0.170000X-0.140000X0*%
%ADD13RoundRect,0.250000X0.337500X0.475000X-0.337500X0.475000X-0.337500X-0.475000X0.337500X-0.475000X0*%
%ADD14R,1.200000X1.400000*%
%ADD15RoundRect,0.075000X-0.700000X-0.075000X0.700000X-0.075000X0.700000X0.075000X-0.700000X0.075000X0*%
%ADD16RoundRect,0.075000X-0.075000X-0.700000X0.075000X-0.700000X0.075000X0.700000X-0.075000X0.700000X0*%
%ADD17RoundRect,0.250000X-0.350000X-0.450000X0.350000X-0.450000X0.350000X0.450000X-0.350000X0.450000X0*%
%ADD18RoundRect,0.250000X-0.337500X-0.475000X0.337500X-0.475000X0.337500X0.475000X-0.337500X0.475000X0*%
%ADD19RoundRect,0.225000X-0.225000X-0.250000X0.225000X-0.250000X0.225000X0.250000X-0.225000X0.250000X0*%
%ADD20RoundRect,0.250000X-0.475000X0.337500X-0.475000X-0.337500X0.475000X-0.337500X0.475000X0.337500X0*%
%ADD21RoundRect,0.200000X-0.200000X-0.275000X0.200000X-0.275000X0.200000X0.275000X-0.200000X0.275000X0*%
%ADD22RoundRect,0.155000X-0.155000X0.212500X-0.155000X-0.212500X0.155000X-0.212500X0.155000X0.212500X0*%
%ADD23RoundRect,0.250000X0.450000X-0.350000X0.450000X0.350000X-0.450000X0.350000X-0.450000X-0.350000X0*%
%ADD24R,1.969999X0.558000*%
%ADD25RoundRect,0.250000X0.375000X0.625000X-0.375000X0.625000X-0.375000X-0.625000X0.375000X-0.625000X0*%
%ADD26RoundRect,0.135000X0.185000X-0.135000X0.185000X0.135000X-0.185000X0.135000X-0.185000X-0.135000X0*%
%ADD27RoundRect,0.155000X0.212500X0.155000X-0.212500X0.155000X-0.212500X-0.155000X0.212500X-0.155000X0*%
%ADD28R,1.327899X0.431000*%
G04 APERTURE END LIST*
D10*
%TO.C,R18*%
X120550000Y-75855000D03*
X122200000Y-75855000D03*
%TD*%
%TO.C,R14*%
X120550000Y-74265000D03*
X122200000Y-74265000D03*
%TD*%
%TO.C,R17*%
X120525000Y-72735000D03*
X122175000Y-72735000D03*
%TD*%
D11*
%TO.C,U8*%
X106715000Y-41360000D03*
X106715000Y-42310000D03*
X106715000Y-43260000D03*
X108990000Y-43260000D03*
X108990000Y-41360000D03*
%TD*%
D12*
%TO.C,C20*%
X105230000Y-43260000D03*
X105230000Y-42300000D03*
%TD*%
D13*
%TO.C,Bulk_1*%
X112584500Y-55454500D03*
X110509500Y-55454500D03*
%TD*%
D14*
%TO.C,Y1*%
X109490000Y-66435000D03*
X109490000Y-68635000D03*
X111190000Y-68635000D03*
X111190000Y-66435000D03*
%TD*%
D12*
%TO.C,C16*%
X91650000Y-42780000D03*
X91650000Y-41820000D03*
%TD*%
D15*
%TO.C,U6*%
X114615000Y-58555000D03*
X114615000Y-59055000D03*
X114615000Y-59555000D03*
X114615000Y-60055000D03*
X114615000Y-60555000D03*
X114615000Y-61055000D03*
X114615000Y-61555000D03*
X114615000Y-62055000D03*
X114615000Y-62555000D03*
X114615000Y-63055000D03*
X114615000Y-63555000D03*
X114615000Y-64055000D03*
X114615000Y-64555000D03*
X114615000Y-65055000D03*
X114615000Y-65555000D03*
X114615000Y-66055000D03*
D16*
X116540000Y-67980000D03*
X117040000Y-67980000D03*
X117540000Y-67980000D03*
X118040000Y-67980000D03*
X118540000Y-67980000D03*
X119040000Y-67980000D03*
X119540000Y-67980000D03*
X120040000Y-67980000D03*
X120540000Y-67980000D03*
X121040000Y-67980000D03*
X121540000Y-67980000D03*
X122040000Y-67980000D03*
X122540000Y-67980000D03*
X123040000Y-67980000D03*
X123540000Y-67980000D03*
X124040000Y-67980000D03*
D15*
X125965000Y-66055000D03*
X125965000Y-65555000D03*
X125965000Y-65055000D03*
X125965000Y-64555000D03*
X125965000Y-64055000D03*
X125965000Y-63555000D03*
X125965000Y-63055000D03*
X125965000Y-62555000D03*
X125965000Y-62055000D03*
X125965000Y-61555000D03*
X125965000Y-61055000D03*
X125965000Y-60555000D03*
X125965000Y-60055000D03*
X125965000Y-59555000D03*
X125965000Y-59055000D03*
X125965000Y-58555000D03*
D16*
X124040000Y-56630000D03*
X123540000Y-56630000D03*
X123040000Y-56630000D03*
X122540000Y-56630000D03*
X122040000Y-56630000D03*
X121540000Y-56630000D03*
X121040000Y-56630000D03*
X120540000Y-56630000D03*
X120040000Y-56630000D03*
X119540000Y-56630000D03*
X119040000Y-56630000D03*
X118540000Y-56630000D03*
X118040000Y-56630000D03*
X117540000Y-56630000D03*
X117040000Y-56630000D03*
X116540000Y-56630000D03*
%TD*%
D10*
%TO.C,R16*%
X112485000Y-72890000D03*
X110835000Y-72890000D03*
%TD*%
D12*
%TO.C,C13*%
X131467500Y-43322500D03*
X131467500Y-42362500D03*
%TD*%
%TO.C,C17*%
X117595000Y-43470000D03*
X117595000Y-42510000D03*
%TD*%
D17*
%TO.C,R9*%
X103300000Y-26700000D03*
X105300000Y-26700000D03*
%TD*%
D12*
%TO.C,C1*%
X92017500Y-78820000D03*
X92017500Y-77860000D03*
%TD*%
D18*
%TO.C,Bulk_22*%
X97145000Y-55110000D03*
X99220000Y-55110000D03*
%TD*%
%TO.C,Bulk_4.7*%
X110499500Y-57714500D03*
X112574500Y-57714500D03*
%TD*%
D11*
%TO.C,U3*%
X133952500Y-41392500D03*
X133952500Y-42342500D03*
X133952500Y-43292500D03*
X136227500Y-43292500D03*
X136227500Y-41392500D03*
%TD*%
D17*
%TO.C,R11*%
X89550000Y-26520000D03*
X91550000Y-26520000D03*
%TD*%
D19*
%TO.C,C5*%
X113970000Y-70650000D03*
X115520000Y-70650000D03*
%TD*%
D17*
%TO.C,BOOT_R1*%
X129750000Y-67590000D03*
X131750000Y-67590000D03*
%TD*%
D11*
%TO.C,U9*%
X93145000Y-40840000D03*
X93145000Y-41790000D03*
X93145000Y-42740000D03*
X95420000Y-42740000D03*
X95420000Y-40840000D03*
%TD*%
D20*
%TO.C,T_Cd1*%
X100982500Y-50175000D03*
X100982500Y-52250000D03*
%TD*%
D17*
%TO.C,R7*%
X116322500Y-26532500D03*
X118322500Y-26532500D03*
%TD*%
D21*
%TO.C,R15*%
X110845000Y-71360000D03*
X112495000Y-71360000D03*
%TD*%
D19*
%TO.C,C6*%
X112410000Y-76530000D03*
X113960000Y-76530000D03*
%TD*%
D12*
%TO.C,C15*%
X90650000Y-42770000D03*
X90650000Y-41810000D03*
%TD*%
D22*
%TO.C,C11*%
X112630000Y-67132500D03*
X112630000Y-68267500D03*
%TD*%
D11*
%TO.C,U4*%
X120145000Y-41580000D03*
X120145000Y-42530000D03*
X120145000Y-43480000D03*
X122420000Y-43480000D03*
X122420000Y-41580000D03*
%TD*%
D20*
%TO.C,C8*%
X112514500Y-60009500D03*
X112514500Y-62084500D03*
%TD*%
D13*
%TO.C,T_Cd2*%
X95277500Y-55070000D03*
X93202500Y-55070000D03*
%TD*%
D23*
%TO.C,R4*%
X136162500Y-39552500D03*
X136162500Y-37552500D03*
%TD*%
D10*
%TO.C,R12*%
X112450000Y-74430000D03*
X110800000Y-74430000D03*
%TD*%
D24*
%TO.C,U7*%
X98570100Y-53122500D03*
X98570100Y-51852500D03*
X98570100Y-50582500D03*
X98570100Y-49312500D03*
X93642500Y-49312500D03*
X93642500Y-50582500D03*
X93642500Y-51852500D03*
X93642500Y-53122500D03*
%TD*%
D25*
%TO.C,F2*%
X98100000Y-75520000D03*
X95300000Y-75520000D03*
%TD*%
D11*
%TO.C,Q1*%
X91115000Y-74640000D03*
X91115000Y-76540000D03*
X93390000Y-75590000D03*
%TD*%
D26*
%TO.C,R2*%
X90700000Y-78840000D03*
X90700000Y-77820000D03*
%TD*%
D23*
%TO.C,R8*%
X108880000Y-39580000D03*
X108880000Y-37580000D03*
%TD*%
%TO.C,R10*%
X95430000Y-39010000D03*
X95430000Y-37010000D03*
%TD*%
D27*
%TO.C,C10*%
X110390000Y-64955000D03*
X109255000Y-64955000D03*
%TD*%
D12*
%TO.C,C18*%
X118655000Y-43500000D03*
X118655000Y-42540000D03*
%TD*%
D28*
%TO.C,U5*%
X114281652Y-72530021D03*
X114281652Y-73180007D03*
X114281652Y-73829993D03*
X114281652Y-74479979D03*
X118708348Y-74479979D03*
X118708348Y-73829993D03*
X118708348Y-73180007D03*
X118708348Y-72530021D03*
%TD*%
D20*
%TO.C,C7*%
X110494500Y-60009500D03*
X110494500Y-62084500D03*
%TD*%
D26*
%TO.C,R1*%
X93260000Y-78830000D03*
X93260000Y-77810000D03*
%TD*%
D12*
%TO.C,C19*%
X104190000Y-43260000D03*
X104190000Y-42300000D03*
%TD*%
D17*
%TO.C,R5*%
X129900000Y-26450000D03*
X131900000Y-26450000D03*
%TD*%
D12*
%TO.C,C12*%
X89640000Y-75570000D03*
X89640000Y-74610000D03*
%TD*%
%TO.C,C14*%
X132477500Y-43332500D03*
X132477500Y-42372500D03*
%TD*%
D23*
%TO.C,R6*%
X122352500Y-39892500D03*
X122352500Y-37892500D03*
%TD*%
M02*
