M48
; DRILL file {KiCad 9.0.7} date 2026-03-21T01:28:57-0400
; FORMAT={-:-/ absolute / metric / decimal}
; #@! TF.CreationDate,2026-03-21T01:28:57-04:00
; #@! TF.GenerationSoftware,Kicad,Pcbnew,9.0.7
; #@! TF.FileFunction,Plated,1,4,PTH
FMAT,2
METRIC
; #@! TA.AperFunction,Plated,PTH,ViaDrill
T1C0.400
; #@! TA.AperFunction,Plated,PTH,ComponentDrill
T2C0.500
; #@! TA.AperFunction,Plated,PTH,ComponentDrill
T3C0.750
; #@! TA.AperFunction,Plated,PTH,ComponentDrill
T4C0.800
; #@! TA.AperFunction,Plated,PTH,ComponentDrill
T5C0.889
; #@! TA.AperFunction,Plated,PTH,ComponentDrill
T6C1.000
; #@! TA.AperFunction,Plated,PTH,ComponentDrill
T7C1.100
%
G90
G05
T1
X79.61Y-59.31
X79.61Y-62.81
X79.61Y-66.31
X79.88Y-30.17
X79.88Y-33.67
X79.88Y-37.17
X79.88Y-40.67
X79.88Y-44.17
X79.92Y-27.77
X80.36Y-57.07
X80.87Y-70.01
X82.54Y-57.11
X83.05Y-70.05
X84.71Y-57.14
X85.22Y-70.08
X89.4Y-78.83
X89.402Y-42.692
X89.522Y-24.872
X89.58Y-70.41
X89.6Y-71.36
X89.6Y-72.36
X89.6Y-73.36
X90.58Y-70.41
X90.6Y-71.36
X90.6Y-72.36
X90.6Y-73.36
X90.642Y-43.773
X91.58Y-70.41
X91.6Y-71.36
X91.6Y-72.36
X91.6Y-73.36
X92.57Y-70.43
X92.59Y-71.38
X92.59Y-72.38
X92.59Y-73.38
X93.19Y-56.78
X95.27Y-59.29
X95.662Y-44.273
X96.61Y-57.86
X96.98Y-67.45
X97.02Y-65.27
X97.05Y-63.1
X97.85Y-69.25
X100.03Y-69.29
X100.8Y-55.08
X102.2Y-69.32
X102.65Y-52.29
X102.822Y-42.883
X103.302Y-25.082
X104.142Y-44.252
X107.93Y-68.46
X108.79Y-62.41
X109.47Y-63.78
X109.522Y-44.722
X110.91Y-76.61
X113.83Y-68.26
X114.09Y-55.47
X114.72Y-69.23
X115.49Y-76.595
X116.312Y-42.582
X116.322Y-24.902
X116.78Y-61.087
X117.622Y-44.432
X118.44Y-76.585
X119.77Y-71.26
X122.852Y-44.962
X129.922Y-24.793
X130.213Y-42.332
X131.472Y-44.322
X136.352Y-44.732
X140.99Y-27.67
X140.99Y-31.17
X140.99Y-34.67
X140.99Y-38.17
X140.99Y-41.67
X140.99Y-45.17
X140.99Y-48.67
X140.99Y-52.17
X140.99Y-55.67
X140.99Y-59.17
X140.99Y-62.67
X140.99Y-66.17
X140.99Y-69.67
X140.99Y-73.17
T2
X91.8Y-45.49
X93.34Y-61.83
X93.65Y-22.84
X95.92Y-71.47
X104.45Y-72.09
X106.34Y-45.89
X107.24Y-81.15
X107.27Y-78.48
X107.32Y-23.59
X107.61Y-58.04
X108.84Y-52.05
X116.27Y-21.38
X119.44Y-46.29
X120.48Y-23.67
X132.04Y-22.88
X133.91Y-46.76
T3
X80.96Y-49.11
X82.96Y-49.11
X92.03Y-35.28
X92.03Y-37.28
X97.92Y-79.38
X99.92Y-79.38
X105.54Y-35.94
X105.54Y-37.94
X115.828Y-79.528
X117.828Y-79.528
X119.112Y-36.282
X119.112Y-38.282
X124.76Y-79.56
X126.76Y-79.56
X132.7Y-35.96
X132.7Y-37.96
T4
X88.09Y-59.85
X88.09Y-61.85
X88.19Y-65.58
X88.19Y-67.58
X105.34Y-60.99
X105.34Y-62.99
T5
X130.907Y-57.912
X130.907Y-60.412
X130.907Y-62.912
T6
X87.46Y-49.41
X87.49Y-53.21
X90.0Y-49.41
X90.03Y-53.21
X127.64Y-70.88
X130.18Y-70.88
X132.72Y-70.88
X135.28Y-56.19
X135.28Y-58.73
X135.28Y-61.27
T7
X83.66Y-60.76
X83.66Y-63.3
X83.66Y-65.84
X85.49Y-34.03
X85.49Y-44.19
X86.501Y-29.04
X89.041Y-29.04
X91.581Y-29.04
X98.77Y-34.32
X98.77Y-44.48
X99.922Y-29.296
X100.91Y-60.76
X100.91Y-63.3
X100.91Y-65.84
X102.462Y-29.296
X105.002Y-29.296
X112.252Y-34.053
X112.252Y-44.212
X113.276Y-29.081
X115.816Y-29.081
X118.356Y-29.081
X125.77Y-33.91
X125.77Y-44.07
X126.786Y-29.049
X129.326Y-29.049
X131.867Y-29.049
M30
