%TF.GenerationSoftware,KiCad,Pcbnew,7.0.7*%
%TF.CreationDate,2024-03-27T23:02:26-04:00*%
%TF.ProjectId,pneu_pwr_brd,706e6575-5f70-4777-925f-6272642e6b69,rev?*%
%TF.SameCoordinates,Original*%
%TF.FileFunction,Copper,L2,Bot*%
%TF.FilePolarity,Positive*%
%FSLAX46Y46*%
G04 Gerber Fmt 4.6, Leading zero omitted, Abs format (unit mm)*
G04 Created by KiCad (PCBNEW 7.0.7) date 2024-03-27 23:02:26*
%MOMM*%
%LPD*%
G01*
G04 APERTURE LIST*
G04 Aperture macros list*
%AMRoundRect*
0 Rectangle with rounded corners*
0 $1 Rounding radius*
0 $2 $3 $4 $5 $6 $7 $8 $9 X,Y pos of 4 corners*
0 Add a 4 corners polygon primitive as box body*
4,1,4,$2,$3,$4,$5,$6,$7,$8,$9,$2,$3,0*
0 Add four circle primitives for the rounded corners*
1,1,$1+$1,$2,$3*
1,1,$1+$1,$4,$5*
1,1,$1+$1,$6,$7*
1,1,$1+$1,$8,$9*
0 Add four rect primitives between the rounded corners*
20,1,$1+$1,$2,$3,$4,$5,0*
20,1,$1+$1,$4,$5,$6,$7,0*
20,1,$1+$1,$6,$7,$8,$9,0*
20,1,$1+$1,$8,$9,$2,$3,0*%
G04 Aperture macros list end*
%TA.AperFunction,ComponentPad*%
%ADD10RoundRect,0.250000X-0.350000X-0.625000X0.350000X-0.625000X0.350000X0.625000X-0.350000X0.625000X0*%
%TD*%
%TA.AperFunction,ComponentPad*%
%ADD11O,1.200000X1.750000*%
%TD*%
%TA.AperFunction,ComponentPad*%
%ADD12R,2.000000X1.905000*%
%TD*%
%TA.AperFunction,ComponentPad*%
%ADD13O,2.000000X1.905000*%
%TD*%
%TA.AperFunction,ComponentPad*%
%ADD14R,2.200000X2.200000*%
%TD*%
%TA.AperFunction,ComponentPad*%
%ADD15O,2.200000X2.200000*%
%TD*%
%TA.AperFunction,ComponentPad*%
%ADD16R,1.600000X1.600000*%
%TD*%
%TA.AperFunction,ComponentPad*%
%ADD17C,1.600000*%
%TD*%
%TA.AperFunction,ComponentPad*%
%ADD18RoundRect,0.250000X0.350000X0.625000X-0.350000X0.625000X-0.350000X-0.625000X0.350000X-0.625000X0*%
%TD*%
%TA.AperFunction,ViaPad*%
%ADD19C,0.800000*%
%TD*%
%TA.AperFunction,Conductor*%
%ADD20C,0.250000*%
%TD*%
%TA.AperFunction,Conductor*%
%ADD21C,0.500000*%
%TD*%
G04 APERTURE END LIST*
D10*
%TO.P,J6,1,Pin_1*%
%TO.N,SLN1+*%
X155448000Y-94023000D03*
D11*
%TO.P,J6,2,Pin_2*%
%TO.N,SLN4-*%
X157448000Y-94023000D03*
%TD*%
D12*
%TO.P,U1,1,IN*%
%TO.N,SLN1+*%
X177348000Y-72898000D03*
D13*
%TO.P,U1,2,GND*%
%TO.N,GND*%
X177348000Y-70358000D03*
%TO.P,U1,3,OUT*%
%TO.N,+5V*%
X177348000Y-67818000D03*
%TD*%
D12*
%TO.P,Q6,1,G*%
%TO.N,Net-(Q6-G)*%
X144978000Y-94361000D03*
D13*
%TO.P,Q6,2,D*%
%TO.N,SLN4-*%
X144978000Y-96901000D03*
%TO.P,Q6,3,S*%
%TO.N,GND*%
X144978000Y-99441000D03*
%TD*%
D10*
%TO.P,J3,1,Pin_1*%
%TO.N,SLN1+*%
X155464000Y-53806000D03*
D11*
%TO.P,J3,2,Pin_2*%
%TO.N,SLN1-*%
X157464000Y-53806000D03*
%TD*%
D14*
%TO.P,D4,1,K*%
%TO.N,SLN1+*%
X151368000Y-100542000D03*
D15*
%TO.P,D4,2,A*%
%TO.N,SLN4-*%
X161528000Y-100542000D03*
%TD*%
D16*
%TO.P,C4,1*%
%TO.N,+3.3V*%
X170815000Y-92770888D03*
D17*
%TO.P,C4,2*%
%TO.N,GND*%
X170815000Y-94770888D03*
%TD*%
D14*
%TO.P,D2,1,K*%
%TO.N,SLN1+*%
X151368000Y-73745000D03*
D15*
%TO.P,D2,2,A*%
%TO.N,SLN2-*%
X161528000Y-73745000D03*
%TD*%
D18*
%TO.P,J2,1,Pin_1*%
%TO.N,Net-(J2-Pin_1)*%
X171561000Y-100753000D03*
D11*
%TO.P,J2,2,Pin_2*%
%TO.N,GND*%
X169561000Y-100753000D03*
%TD*%
D14*
%TO.P,D1,1,K*%
%TO.N,SLN1+*%
X151368000Y-60283000D03*
D15*
%TO.P,D1,2,A*%
%TO.N,SLN1-*%
X161528000Y-60283000D03*
%TD*%
D12*
%TO.P,Q3,1,G*%
%TO.N,Net-(Q3-G)*%
X144851000Y-54102000D03*
D13*
%TO.P,Q3,2,D*%
%TO.N,SLN1-*%
X144851000Y-56642000D03*
%TO.P,Q3,3,S*%
%TO.N,GND*%
X144851000Y-59182000D03*
%TD*%
D18*
%TO.P,J1,1,Pin_1*%
%TO.N,Net-(J1-Pin_1)*%
X182483000Y-100753000D03*
D11*
%TO.P,J1,2,Pin_2*%
%TO.N,Net-(J1-Pin_2)*%
X180483000Y-100753000D03*
%TD*%
D16*
%TO.P,C2,1*%
%TO.N,SLN1+*%
X173802113Y-79375000D03*
D17*
%TO.P,C2,2*%
%TO.N,GND*%
X171802113Y-79375000D03*
%TD*%
D12*
%TO.P,Q5,1,G*%
%TO.N,Net-(Q5-G)*%
X144978000Y-81026000D03*
D13*
%TO.P,Q5,2,D*%
%TO.N,SLN3-*%
X144978000Y-83566000D03*
%TO.P,Q5,3,S*%
%TO.N,GND*%
X144978000Y-86106000D03*
%TD*%
D14*
%TO.P,D3,1,K*%
%TO.N,SLN1+*%
X151368000Y-87207000D03*
D15*
%TO.P,D3,2,A*%
%TO.N,SLN3-*%
X161528000Y-87207000D03*
%TD*%
D10*
%TO.P,J4,1,Pin_1*%
%TO.N,SLN1+*%
X155432000Y-67268000D03*
D11*
%TO.P,J4,2,Pin_2*%
%TO.N,SLN2-*%
X157432000Y-67268000D03*
%TD*%
D10*
%TO.P,J5,1,Pin_1*%
%TO.N,SLN1+*%
X155448000Y-80688000D03*
D11*
%TO.P,J5,2,Pin_2*%
%TO.N,SLN3-*%
X157448000Y-80688000D03*
%TD*%
D16*
%TO.P,C3,1*%
%TO.N,+5V*%
X180908888Y-61087000D03*
D17*
%TO.P,C3,2*%
%TO.N,GND*%
X182908888Y-61087000D03*
%TD*%
D12*
%TO.P,Q4,1,G*%
%TO.N,Net-(Q4-G)*%
X144851000Y-67564000D03*
D13*
%TO.P,Q4,2,D*%
%TO.N,SLN2-*%
X144851000Y-70104000D03*
%TO.P,Q4,3,S*%
%TO.N,GND*%
X144851000Y-72644000D03*
%TD*%
D12*
%TO.P,U2,1,GND*%
%TO.N,GND*%
X177348000Y-90297000D03*
D13*
%TO.P,U2,2,VO*%
%TO.N,+3.3V*%
X177348000Y-87757000D03*
%TO.P,U2,3,VI*%
%TO.N,SLN1+*%
X177348000Y-85217000D03*
%TD*%
D16*
%TO.P,C1,1*%
%TO.N,+5V*%
X164271888Y-57150000D03*
D17*
%TO.P,C1,2*%
%TO.N,GND*%
X166271888Y-57150000D03*
%TD*%
D19*
%TO.N,+5V*%
X180086000Y-52578000D03*
X170053000Y-53213000D03*
%TO.N,+3.3V*%
X180848000Y-85725000D03*
X178943000Y-77216000D03*
%TD*%
D20*
%TO.N,+5V*%
X180908888Y-53400888D02*
X180086000Y-52578000D01*
X180908888Y-64257112D02*
X180908888Y-63627000D01*
X170053000Y-53213000D02*
X168208888Y-53213000D01*
X177348000Y-67818000D02*
X180908888Y-64257112D01*
X168208888Y-53213000D02*
X164271888Y-57150000D01*
X180908888Y-63627000D02*
X180908888Y-53400888D01*
D21*
%TO.N,SLN1+*%
X177348000Y-72898000D02*
X176645000Y-72195000D01*
X155448000Y-67284000D02*
X155432000Y-67268000D01*
X155432000Y-67268000D02*
X155464000Y-67236000D01*
D20*
%TO.N,+3.3V*%
X178943000Y-86162000D02*
X177348000Y-87757000D01*
X180848000Y-85725000D02*
X180721000Y-85852000D01*
X178816000Y-87757000D02*
X177348000Y-87757000D01*
X180848000Y-85725000D02*
X178816000Y-87757000D01*
X180721000Y-85852000D02*
X180721000Y-85852000D01*
X178943000Y-77216000D02*
X178943000Y-86162000D01*
%TD*%
%TA.AperFunction,Conductor*%
%TO.N,GND*%
G36*
X184854539Y-50947185D02*
G01*
X184900294Y-50999989D01*
X184911500Y-51051500D01*
X184911500Y-104269500D01*
X184891815Y-104336539D01*
X184839011Y-104382294D01*
X184787500Y-104393500D01*
X137411500Y-104393500D01*
X137344461Y-104373815D01*
X137298706Y-104321011D01*
X137287500Y-104269500D01*
X137287500Y-101689870D01*
X149767500Y-101689870D01*
X149767501Y-101689876D01*
X149773908Y-101749483D01*
X149824202Y-101884328D01*
X149824206Y-101884335D01*
X149910452Y-101999544D01*
X149910455Y-101999547D01*
X150025664Y-102085793D01*
X150025671Y-102085797D01*
X150160517Y-102136091D01*
X150160516Y-102136091D01*
X150167444Y-102136835D01*
X150220127Y-102142500D01*
X152515872Y-102142499D01*
X152575483Y-102136091D01*
X152710331Y-102085796D01*
X152825546Y-101999546D01*
X152911796Y-101884331D01*
X152962091Y-101749483D01*
X152968500Y-101689873D01*
X152968499Y-100541999D01*
X159922551Y-100541999D01*
X159942317Y-100793151D01*
X160001126Y-101038110D01*
X160097533Y-101270859D01*
X160229160Y-101485653D01*
X160229161Y-101485656D01*
X160267717Y-101530799D01*
X160392776Y-101677224D01*
X160490769Y-101760918D01*
X160584343Y-101840838D01*
X160584346Y-101840839D01*
X160799140Y-101972466D01*
X161017256Y-102062812D01*
X161031889Y-102068873D01*
X161276852Y-102127683D01*
X161528000Y-102147449D01*
X161779148Y-102127683D01*
X162024111Y-102068873D01*
X162256859Y-101972466D01*
X162471659Y-101840836D01*
X162663224Y-101677224D01*
X162826836Y-101485659D01*
X162862169Y-101428001D01*
X170460500Y-101428001D01*
X170460501Y-101428018D01*
X170471000Y-101530796D01*
X170471001Y-101530799D01*
X170496529Y-101607835D01*
X170526186Y-101697334D01*
X170618288Y-101846656D01*
X170742344Y-101970712D01*
X170891666Y-102062814D01*
X171058203Y-102117999D01*
X171160991Y-102128500D01*
X171961008Y-102128499D01*
X171961016Y-102128498D01*
X171961019Y-102128498D01*
X172022143Y-102122254D01*
X172063797Y-102117999D01*
X172230334Y-102062814D01*
X172379656Y-101970712D01*
X172503712Y-101846656D01*
X172595814Y-101697334D01*
X172650999Y-101530797D01*
X172661500Y-101428009D01*
X172661500Y-101080425D01*
X179382500Y-101080425D01*
X179397472Y-101237217D01*
X179397473Y-101237221D01*
X179453495Y-101428016D01*
X179456684Y-101438875D01*
X179480803Y-101485659D01*
X179552991Y-101625686D01*
X179682905Y-101790883D01*
X179682909Y-101790887D01*
X179841746Y-101928521D01*
X180023750Y-102033601D01*
X180023752Y-102033601D01*
X180023756Y-102033604D01*
X180222367Y-102102344D01*
X180430398Y-102132254D01*
X180640330Y-102122254D01*
X180844576Y-102072704D01*
X181004767Y-101999547D01*
X181035743Y-101985401D01*
X181035746Y-101985399D01*
X181035753Y-101985396D01*
X181206952Y-101863486D01*
X181304751Y-101760916D01*
X181365258Y-101725983D01*
X181435049Y-101729307D01*
X181491963Y-101769835D01*
X181500030Y-101781388D01*
X181540288Y-101846656D01*
X181664344Y-101970712D01*
X181813666Y-102062814D01*
X181980203Y-102117999D01*
X182082991Y-102128500D01*
X182883008Y-102128499D01*
X182883016Y-102128498D01*
X182883019Y-102128498D01*
X182944143Y-102122254D01*
X182985797Y-102117999D01*
X183152334Y-102062814D01*
X183301656Y-101970712D01*
X183425712Y-101846656D01*
X183517814Y-101697334D01*
X183572999Y-101530797D01*
X183583500Y-101428009D01*
X183583499Y-100077992D01*
X183572999Y-99975203D01*
X183517814Y-99808666D01*
X183425712Y-99659344D01*
X183301656Y-99535288D01*
X183208888Y-99478069D01*
X183152336Y-99443187D01*
X183152331Y-99443185D01*
X183122488Y-99433296D01*
X182985797Y-99388001D01*
X182985795Y-99388000D01*
X182883010Y-99377500D01*
X182082998Y-99377500D01*
X182082980Y-99377501D01*
X181980203Y-99388000D01*
X181980200Y-99388001D01*
X181813668Y-99443185D01*
X181813663Y-99443187D01*
X181664342Y-99535289D01*
X181540288Y-99659343D01*
X181540285Y-99659347D01*
X181501184Y-99722740D01*
X181449236Y-99769465D01*
X181380274Y-99780686D01*
X181316192Y-99752843D01*
X181298175Y-99734294D01*
X181283092Y-99715114D01*
X181283090Y-99715112D01*
X181124253Y-99577478D01*
X180942249Y-99472398D01*
X180942245Y-99472396D01*
X180942244Y-99472396D01*
X180743633Y-99403656D01*
X180535602Y-99373746D01*
X180535598Y-99373746D01*
X180325672Y-99383745D01*
X180121421Y-99433296D01*
X180121417Y-99433298D01*
X179930256Y-99520598D01*
X179930251Y-99520601D01*
X179759046Y-99642515D01*
X179759040Y-99642520D01*
X179614014Y-99794620D01*
X179500388Y-99971425D01*
X179422274Y-100166544D01*
X179398317Y-100290848D01*
X179382500Y-100372915D01*
X179382500Y-101080425D01*
X172661500Y-101080425D01*
X172661499Y-100077992D01*
X172650999Y-99975203D01*
X172595814Y-99808666D01*
X172503712Y-99659344D01*
X172379656Y-99535288D01*
X172286888Y-99478069D01*
X172230336Y-99443187D01*
X172230331Y-99443185D01*
X172200488Y-99433296D01*
X172063797Y-99388001D01*
X172063795Y-99388000D01*
X171961010Y-99377500D01*
X171160998Y-99377500D01*
X171160980Y-99377501D01*
X171058203Y-99388000D01*
X171058200Y-99388001D01*
X170891668Y-99443185D01*
X170891663Y-99443187D01*
X170742342Y-99535289D01*
X170618289Y-99659342D01*
X170526187Y-99808663D01*
X170526185Y-99808666D01*
X170526186Y-99808666D01*
X170471001Y-99975203D01*
X170471001Y-99975204D01*
X170471000Y-99975204D01*
X170460500Y-100077983D01*
X170460500Y-101428001D01*
X162862169Y-101428001D01*
X162958466Y-101270859D01*
X163054873Y-101038111D01*
X163113683Y-100793148D01*
X163133449Y-100542000D01*
X163113683Y-100290852D01*
X163054873Y-100045889D01*
X163054873Y-100045888D01*
X162958466Y-99813140D01*
X162826839Y-99598346D01*
X162826838Y-99598343D01*
X162719270Y-99472398D01*
X162663224Y-99406776D01*
X162536571Y-99298604D01*
X162471656Y-99243161D01*
X162471653Y-99243160D01*
X162256859Y-99111533D01*
X162024110Y-99015126D01*
X161779151Y-98956317D01*
X161528000Y-98936551D01*
X161276848Y-98956317D01*
X161031889Y-99015126D01*
X160799140Y-99111533D01*
X160584346Y-99243160D01*
X160584343Y-99243161D01*
X160392776Y-99406776D01*
X160229161Y-99598343D01*
X160229160Y-99598346D01*
X160097533Y-99813140D01*
X160001126Y-100045889D01*
X159942317Y-100290848D01*
X159922551Y-100541999D01*
X152968499Y-100541999D01*
X152968499Y-99394128D01*
X152962091Y-99334517D01*
X152928017Y-99243161D01*
X152911797Y-99199671D01*
X152911793Y-99199664D01*
X152825547Y-99084455D01*
X152825544Y-99084452D01*
X152710335Y-98998206D01*
X152710328Y-98998202D01*
X152575482Y-98947908D01*
X152575483Y-98947908D01*
X152515883Y-98941501D01*
X152515881Y-98941500D01*
X152515873Y-98941500D01*
X152515864Y-98941500D01*
X150220129Y-98941500D01*
X150220123Y-98941501D01*
X150160516Y-98947908D01*
X150025671Y-98998202D01*
X150025664Y-98998206D01*
X149910455Y-99084452D01*
X149910452Y-99084455D01*
X149824206Y-99199664D01*
X149824202Y-99199671D01*
X149773908Y-99334517D01*
X149767501Y-99394116D01*
X149767501Y-99394123D01*
X149767500Y-99394135D01*
X149767500Y-101689870D01*
X137287500Y-101689870D01*
X137287500Y-97021397D01*
X143477500Y-97021397D01*
X143517134Y-97258916D01*
X143595318Y-97486656D01*
X143595321Y-97486665D01*
X143709929Y-97698441D01*
X143753451Y-97754358D01*
X143857829Y-97888463D01*
X144034990Y-98051551D01*
X144236578Y-98183255D01*
X144457095Y-98279983D01*
X144690524Y-98339095D01*
X144870400Y-98354000D01*
X144870402Y-98354000D01*
X145085598Y-98354000D01*
X145085600Y-98354000D01*
X145265476Y-98339095D01*
X145498905Y-98279983D01*
X145719422Y-98183255D01*
X145921010Y-98051551D01*
X146098171Y-97888463D01*
X146246072Y-97698439D01*
X146360679Y-97486664D01*
X146438866Y-97258913D01*
X146478500Y-97021399D01*
X146478500Y-96780601D01*
X146438866Y-96543087D01*
X146360679Y-96315336D01*
X146246072Y-96103561D01*
X146246070Y-96103559D01*
X146246070Y-96103558D01*
X146246066Y-96103552D01*
X146135167Y-95961069D01*
X146109524Y-95896075D01*
X146123090Y-95827535D01*
X146171559Y-95777211D01*
X146189681Y-95768727D01*
X146220331Y-95757296D01*
X146335546Y-95671046D01*
X146421796Y-95555831D01*
X146472091Y-95420983D01*
X146478500Y-95361373D01*
X146478500Y-94698001D01*
X154347500Y-94698001D01*
X154347501Y-94698018D01*
X154358000Y-94800796D01*
X154358001Y-94800799D01*
X154389443Y-94895682D01*
X154413186Y-94967334D01*
X154505288Y-95116656D01*
X154629344Y-95240712D01*
X154778666Y-95332814D01*
X154945203Y-95387999D01*
X155047991Y-95398500D01*
X155848008Y-95398499D01*
X155848016Y-95398498D01*
X155848019Y-95398498D01*
X155909143Y-95392254D01*
X155950797Y-95387999D01*
X156117334Y-95332814D01*
X156266656Y-95240712D01*
X156390712Y-95116656D01*
X156429815Y-95053258D01*
X156481761Y-95006535D01*
X156550723Y-94995312D01*
X156614806Y-95023155D01*
X156632824Y-95041705D01*
X156647907Y-95060885D01*
X156647909Y-95060887D01*
X156806746Y-95198521D01*
X156988750Y-95303601D01*
X156988752Y-95303601D01*
X156988756Y-95303604D01*
X157187367Y-95372344D01*
X157395398Y-95402254D01*
X157605330Y-95392254D01*
X157809576Y-95342704D01*
X157895199Y-95303601D01*
X158000743Y-95255401D01*
X158000746Y-95255399D01*
X158000753Y-95255396D01*
X158171952Y-95133486D01*
X158187999Y-95116657D01*
X158316985Y-94981379D01*
X158326010Y-94967336D01*
X158430613Y-94804572D01*
X158508725Y-94609457D01*
X158548500Y-94403085D01*
X158548500Y-93695575D01*
X158541165Y-93618758D01*
X169514500Y-93618758D01*
X169514501Y-93618764D01*
X169520908Y-93678371D01*
X169571202Y-93813216D01*
X169571206Y-93813223D01*
X169657452Y-93928432D01*
X169657455Y-93928435D01*
X169772664Y-94014681D01*
X169772671Y-94014685D01*
X169907517Y-94064979D01*
X169907516Y-94064979D01*
X169914444Y-94065723D01*
X169967127Y-94071388D01*
X171662872Y-94071387D01*
X171722483Y-94064979D01*
X171857331Y-94014684D01*
X171972546Y-93928434D01*
X172058796Y-93813219D01*
X172109091Y-93678371D01*
X172115500Y-93618761D01*
X172115499Y-91923016D01*
X172109091Y-91863405D01*
X172058796Y-91728557D01*
X172058795Y-91728556D01*
X172058793Y-91728552D01*
X171972547Y-91613343D01*
X171972544Y-91613340D01*
X171857335Y-91527094D01*
X171857328Y-91527090D01*
X171722482Y-91476796D01*
X171722483Y-91476796D01*
X171662883Y-91470389D01*
X171662881Y-91470388D01*
X171662873Y-91470388D01*
X171662864Y-91470388D01*
X169967129Y-91470388D01*
X169967123Y-91470389D01*
X169907516Y-91476796D01*
X169772671Y-91527090D01*
X169772664Y-91527094D01*
X169657455Y-91613340D01*
X169657452Y-91613343D01*
X169571206Y-91728552D01*
X169571202Y-91728559D01*
X169520908Y-91863405D01*
X169514501Y-91923004D01*
X169514501Y-91923011D01*
X169514500Y-91923023D01*
X169514500Y-93618758D01*
X158541165Y-93618758D01*
X158533528Y-93538782D01*
X158474316Y-93337125D01*
X158378011Y-93150318D01*
X158378009Y-93150316D01*
X158378008Y-93150313D01*
X158248094Y-92985116D01*
X158248090Y-92985112D01*
X158089253Y-92847478D01*
X157907249Y-92742398D01*
X157907245Y-92742396D01*
X157907244Y-92742396D01*
X157708633Y-92673656D01*
X157500602Y-92643746D01*
X157500598Y-92643746D01*
X157290672Y-92653745D01*
X157086421Y-92703296D01*
X157086417Y-92703298D01*
X156895256Y-92790598D01*
X156895251Y-92790601D01*
X156724046Y-92912515D01*
X156724045Y-92912515D01*
X156626249Y-93015082D01*
X156565740Y-93050017D01*
X156495949Y-93046692D01*
X156439035Y-93006164D01*
X156430967Y-92994608D01*
X156412521Y-92964702D01*
X156390712Y-92929344D01*
X156266656Y-92805288D01*
X156173888Y-92748069D01*
X156117336Y-92713187D01*
X156117331Y-92713185D01*
X156087488Y-92703296D01*
X155950797Y-92658001D01*
X155950795Y-92658000D01*
X155848010Y-92647500D01*
X155047998Y-92647500D01*
X155047980Y-92647501D01*
X154945203Y-92658000D01*
X154945200Y-92658001D01*
X154778668Y-92713185D01*
X154778663Y-92713187D01*
X154629342Y-92805289D01*
X154505289Y-92929342D01*
X154413187Y-93078663D01*
X154413185Y-93078666D01*
X154413186Y-93078666D01*
X154358001Y-93245203D01*
X154358001Y-93245204D01*
X154358000Y-93245204D01*
X154347500Y-93347983D01*
X154347500Y-94698001D01*
X146478500Y-94698001D01*
X146478499Y-93360628D01*
X146472091Y-93301017D01*
X146421796Y-93166169D01*
X146421795Y-93166168D01*
X146421793Y-93166164D01*
X146335547Y-93050955D01*
X146335544Y-93050952D01*
X146220335Y-92964706D01*
X146220328Y-92964702D01*
X146085482Y-92914408D01*
X146085483Y-92914408D01*
X146025883Y-92908001D01*
X146025881Y-92908000D01*
X146025873Y-92908000D01*
X146025864Y-92908000D01*
X143930129Y-92908000D01*
X143930123Y-92908001D01*
X143870516Y-92914408D01*
X143735671Y-92964702D01*
X143735664Y-92964706D01*
X143620455Y-93050952D01*
X143620452Y-93050955D01*
X143534206Y-93166164D01*
X143534202Y-93166171D01*
X143483908Y-93301017D01*
X143477501Y-93360616D01*
X143477501Y-93360623D01*
X143477500Y-93360635D01*
X143477500Y-95361370D01*
X143477501Y-95361376D01*
X143483908Y-95420983D01*
X143534202Y-95555828D01*
X143534206Y-95555835D01*
X143620452Y-95671044D01*
X143620455Y-95671047D01*
X143735664Y-95757293D01*
X143735673Y-95757298D01*
X143766311Y-95768725D01*
X143822245Y-95810595D01*
X143846663Y-95876059D01*
X143831812Y-95944332D01*
X143820833Y-95961069D01*
X143709929Y-96103559D01*
X143595321Y-96315334D01*
X143595318Y-96315343D01*
X143517134Y-96543083D01*
X143477500Y-96780602D01*
X143477500Y-97021397D01*
X137287500Y-97021397D01*
X137287500Y-88354870D01*
X149767500Y-88354870D01*
X149767501Y-88354876D01*
X149773908Y-88414483D01*
X149824202Y-88549328D01*
X149824206Y-88549335D01*
X149910452Y-88664544D01*
X149910455Y-88664547D01*
X150025664Y-88750793D01*
X150025671Y-88750797D01*
X150160517Y-88801091D01*
X150160516Y-88801091D01*
X150167444Y-88801835D01*
X150220127Y-88807500D01*
X152515872Y-88807499D01*
X152575483Y-88801091D01*
X152710331Y-88750796D01*
X152825546Y-88664546D01*
X152911796Y-88549331D01*
X152962091Y-88414483D01*
X152968500Y-88354873D01*
X152968499Y-87206999D01*
X159922551Y-87206999D01*
X159942317Y-87458151D01*
X160001126Y-87703110D01*
X160097533Y-87935859D01*
X160229160Y-88150653D01*
X160229161Y-88150656D01*
X160254812Y-88180689D01*
X160392776Y-88342224D01*
X160517693Y-88448913D01*
X160584343Y-88505838D01*
X160584346Y-88505839D01*
X160799140Y-88637466D01*
X161031888Y-88733873D01*
X161031889Y-88733873D01*
X161276852Y-88792683D01*
X161528000Y-88812449D01*
X161779148Y-88792683D01*
X162024111Y-88733873D01*
X162256859Y-88637466D01*
X162471659Y-88505836D01*
X162663224Y-88342224D01*
X162826836Y-88150659D01*
X162958466Y-87935859D01*
X162982682Y-87877397D01*
X175847500Y-87877397D01*
X175887134Y-88114916D01*
X175965318Y-88342656D01*
X175965321Y-88342665D01*
X176079929Y-88554441D01*
X176123451Y-88610358D01*
X176227829Y-88744463D01*
X176404990Y-88907551D01*
X176606578Y-89039255D01*
X176827095Y-89135983D01*
X177060524Y-89195095D01*
X177240400Y-89210000D01*
X177240402Y-89210000D01*
X177455598Y-89210000D01*
X177455600Y-89210000D01*
X177635476Y-89195095D01*
X177868905Y-89135983D01*
X178089422Y-89039255D01*
X178291010Y-88907551D01*
X178468171Y-88744463D01*
X178616072Y-88554439D01*
X178673181Y-88448910D01*
X178722398Y-88399322D01*
X178778337Y-88383991D01*
X178824172Y-88382551D01*
X178825815Y-88382500D01*
X178855347Y-88382500D01*
X178855350Y-88382500D01*
X178862228Y-88381630D01*
X178868041Y-88381172D01*
X178914627Y-88379709D01*
X178933869Y-88374117D01*
X178952912Y-88370174D01*
X178972792Y-88367664D01*
X179016122Y-88350507D01*
X179021646Y-88348617D01*
X179025396Y-88347527D01*
X179066390Y-88335618D01*
X179083629Y-88325422D01*
X179101103Y-88316862D01*
X179119727Y-88309488D01*
X179119727Y-88309487D01*
X179119732Y-88309486D01*
X179157449Y-88282082D01*
X179162305Y-88278892D01*
X179202420Y-88255170D01*
X179216589Y-88240999D01*
X179231379Y-88228368D01*
X179247587Y-88216594D01*
X179277299Y-88180676D01*
X179281212Y-88176376D01*
X180795771Y-86661819D01*
X180857095Y-86628334D01*
X180883453Y-86625500D01*
X180942644Y-86625500D01*
X180942646Y-86625500D01*
X181127803Y-86586144D01*
X181300730Y-86509151D01*
X181453871Y-86397888D01*
X181580533Y-86257216D01*
X181675179Y-86093284D01*
X181733674Y-85913256D01*
X181753460Y-85725000D01*
X181733674Y-85536744D01*
X181675179Y-85356716D01*
X181580533Y-85192784D01*
X181453871Y-85052112D01*
X181453870Y-85052111D01*
X181300734Y-84940851D01*
X181300729Y-84940848D01*
X181127807Y-84863857D01*
X181127802Y-84863855D01*
X180982001Y-84832865D01*
X180942646Y-84824500D01*
X180753354Y-84824500D01*
X180720897Y-84831398D01*
X180568197Y-84863855D01*
X180568192Y-84863857D01*
X180395270Y-84940848D01*
X180395265Y-84940851D01*
X180242129Y-85052111D01*
X180115466Y-85192785D01*
X180020821Y-85356715D01*
X180020818Y-85356722D01*
X179962327Y-85536740D01*
X179962326Y-85536744D01*
X179947256Y-85680127D01*
X179944679Y-85704650D01*
X179918094Y-85769264D01*
X179909039Y-85779369D01*
X179780181Y-85908227D01*
X179718858Y-85941712D01*
X179649166Y-85936728D01*
X179593233Y-85894856D01*
X179568816Y-85829392D01*
X179568500Y-85820546D01*
X179568500Y-77914687D01*
X179588185Y-77847648D01*
X179600350Y-77831715D01*
X179618891Y-77811122D01*
X179675533Y-77748216D01*
X179770179Y-77584284D01*
X179828674Y-77404256D01*
X179848460Y-77216000D01*
X179828674Y-77027744D01*
X179770179Y-76847716D01*
X179675533Y-76683784D01*
X179548871Y-76543112D01*
X179548870Y-76543111D01*
X179395734Y-76431851D01*
X179395729Y-76431848D01*
X179222807Y-76354857D01*
X179222802Y-76354855D01*
X179077001Y-76323865D01*
X179037646Y-76315500D01*
X178848354Y-76315500D01*
X178815897Y-76322398D01*
X178663197Y-76354855D01*
X178663192Y-76354857D01*
X178490270Y-76431848D01*
X178490265Y-76431851D01*
X178337129Y-76543111D01*
X178210466Y-76683785D01*
X178115821Y-76847715D01*
X178115818Y-76847722D01*
X178057327Y-77027740D01*
X178057326Y-77027744D01*
X178037540Y-77216000D01*
X178057326Y-77404256D01*
X178057327Y-77404259D01*
X178115818Y-77584277D01*
X178115821Y-77584284D01*
X178210467Y-77748216D01*
X178253772Y-77796310D01*
X178285650Y-77831715D01*
X178315880Y-77894706D01*
X178317500Y-77914687D01*
X178317500Y-83854623D01*
X178297815Y-83921662D01*
X178245011Y-83967417D01*
X178175853Y-83977361D01*
X178125680Y-83958432D01*
X178089425Y-83934746D01*
X177868905Y-83838017D01*
X177635472Y-83778904D01*
X177491329Y-83766960D01*
X177455600Y-83764000D01*
X177240400Y-83764000D01*
X177207898Y-83766693D01*
X177060527Y-83778904D01*
X176827094Y-83838017D01*
X176606581Y-83934743D01*
X176606577Y-83934745D01*
X176606578Y-83934745D01*
X176404990Y-84066449D01*
X176227829Y-84229537D01*
X176184305Y-84285456D01*
X176079929Y-84419558D01*
X175965321Y-84631334D01*
X175965318Y-84631343D01*
X175887134Y-84859083D01*
X175862936Y-85004095D01*
X175847500Y-85096601D01*
X175847500Y-85337399D01*
X175863353Y-85432404D01*
X175887134Y-85574916D01*
X175965318Y-85802656D01*
X175965321Y-85802665D01*
X176079929Y-86014441D01*
X176114701Y-86059116D01*
X176227829Y-86204463D01*
X176404990Y-86367551D01*
X176428931Y-86383193D01*
X176474287Y-86436339D01*
X176483710Y-86505570D01*
X176454207Y-86568906D01*
X176428933Y-86590806D01*
X176404990Y-86606449D01*
X176227829Y-86769537D01*
X176184305Y-86825456D01*
X176079929Y-86959558D01*
X175965321Y-87171334D01*
X175965318Y-87171343D01*
X175887134Y-87399083D01*
X175847500Y-87636602D01*
X175847500Y-87877397D01*
X162982682Y-87877397D01*
X163054873Y-87703111D01*
X163113683Y-87458148D01*
X163133449Y-87207000D01*
X163113683Y-86955852D01*
X163054873Y-86710889D01*
X163003202Y-86586144D01*
X162958466Y-86478140D01*
X162826839Y-86263346D01*
X162826838Y-86263343D01*
X162704333Y-86119909D01*
X162663224Y-86071776D01*
X162505103Y-85936728D01*
X162471656Y-85908161D01*
X162471653Y-85908160D01*
X162256859Y-85776533D01*
X162024110Y-85680126D01*
X161779151Y-85621317D01*
X161528000Y-85601551D01*
X161276848Y-85621317D01*
X161031889Y-85680126D01*
X160799140Y-85776533D01*
X160584346Y-85908160D01*
X160584343Y-85908161D01*
X160392776Y-86071776D01*
X160229161Y-86263343D01*
X160229160Y-86263346D01*
X160097533Y-86478140D01*
X160001126Y-86710889D01*
X159942317Y-86955848D01*
X159922551Y-87206999D01*
X152968499Y-87206999D01*
X152968499Y-86059128D01*
X152962091Y-85999517D01*
X152938672Y-85936728D01*
X152911797Y-85864671D01*
X152911793Y-85864664D01*
X152825547Y-85749455D01*
X152825544Y-85749452D01*
X152710335Y-85663206D01*
X152710328Y-85663202D01*
X152575482Y-85612908D01*
X152575483Y-85612908D01*
X152515883Y-85606501D01*
X152515881Y-85606500D01*
X152515873Y-85606500D01*
X152515864Y-85606500D01*
X150220129Y-85606500D01*
X150220123Y-85606501D01*
X150160516Y-85612908D01*
X150025671Y-85663202D01*
X150025664Y-85663206D01*
X149910455Y-85749452D01*
X149910452Y-85749455D01*
X149824206Y-85864664D01*
X149824202Y-85864671D01*
X149773908Y-85999517D01*
X149772304Y-86014441D01*
X149767501Y-86059123D01*
X149767500Y-86059135D01*
X149767500Y-88354870D01*
X137287500Y-88354870D01*
X137287500Y-83686399D01*
X143477500Y-83686399D01*
X143493353Y-83781404D01*
X143517134Y-83923916D01*
X143595318Y-84151656D01*
X143595321Y-84151665D01*
X143709929Y-84363441D01*
X143753451Y-84419358D01*
X143857829Y-84553463D01*
X144034990Y-84716551D01*
X144236578Y-84848255D01*
X144457095Y-84944983D01*
X144690524Y-85004095D01*
X144870400Y-85019000D01*
X144870402Y-85019000D01*
X145085598Y-85019000D01*
X145085600Y-85019000D01*
X145265476Y-85004095D01*
X145498905Y-84944983D01*
X145719422Y-84848255D01*
X145921010Y-84716551D01*
X146098171Y-84553463D01*
X146246072Y-84363439D01*
X146360679Y-84151664D01*
X146438866Y-83923913D01*
X146478500Y-83686399D01*
X146478500Y-83445601D01*
X146438866Y-83208087D01*
X146430940Y-83185000D01*
X163998341Y-83185000D01*
X164018936Y-83420403D01*
X164018938Y-83420413D01*
X164080094Y-83648655D01*
X164080096Y-83648659D01*
X164080097Y-83648663D01*
X164097693Y-83686397D01*
X164179964Y-83862828D01*
X164179965Y-83862830D01*
X164315505Y-84056402D01*
X164482597Y-84223494D01*
X164676169Y-84359034D01*
X164676171Y-84359035D01*
X164890337Y-84458903D01*
X165118592Y-84520063D01*
X165295034Y-84535500D01*
X165412966Y-84535500D01*
X165589408Y-84520063D01*
X165817663Y-84458903D01*
X166031829Y-84359035D01*
X166225401Y-84223495D01*
X166392495Y-84056401D01*
X166528035Y-83862830D01*
X166627903Y-83648663D01*
X166689063Y-83420408D01*
X166709659Y-83185000D01*
X166689063Y-82949592D01*
X166627903Y-82721337D01*
X166528035Y-82507171D01*
X166528034Y-82507169D01*
X166392494Y-82313597D01*
X166225402Y-82146505D01*
X166031830Y-82010965D01*
X166031828Y-82010964D01*
X165924746Y-81961031D01*
X165817663Y-81911097D01*
X165817659Y-81911096D01*
X165817655Y-81911094D01*
X165589413Y-81849938D01*
X165589403Y-81849936D01*
X165412966Y-81834500D01*
X165295034Y-81834500D01*
X165118596Y-81849936D01*
X165118586Y-81849938D01*
X164890344Y-81911094D01*
X164890335Y-81911098D01*
X164676171Y-82010964D01*
X164676169Y-82010965D01*
X164482597Y-82146505D01*
X164315506Y-82313597D01*
X164315501Y-82313604D01*
X164179967Y-82507165D01*
X164179965Y-82507169D01*
X164080098Y-82721335D01*
X164080094Y-82721344D01*
X164018938Y-82949586D01*
X164018936Y-82949596D01*
X163998341Y-83184999D01*
X163998341Y-83185000D01*
X146430940Y-83185000D01*
X146360681Y-82980343D01*
X146360678Y-82980334D01*
X146246070Y-82768558D01*
X146246066Y-82768552D01*
X146135167Y-82626069D01*
X146109524Y-82561075D01*
X146123090Y-82492535D01*
X146171559Y-82442211D01*
X146189681Y-82433727D01*
X146220331Y-82422296D01*
X146335546Y-82336046D01*
X146421796Y-82220831D01*
X146472091Y-82085983D01*
X146478500Y-82026373D01*
X146478500Y-81363001D01*
X154347500Y-81363001D01*
X154347501Y-81363018D01*
X154358000Y-81465796D01*
X154358001Y-81465799D01*
X154389443Y-81560682D01*
X154413186Y-81632334D01*
X154505288Y-81781656D01*
X154629344Y-81905712D01*
X154778666Y-81997814D01*
X154945203Y-82052999D01*
X155047991Y-82063500D01*
X155848008Y-82063499D01*
X155848016Y-82063498D01*
X155848019Y-82063498D01*
X155909143Y-82057254D01*
X155950797Y-82052999D01*
X156117334Y-81997814D01*
X156266656Y-81905712D01*
X156390712Y-81781656D01*
X156429815Y-81718258D01*
X156481761Y-81671535D01*
X156550723Y-81660312D01*
X156614806Y-81688155D01*
X156632824Y-81706705D01*
X156647907Y-81725885D01*
X156647909Y-81725887D01*
X156806746Y-81863521D01*
X156988750Y-81968601D01*
X156988752Y-81968601D01*
X156988756Y-81968604D01*
X157187367Y-82037344D01*
X157395398Y-82067254D01*
X157605330Y-82057254D01*
X157809576Y-82007704D01*
X157895199Y-81968601D01*
X158000743Y-81920401D01*
X158000746Y-81920399D01*
X158000753Y-81920396D01*
X158171952Y-81798486D01*
X158187999Y-81781657D01*
X158316985Y-81646379D01*
X158326010Y-81632336D01*
X158430613Y-81469572D01*
X158508725Y-81274457D01*
X158548500Y-81068085D01*
X158548500Y-80360575D01*
X158535351Y-80222870D01*
X172501613Y-80222870D01*
X172501614Y-80222876D01*
X172508021Y-80282483D01*
X172558315Y-80417328D01*
X172558319Y-80417335D01*
X172644565Y-80532544D01*
X172644568Y-80532547D01*
X172759777Y-80618793D01*
X172759784Y-80618797D01*
X172894630Y-80669091D01*
X172894629Y-80669091D01*
X172901557Y-80669835D01*
X172954240Y-80675500D01*
X174649985Y-80675499D01*
X174709596Y-80669091D01*
X174844444Y-80618796D01*
X174959659Y-80532546D01*
X175045909Y-80417331D01*
X175096204Y-80282483D01*
X175102613Y-80222873D01*
X175102612Y-78527128D01*
X175096204Y-78467517D01*
X175045909Y-78332669D01*
X175045908Y-78332668D01*
X175045906Y-78332664D01*
X174959660Y-78217455D01*
X174959657Y-78217452D01*
X174844448Y-78131206D01*
X174844441Y-78131202D01*
X174709595Y-78080908D01*
X174709596Y-78080908D01*
X174649996Y-78074501D01*
X174649994Y-78074500D01*
X174649986Y-78074500D01*
X174649977Y-78074500D01*
X172954242Y-78074500D01*
X172954236Y-78074501D01*
X172894629Y-78080908D01*
X172759784Y-78131202D01*
X172759777Y-78131206D01*
X172644568Y-78217452D01*
X172644565Y-78217455D01*
X172558319Y-78332664D01*
X172558315Y-78332671D01*
X172508021Y-78467517D01*
X172501614Y-78527116D01*
X172501614Y-78527123D01*
X172501613Y-78527135D01*
X172501613Y-80222870D01*
X158535351Y-80222870D01*
X158533528Y-80203782D01*
X158474316Y-80002125D01*
X158378011Y-79815318D01*
X158378009Y-79815316D01*
X158378008Y-79815313D01*
X158248094Y-79650116D01*
X158248090Y-79650112D01*
X158089253Y-79512478D01*
X157907249Y-79407398D01*
X157907245Y-79407396D01*
X157907244Y-79407396D01*
X157708633Y-79338656D01*
X157500602Y-79308746D01*
X157500598Y-79308746D01*
X157290672Y-79318745D01*
X157086421Y-79368296D01*
X157086417Y-79368298D01*
X156895256Y-79455598D01*
X156895251Y-79455601D01*
X156724046Y-79577515D01*
X156724045Y-79577515D01*
X156626249Y-79680082D01*
X156565740Y-79715017D01*
X156495949Y-79711692D01*
X156439035Y-79671164D01*
X156430967Y-79659608D01*
X156412521Y-79629702D01*
X156390712Y-79594344D01*
X156266656Y-79470288D01*
X156173888Y-79413068D01*
X156117336Y-79378187D01*
X156117331Y-79378185D01*
X156087488Y-79368296D01*
X155950797Y-79323001D01*
X155950795Y-79323000D01*
X155848010Y-79312500D01*
X155047998Y-79312500D01*
X155047980Y-79312501D01*
X154945203Y-79323000D01*
X154945200Y-79323001D01*
X154778668Y-79378185D01*
X154778663Y-79378187D01*
X154629342Y-79470289D01*
X154505289Y-79594342D01*
X154413187Y-79743663D01*
X154413185Y-79743666D01*
X154413186Y-79743666D01*
X154358001Y-79910203D01*
X154358001Y-79910204D01*
X154358000Y-79910204D01*
X154347500Y-80012983D01*
X154347500Y-81363001D01*
X146478500Y-81363001D01*
X146478499Y-80025628D01*
X146472091Y-79966017D01*
X146421796Y-79831169D01*
X146421795Y-79831168D01*
X146421793Y-79831164D01*
X146335547Y-79715955D01*
X146335544Y-79715952D01*
X146220335Y-79629706D01*
X146220328Y-79629702D01*
X146085482Y-79579408D01*
X146085483Y-79579408D01*
X146025883Y-79573001D01*
X146025881Y-79573000D01*
X146025873Y-79573000D01*
X146025864Y-79573000D01*
X143930129Y-79573000D01*
X143930123Y-79573001D01*
X143870516Y-79579408D01*
X143735671Y-79629702D01*
X143735664Y-79629706D01*
X143620455Y-79715952D01*
X143620452Y-79715955D01*
X143534206Y-79831164D01*
X143534202Y-79831171D01*
X143483908Y-79966017D01*
X143477501Y-80025616D01*
X143477501Y-80025623D01*
X143477500Y-80025635D01*
X143477500Y-82026370D01*
X143477501Y-82026376D01*
X143483908Y-82085983D01*
X143534202Y-82220828D01*
X143534206Y-82220835D01*
X143620452Y-82336044D01*
X143620455Y-82336047D01*
X143735664Y-82422293D01*
X143735673Y-82422298D01*
X143766311Y-82433725D01*
X143822245Y-82475595D01*
X143846663Y-82541059D01*
X143831812Y-82609332D01*
X143820833Y-82626069D01*
X143709929Y-82768559D01*
X143595321Y-82980334D01*
X143595318Y-82980343D01*
X143517134Y-83208083D01*
X143485426Y-83398098D01*
X143477500Y-83445601D01*
X143477500Y-83686399D01*
X137287500Y-83686399D01*
X137287500Y-74892870D01*
X149767500Y-74892870D01*
X149767501Y-74892876D01*
X149773908Y-74952483D01*
X149824202Y-75087328D01*
X149824206Y-75087335D01*
X149910452Y-75202544D01*
X149910455Y-75202547D01*
X150025664Y-75288793D01*
X150025671Y-75288797D01*
X150160517Y-75339091D01*
X150160516Y-75339091D01*
X150167444Y-75339835D01*
X150220127Y-75345500D01*
X152515872Y-75345499D01*
X152575483Y-75339091D01*
X152710331Y-75288796D01*
X152825546Y-75202546D01*
X152911796Y-75087331D01*
X152962091Y-74952483D01*
X152968500Y-74892873D01*
X152968499Y-73745000D01*
X159922551Y-73745000D01*
X159942317Y-73996151D01*
X160001126Y-74241110D01*
X160097533Y-74473859D01*
X160229160Y-74688653D01*
X160229161Y-74688656D01*
X160229164Y-74688659D01*
X160392776Y-74880224D01*
X160541066Y-75006875D01*
X160584343Y-75043838D01*
X160584346Y-75043839D01*
X160799140Y-75175466D01*
X161031888Y-75271872D01*
X161031889Y-75271873D01*
X161276852Y-75330683D01*
X161528000Y-75350449D01*
X161779148Y-75330683D01*
X162024111Y-75271873D01*
X162256859Y-75175466D01*
X162471659Y-75043836D01*
X162663224Y-74880224D01*
X162826836Y-74688659D01*
X162958466Y-74473859D01*
X163054873Y-74241111D01*
X163113683Y-73996148D01*
X163121378Y-73898370D01*
X175847500Y-73898370D01*
X175847501Y-73898376D01*
X175853908Y-73957983D01*
X175904202Y-74092828D01*
X175904206Y-74092835D01*
X175990452Y-74208044D01*
X175990455Y-74208047D01*
X176105664Y-74294293D01*
X176105671Y-74294297D01*
X176240517Y-74344591D01*
X176240516Y-74344591D01*
X176247444Y-74345335D01*
X176300127Y-74351000D01*
X178395872Y-74350999D01*
X178455483Y-74344591D01*
X178590331Y-74294296D01*
X178705546Y-74208046D01*
X178791796Y-74092831D01*
X178842091Y-73957983D01*
X178848500Y-73898373D01*
X178848499Y-71897628D01*
X178842091Y-71838017D01*
X178791796Y-71703169D01*
X178791795Y-71703168D01*
X178791793Y-71703164D01*
X178705547Y-71587955D01*
X178705544Y-71587952D01*
X178590335Y-71501706D01*
X178590328Y-71501702D01*
X178455482Y-71451408D01*
X178455483Y-71451408D01*
X178395883Y-71445001D01*
X178395881Y-71445000D01*
X178395873Y-71445000D01*
X178395865Y-71445000D01*
X176736764Y-71445000D01*
X176711695Y-71442439D01*
X176710856Y-71442266D01*
X176710855Y-71442266D01*
X176663863Y-71443633D01*
X176616871Y-71445000D01*
X176300130Y-71445000D01*
X176300123Y-71445001D01*
X176240516Y-71451408D01*
X176105671Y-71501702D01*
X176105664Y-71501706D01*
X175990455Y-71587952D01*
X175990452Y-71587955D01*
X175904206Y-71703164D01*
X175904202Y-71703171D01*
X175853908Y-71838017D01*
X175847501Y-71897616D01*
X175847501Y-71897623D01*
X175847500Y-71897635D01*
X175847500Y-73898370D01*
X163121378Y-73898370D01*
X163133449Y-73745000D01*
X163113683Y-73493852D01*
X163054873Y-73248889D01*
X162958466Y-73016141D01*
X162958466Y-73016140D01*
X162826839Y-72801346D01*
X162826838Y-72801343D01*
X162789875Y-72758066D01*
X162663224Y-72609776D01*
X162536571Y-72501604D01*
X162471656Y-72446161D01*
X162471653Y-72446160D01*
X162256859Y-72314533D01*
X162024110Y-72218126D01*
X161779151Y-72159317D01*
X161528000Y-72139551D01*
X161276848Y-72159317D01*
X161031889Y-72218126D01*
X160799140Y-72314533D01*
X160584346Y-72446160D01*
X160584343Y-72446161D01*
X160392776Y-72609776D01*
X160229161Y-72801343D01*
X160229160Y-72801346D01*
X160097533Y-73016140D01*
X160001126Y-73248889D01*
X159942317Y-73493848D01*
X159922551Y-73745000D01*
X152968499Y-73745000D01*
X152968499Y-72597128D01*
X152962091Y-72537517D01*
X152928017Y-72446161D01*
X152911797Y-72402671D01*
X152911793Y-72402664D01*
X152825547Y-72287455D01*
X152825544Y-72287452D01*
X152710335Y-72201206D01*
X152710328Y-72201202D01*
X152575482Y-72150908D01*
X152575483Y-72150908D01*
X152515883Y-72144501D01*
X152515881Y-72144500D01*
X152515873Y-72144500D01*
X152515864Y-72144500D01*
X150220129Y-72144500D01*
X150220123Y-72144501D01*
X150160516Y-72150908D01*
X150025671Y-72201202D01*
X150025664Y-72201206D01*
X149910455Y-72287452D01*
X149910452Y-72287455D01*
X149824206Y-72402664D01*
X149824202Y-72402671D01*
X149773908Y-72537517D01*
X149767501Y-72597116D01*
X149767501Y-72597123D01*
X149767500Y-72597135D01*
X149767500Y-74892870D01*
X137287500Y-74892870D01*
X137287500Y-70224399D01*
X143350500Y-70224399D01*
X143366353Y-70319404D01*
X143390134Y-70461916D01*
X143468318Y-70689656D01*
X143468321Y-70689665D01*
X143582929Y-70901441D01*
X143626451Y-70957358D01*
X143730829Y-71091463D01*
X143907990Y-71254551D01*
X144109578Y-71386255D01*
X144330095Y-71482983D01*
X144563524Y-71542095D01*
X144743400Y-71557000D01*
X144743402Y-71557000D01*
X144958598Y-71557000D01*
X144958600Y-71557000D01*
X145138476Y-71542095D01*
X145371905Y-71482983D01*
X145592422Y-71386255D01*
X145794010Y-71254551D01*
X145971171Y-71091463D01*
X146119072Y-70901439D01*
X146233679Y-70689664D01*
X146311866Y-70461913D01*
X146351500Y-70224399D01*
X146351500Y-69983601D01*
X146311866Y-69746087D01*
X146233679Y-69518336D01*
X146119072Y-69306561D01*
X146119070Y-69306559D01*
X146119070Y-69306558D01*
X146119066Y-69306552D01*
X146008167Y-69164069D01*
X145982524Y-69099075D01*
X145984716Y-69088000D01*
X163871341Y-69088000D01*
X163891936Y-69323403D01*
X163891938Y-69323413D01*
X163953094Y-69551655D01*
X163953096Y-69551659D01*
X163953097Y-69551663D01*
X164003031Y-69658745D01*
X164052964Y-69765828D01*
X164052965Y-69765830D01*
X164188505Y-69959402D01*
X164355597Y-70126494D01*
X164549169Y-70262034D01*
X164549171Y-70262035D01*
X164763337Y-70361903D01*
X164991592Y-70423063D01*
X165168034Y-70438500D01*
X165285966Y-70438500D01*
X165462408Y-70423063D01*
X165690663Y-70361903D01*
X165904829Y-70262035D01*
X166098401Y-70126495D01*
X166265495Y-69959401D01*
X166401035Y-69765830D01*
X166500903Y-69551663D01*
X166562063Y-69323408D01*
X166582659Y-69088000D01*
X166562063Y-68852592D01*
X166500903Y-68624337D01*
X166401035Y-68410171D01*
X166401034Y-68410169D01*
X166265494Y-68216597D01*
X166098402Y-68049505D01*
X165939723Y-67938397D01*
X175847500Y-67938397D01*
X175887134Y-68175916D01*
X175965318Y-68403656D01*
X175965321Y-68403665D01*
X176079929Y-68615441D01*
X176123451Y-68671358D01*
X176227829Y-68805463D01*
X176404990Y-68968551D01*
X176606578Y-69100255D01*
X176827095Y-69196983D01*
X177060524Y-69256095D01*
X177240400Y-69271000D01*
X177240402Y-69271000D01*
X177455598Y-69271000D01*
X177455600Y-69271000D01*
X177635476Y-69256095D01*
X177868905Y-69196983D01*
X178089422Y-69100255D01*
X178291010Y-68968551D01*
X178468171Y-68805463D01*
X178616072Y-68615439D01*
X178730679Y-68403664D01*
X178808866Y-68175913D01*
X178848500Y-67938399D01*
X178848500Y-67697601D01*
X178808866Y-67460087D01*
X178778192Y-67370739D01*
X178775043Y-67300942D01*
X178807791Y-67242798D01*
X181292676Y-64757913D01*
X181304930Y-64748098D01*
X181304747Y-64747876D01*
X181310754Y-64742904D01*
X181310765Y-64742898D01*
X181341663Y-64709994D01*
X181358115Y-64692476D01*
X181368559Y-64682030D01*
X181379008Y-64671583D01*
X181383267Y-64666090D01*
X181387040Y-64661673D01*
X181418950Y-64627694D01*
X181428601Y-64610136D01*
X181439284Y-64593873D01*
X181451561Y-64578048D01*
X181470073Y-64535265D01*
X181472626Y-64530053D01*
X181495085Y-64489204D01*
X181500068Y-64469792D01*
X181506369Y-64451392D01*
X181514325Y-64433008D01*
X181521617Y-64386964D01*
X181522794Y-64381283D01*
X181534388Y-64336131D01*
X181534388Y-64316095D01*
X181535915Y-64296694D01*
X181539048Y-64276916D01*
X181534663Y-64230527D01*
X181534388Y-64224689D01*
X181534388Y-62511499D01*
X181554073Y-62444460D01*
X181606877Y-62398705D01*
X181658388Y-62387499D01*
X181756759Y-62387499D01*
X181756760Y-62387499D01*
X181816371Y-62381091D01*
X181951219Y-62330796D01*
X182066434Y-62244546D01*
X182152684Y-62129331D01*
X182202979Y-61994483D01*
X182209388Y-61934873D01*
X182209387Y-60239128D01*
X182202979Y-60179517D01*
X182152684Y-60044669D01*
X182152683Y-60044668D01*
X182152681Y-60044664D01*
X182066435Y-59929455D01*
X182066432Y-59929452D01*
X181951223Y-59843206D01*
X181951216Y-59843202D01*
X181816370Y-59792908D01*
X181816371Y-59792908D01*
X181756771Y-59786501D01*
X181756769Y-59786500D01*
X181756761Y-59786500D01*
X181756753Y-59786500D01*
X181658388Y-59786500D01*
X181591349Y-59766815D01*
X181545594Y-59714011D01*
X181534388Y-59662500D01*
X181534388Y-53483625D01*
X181536112Y-53468011D01*
X181535826Y-53467984D01*
X181536560Y-53460221D01*
X181534707Y-53401259D01*
X181534388Y-53391090D01*
X181534388Y-53361538D01*
X181533517Y-53354647D01*
X181533060Y-53348833D01*
X181531597Y-53302262D01*
X181531597Y-53302260D01*
X181526008Y-53283025D01*
X181522062Y-53263972D01*
X181519552Y-53244096D01*
X181502389Y-53200747D01*
X181500502Y-53195234D01*
X181487505Y-53150498D01*
X181487504Y-53150496D01*
X181477309Y-53133257D01*
X181468748Y-53115781D01*
X181463145Y-53101629D01*
X181461374Y-53097156D01*
X181461374Y-53097155D01*
X181451362Y-53083376D01*
X181433971Y-53059438D01*
X181430788Y-53054593D01*
X181407058Y-53014467D01*
X181407053Y-53014461D01*
X181392893Y-53000301D01*
X181380258Y-52985508D01*
X181368481Y-52969300D01*
X181332581Y-52939601D01*
X181328269Y-52935678D01*
X181024960Y-52632369D01*
X180991475Y-52571046D01*
X180989323Y-52557668D01*
X180971674Y-52389744D01*
X180913179Y-52209716D01*
X180818533Y-52045784D01*
X180691871Y-51905112D01*
X180691870Y-51905111D01*
X180538734Y-51793851D01*
X180538729Y-51793848D01*
X180365807Y-51716857D01*
X180365802Y-51716855D01*
X180220001Y-51685865D01*
X180180646Y-51677500D01*
X179991354Y-51677500D01*
X179958897Y-51684398D01*
X179806197Y-51716855D01*
X179806192Y-51716857D01*
X179633270Y-51793848D01*
X179633265Y-51793851D01*
X179480129Y-51905111D01*
X179353466Y-52045785D01*
X179258821Y-52209715D01*
X179258818Y-52209722D01*
X179212636Y-52351857D01*
X179200326Y-52389744D01*
X179180540Y-52578000D01*
X179200326Y-52766256D01*
X179200327Y-52766259D01*
X179258818Y-52946277D01*
X179258821Y-52946284D01*
X179353467Y-53110216D01*
X179462749Y-53231586D01*
X179480129Y-53250888D01*
X179633265Y-53362148D01*
X179633270Y-53362151D01*
X179806192Y-53439142D01*
X179806197Y-53439144D01*
X179991354Y-53478500D01*
X180050547Y-53478500D01*
X180117586Y-53498185D01*
X180138223Y-53514814D01*
X180247070Y-53623660D01*
X180280554Y-53684981D01*
X180283388Y-53711340D01*
X180283388Y-59662500D01*
X180263703Y-59729539D01*
X180210899Y-59775294D01*
X180159389Y-59786500D01*
X180061018Y-59786500D01*
X180061011Y-59786501D01*
X180001404Y-59792908D01*
X179866559Y-59843202D01*
X179866552Y-59843206D01*
X179751343Y-59929452D01*
X179751340Y-59929455D01*
X179665094Y-60044664D01*
X179665090Y-60044671D01*
X179614796Y-60179517D01*
X179608389Y-60239116D01*
X179608389Y-60239123D01*
X179608388Y-60239135D01*
X179608388Y-61934870D01*
X179608389Y-61934876D01*
X179614796Y-61994483D01*
X179665090Y-62129328D01*
X179665094Y-62129335D01*
X179751340Y-62244544D01*
X179751343Y-62244547D01*
X179866552Y-62330793D01*
X179866559Y-62330797D01*
X179911506Y-62347560D01*
X180001405Y-62381091D01*
X180061015Y-62387500D01*
X180159388Y-62387499D01*
X180226426Y-62407183D01*
X180272182Y-62459986D01*
X180283388Y-62511499D01*
X180283388Y-63946658D01*
X180263703Y-64013697D01*
X180247069Y-64034339D01*
X177897569Y-66383838D01*
X177836246Y-66417323D01*
X177779448Y-66416363D01*
X177635472Y-66379904D01*
X177491329Y-66367960D01*
X177455600Y-66365000D01*
X177240400Y-66365000D01*
X177207898Y-66367693D01*
X177060527Y-66379904D01*
X176827094Y-66439017D01*
X176606581Y-66535743D01*
X176404990Y-66667449D01*
X176278619Y-66783782D01*
X176227829Y-66830537D01*
X176184305Y-66886456D01*
X176079929Y-67020558D01*
X175965321Y-67232334D01*
X175965318Y-67232343D01*
X175887134Y-67460083D01*
X175847500Y-67697602D01*
X175847500Y-67938397D01*
X165939723Y-67938397D01*
X165904830Y-67913965D01*
X165904828Y-67913964D01*
X165797745Y-67864030D01*
X165690663Y-67814097D01*
X165690659Y-67814096D01*
X165690655Y-67814094D01*
X165462413Y-67752938D01*
X165462403Y-67752936D01*
X165285966Y-67737500D01*
X165168034Y-67737500D01*
X164991596Y-67752936D01*
X164991586Y-67752938D01*
X164763344Y-67814094D01*
X164763335Y-67814098D01*
X164549171Y-67913964D01*
X164549169Y-67913965D01*
X164355597Y-68049505D01*
X164188506Y-68216597D01*
X164188501Y-68216604D01*
X164052967Y-68410165D01*
X164052965Y-68410169D01*
X163953098Y-68624335D01*
X163953094Y-68624344D01*
X163891938Y-68852586D01*
X163891936Y-68852596D01*
X163871341Y-69087999D01*
X163871341Y-69088000D01*
X145984716Y-69088000D01*
X145996090Y-69030535D01*
X146044559Y-68980211D01*
X146062681Y-68971727D01*
X146093331Y-68960296D01*
X146208546Y-68874046D01*
X146294796Y-68758831D01*
X146345091Y-68623983D01*
X146351500Y-68564373D01*
X146351500Y-67943001D01*
X154331500Y-67943001D01*
X154331501Y-67943018D01*
X154342000Y-68045796D01*
X154342001Y-68045799D01*
X154397185Y-68212331D01*
X154397187Y-68212336D01*
X154399820Y-68216604D01*
X154489288Y-68361656D01*
X154613344Y-68485712D01*
X154762666Y-68577814D01*
X154929203Y-68632999D01*
X155031991Y-68643500D01*
X155832008Y-68643499D01*
X155832016Y-68643498D01*
X155832019Y-68643498D01*
X155893143Y-68637254D01*
X155934797Y-68632999D01*
X156101334Y-68577814D01*
X156250656Y-68485712D01*
X156374712Y-68361656D01*
X156413815Y-68298258D01*
X156465761Y-68251535D01*
X156534723Y-68240312D01*
X156598806Y-68268155D01*
X156616824Y-68286705D01*
X156631907Y-68305885D01*
X156631909Y-68305887D01*
X156790746Y-68443521D01*
X156972750Y-68548601D01*
X156972752Y-68548601D01*
X156972756Y-68548604D01*
X157171367Y-68617344D01*
X157379398Y-68647254D01*
X157589330Y-68637254D01*
X157793576Y-68587704D01*
X157879199Y-68548601D01*
X157984743Y-68500401D01*
X157984746Y-68500399D01*
X157984753Y-68500396D01*
X158155952Y-68378486D01*
X158171999Y-68361657D01*
X158300985Y-68226379D01*
X158307267Y-68216604D01*
X158414613Y-68049572D01*
X158492725Y-67854457D01*
X158532500Y-67648085D01*
X158532500Y-66940575D01*
X158517528Y-66783782D01*
X158458316Y-66582125D01*
X158362011Y-66395318D01*
X158362009Y-66395316D01*
X158362008Y-66395313D01*
X158232094Y-66230116D01*
X158232090Y-66230112D01*
X158073253Y-66092478D01*
X157891249Y-65987398D01*
X157891245Y-65987396D01*
X157891244Y-65987396D01*
X157692633Y-65918656D01*
X157484602Y-65888746D01*
X157484598Y-65888746D01*
X157274672Y-65898745D01*
X157070421Y-65948296D01*
X157070417Y-65948298D01*
X156879256Y-66035598D01*
X156879251Y-66035601D01*
X156708046Y-66157515D01*
X156708045Y-66157515D01*
X156610249Y-66260082D01*
X156549740Y-66295017D01*
X156479949Y-66291692D01*
X156423035Y-66251164D01*
X156414967Y-66239608D01*
X156409110Y-66230112D01*
X156374712Y-66174344D01*
X156250656Y-66050288D01*
X156157888Y-65993068D01*
X156101336Y-65958187D01*
X156101331Y-65958185D01*
X156071488Y-65948296D01*
X155934797Y-65903001D01*
X155934795Y-65903000D01*
X155832010Y-65892500D01*
X155031998Y-65892500D01*
X155031980Y-65892501D01*
X154929203Y-65903000D01*
X154929200Y-65903001D01*
X154762668Y-65958185D01*
X154762663Y-65958187D01*
X154613342Y-66050289D01*
X154489289Y-66174342D01*
X154397187Y-66323663D01*
X154397185Y-66323668D01*
X154378550Y-66379905D01*
X154342001Y-66490203D01*
X154342001Y-66490204D01*
X154342000Y-66490204D01*
X154331500Y-66592983D01*
X154331500Y-67943001D01*
X146351500Y-67943001D01*
X146351499Y-66563628D01*
X146345091Y-66504017D01*
X146318849Y-66433659D01*
X146294797Y-66369171D01*
X146294793Y-66369164D01*
X146208547Y-66253955D01*
X146208544Y-66253952D01*
X146093335Y-66167706D01*
X146093328Y-66167702D01*
X145958482Y-66117408D01*
X145958483Y-66117408D01*
X145898883Y-66111001D01*
X145898881Y-66111000D01*
X145898873Y-66111000D01*
X145898864Y-66111000D01*
X143803129Y-66111000D01*
X143803123Y-66111001D01*
X143743516Y-66117408D01*
X143608671Y-66167702D01*
X143608664Y-66167706D01*
X143493455Y-66253952D01*
X143493452Y-66253955D01*
X143407206Y-66369164D01*
X143407202Y-66369171D01*
X143356908Y-66504017D01*
X143350501Y-66563616D01*
X143350501Y-66563623D01*
X143350500Y-66563635D01*
X143350500Y-68564370D01*
X143350501Y-68564376D01*
X143356908Y-68623983D01*
X143407202Y-68758828D01*
X143407206Y-68758835D01*
X143493452Y-68874044D01*
X143493455Y-68874047D01*
X143608664Y-68960293D01*
X143608673Y-68960298D01*
X143639311Y-68971725D01*
X143695245Y-69013595D01*
X143719663Y-69079059D01*
X143704812Y-69147332D01*
X143693833Y-69164069D01*
X143582929Y-69306559D01*
X143468321Y-69518334D01*
X143468318Y-69518343D01*
X143390134Y-69746083D01*
X143358426Y-69936098D01*
X143350500Y-69983601D01*
X143350500Y-70224399D01*
X137287500Y-70224399D01*
X137287500Y-61430870D01*
X149767500Y-61430870D01*
X149767501Y-61430876D01*
X149773908Y-61490483D01*
X149824202Y-61625328D01*
X149824206Y-61625335D01*
X149910452Y-61740544D01*
X149910455Y-61740547D01*
X150025664Y-61826793D01*
X150025671Y-61826797D01*
X150160517Y-61877091D01*
X150160516Y-61877091D01*
X150167444Y-61877835D01*
X150220127Y-61883500D01*
X152515872Y-61883499D01*
X152575483Y-61877091D01*
X152710331Y-61826796D01*
X152825546Y-61740546D01*
X152911796Y-61625331D01*
X152962091Y-61490483D01*
X152968500Y-61430873D01*
X152968499Y-60282999D01*
X159922551Y-60282999D01*
X159942317Y-60534151D01*
X160001126Y-60779110D01*
X160097533Y-61011859D01*
X160229160Y-61226653D01*
X160229161Y-61226656D01*
X160229164Y-61226659D01*
X160392776Y-61418224D01*
X160541066Y-61544875D01*
X160584343Y-61581838D01*
X160584346Y-61581839D01*
X160799140Y-61713466D01*
X161031888Y-61809873D01*
X161031889Y-61809873D01*
X161276852Y-61868683D01*
X161528000Y-61888449D01*
X161779148Y-61868683D01*
X162024111Y-61809873D01*
X162256859Y-61713466D01*
X162471659Y-61581836D01*
X162663224Y-61418224D01*
X162826836Y-61226659D01*
X162958466Y-61011859D01*
X163054873Y-60779111D01*
X163113683Y-60534148D01*
X163133449Y-60283000D01*
X163113683Y-60031852D01*
X163054873Y-59786889D01*
X162958466Y-59554141D01*
X162958466Y-59554140D01*
X162826839Y-59339346D01*
X162826838Y-59339343D01*
X162789875Y-59296066D01*
X162663224Y-59147776D01*
X162536571Y-59039604D01*
X162471656Y-58984161D01*
X162471653Y-58984160D01*
X162256859Y-58852533D01*
X162024110Y-58756126D01*
X161779151Y-58697317D01*
X161590786Y-58682492D01*
X161528000Y-58677551D01*
X161527999Y-58677551D01*
X161276848Y-58697317D01*
X161031889Y-58756126D01*
X160799140Y-58852533D01*
X160584346Y-58984160D01*
X160584343Y-58984161D01*
X160392776Y-59147776D01*
X160229161Y-59339343D01*
X160229160Y-59339346D01*
X160097533Y-59554140D01*
X160001126Y-59786889D01*
X159942317Y-60031848D01*
X159922551Y-60282999D01*
X152968499Y-60282999D01*
X152968499Y-59135128D01*
X152962091Y-59075517D01*
X152928017Y-58984161D01*
X152911797Y-58940671D01*
X152911793Y-58940664D01*
X152825547Y-58825455D01*
X152825544Y-58825452D01*
X152710335Y-58739206D01*
X152710328Y-58739202D01*
X152575482Y-58688908D01*
X152575483Y-58688908D01*
X152515883Y-58682501D01*
X152515881Y-58682500D01*
X152515873Y-58682500D01*
X152515864Y-58682500D01*
X150220129Y-58682500D01*
X150220123Y-58682501D01*
X150160516Y-58688908D01*
X150025671Y-58739202D01*
X150025664Y-58739206D01*
X149910455Y-58825452D01*
X149910452Y-58825455D01*
X149824206Y-58940664D01*
X149824202Y-58940671D01*
X149773908Y-59075517D01*
X149767501Y-59135116D01*
X149767501Y-59135123D01*
X149767500Y-59135135D01*
X149767500Y-61430870D01*
X137287500Y-61430870D01*
X137287500Y-56762397D01*
X143350500Y-56762397D01*
X143390134Y-56999916D01*
X143468318Y-57227656D01*
X143468321Y-57227665D01*
X143582929Y-57439441D01*
X143626451Y-57495358D01*
X143730829Y-57629463D01*
X143907990Y-57792551D01*
X144109578Y-57924255D01*
X144330095Y-58020983D01*
X144563524Y-58080095D01*
X144743400Y-58095000D01*
X144743402Y-58095000D01*
X144958598Y-58095000D01*
X144958600Y-58095000D01*
X145138476Y-58080095D01*
X145371905Y-58020983D01*
X145424597Y-57997870D01*
X162971388Y-57997870D01*
X162971389Y-57997876D01*
X162977796Y-58057483D01*
X163028090Y-58192328D01*
X163028094Y-58192335D01*
X163114340Y-58307544D01*
X163114343Y-58307547D01*
X163229552Y-58393793D01*
X163229559Y-58393797D01*
X163364405Y-58444091D01*
X163364404Y-58444091D01*
X163371332Y-58444835D01*
X163424015Y-58450500D01*
X165119760Y-58450499D01*
X165179371Y-58444091D01*
X165314219Y-58393796D01*
X165429434Y-58307546D01*
X165515684Y-58192331D01*
X165565979Y-58057483D01*
X165572388Y-57997873D01*
X165572387Y-56785450D01*
X165592072Y-56718412D01*
X165608701Y-56697775D01*
X168431658Y-53874819D01*
X168492982Y-53841334D01*
X168519340Y-53838500D01*
X169349252Y-53838500D01*
X169416291Y-53858185D01*
X169441400Y-53879526D01*
X169447126Y-53885885D01*
X169447130Y-53885889D01*
X169600265Y-53997148D01*
X169600270Y-53997151D01*
X169773192Y-54074142D01*
X169773197Y-54074144D01*
X169958354Y-54113500D01*
X169958355Y-54113500D01*
X170147644Y-54113500D01*
X170147646Y-54113500D01*
X170332803Y-54074144D01*
X170505730Y-53997151D01*
X170658871Y-53885888D01*
X170785533Y-53745216D01*
X170880179Y-53581284D01*
X170938674Y-53401256D01*
X170958460Y-53213000D01*
X170938674Y-53024744D01*
X170880179Y-52844716D01*
X170785533Y-52680784D01*
X170658871Y-52540112D01*
X170658870Y-52540111D01*
X170505734Y-52428851D01*
X170505729Y-52428848D01*
X170332807Y-52351857D01*
X170332802Y-52351855D01*
X170187000Y-52320865D01*
X170147646Y-52312500D01*
X169958354Y-52312500D01*
X169925897Y-52319398D01*
X169773197Y-52351855D01*
X169773192Y-52351857D01*
X169600270Y-52428848D01*
X169600265Y-52428851D01*
X169447130Y-52540110D01*
X169447126Y-52540114D01*
X169441400Y-52546474D01*
X169381913Y-52583121D01*
X169349252Y-52587500D01*
X168291631Y-52587500D01*
X168276010Y-52585775D01*
X168275984Y-52586061D01*
X168268222Y-52585327D01*
X168268221Y-52585327D01*
X168199074Y-52587500D01*
X168169537Y-52587500D01*
X168162654Y-52588369D01*
X168156837Y-52588826D01*
X168110261Y-52590290D01*
X168091017Y-52595881D01*
X168071967Y-52599825D01*
X168052099Y-52602334D01*
X168008772Y-52619488D01*
X168003246Y-52621379D01*
X167958502Y-52634379D01*
X167958498Y-52634381D01*
X167941254Y-52644579D01*
X167923793Y-52653133D01*
X167905162Y-52660510D01*
X167905150Y-52660517D01*
X167867458Y-52687902D01*
X167862575Y-52691109D01*
X167822468Y-52714829D01*
X167808302Y-52728995D01*
X167793512Y-52741627D01*
X167777302Y-52753404D01*
X167777299Y-52753407D01*
X167747598Y-52789309D01*
X167743665Y-52793631D01*
X164724114Y-55813181D01*
X164662791Y-55846666D01*
X164636433Y-55849500D01*
X163424017Y-55849500D01*
X163424011Y-55849501D01*
X163364404Y-55855908D01*
X163229559Y-55906202D01*
X163229552Y-55906206D01*
X163114343Y-55992452D01*
X163114340Y-55992455D01*
X163028094Y-56107664D01*
X163028090Y-56107671D01*
X162977796Y-56242517D01*
X162971389Y-56302116D01*
X162971388Y-56302135D01*
X162971388Y-57997870D01*
X145424597Y-57997870D01*
X145592422Y-57924255D01*
X145794010Y-57792551D01*
X145971171Y-57629463D01*
X146119072Y-57439439D01*
X146233679Y-57227664D01*
X146311866Y-56999913D01*
X146351500Y-56762399D01*
X146351500Y-56521601D01*
X146311866Y-56284087D01*
X146233679Y-56056336D01*
X146119072Y-55844561D01*
X146119070Y-55844559D01*
X146119070Y-55844558D01*
X146119066Y-55844552D01*
X146008167Y-55702069D01*
X145982524Y-55637075D01*
X145996090Y-55568535D01*
X146044559Y-55518211D01*
X146062681Y-55509727D01*
X146093331Y-55498296D01*
X146208546Y-55412046D01*
X146294796Y-55296831D01*
X146345091Y-55161983D01*
X146351500Y-55102373D01*
X146351500Y-54481001D01*
X154363500Y-54481001D01*
X154363501Y-54481018D01*
X154374000Y-54583796D01*
X154374001Y-54583799D01*
X154429185Y-54750331D01*
X154429187Y-54750336D01*
X154463616Y-54806155D01*
X154521288Y-54899656D01*
X154645344Y-55023712D01*
X154794666Y-55115814D01*
X154961203Y-55170999D01*
X155063991Y-55181500D01*
X155864008Y-55181499D01*
X155864016Y-55181498D01*
X155864019Y-55181498D01*
X155925143Y-55175254D01*
X155966797Y-55170999D01*
X156133334Y-55115814D01*
X156282656Y-55023712D01*
X156406712Y-54899656D01*
X156445815Y-54836258D01*
X156497761Y-54789535D01*
X156566723Y-54778312D01*
X156630806Y-54806155D01*
X156648824Y-54824705D01*
X156663907Y-54843885D01*
X156663909Y-54843887D01*
X156822746Y-54981521D01*
X157004750Y-55086601D01*
X157004752Y-55086601D01*
X157004756Y-55086604D01*
X157203367Y-55155344D01*
X157411398Y-55185254D01*
X157621330Y-55175254D01*
X157825576Y-55125704D01*
X157911199Y-55086601D01*
X158016743Y-55038401D01*
X158016746Y-55038399D01*
X158016753Y-55038396D01*
X158187952Y-54916486D01*
X158203999Y-54899657D01*
X158332985Y-54764379D01*
X158342010Y-54750336D01*
X158446613Y-54587572D01*
X158524725Y-54392457D01*
X158564500Y-54186085D01*
X158564500Y-53478575D01*
X158549528Y-53321782D01*
X158490316Y-53120125D01*
X158394011Y-52933318D01*
X158394009Y-52933316D01*
X158394008Y-52933313D01*
X158264094Y-52768116D01*
X158264090Y-52768112D01*
X158105253Y-52630478D01*
X157923249Y-52525398D01*
X157923245Y-52525396D01*
X157923244Y-52525396D01*
X157724633Y-52456656D01*
X157516602Y-52426746D01*
X157516598Y-52426746D01*
X157306672Y-52436745D01*
X157102421Y-52486296D01*
X157102417Y-52486298D01*
X156911256Y-52573598D01*
X156911251Y-52573601D01*
X156740046Y-52695515D01*
X156740045Y-52695515D01*
X156642249Y-52798082D01*
X156581740Y-52833017D01*
X156511949Y-52829692D01*
X156455035Y-52789164D01*
X156446967Y-52777608D01*
X156432038Y-52753404D01*
X156406712Y-52712344D01*
X156282656Y-52588288D01*
X156189888Y-52531068D01*
X156133336Y-52496187D01*
X156133331Y-52496185D01*
X156103488Y-52486296D01*
X155966797Y-52441001D01*
X155966795Y-52441000D01*
X155864010Y-52430500D01*
X155063998Y-52430500D01*
X155063980Y-52430501D01*
X154961203Y-52441000D01*
X154961200Y-52441001D01*
X154794668Y-52496185D01*
X154794663Y-52496187D01*
X154645342Y-52588289D01*
X154521289Y-52712342D01*
X154429187Y-52861663D01*
X154429185Y-52861666D01*
X154429186Y-52861666D01*
X154374001Y-53028203D01*
X154374001Y-53028204D01*
X154374000Y-53028204D01*
X154363500Y-53130983D01*
X154363500Y-54481001D01*
X146351500Y-54481001D01*
X146351499Y-53101628D01*
X146345091Y-53042017D01*
X146334813Y-53014461D01*
X146294797Y-52907171D01*
X146294793Y-52907164D01*
X146208547Y-52791955D01*
X146208544Y-52791952D01*
X146093335Y-52705706D01*
X146093328Y-52705702D01*
X145958482Y-52655408D01*
X145958483Y-52655408D01*
X145898883Y-52649001D01*
X145898881Y-52649000D01*
X145898873Y-52649000D01*
X145898864Y-52649000D01*
X143803129Y-52649000D01*
X143803123Y-52649001D01*
X143743516Y-52655408D01*
X143608671Y-52705702D01*
X143608664Y-52705706D01*
X143493455Y-52791952D01*
X143493452Y-52791955D01*
X143407206Y-52907164D01*
X143407202Y-52907171D01*
X143356908Y-53042017D01*
X143350501Y-53101616D01*
X143350501Y-53101623D01*
X143350500Y-53101635D01*
X143350500Y-55102370D01*
X143350501Y-55102376D01*
X143356908Y-55161983D01*
X143407202Y-55296828D01*
X143407206Y-55296835D01*
X143493452Y-55412044D01*
X143493455Y-55412047D01*
X143608664Y-55498293D01*
X143608673Y-55498298D01*
X143639311Y-55509725D01*
X143695245Y-55551595D01*
X143719663Y-55617059D01*
X143704812Y-55685332D01*
X143693833Y-55702069D01*
X143582929Y-55844559D01*
X143468321Y-56056334D01*
X143468318Y-56056343D01*
X143390134Y-56284083D01*
X143350500Y-56521602D01*
X143350500Y-56762397D01*
X137287500Y-56762397D01*
X137287500Y-53467000D01*
X138471341Y-53467000D01*
X138491936Y-53702403D01*
X138491938Y-53702413D01*
X138553094Y-53930655D01*
X138553096Y-53930659D01*
X138553097Y-53930663D01*
X138584100Y-53997148D01*
X138652964Y-54144828D01*
X138652965Y-54144830D01*
X138788505Y-54338402D01*
X138955597Y-54505494D01*
X139149169Y-54641034D01*
X139149171Y-54641035D01*
X139363337Y-54740903D01*
X139591592Y-54802063D01*
X139768034Y-54817500D01*
X139885966Y-54817500D01*
X140062408Y-54802063D01*
X140290663Y-54740903D01*
X140504829Y-54641035D01*
X140698401Y-54505495D01*
X140865495Y-54338401D01*
X141001035Y-54144830D01*
X141100903Y-53930663D01*
X141162063Y-53702408D01*
X141182659Y-53467000D01*
X141162063Y-53231592D01*
X141100903Y-53003337D01*
X141001035Y-52789171D01*
X141001034Y-52789169D01*
X140865494Y-52595597D01*
X140698402Y-52428505D01*
X140504830Y-52292965D01*
X140504828Y-52292964D01*
X140397746Y-52243030D01*
X140290663Y-52193097D01*
X140290659Y-52193096D01*
X140290655Y-52193094D01*
X140062413Y-52131938D01*
X140062403Y-52131936D01*
X139885966Y-52116500D01*
X139768034Y-52116500D01*
X139591596Y-52131936D01*
X139591586Y-52131938D01*
X139363344Y-52193094D01*
X139363335Y-52193098D01*
X139149171Y-52292964D01*
X139149169Y-52292965D01*
X138955597Y-52428505D01*
X138788506Y-52595597D01*
X138788501Y-52595604D01*
X138652969Y-52789164D01*
X138652965Y-52789169D01*
X138553098Y-53003335D01*
X138553094Y-53003344D01*
X138491938Y-53231586D01*
X138491936Y-53231596D01*
X138471341Y-53466999D01*
X138471341Y-53467000D01*
X137287500Y-53467000D01*
X137287500Y-51051500D01*
X137307185Y-50984461D01*
X137359989Y-50938706D01*
X137411500Y-50927500D01*
X184787500Y-50927500D01*
X184854539Y-50947185D01*
G37*
%TD.AperFunction*%
%TD*%
M02*
