%TF.GenerationSoftware,KiCad,Pcbnew,7.0.7*%
%TF.CreationDate,2024-03-27T23:01:23-04:00*%
%TF.ProjectId,pneu_pwr_brd,706e6575-5f70-4777-925f-6272642e6b69,rev?*%
%TF.SameCoordinates,Original*%
%TF.FileFunction,Drillmap*%
%TF.FilePolarity,Positive*%
%FSLAX45Y45*%
G04 Gerber Fmt 4.5, Leading zero omitted, Abs format (unit mm)*
G04 Created by KiCad (PCBNEW 7.0.7) date 2024-03-27 23:01:23*
%MOMM*%
%LPD*%
G01*
G04 APERTURE LIST*
%ADD10C,0.100000*%
%ADD11C,0.200000*%
%ADD12C,0.220000*%
G04 APERTURE END LIST*
D10*
X13728700Y-5092700D02*
X18491200Y-5092700D01*
X18491200Y-10439400D01*
X13728700Y-10439400D01*
X13728700Y-5092700D01*
D11*
D12*
X13872700Y-5236700D02*
X14092700Y-5456700D01*
X14092700Y-5236700D02*
X13872700Y-5456700D01*
X16412700Y-6798800D02*
X16632700Y-7018800D01*
X16632700Y-6798800D02*
X16412700Y-7018800D01*
X16425400Y-8208500D02*
X16645400Y-8428500D01*
X16645400Y-8208500D02*
X16425400Y-8428500D01*
D11*
X13984477Y-10755884D02*
X13984477Y-10555884D01*
X13984477Y-10555884D02*
X14032096Y-10555884D01*
X14032096Y-10555884D02*
X14060667Y-10565408D01*
X14060667Y-10565408D02*
X14079715Y-10584455D01*
X14079715Y-10584455D02*
X14089239Y-10603503D01*
X14089239Y-10603503D02*
X14098762Y-10641598D01*
X14098762Y-10641598D02*
X14098762Y-10670170D01*
X14098762Y-10670170D02*
X14089239Y-10708265D01*
X14089239Y-10708265D02*
X14079715Y-10727312D01*
X14079715Y-10727312D02*
X14060667Y-10746360D01*
X14060667Y-10746360D02*
X14032096Y-10755884D01*
X14032096Y-10755884D02*
X13984477Y-10755884D01*
X14184477Y-10755884D02*
X14184477Y-10622550D01*
X14184477Y-10660646D02*
X14194001Y-10641598D01*
X14194001Y-10641598D02*
X14203524Y-10632074D01*
X14203524Y-10632074D02*
X14222572Y-10622550D01*
X14222572Y-10622550D02*
X14241620Y-10622550D01*
X14308286Y-10755884D02*
X14308286Y-10622550D01*
X14308286Y-10555884D02*
X14298762Y-10565408D01*
X14298762Y-10565408D02*
X14308286Y-10574931D01*
X14308286Y-10574931D02*
X14317810Y-10565408D01*
X14317810Y-10565408D02*
X14308286Y-10555884D01*
X14308286Y-10555884D02*
X14308286Y-10574931D01*
X14432096Y-10755884D02*
X14413048Y-10746360D01*
X14413048Y-10746360D02*
X14403524Y-10727312D01*
X14403524Y-10727312D02*
X14403524Y-10555884D01*
X14536858Y-10755884D02*
X14517810Y-10746360D01*
X14517810Y-10746360D02*
X14508286Y-10727312D01*
X14508286Y-10727312D02*
X14508286Y-10555884D01*
X14765429Y-10755884D02*
X14765429Y-10555884D01*
X14765429Y-10555884D02*
X14832096Y-10698741D01*
X14832096Y-10698741D02*
X14898762Y-10555884D01*
X14898762Y-10555884D02*
X14898762Y-10755884D01*
X15079715Y-10755884D02*
X15079715Y-10651122D01*
X15079715Y-10651122D02*
X15070191Y-10632074D01*
X15070191Y-10632074D02*
X15051143Y-10622550D01*
X15051143Y-10622550D02*
X15013048Y-10622550D01*
X15013048Y-10622550D02*
X14994001Y-10632074D01*
X15079715Y-10746360D02*
X15060667Y-10755884D01*
X15060667Y-10755884D02*
X15013048Y-10755884D01*
X15013048Y-10755884D02*
X14994001Y-10746360D01*
X14994001Y-10746360D02*
X14984477Y-10727312D01*
X14984477Y-10727312D02*
X14984477Y-10708265D01*
X14984477Y-10708265D02*
X14994001Y-10689217D01*
X14994001Y-10689217D02*
X15013048Y-10679693D01*
X15013048Y-10679693D02*
X15060667Y-10679693D01*
X15060667Y-10679693D02*
X15079715Y-10670170D01*
X15174953Y-10622550D02*
X15174953Y-10822550D01*
X15174953Y-10632074D02*
X15194001Y-10622550D01*
X15194001Y-10622550D02*
X15232096Y-10622550D01*
X15232096Y-10622550D02*
X15251143Y-10632074D01*
X15251143Y-10632074D02*
X15260667Y-10641598D01*
X15260667Y-10641598D02*
X15270191Y-10660646D01*
X15270191Y-10660646D02*
X15270191Y-10717789D01*
X15270191Y-10717789D02*
X15260667Y-10736836D01*
X15260667Y-10736836D02*
X15251143Y-10746360D01*
X15251143Y-10746360D02*
X15232096Y-10755884D01*
X15232096Y-10755884D02*
X15194001Y-10755884D01*
X15194001Y-10755884D02*
X15174953Y-10746360D01*
X15355905Y-10736836D02*
X15365429Y-10746360D01*
X15365429Y-10746360D02*
X15355905Y-10755884D01*
X15355905Y-10755884D02*
X15346382Y-10746360D01*
X15346382Y-10746360D02*
X15355905Y-10736836D01*
X15355905Y-10736836D02*
X15355905Y-10755884D01*
X15355905Y-10632074D02*
X15365429Y-10641598D01*
X15365429Y-10641598D02*
X15355905Y-10651122D01*
X15355905Y-10651122D02*
X15346382Y-10641598D01*
X15346382Y-10641598D02*
X15355905Y-10632074D01*
X15355905Y-10632074D02*
X15355905Y-10651122D01*
X13523700Y-10984400D02*
X13723700Y-11184400D01*
X13723700Y-10984400D02*
X13523700Y-11184400D01*
X13974953Y-10994931D02*
X13984477Y-10985408D01*
X13984477Y-10985408D02*
X14003524Y-10975884D01*
X14003524Y-10975884D02*
X14051143Y-10975884D01*
X14051143Y-10975884D02*
X14070191Y-10985408D01*
X14070191Y-10985408D02*
X14079715Y-10994931D01*
X14079715Y-10994931D02*
X14089239Y-11013979D01*
X14089239Y-11013979D02*
X14089239Y-11033027D01*
X14089239Y-11033027D02*
X14079715Y-11061598D01*
X14079715Y-11061598D02*
X13965429Y-11175884D01*
X13965429Y-11175884D02*
X14089239Y-11175884D01*
X14174953Y-11156836D02*
X14184477Y-11166360D01*
X14184477Y-11166360D02*
X14174953Y-11175884D01*
X14174953Y-11175884D02*
X14165429Y-11166360D01*
X14165429Y-11166360D02*
X14174953Y-11156836D01*
X14174953Y-11156836D02*
X14174953Y-11175884D01*
X14260667Y-10994931D02*
X14270191Y-10985408D01*
X14270191Y-10985408D02*
X14289239Y-10975884D01*
X14289239Y-10975884D02*
X14336858Y-10975884D01*
X14336858Y-10975884D02*
X14355905Y-10985408D01*
X14355905Y-10985408D02*
X14365429Y-10994931D01*
X14365429Y-10994931D02*
X14374953Y-11013979D01*
X14374953Y-11013979D02*
X14374953Y-11033027D01*
X14374953Y-11033027D02*
X14365429Y-11061598D01*
X14365429Y-11061598D02*
X14251143Y-11175884D01*
X14251143Y-11175884D02*
X14374953Y-11175884D01*
X14498762Y-10975884D02*
X14517810Y-10975884D01*
X14517810Y-10975884D02*
X14536858Y-10985408D01*
X14536858Y-10985408D02*
X14546382Y-10994931D01*
X14546382Y-10994931D02*
X14555905Y-11013979D01*
X14555905Y-11013979D02*
X14565429Y-11052074D01*
X14565429Y-11052074D02*
X14565429Y-11099693D01*
X14565429Y-11099693D02*
X14555905Y-11137789D01*
X14555905Y-11137789D02*
X14546382Y-11156836D01*
X14546382Y-11156836D02*
X14536858Y-11166360D01*
X14536858Y-11166360D02*
X14517810Y-11175884D01*
X14517810Y-11175884D02*
X14498762Y-11175884D01*
X14498762Y-11175884D02*
X14479715Y-11166360D01*
X14479715Y-11166360D02*
X14470191Y-11156836D01*
X14470191Y-11156836D02*
X14460667Y-11137789D01*
X14460667Y-11137789D02*
X14451143Y-11099693D01*
X14451143Y-11099693D02*
X14451143Y-11052074D01*
X14451143Y-11052074D02*
X14460667Y-11013979D01*
X14460667Y-11013979D02*
X14470191Y-10994931D01*
X14470191Y-10994931D02*
X14479715Y-10985408D01*
X14479715Y-10985408D02*
X14498762Y-10975884D01*
X14689239Y-10975884D02*
X14708286Y-10975884D01*
X14708286Y-10975884D02*
X14727334Y-10985408D01*
X14727334Y-10985408D02*
X14736858Y-10994931D01*
X14736858Y-10994931D02*
X14746382Y-11013979D01*
X14746382Y-11013979D02*
X14755905Y-11052074D01*
X14755905Y-11052074D02*
X14755905Y-11099693D01*
X14755905Y-11099693D02*
X14746382Y-11137789D01*
X14746382Y-11137789D02*
X14736858Y-11156836D01*
X14736858Y-11156836D02*
X14727334Y-11166360D01*
X14727334Y-11166360D02*
X14708286Y-11175884D01*
X14708286Y-11175884D02*
X14689239Y-11175884D01*
X14689239Y-11175884D02*
X14670191Y-11166360D01*
X14670191Y-11166360D02*
X14660667Y-11156836D01*
X14660667Y-11156836D02*
X14651143Y-11137789D01*
X14651143Y-11137789D02*
X14641620Y-11099693D01*
X14641620Y-11099693D02*
X14641620Y-11052074D01*
X14641620Y-11052074D02*
X14651143Y-11013979D01*
X14651143Y-11013979D02*
X14660667Y-10994931D01*
X14660667Y-10994931D02*
X14670191Y-10985408D01*
X14670191Y-10985408D02*
X14689239Y-10975884D01*
X14841620Y-11175884D02*
X14841620Y-11042550D01*
X14841620Y-11061598D02*
X14851143Y-11052074D01*
X14851143Y-11052074D02*
X14870191Y-11042550D01*
X14870191Y-11042550D02*
X14898763Y-11042550D01*
X14898763Y-11042550D02*
X14917810Y-11052074D01*
X14917810Y-11052074D02*
X14927334Y-11071122D01*
X14927334Y-11071122D02*
X14927334Y-11175884D01*
X14927334Y-11071122D02*
X14936858Y-11052074D01*
X14936858Y-11052074D02*
X14955905Y-11042550D01*
X14955905Y-11042550D02*
X14984477Y-11042550D01*
X14984477Y-11042550D02*
X15003524Y-11052074D01*
X15003524Y-11052074D02*
X15013048Y-11071122D01*
X15013048Y-11071122D02*
X15013048Y-11175884D01*
X15108286Y-11175884D02*
X15108286Y-11042550D01*
X15108286Y-11061598D02*
X15117810Y-11052074D01*
X15117810Y-11052074D02*
X15136858Y-11042550D01*
X15136858Y-11042550D02*
X15165429Y-11042550D01*
X15165429Y-11042550D02*
X15184477Y-11052074D01*
X15184477Y-11052074D02*
X15194001Y-11071122D01*
X15194001Y-11071122D02*
X15194001Y-11175884D01*
X15194001Y-11071122D02*
X15203524Y-11052074D01*
X15203524Y-11052074D02*
X15222572Y-11042550D01*
X15222572Y-11042550D02*
X15251143Y-11042550D01*
X15251143Y-11042550D02*
X15270191Y-11052074D01*
X15270191Y-11052074D02*
X15279715Y-11071122D01*
X15279715Y-11071122D02*
X15279715Y-11175884D01*
X15670191Y-10966360D02*
X15498763Y-11223503D01*
X15927334Y-10975884D02*
X15946382Y-10975884D01*
X15946382Y-10975884D02*
X15965429Y-10985408D01*
X15965429Y-10985408D02*
X15974953Y-10994931D01*
X15974953Y-10994931D02*
X15984477Y-11013979D01*
X15984477Y-11013979D02*
X15994001Y-11052074D01*
X15994001Y-11052074D02*
X15994001Y-11099693D01*
X15994001Y-11099693D02*
X15984477Y-11137789D01*
X15984477Y-11137789D02*
X15974953Y-11156836D01*
X15974953Y-11156836D02*
X15965429Y-11166360D01*
X15965429Y-11166360D02*
X15946382Y-11175884D01*
X15946382Y-11175884D02*
X15927334Y-11175884D01*
X15927334Y-11175884D02*
X15908286Y-11166360D01*
X15908286Y-11166360D02*
X15898763Y-11156836D01*
X15898763Y-11156836D02*
X15889239Y-11137789D01*
X15889239Y-11137789D02*
X15879715Y-11099693D01*
X15879715Y-11099693D02*
X15879715Y-11052074D01*
X15879715Y-11052074D02*
X15889239Y-11013979D01*
X15889239Y-11013979D02*
X15898763Y-10994931D01*
X15898763Y-10994931D02*
X15908286Y-10985408D01*
X15908286Y-10985408D02*
X15927334Y-10975884D01*
X16079715Y-11156836D02*
X16089239Y-11166360D01*
X16089239Y-11166360D02*
X16079715Y-11175884D01*
X16079715Y-11175884D02*
X16070191Y-11166360D01*
X16070191Y-11166360D02*
X16079715Y-11156836D01*
X16079715Y-11156836D02*
X16079715Y-11175884D01*
X16213048Y-10975884D02*
X16232096Y-10975884D01*
X16232096Y-10975884D02*
X16251144Y-10985408D01*
X16251144Y-10985408D02*
X16260667Y-10994931D01*
X16260667Y-10994931D02*
X16270191Y-11013979D01*
X16270191Y-11013979D02*
X16279715Y-11052074D01*
X16279715Y-11052074D02*
X16279715Y-11099693D01*
X16279715Y-11099693D02*
X16270191Y-11137789D01*
X16270191Y-11137789D02*
X16260667Y-11156836D01*
X16260667Y-11156836D02*
X16251144Y-11166360D01*
X16251144Y-11166360D02*
X16232096Y-11175884D01*
X16232096Y-11175884D02*
X16213048Y-11175884D01*
X16213048Y-11175884D02*
X16194001Y-11166360D01*
X16194001Y-11166360D02*
X16184477Y-11156836D01*
X16184477Y-11156836D02*
X16174953Y-11137789D01*
X16174953Y-11137789D02*
X16165429Y-11099693D01*
X16165429Y-11099693D02*
X16165429Y-11052074D01*
X16165429Y-11052074D02*
X16174953Y-11013979D01*
X16174953Y-11013979D02*
X16184477Y-10994931D01*
X16184477Y-10994931D02*
X16194001Y-10985408D01*
X16194001Y-10985408D02*
X16213048Y-10975884D01*
X16394001Y-11061598D02*
X16374953Y-11052074D01*
X16374953Y-11052074D02*
X16365429Y-11042550D01*
X16365429Y-11042550D02*
X16355906Y-11023503D01*
X16355906Y-11023503D02*
X16355906Y-11013979D01*
X16355906Y-11013979D02*
X16365429Y-10994931D01*
X16365429Y-10994931D02*
X16374953Y-10985408D01*
X16374953Y-10985408D02*
X16394001Y-10975884D01*
X16394001Y-10975884D02*
X16432096Y-10975884D01*
X16432096Y-10975884D02*
X16451144Y-10985408D01*
X16451144Y-10985408D02*
X16460667Y-10994931D01*
X16460667Y-10994931D02*
X16470191Y-11013979D01*
X16470191Y-11013979D02*
X16470191Y-11023503D01*
X16470191Y-11023503D02*
X16460667Y-11042550D01*
X16460667Y-11042550D02*
X16451144Y-11052074D01*
X16451144Y-11052074D02*
X16432096Y-11061598D01*
X16432096Y-11061598D02*
X16394001Y-11061598D01*
X16394001Y-11061598D02*
X16374953Y-11071122D01*
X16374953Y-11071122D02*
X16365429Y-11080646D01*
X16365429Y-11080646D02*
X16355906Y-11099693D01*
X16355906Y-11099693D02*
X16355906Y-11137789D01*
X16355906Y-11137789D02*
X16365429Y-11156836D01*
X16365429Y-11156836D02*
X16374953Y-11166360D01*
X16374953Y-11166360D02*
X16394001Y-11175884D01*
X16394001Y-11175884D02*
X16432096Y-11175884D01*
X16432096Y-11175884D02*
X16451144Y-11166360D01*
X16451144Y-11166360D02*
X16460667Y-11156836D01*
X16460667Y-11156836D02*
X16470191Y-11137789D01*
X16470191Y-11137789D02*
X16470191Y-11099693D01*
X16470191Y-11099693D02*
X16460667Y-11080646D01*
X16460667Y-11080646D02*
X16451144Y-11071122D01*
X16451144Y-11071122D02*
X16432096Y-11061598D01*
X16641620Y-10975884D02*
X16603525Y-10975884D01*
X16603525Y-10975884D02*
X16584477Y-10985408D01*
X16584477Y-10985408D02*
X16574953Y-10994931D01*
X16574953Y-10994931D02*
X16555906Y-11023503D01*
X16555906Y-11023503D02*
X16546382Y-11061598D01*
X16546382Y-11061598D02*
X16546382Y-11137789D01*
X16546382Y-11137789D02*
X16555906Y-11156836D01*
X16555906Y-11156836D02*
X16565429Y-11166360D01*
X16565429Y-11166360D02*
X16584477Y-11175884D01*
X16584477Y-11175884D02*
X16622572Y-11175884D01*
X16622572Y-11175884D02*
X16641620Y-11166360D01*
X16641620Y-11166360D02*
X16651144Y-11156836D01*
X16651144Y-11156836D02*
X16660667Y-11137789D01*
X16660667Y-11137789D02*
X16660667Y-11090170D01*
X16660667Y-11090170D02*
X16651144Y-11071122D01*
X16651144Y-11071122D02*
X16641620Y-11061598D01*
X16641620Y-11061598D02*
X16622572Y-11052074D01*
X16622572Y-11052074D02*
X16584477Y-11052074D01*
X16584477Y-11052074D02*
X16565429Y-11061598D01*
X16565429Y-11061598D02*
X16555906Y-11071122D01*
X16555906Y-11071122D02*
X16546382Y-11090170D01*
X16832096Y-10975884D02*
X16794001Y-10975884D01*
X16794001Y-10975884D02*
X16774953Y-10985408D01*
X16774953Y-10985408D02*
X16765429Y-10994931D01*
X16765429Y-10994931D02*
X16746382Y-11023503D01*
X16746382Y-11023503D02*
X16736858Y-11061598D01*
X16736858Y-11061598D02*
X16736858Y-11137789D01*
X16736858Y-11137789D02*
X16746382Y-11156836D01*
X16746382Y-11156836D02*
X16755906Y-11166360D01*
X16755906Y-11166360D02*
X16774953Y-11175884D01*
X16774953Y-11175884D02*
X16813049Y-11175884D01*
X16813049Y-11175884D02*
X16832096Y-11166360D01*
X16832096Y-11166360D02*
X16841620Y-11156836D01*
X16841620Y-11156836D02*
X16851144Y-11137789D01*
X16851144Y-11137789D02*
X16851144Y-11090170D01*
X16851144Y-11090170D02*
X16841620Y-11071122D01*
X16841620Y-11071122D02*
X16832096Y-11061598D01*
X16832096Y-11061598D02*
X16813049Y-11052074D01*
X16813049Y-11052074D02*
X16774953Y-11052074D01*
X16774953Y-11052074D02*
X16755906Y-11061598D01*
X16755906Y-11061598D02*
X16746382Y-11071122D01*
X16746382Y-11071122D02*
X16736858Y-11090170D01*
X16927334Y-10975884D02*
X16927334Y-11013979D01*
X17003525Y-10975884D02*
X17003525Y-11013979D01*
X17298763Y-11252074D02*
X17289239Y-11242550D01*
X17289239Y-11242550D02*
X17270191Y-11213979D01*
X17270191Y-11213979D02*
X17260668Y-11194931D01*
X17260668Y-11194931D02*
X17251144Y-11166360D01*
X17251144Y-11166360D02*
X17241620Y-11118741D01*
X17241620Y-11118741D02*
X17241620Y-11080646D01*
X17241620Y-11080646D02*
X17251144Y-11033027D01*
X17251144Y-11033027D02*
X17260668Y-11004455D01*
X17260668Y-11004455D02*
X17270191Y-10985408D01*
X17270191Y-10985408D02*
X17289239Y-10956836D01*
X17289239Y-10956836D02*
X17298763Y-10947312D01*
X17355906Y-10975884D02*
X17479715Y-10975884D01*
X17479715Y-10975884D02*
X17413049Y-11052074D01*
X17413049Y-11052074D02*
X17441620Y-11052074D01*
X17441620Y-11052074D02*
X17460668Y-11061598D01*
X17460668Y-11061598D02*
X17470191Y-11071122D01*
X17470191Y-11071122D02*
X17479715Y-11090170D01*
X17479715Y-11090170D02*
X17479715Y-11137789D01*
X17479715Y-11137789D02*
X17470191Y-11156836D01*
X17470191Y-11156836D02*
X17460668Y-11166360D01*
X17460668Y-11166360D02*
X17441620Y-11175884D01*
X17441620Y-11175884D02*
X17384477Y-11175884D01*
X17384477Y-11175884D02*
X17365430Y-11166360D01*
X17365430Y-11166360D02*
X17355906Y-11156836D01*
X17717811Y-11175884D02*
X17717811Y-10975884D01*
X17803525Y-11175884D02*
X17803525Y-11071122D01*
X17803525Y-11071122D02*
X17794001Y-11052074D01*
X17794001Y-11052074D02*
X17774953Y-11042550D01*
X17774953Y-11042550D02*
X17746382Y-11042550D01*
X17746382Y-11042550D02*
X17727334Y-11052074D01*
X17727334Y-11052074D02*
X17717811Y-11061598D01*
X17927334Y-11175884D02*
X17908287Y-11166360D01*
X17908287Y-11166360D02*
X17898763Y-11156836D01*
X17898763Y-11156836D02*
X17889239Y-11137789D01*
X17889239Y-11137789D02*
X17889239Y-11080646D01*
X17889239Y-11080646D02*
X17898763Y-11061598D01*
X17898763Y-11061598D02*
X17908287Y-11052074D01*
X17908287Y-11052074D02*
X17927334Y-11042550D01*
X17927334Y-11042550D02*
X17955906Y-11042550D01*
X17955906Y-11042550D02*
X17974953Y-11052074D01*
X17974953Y-11052074D02*
X17984477Y-11061598D01*
X17984477Y-11061598D02*
X17994001Y-11080646D01*
X17994001Y-11080646D02*
X17994001Y-11137789D01*
X17994001Y-11137789D02*
X17984477Y-11156836D01*
X17984477Y-11156836D02*
X17974953Y-11166360D01*
X17974953Y-11166360D02*
X17955906Y-11175884D01*
X17955906Y-11175884D02*
X17927334Y-11175884D01*
X18108287Y-11175884D02*
X18089239Y-11166360D01*
X18089239Y-11166360D02*
X18079715Y-11147312D01*
X18079715Y-11147312D02*
X18079715Y-10975884D01*
X18260668Y-11166360D02*
X18241620Y-11175884D01*
X18241620Y-11175884D02*
X18203525Y-11175884D01*
X18203525Y-11175884D02*
X18184477Y-11166360D01*
X18184477Y-11166360D02*
X18174953Y-11147312D01*
X18174953Y-11147312D02*
X18174953Y-11071122D01*
X18174953Y-11071122D02*
X18184477Y-11052074D01*
X18184477Y-11052074D02*
X18203525Y-11042550D01*
X18203525Y-11042550D02*
X18241620Y-11042550D01*
X18241620Y-11042550D02*
X18260668Y-11052074D01*
X18260668Y-11052074D02*
X18270192Y-11071122D01*
X18270192Y-11071122D02*
X18270192Y-11090170D01*
X18270192Y-11090170D02*
X18174953Y-11109217D01*
X18346382Y-11166360D02*
X18365430Y-11175884D01*
X18365430Y-11175884D02*
X18403525Y-11175884D01*
X18403525Y-11175884D02*
X18422573Y-11166360D01*
X18422573Y-11166360D02*
X18432096Y-11147312D01*
X18432096Y-11147312D02*
X18432096Y-11137789D01*
X18432096Y-11137789D02*
X18422573Y-11118741D01*
X18422573Y-11118741D02*
X18403525Y-11109217D01*
X18403525Y-11109217D02*
X18374953Y-11109217D01*
X18374953Y-11109217D02*
X18355906Y-11099693D01*
X18355906Y-11099693D02*
X18346382Y-11080646D01*
X18346382Y-11080646D02*
X18346382Y-11071122D01*
X18346382Y-11071122D02*
X18355906Y-11052074D01*
X18355906Y-11052074D02*
X18374953Y-11042550D01*
X18374953Y-11042550D02*
X18403525Y-11042550D01*
X18403525Y-11042550D02*
X18422573Y-11052074D01*
X18498763Y-11252074D02*
X18508287Y-11242550D01*
X18508287Y-11242550D02*
X18527334Y-11213979D01*
X18527334Y-11213979D02*
X18536858Y-11194931D01*
X18536858Y-11194931D02*
X18546382Y-11166360D01*
X18546382Y-11166360D02*
X18555906Y-11118741D01*
X18555906Y-11118741D02*
X18555906Y-11080646D01*
X18555906Y-11080646D02*
X18546382Y-11033027D01*
X18546382Y-11033027D02*
X18536858Y-11004455D01*
X18536858Y-11004455D02*
X18527334Y-10985408D01*
X18527334Y-10985408D02*
X18508287Y-10956836D01*
X18508287Y-10956836D02*
X18498763Y-10947312D01*
X18860668Y-11252074D02*
X18851144Y-11242550D01*
X18851144Y-11242550D02*
X18832096Y-11213979D01*
X18832096Y-11213979D02*
X18822573Y-11194931D01*
X18822573Y-11194931D02*
X18813049Y-11166360D01*
X18813049Y-11166360D02*
X18803525Y-11118741D01*
X18803525Y-11118741D02*
X18803525Y-11080646D01*
X18803525Y-11080646D02*
X18813049Y-11033027D01*
X18813049Y-11033027D02*
X18822573Y-11004455D01*
X18822573Y-11004455D02*
X18832096Y-10985408D01*
X18832096Y-10985408D02*
X18851144Y-10956836D01*
X18851144Y-10956836D02*
X18860668Y-10947312D01*
X18936858Y-11042550D02*
X18936858Y-11175884D01*
X18936858Y-11061598D02*
X18946382Y-11052074D01*
X18946382Y-11052074D02*
X18965430Y-11042550D01*
X18965430Y-11042550D02*
X18994001Y-11042550D01*
X18994001Y-11042550D02*
X19013049Y-11052074D01*
X19013049Y-11052074D02*
X19022573Y-11071122D01*
X19022573Y-11071122D02*
X19022573Y-11175884D01*
X19146382Y-11175884D02*
X19127334Y-11166360D01*
X19127334Y-11166360D02*
X19117811Y-11156836D01*
X19117811Y-11156836D02*
X19108287Y-11137789D01*
X19108287Y-11137789D02*
X19108287Y-11080646D01*
X19108287Y-11080646D02*
X19117811Y-11061598D01*
X19117811Y-11061598D02*
X19127334Y-11052074D01*
X19127334Y-11052074D02*
X19146382Y-11042550D01*
X19146382Y-11042550D02*
X19174954Y-11042550D01*
X19174954Y-11042550D02*
X19194001Y-11052074D01*
X19194001Y-11052074D02*
X19203525Y-11061598D01*
X19203525Y-11061598D02*
X19213049Y-11080646D01*
X19213049Y-11080646D02*
X19213049Y-11137789D01*
X19213049Y-11137789D02*
X19203525Y-11156836D01*
X19203525Y-11156836D02*
X19194001Y-11166360D01*
X19194001Y-11166360D02*
X19174954Y-11175884D01*
X19174954Y-11175884D02*
X19146382Y-11175884D01*
X19270192Y-11042550D02*
X19346382Y-11042550D01*
X19298763Y-10975884D02*
X19298763Y-11147312D01*
X19298763Y-11147312D02*
X19308287Y-11166360D01*
X19308287Y-11166360D02*
X19327334Y-11175884D01*
X19327334Y-11175884D02*
X19346382Y-11175884D01*
X19565430Y-11042550D02*
X19565430Y-11242550D01*
X19565430Y-11052074D02*
X19584477Y-11042550D01*
X19584477Y-11042550D02*
X19622573Y-11042550D01*
X19622573Y-11042550D02*
X19641620Y-11052074D01*
X19641620Y-11052074D02*
X19651144Y-11061598D01*
X19651144Y-11061598D02*
X19660668Y-11080646D01*
X19660668Y-11080646D02*
X19660668Y-11137789D01*
X19660668Y-11137789D02*
X19651144Y-11156836D01*
X19651144Y-11156836D02*
X19641620Y-11166360D01*
X19641620Y-11166360D02*
X19622573Y-11175884D01*
X19622573Y-11175884D02*
X19584477Y-11175884D01*
X19584477Y-11175884D02*
X19565430Y-11166360D01*
X19774954Y-11175884D02*
X19755906Y-11166360D01*
X19755906Y-11166360D02*
X19746382Y-11147312D01*
X19746382Y-11147312D02*
X19746382Y-10975884D01*
X19936858Y-11175884D02*
X19936858Y-11071122D01*
X19936858Y-11071122D02*
X19927335Y-11052074D01*
X19927335Y-11052074D02*
X19908287Y-11042550D01*
X19908287Y-11042550D02*
X19870192Y-11042550D01*
X19870192Y-11042550D02*
X19851144Y-11052074D01*
X19936858Y-11166360D02*
X19917811Y-11175884D01*
X19917811Y-11175884D02*
X19870192Y-11175884D01*
X19870192Y-11175884D02*
X19851144Y-11166360D01*
X19851144Y-11166360D02*
X19841620Y-11147312D01*
X19841620Y-11147312D02*
X19841620Y-11128265D01*
X19841620Y-11128265D02*
X19851144Y-11109217D01*
X19851144Y-11109217D02*
X19870192Y-11099693D01*
X19870192Y-11099693D02*
X19917811Y-11099693D01*
X19917811Y-11099693D02*
X19936858Y-11090170D01*
X20003525Y-11042550D02*
X20079715Y-11042550D01*
X20032096Y-10975884D02*
X20032096Y-11147312D01*
X20032096Y-11147312D02*
X20041620Y-11166360D01*
X20041620Y-11166360D02*
X20060668Y-11175884D01*
X20060668Y-11175884D02*
X20079715Y-11175884D01*
X20222573Y-11166360D02*
X20203525Y-11175884D01*
X20203525Y-11175884D02*
X20165430Y-11175884D01*
X20165430Y-11175884D02*
X20146382Y-11166360D01*
X20146382Y-11166360D02*
X20136858Y-11147312D01*
X20136858Y-11147312D02*
X20136858Y-11071122D01*
X20136858Y-11071122D02*
X20146382Y-11052074D01*
X20146382Y-11052074D02*
X20165430Y-11042550D01*
X20165430Y-11042550D02*
X20203525Y-11042550D01*
X20203525Y-11042550D02*
X20222573Y-11052074D01*
X20222573Y-11052074D02*
X20232096Y-11071122D01*
X20232096Y-11071122D02*
X20232096Y-11090170D01*
X20232096Y-11090170D02*
X20136858Y-11109217D01*
X20403525Y-11175884D02*
X20403525Y-10975884D01*
X20403525Y-11166360D02*
X20384477Y-11175884D01*
X20384477Y-11175884D02*
X20346382Y-11175884D01*
X20346382Y-11175884D02*
X20327335Y-11166360D01*
X20327335Y-11166360D02*
X20317811Y-11156836D01*
X20317811Y-11156836D02*
X20308287Y-11137789D01*
X20308287Y-11137789D02*
X20308287Y-11080646D01*
X20308287Y-11080646D02*
X20317811Y-11061598D01*
X20317811Y-11061598D02*
X20327335Y-11052074D01*
X20327335Y-11052074D02*
X20346382Y-11042550D01*
X20346382Y-11042550D02*
X20384477Y-11042550D01*
X20384477Y-11042550D02*
X20403525Y-11052074D01*
X20479716Y-11252074D02*
X20489239Y-11242550D01*
X20489239Y-11242550D02*
X20508287Y-11213979D01*
X20508287Y-11213979D02*
X20517811Y-11194931D01*
X20517811Y-11194931D02*
X20527335Y-11166360D01*
X20527335Y-11166360D02*
X20536858Y-11118741D01*
X20536858Y-11118741D02*
X20536858Y-11080646D01*
X20536858Y-11080646D02*
X20527335Y-11033027D01*
X20527335Y-11033027D02*
X20517811Y-11004455D01*
X20517811Y-11004455D02*
X20508287Y-10985408D01*
X20508287Y-10985408D02*
X20489239Y-10956836D01*
X20489239Y-10956836D02*
X20479716Y-10947312D01*
M02*
