%TF.GenerationSoftware,KiCad,Pcbnew,9.0.0*%
%TF.CreationDate,2025-04-06T17:49:01-04:00*%
%TF.ProjectId,Thruster_Control_Card_COPY,54687275-7374-4657-925f-436f6e74726f,rev?*%
%TF.SameCoordinates,Original*%
%TF.FileFunction,Plated,1,4,PTH,Drill*%
%TF.FilePolarity,Positive*%
%FSLAX46Y46*%
G04 Gerber Fmt 4.6, Leading zero omitted, Abs format (unit mm)*
G04 Created by KiCad (PCBNEW 9.0.0) date 2025-04-06 17:49:01*
%MOMM*%
%LPD*%
G01*
G04 APERTURE LIST*
%TA.AperFunction,ViaDrill*%
%ADD10C,0.400000*%
%TD*%
%TA.AperFunction,ComponentDrill*%
%ADD11C,0.889000*%
%TD*%
%TA.AperFunction,ComponentDrill*%
%ADD12C,1.070000*%
%TD*%
%TA.AperFunction,ComponentDrill*%
%ADD13C,1.300000*%
%TD*%
%TA.AperFunction,ComponentDrill*%
%ADD14C,2.890000*%
%TD*%
G04 APERTURE END LIST*
D10*
X151125000Y-67300000D03*
X151150000Y-69950000D03*
X151175000Y-75750000D03*
X151200000Y-62575000D03*
X151325000Y-60900000D03*
X151625000Y-51700000D03*
X152525000Y-59350000D03*
X152775000Y-62600000D03*
X152775000Y-67500000D03*
X153725000Y-76550000D03*
X155425000Y-71900000D03*
X155425000Y-72900000D03*
X157975000Y-73700000D03*
X158300000Y-62125000D03*
X158725000Y-64662500D03*
X158825000Y-66250000D03*
X159025000Y-73700000D03*
X159925000Y-76825000D03*
X160100000Y-62125000D03*
X161150000Y-82100000D03*
X161275000Y-73200000D03*
X162273752Y-73149999D03*
X162450000Y-82100000D03*
X162475000Y-76875000D03*
X163200000Y-88150000D03*
X163500000Y-58500000D03*
X163570264Y-61792050D03*
X163725000Y-76850000D03*
X164250000Y-85975000D03*
X165575000Y-78875000D03*
X172200000Y-52800000D03*
X172300000Y-53800000D03*
X172300000Y-54800000D03*
X173300000Y-52800000D03*
X173300000Y-53800000D03*
X173300000Y-54800000D03*
X174300000Y-52800000D03*
X174300000Y-53800000D03*
X174300000Y-54800000D03*
X175300000Y-52800000D03*
X175300000Y-53800000D03*
X175300000Y-54800000D03*
X176300000Y-52800000D03*
X176300000Y-53800000D03*
X176300000Y-54800000D03*
X177300000Y-52800000D03*
X177300000Y-53800000D03*
X177300000Y-54800000D03*
X177400000Y-94700000D03*
X178175000Y-96725000D03*
X178300000Y-52800000D03*
X178300000Y-53800000D03*
X178300000Y-54800000D03*
X179300000Y-52800000D03*
X179300000Y-53800000D03*
X179300000Y-54800000D03*
X181000000Y-55050000D03*
X192300000Y-52800000D03*
X192300000Y-53800000D03*
X192300000Y-54800000D03*
X193300000Y-52800000D03*
X193300000Y-53800000D03*
X193300000Y-54800000D03*
X194300000Y-52800000D03*
X194300000Y-53800000D03*
X194300000Y-54800000D03*
X195300000Y-52800000D03*
X195300000Y-53800000D03*
X195300000Y-54800000D03*
X196300000Y-52800000D03*
X196300000Y-53800000D03*
X196300000Y-54800000D03*
X197300000Y-52800000D03*
X197300000Y-53800000D03*
X197300000Y-54800000D03*
X198300000Y-52800000D03*
X198300000Y-53800000D03*
X198300000Y-54800000D03*
X199300000Y-52800000D03*
X199300000Y-53800000D03*
X199300000Y-54800000D03*
X201000000Y-55050000D03*
X212300000Y-52800000D03*
X212300000Y-53800000D03*
X212300000Y-54800000D03*
X213300000Y-52800000D03*
X213300000Y-53800000D03*
X213300000Y-54800000D03*
X214300000Y-52800000D03*
X214300000Y-53800000D03*
X214300000Y-54800000D03*
X215300000Y-52800000D03*
X215300000Y-53800000D03*
X215300000Y-54800000D03*
X216300000Y-52800000D03*
X216300000Y-53800000D03*
X216300000Y-54800000D03*
X217300000Y-52800000D03*
X217300000Y-53800000D03*
X217300000Y-54800000D03*
X218300000Y-52800000D03*
X218300000Y-53800000D03*
X218300000Y-54800000D03*
X219300000Y-52800000D03*
X219300000Y-53800000D03*
X219300000Y-54800000D03*
X221000000Y-55050000D03*
X231800000Y-52800000D03*
X231800000Y-53800000D03*
X231800000Y-54800000D03*
X232800000Y-52800000D03*
X232800000Y-53800000D03*
X232800000Y-54800000D03*
X233800000Y-52800000D03*
X233800000Y-53800000D03*
X233800000Y-54800000D03*
X234800000Y-52800000D03*
X234800000Y-53800000D03*
X234800000Y-54800000D03*
X235800000Y-52800000D03*
X235800000Y-53800000D03*
X235800000Y-54800000D03*
X236800000Y-52800000D03*
X236800000Y-53800000D03*
X236800000Y-54800000D03*
X237800000Y-52800000D03*
X237800000Y-53800000D03*
X237800000Y-54800000D03*
X238800000Y-52800000D03*
X238800000Y-53800000D03*
X238800000Y-54800000D03*
X240500000Y-55050000D03*
D11*
%TO.C,BOOT*%
X168900000Y-74600000D03*
X168900000Y-77100000D03*
X168900000Y-79600000D03*
D12*
%TO.C,J1*%
X160782000Y-99822000D03*
X160782000Y-102362000D03*
X160782000Y-104902000D03*
X163322000Y-99822000D03*
X163322000Y-102362000D03*
X163322000Y-104902000D03*
X165862000Y-99822000D03*
X165862000Y-102362000D03*
X165862000Y-104902000D03*
X168402000Y-99822000D03*
X168402000Y-102362000D03*
X168402000Y-104902000D03*
X170942000Y-99822000D03*
X170942000Y-102362000D03*
X170942000Y-104902000D03*
X173482000Y-99822000D03*
X173482000Y-102362000D03*
X173482000Y-104902000D03*
X176022000Y-99822000D03*
X176022000Y-102362000D03*
X176022000Y-104902000D03*
X178562000Y-99822000D03*
X178562000Y-102362000D03*
X178562000Y-104902000D03*
X181102000Y-99822000D03*
X181102000Y-102362000D03*
X181102000Y-104902000D03*
X183642000Y-99822000D03*
X183642000Y-102362000D03*
X183642000Y-104902000D03*
X186182000Y-99822000D03*
X186182000Y-102362000D03*
X186182000Y-104902000D03*
X188722000Y-99822000D03*
X188722000Y-102362000D03*
X188722000Y-104902000D03*
X191262000Y-99822000D03*
X191262000Y-102362000D03*
X191262000Y-104902000D03*
X193802000Y-99822000D03*
X193802000Y-102362000D03*
X193802000Y-104902000D03*
X196342000Y-99822000D03*
X196342000Y-102362000D03*
X196342000Y-104902000D03*
X198882000Y-99822000D03*
X198882000Y-102362000D03*
X198882000Y-104902000D03*
X201422000Y-99822000D03*
X201422000Y-102362000D03*
X201422000Y-104902000D03*
X203962000Y-99822000D03*
X203962000Y-102362000D03*
X203962000Y-104902000D03*
X206502000Y-99822000D03*
X206502000Y-102362000D03*
X206502000Y-104902000D03*
X209042000Y-99822000D03*
X209042000Y-102362000D03*
X209042000Y-104902000D03*
X211582000Y-99822000D03*
X211582000Y-102362000D03*
X211582000Y-104902000D03*
X214122000Y-99822000D03*
X214122000Y-102362000D03*
X214122000Y-104902000D03*
X216662000Y-99822000D03*
X216662000Y-102362000D03*
X216662000Y-104902000D03*
X219202000Y-99822000D03*
X219202000Y-102362000D03*
X219202000Y-104902000D03*
X221742000Y-99822000D03*
X221742000Y-102362000D03*
X221742000Y-104902000D03*
X224282000Y-99822000D03*
X224282000Y-102362000D03*
X224282000Y-104902000D03*
X226822000Y-99822000D03*
X226822000Y-102362000D03*
X226822000Y-104902000D03*
X229362000Y-99822000D03*
X229362000Y-102362000D03*
X229362000Y-104902000D03*
X231902000Y-99822000D03*
X231902000Y-102362000D03*
X231902000Y-104902000D03*
X234442000Y-99822000D03*
X234442000Y-102362000D03*
X234442000Y-104902000D03*
X236982000Y-99822000D03*
X236982000Y-102362000D03*
X236982000Y-104902000D03*
X239522000Y-99822000D03*
X239522000Y-102362000D03*
X239522000Y-104902000D03*
D13*
%TO.C,J7*%
X154025000Y-80950000D03*
X154025000Y-83490000D03*
%TO.C,SWCLK NRST SWDIO*%
X158620000Y-55400000D03*
X161160000Y-55400000D03*
X163700000Y-55400000D03*
D14*
%TO.C,J1*%
X155702000Y-107442000D03*
X244602000Y-107442000D03*
M02*
