%TF.GenerationSoftware,KiCad,Pcbnew,9.0.0*%
%TF.CreationDate,2025-04-06T17:48:58-04:00*%
%TF.ProjectId,Thruster_Control_Card_COPY,54687275-7374-4657-925f-436f6e74726f,rev?*%
%TF.SameCoordinates,Original*%
%TF.FileFunction,Copper,L1,Top*%
%TF.FilePolarity,Positive*%
%FSLAX46Y46*%
G04 Gerber Fmt 4.6, Leading zero omitted, Abs format (unit mm)*
G04 Created by KiCad (PCBNEW 9.0.0) date 2025-04-06 17:48:58*
%MOMM*%
%LPD*%
G01*
G04 APERTURE LIST*
G04 Aperture macros list*
%AMRoundRect*
0 Rectangle with rounded corners*
0 $1 Rounding radius*
0 $2 $3 $4 $5 $6 $7 $8 $9 X,Y pos of 4 corners*
0 Add a 4 corners polygon primitive as box body*
4,1,4,$2,$3,$4,$5,$6,$7,$8,$9,$2,$3,0*
0 Add four circle primitives for the rounded corners*
1,1,$1+$1,$2,$3*
1,1,$1+$1,$4,$5*
1,1,$1+$1,$6,$7*
1,1,$1+$1,$8,$9*
0 Add four rect primitives between the rounded corners*
20,1,$1+$1,$2,$3,$4,$5,0*
20,1,$1+$1,$4,$5,$6,$7,0*
20,1,$1+$1,$6,$7,$8,$9,0*
20,1,$1+$1,$8,$9,$2,$3,0*%
G04 Aperture macros list end*
%TA.AperFunction,ComponentPad*%
%ADD10C,1.950000*%
%TD*%
%TA.AperFunction,SMDPad,CuDef*%
%ADD11RoundRect,0.155000X0.212500X0.155000X-0.212500X0.155000X-0.212500X-0.155000X0.212500X-0.155000X0*%
%TD*%
%TA.AperFunction,SMDPad,CuDef*%
%ADD12R,0.558000X1.969999*%
%TD*%
%TA.AperFunction,SMDPad,CuDef*%
%ADD13RoundRect,0.250000X0.337500X0.475000X-0.337500X0.475000X-0.337500X-0.475000X0.337500X-0.475000X0*%
%TD*%
%TA.AperFunction,ComponentPad*%
%ADD14C,1.397000*%
%TD*%
%TA.AperFunction,SMDPad,CuDef*%
%ADD15RoundRect,0.250000X-0.337500X-0.475000X0.337500X-0.475000X0.337500X0.475000X-0.337500X0.475000X0*%
%TD*%
%TA.AperFunction,ComponentPad*%
%ADD16R,1.605000X1.605000*%
%TD*%
%TA.AperFunction,ComponentPad*%
%ADD17C,1.605000*%
%TD*%
%TA.AperFunction,ComponentPad*%
%ADD18C,4.335000*%
%TD*%
%TA.AperFunction,SMDPad,CuDef*%
%ADD19RoundRect,0.250000X0.475000X-0.337500X0.475000X0.337500X-0.475000X0.337500X-0.475000X-0.337500X0*%
%TD*%
%TA.AperFunction,SMDPad,CuDef*%
%ADD20RoundRect,0.250000X0.400000X0.625000X-0.400000X0.625000X-0.400000X-0.625000X0.400000X-0.625000X0*%
%TD*%
%TA.AperFunction,SMDPad,CuDef*%
%ADD21RoundRect,0.250000X-0.450000X0.350000X-0.450000X-0.350000X0.450000X-0.350000X0.450000X0.350000X0*%
%TD*%
%TA.AperFunction,SMDPad,CuDef*%
%ADD22RoundRect,0.250001X0.462499X0.624999X-0.462499X0.624999X-0.462499X-0.624999X0.462499X-0.624999X0*%
%TD*%
%TA.AperFunction,SMDPad,CuDef*%
%ADD23RoundRect,0.180000X-0.520000X-0.420000X0.520000X-0.420000X0.520000X0.420000X-0.520000X0.420000X0*%
%TD*%
%TA.AperFunction,SMDPad,CuDef*%
%ADD24RoundRect,0.075000X-0.700000X-0.075000X0.700000X-0.075000X0.700000X0.075000X-0.700000X0.075000X0*%
%TD*%
%TA.AperFunction,SMDPad,CuDef*%
%ADD25RoundRect,0.075000X-0.075000X-0.700000X0.075000X-0.700000X0.075000X0.700000X-0.075000X0.700000X0*%
%TD*%
%TA.AperFunction,ViaPad*%
%ADD26C,0.800000*%
%TD*%
%TA.AperFunction,Conductor*%
%ADD27C,0.250000*%
%TD*%
%TA.AperFunction,Conductor*%
%ADD28C,0.200000*%
%TD*%
%TA.AperFunction,Conductor*%
%ADD29C,0.500000*%
%TD*%
G04 APERTURE END LIST*
D10*
%TO.P,J7,1,Pin_1*%
%TO.N,3.3v*%
X154025000Y-80950000D03*
%TO.P,J7,2,Pin_2*%
%TO.N,GND*%
X154025000Y-83490000D03*
%TD*%
D11*
%TO.P,C1,1*%
%TO.N,GND*%
X154635000Y-71000000D03*
%TO.P,C1,2*%
%TO.N,RCC_OSC_OUT*%
X153500000Y-71000000D03*
%TD*%
D12*
%TO.P,U6,1,TXD*%
%TO.N,FDCAN_TX*%
X163700000Y-78576200D03*
%TO.P,U6,2,GND*%
%TO.N,GND*%
X162430000Y-78576200D03*
%TO.P,U6,3,VCC*%
%TO.N,5V*%
X161160000Y-78576200D03*
%TO.P,U6,4,RXD*%
%TO.N,FDCAN_RX*%
X159890000Y-78576200D03*
%TO.P,U6,5,VIO*%
%TO.N,3.3v*%
X159890000Y-83503800D03*
%TO.P,U6,6,CANL*%
%TO.N,CAN-*%
X161160000Y-83503800D03*
%TO.P,U6,7,CANH*%
%TO.N,CAN+*%
X162430000Y-83503800D03*
%TO.P,U6,8,STBY*%
%TO.N,GND*%
X163700000Y-83503800D03*
%TD*%
D13*
%TO.P,22uf,1*%
%TO.N,5V*%
X165312500Y-89825000D03*
%TO.P,22uf,2*%
%TO.N,GND*%
X163237500Y-89825000D03*
%TD*%
D14*
%TO.P,BOOT,1,1*%
%TO.N,3.3v*%
X168900000Y-79600000D03*
%TO.P,BOOT,2,2*%
%TO.N,Net-(R6-Pad2)*%
X168900000Y-77100000D03*
%TO.P,BOOT,3,3*%
%TO.N,GND*%
X168900000Y-74600000D03*
%TD*%
D15*
%TO.P,4.7uf,1*%
%TO.N,3.3v*%
X151587500Y-77925000D03*
%TO.P,4.7uf,2*%
%TO.N,GND*%
X153662500Y-77925000D03*
%TD*%
%TO.P,100nf,1*%
%TO.N,3.3v*%
X160822500Y-85740000D03*
%TO.P,100nf,2*%
%TO.N,GND*%
X162897500Y-85740000D03*
%TD*%
D16*
%TO.P,J1,A1,A1*%
%TO.N,+12V*%
X239522000Y-104902000D03*
D17*
%TO.P,J1,A2,A2*%
X236982000Y-104902000D03*
%TO.P,J1,A3,A3*%
X234442000Y-104902000D03*
%TO.P,J1,A4,A4*%
%TO.N,GND*%
X231902000Y-104902000D03*
%TO.P,J1,A5,A5*%
X229362000Y-104902000D03*
%TO.P,J1,A6,A6*%
X226822000Y-104902000D03*
%TO.P,J1,A7,A7*%
%TO.N,5V*%
X224282000Y-104902000D03*
%TO.P,J1,A8,A8*%
%TO.N,/A4*%
X221742000Y-104902000D03*
%TO.P,J1,A9,A9*%
%TO.N,/B4*%
X219202000Y-104902000D03*
%TO.P,J1,A10,A10*%
%TO.N,/C4*%
X216662000Y-104902000D03*
%TO.P,J1,A11,A11*%
%TO.N,/A3*%
X214122000Y-104902000D03*
%TO.P,J1,A12,A12*%
%TO.N,/B3*%
X211582000Y-104902000D03*
%TO.P,J1,A13,A13*%
%TO.N,/C3*%
X209042000Y-104902000D03*
%TO.P,J1,A14,A14*%
%TO.N,/A2*%
X206502000Y-104902000D03*
%TO.P,J1,A15,A15*%
%TO.N,/B2*%
X203962000Y-104902000D03*
%TO.P,J1,A16,A16*%
%TO.N,/C2*%
X201422000Y-104902000D03*
%TO.P,J1,A17,A17*%
%TO.N,/A1*%
X198882000Y-104902000D03*
%TO.P,J1,A18,A18*%
%TO.N,/B1*%
X196342000Y-104902000D03*
%TO.P,J1,A19,A19*%
%TO.N,/C1*%
X193802000Y-104902000D03*
%TO.P,J1,A20,A20*%
%TO.N,3.3v*%
X191262000Y-104902000D03*
%TO.P,J1,A21,A21*%
%TO.N,unconnected-(J1-PadA21)*%
X188722000Y-104902000D03*
%TO.P,J1,A22,A22*%
%TO.N,unconnected-(J1-PadA22)*%
X186182000Y-104902000D03*
%TO.P,J1,A23,A23*%
%TO.N,unconnected-(J1-PadA23)*%
X183642000Y-104902000D03*
%TO.P,J1,A24,A24*%
%TO.N,unconnected-(J1-PadA24)*%
X181102000Y-104902000D03*
%TO.P,J1,A25,A25*%
%TO.N,unconnected-(J1-PadA25)*%
X178562000Y-104902000D03*
%TO.P,J1,A26,A26*%
%TO.N,GND*%
X176022000Y-104902000D03*
%TO.P,J1,A27,A27*%
%TO.N,unconnected-(J1-PadA27)*%
X173482000Y-104902000D03*
%TO.P,J1,A28,A28*%
%TO.N,GND*%
X170942000Y-104902000D03*
%TO.P,J1,A29,A29*%
%TO.N,unconnected-(J1-PadA29)*%
X168402000Y-104902000D03*
%TO.P,J1,A30,A30*%
%TO.N,GND*%
X165862000Y-104902000D03*
%TO.P,J1,A31,A31*%
%TO.N,/SDA_IN*%
X163322000Y-104902000D03*
%TO.P,J1,A32,A32*%
%TO.N,GND*%
X160782000Y-104902000D03*
%TO.P,J1,B1,B1*%
%TO.N,+12V*%
X239522000Y-102362000D03*
%TO.P,J1,B2,B2*%
X236982000Y-102362000D03*
%TO.P,J1,B3,B3*%
X234442000Y-102362000D03*
%TO.P,J1,B4,B4*%
%TO.N,GND*%
X231902000Y-102362000D03*
%TO.P,J1,B5,B5*%
X229362000Y-102362000D03*
%TO.P,J1,B6,B6*%
X226822000Y-102362000D03*
%TO.P,J1,B7,B7*%
%TO.N,5V*%
X224282000Y-102362000D03*
%TO.P,J1,B8,B8*%
%TO.N,/A4*%
X221742000Y-102362000D03*
%TO.P,J1,B9,B9*%
%TO.N,/B4*%
X219202000Y-102362000D03*
%TO.P,J1,B10,B10*%
%TO.N,/C4*%
X216662000Y-102362000D03*
%TO.P,J1,B11,B11*%
%TO.N,/A3*%
X214122000Y-102362000D03*
%TO.P,J1,B12,B12*%
%TO.N,/B3*%
X211582000Y-102362000D03*
%TO.P,J1,B13,B13*%
%TO.N,/C3*%
X209042000Y-102362000D03*
%TO.P,J1,B14,B14*%
%TO.N,/A2*%
X206502000Y-102362000D03*
%TO.P,J1,B15,B15*%
%TO.N,/B2*%
X203962000Y-102362000D03*
%TO.P,J1,B16,B16*%
%TO.N,/C2*%
X201422000Y-102362000D03*
%TO.P,J1,B17,B17*%
%TO.N,/A1*%
X198882000Y-102362000D03*
%TO.P,J1,B18,B18*%
%TO.N,/B1*%
X196342000Y-102362000D03*
%TO.P,J1,B19,B19*%
%TO.N,/C1*%
X193802000Y-102362000D03*
%TO.P,J1,B20,B20*%
%TO.N,3.3v*%
X191262000Y-102362000D03*
%TO.P,J1,B21,B21*%
%TO.N,unconnected-(J1-PadB21)*%
X188722000Y-102362000D03*
%TO.P,J1,B22,B22*%
%TO.N,unconnected-(J1-PadB22)*%
X186182000Y-102362000D03*
%TO.P,J1,B23,B23*%
%TO.N,unconnected-(J1-PadB23)*%
X183642000Y-102362000D03*
%TO.P,J1,B24,B24*%
%TO.N,unconnected-(J1-PadB24)*%
X181102000Y-102362000D03*
%TO.P,J1,B25,B25*%
%TO.N,USART2-*%
X178562000Y-102362000D03*
%TO.P,J1,B26,B26*%
%TO.N,unconnected-(J1-PadB26)*%
X176022000Y-102362000D03*
%TO.P,J1,B27,B27*%
%TO.N,CAN+*%
X173482000Y-102362000D03*
%TO.P,J1,B28,B28*%
%TO.N,unconnected-(J1-PadB28)*%
X170942000Y-102362000D03*
%TO.P,J1,B29,B29*%
%TO.N,unconnected-(J1-PadB29)*%
X168402000Y-102362000D03*
%TO.P,J1,B30,B30*%
%TO.N,unconnected-(J1-PadB30)*%
X165862000Y-102362000D03*
%TO.P,J1,B31,B31*%
%TO.N,/SDA_IN*%
X163322000Y-102362000D03*
%TO.P,J1,B32,B32*%
%TO.N,/SCL_IN*%
X160782000Y-102362000D03*
%TO.P,J1,C1,C1*%
%TO.N,+12V*%
X239522000Y-99822000D03*
%TO.P,J1,C2,C2*%
X236982000Y-99822000D03*
%TO.P,J1,C3,C3*%
X234442000Y-99822000D03*
%TO.P,J1,C4,C4*%
%TO.N,GND*%
X231902000Y-99822000D03*
%TO.P,J1,C5,C5*%
X229362000Y-99822000D03*
%TO.P,J1,C6,C6*%
X226822000Y-99822000D03*
%TO.P,J1,C7,C7*%
%TO.N,5V*%
X224282000Y-99822000D03*
%TO.P,J1,C8,C8*%
%TO.N,/A4*%
X221742000Y-99822000D03*
%TO.P,J1,C9,C9*%
%TO.N,/B4*%
X219202000Y-99822000D03*
%TO.P,J1,C10,C10*%
%TO.N,/C4*%
X216662000Y-99822000D03*
%TO.P,J1,C11,C11*%
%TO.N,/A3*%
X214122000Y-99822000D03*
%TO.P,J1,C12,C12*%
%TO.N,/B3*%
X211582000Y-99822000D03*
%TO.P,J1,C13,C13*%
%TO.N,/C3*%
X209042000Y-99822000D03*
%TO.P,J1,C14,C14*%
%TO.N,/A2*%
X206502000Y-99822000D03*
%TO.P,J1,C15,C15*%
%TO.N,/B2*%
X203962000Y-99822000D03*
%TO.P,J1,C16,C16*%
%TO.N,/C2*%
X201422000Y-99822000D03*
%TO.P,J1,C17,C17*%
%TO.N,/A1*%
X198882000Y-99822000D03*
%TO.P,J1,C18,C18*%
%TO.N,/B1*%
X196342000Y-99822000D03*
%TO.P,J1,C19,C19*%
%TO.N,/C1*%
X193802000Y-99822000D03*
%TO.P,J1,C20,C20*%
%TO.N,3.3v*%
X191262000Y-99822000D03*
%TO.P,J1,C21,C21*%
%TO.N,unconnected-(J1-PadC21)*%
X188722000Y-99822000D03*
%TO.P,J1,C22,C22*%
%TO.N,unconnected-(J1-PadC22)*%
X186182000Y-99822000D03*
%TO.P,J1,C23,C23*%
%TO.N,unconnected-(J1-PadC23)*%
X183642000Y-99822000D03*
%TO.P,J1,C24,C24*%
%TO.N,unconnected-(J1-PadC24)*%
X181102000Y-99822000D03*
%TO.P,J1,C25,C25*%
%TO.N,GND*%
X178562000Y-99822000D03*
%TO.P,J1,C26,C26*%
%TO.N,USART2+*%
X176022000Y-99822000D03*
%TO.P,J1,C27,C27*%
%TO.N,GND*%
X173482000Y-99822000D03*
%TO.P,J1,C28,C28*%
%TO.N,CAN-*%
X170942000Y-99822000D03*
%TO.P,J1,C29,C29*%
%TO.N,GND*%
X168402000Y-99822000D03*
%TO.P,J1,C30,C30*%
%TO.N,unconnected-(J1-PadC30)*%
X165862000Y-99822000D03*
%TO.P,J1,C31,C31*%
%TO.N,GND*%
X163322000Y-99822000D03*
%TO.P,J1,C32,C32*%
%TO.N,/SCL_IN*%
X160782000Y-99822000D03*
D18*
%TO.P,J1,MH1*%
%TO.N,N/C*%
X244602000Y-107442000D03*
%TO.P,J1,MH2*%
X155702000Y-107442000D03*
%TD*%
D19*
%TO.P,100nf,1*%
%TO.N,5V*%
X165575000Y-82350000D03*
%TO.P,100nf,2*%
%TO.N,GND*%
X165575000Y-80275000D03*
%TD*%
D20*
%TO.P,1k,1*%
%TO.N,Net-(D1-K)*%
X154850000Y-53325000D03*
%TO.P,1k,2*%
%TO.N,GND*%
X151750000Y-53325000D03*
%TD*%
D10*
%TO.P,SWCLK NRST SWDIO,1,Pin_1*%
%TO.N,/SWDIO*%
X163700000Y-55400000D03*
%TO.P,SWCLK NRST SWDIO,2,Pin_2*%
%TO.N,/NRST*%
X161160000Y-55400000D03*
%TO.P,SWCLK NRST SWDIO,3,Pin_3*%
%TO.N,/SWCLK*%
X158620000Y-55400000D03*
%TD*%
D21*
%TO.P,10k,1*%
%TO.N,Net-(U5-PA14)*%
X169300000Y-63500000D03*
%TO.P,10k,2*%
%TO.N,Net-(R6-Pad2)*%
X169300000Y-65500000D03*
%TD*%
D22*
%TO.P,LED,1,K*%
%TO.N,Net-(D1-K)*%
X154737500Y-55850000D03*
%TO.P,LED,2,A*%
%TO.N,LED*%
X151762500Y-55850000D03*
%TD*%
D23*
%TO.P,U7,1*%
%TO.N,RCC_OSC_IN*%
X151775000Y-72700000D03*
%TO.P,U7,2*%
%TO.N,GND*%
X153975000Y-72700000D03*
%TO.P,U7,3*%
%TO.N,RCC_OSC_OUT*%
X153975000Y-74400000D03*
%TO.P,U7,4*%
%TO.N,GND*%
X151775000Y-74400000D03*
%TD*%
D24*
%TO.P,U5,1,PC11*%
%TO.N,TIM1 CH4 (PWM)*%
X155325000Y-62350000D03*
%TO.P,U5,2,PC12*%
%TO.N,/SWDIO*%
X155325000Y-62850000D03*
%TO.P,U5,3,PC13*%
%TO.N,LED*%
X155325000Y-63350000D03*
%TO.P,U5,4,PC14*%
%TO.N,unconnected-(U5-PC14-Pad4)*%
X155325000Y-63850000D03*
%TO.P,U5,5,PC15*%
%TO.N,unconnected-(U5-PC15-Pad5)*%
X155325000Y-64350000D03*
%TO.P,U5,6,VBAT*%
%TO.N,3.3v*%
X155325000Y-64850000D03*
%TO.P,U5,7,VREF+*%
X155325000Y-65350000D03*
%TO.P,U5,8,VDD*%
X155325000Y-65850000D03*
%TO.P,U5,9,VSS*%
%TO.N,GND*%
X155325000Y-66350000D03*
%TO.P,U5,10,PF0*%
%TO.N,RCC_OSC_IN*%
X155325000Y-66850000D03*
%TO.P,U5,11,PF1*%
%TO.N,RCC_OSC_OUT*%
X155325000Y-67350000D03*
%TO.P,U5,12,PF2*%
%TO.N,unconnected-(U5-PF2-Pad12)*%
X155325000Y-67850000D03*
%TO.P,U5,13,PC0*%
%TO.N,unconnected-(U5-PC0-Pad13)*%
X155325000Y-68350000D03*
%TO.P,U5,14,PC1*%
%TO.N,unconnected-(U5-PC1-Pad14)*%
X155325000Y-68850000D03*
%TO.P,U5,15,PC2*%
%TO.N,unconnected-(U5-PC2-Pad15)*%
X155325000Y-69350000D03*
%TO.P,U5,16,PC3*%
%TO.N,unconnected-(U5-PC3-Pad16)*%
X155325000Y-69850000D03*
D25*
%TO.P,U5,17,PA0*%
%TO.N,unconnected-(U5-PA0-Pad17)*%
X157250000Y-71775000D03*
%TO.P,U5,18,PA1*%
%TO.N,unconnected-(U5-PA1-Pad18)*%
X157750000Y-71775000D03*
%TO.P,U5,19,PA2*%
%TO.N,USART2+*%
X158250000Y-71775000D03*
%TO.P,U5,20,PA3*%
%TO.N,USART2-*%
X158750000Y-71775000D03*
%TO.P,U5,21,PA4*%
%TO.N,unconnected-(U5-PA4-Pad21)*%
X159250000Y-71775000D03*
%TO.P,U5,22,PA5*%
%TO.N,unconnected-(U5-PA5-Pad22)*%
X159750000Y-71775000D03*
%TO.P,U5,23,PA6*%
%TO.N,unconnected-(U5-PA6-Pad23)*%
X160250000Y-71775000D03*
%TO.P,U5,24,PA7*%
%TO.N,unconnected-(U5-PA7-Pad24)*%
X160750000Y-71775000D03*
%TO.P,U5,25,PC4*%
%TO.N,FDCAN_RX*%
X161250000Y-71775000D03*
%TO.P,U5,26,PC5*%
%TO.N,FDCAN_TX*%
X161750000Y-71775000D03*
%TO.P,U5,27,PB0*%
%TO.N,unconnected-(U5-PB0-Pad27)*%
X162250000Y-71775000D03*
%TO.P,U5,28,PB1*%
%TO.N,unconnected-(U5-PB1-Pad28)*%
X162750000Y-71775000D03*
%TO.P,U5,29,PB2*%
%TO.N,unconnected-(U5-PB2-Pad29)*%
X163250000Y-71775000D03*
%TO.P,U5,30,PB10*%
%TO.N,unconnected-(U5-PB10-Pad30)*%
X163750000Y-71775000D03*
%TO.P,U5,31,PB11*%
%TO.N,unconnected-(U5-PB11-Pad31)*%
X164250000Y-71775000D03*
%TO.P,U5,32,PB12*%
%TO.N,unconnected-(U5-PB12-Pad32)*%
X164750000Y-71775000D03*
D24*
%TO.P,U5,33,PB13*%
%TO.N,unconnected-(U5-PB13-Pad33)*%
X166675000Y-69850000D03*
%TO.P,U5,34,PB14*%
%TO.N,unconnected-(U5-PB14-Pad34)*%
X166675000Y-69350000D03*
%TO.P,U5,35,PB15*%
%TO.N,unconnected-(U5-PB15-Pad35)*%
X166675000Y-68850000D03*
%TO.P,U5,36,PA8*%
%TO.N,unconnected-(U5-PA8-Pad36)*%
X166675000Y-68350000D03*
%TO.P,U5,37,PA9/UCPD1_DBCC1*%
%TO.N,unconnected-(U5-PA9{slash}UCPD1_DBCC1-Pad37)*%
X166675000Y-67850000D03*
%TO.P,U5,38,PC6*%
%TO.N,unconnected-(U5-PC6-Pad38)*%
X166675000Y-67350000D03*
%TO.P,U5,39,PC7*%
%TO.N,unconnected-(U5-PC7-Pad39)*%
X166675000Y-66850000D03*
%TO.P,U5,40,PD8*%
%TO.N,unconnected-(U5-PD8-Pad40)*%
X166675000Y-66350000D03*
%TO.P,U5,41,PD9*%
%TO.N,unconnected-(U5-PD9-Pad41)*%
X166675000Y-65850000D03*
%TO.P,U5,42,PA10/UCPD1_DBCC2*%
%TO.N,unconnected-(U5-PA10{slash}UCPD1_DBCC2-Pad42)*%
X166675000Y-65350000D03*
%TO.P,U5,43,PA11/PA9*%
%TO.N,unconnected-(U5-PA11{slash}PA9-Pad43)*%
X166675000Y-64850000D03*
%TO.P,U5,44,PA12/PA10*%
%TO.N,unconnected-(U5-PA12{slash}PA10-Pad44)*%
X166675000Y-64350000D03*
%TO.P,U5,45,PA13*%
%TO.N,unconnected-(U5-PA13-Pad45)*%
X166675000Y-63850000D03*
%TO.P,U5,46,PA14*%
%TO.N,Net-(U5-PA14)*%
X166675000Y-63350000D03*
%TO.P,U5,47,PA15*%
%TO.N,unconnected-(U5-PA15-Pad47)*%
X166675000Y-62850000D03*
%TO.P,U5,48,PC8*%
%TO.N,TIM1 CH (PWM)*%
X166675000Y-62350000D03*
D25*
%TO.P,U5,49,PC9*%
%TO.N,TIM1 CH2 (PWM)*%
X164750000Y-60425000D03*
%TO.P,U5,50,PD0*%
%TO.N,unconnected-(U5-PD0-Pad50)*%
X164250000Y-60425000D03*
%TO.P,U5,51,PD1*%
%TO.N,unconnected-(U5-PD1-Pad51)*%
X163750000Y-60425000D03*
%TO.P,U5,52,PD2*%
%TO.N,unconnected-(U5-PD2-Pad52)*%
X163250000Y-60425000D03*
%TO.P,U5,53,PD3*%
%TO.N,unconnected-(U5-PD3-Pad53)*%
X162750000Y-60425000D03*
%TO.P,U5,54,PD4*%
%TO.N,unconnected-(U5-PD4-Pad54)*%
X162250000Y-60425000D03*
%TO.P,U5,55,PD5*%
%TO.N,unconnected-(U5-PD5-Pad55)*%
X161750000Y-60425000D03*
%TO.P,U5,56,PD6*%
%TO.N,unconnected-(U5-PD6-Pad56)*%
X161250000Y-60425000D03*
%TO.P,U5,57,PB3*%
%TO.N,/NRST*%
X160750000Y-60425000D03*
%TO.P,U5,58,PB4*%
%TO.N,unconnected-(U5-PB4-Pad58)*%
X160250000Y-60425000D03*
%TO.P,U5,59,PB5*%
%TO.N,unconnected-(U5-PB5-Pad59)*%
X159750000Y-60425000D03*
%TO.P,U5,60,PB6*%
%TO.N,/SCL_IN*%
X159250000Y-60425000D03*
%TO.P,U5,61,PB7*%
%TO.N,/SDA_IN*%
X158750000Y-60425000D03*
%TO.P,U5,62,PB8*%
%TO.N,unconnected-(U5-PB8-Pad62)*%
X158250000Y-60425000D03*
%TO.P,U5,63,PB9*%
%TO.N,/SWCLK*%
X157750000Y-60425000D03*
%TO.P,U5,64,PC10*%
%TO.N,TIM1 CH3 (PWM)*%
X157250000Y-60425000D03*
%TD*%
D11*
%TO.P,20pf,1*%
%TO.N,RCC_OSC_IN*%
X152310000Y-71000000D03*
%TO.P,20pf,2*%
%TO.N,GND*%
X151175000Y-71000000D03*
%TD*%
D26*
%TO.N,GND*%
X198300000Y-54800000D03*
X197300000Y-54800000D03*
X198300000Y-52800000D03*
X199300000Y-54800000D03*
X234800000Y-52800000D03*
X175300000Y-54800000D03*
X237800000Y-52800000D03*
X233800000Y-54800000D03*
X216300000Y-53800000D03*
X236800000Y-52800000D03*
X179300000Y-53800000D03*
X235800000Y-53800000D03*
X162475000Y-76875000D03*
X177300000Y-54800000D03*
X164250000Y-85975000D03*
X218300000Y-52800000D03*
X212300000Y-54800000D03*
X179300000Y-54800000D03*
X238800000Y-54800000D03*
X151150000Y-69950000D03*
X158825000Y-66250000D03*
X219300000Y-53800000D03*
X237800000Y-53800000D03*
X178300000Y-53800000D03*
X196300000Y-52800000D03*
X172300000Y-53800000D03*
X165575000Y-78875000D03*
X192300000Y-53800000D03*
X234800000Y-54800000D03*
X193300000Y-52800000D03*
X194300000Y-53800000D03*
X232800000Y-53800000D03*
X192300000Y-52800000D03*
X214300000Y-54800000D03*
X178300000Y-54800000D03*
X195300000Y-53800000D03*
X177300000Y-52800000D03*
X217300000Y-53800000D03*
X213300000Y-54800000D03*
X231800000Y-53800000D03*
X151325000Y-60900000D03*
X151625000Y-51700000D03*
X176300000Y-53800000D03*
X234800000Y-53800000D03*
X198300000Y-53800000D03*
X194300000Y-54800000D03*
X212300000Y-53800000D03*
X217300000Y-52800000D03*
X232800000Y-54800000D03*
X214300000Y-53800000D03*
X196300000Y-53800000D03*
X216300000Y-54800000D03*
X173300000Y-52800000D03*
X214300000Y-52800000D03*
X172300000Y-54800000D03*
X237800000Y-54800000D03*
X213300000Y-53800000D03*
X195300000Y-54800000D03*
X195300000Y-52800000D03*
X236800000Y-53800000D03*
X235800000Y-52800000D03*
X233800000Y-52800000D03*
X152775000Y-67500000D03*
X216300000Y-52800000D03*
X215300000Y-52800000D03*
X196300000Y-54800000D03*
X232800000Y-52800000D03*
X174300000Y-54800000D03*
X197300000Y-53800000D03*
X151175000Y-75750000D03*
X173300000Y-54800000D03*
X174300000Y-52800000D03*
X174300000Y-53800000D03*
X155425000Y-71900000D03*
X178300000Y-52800000D03*
X197300000Y-52800000D03*
X218300000Y-53800000D03*
X176300000Y-54800000D03*
X212300000Y-52800000D03*
X238800000Y-53800000D03*
X215300000Y-54800000D03*
X177300000Y-53800000D03*
X175300000Y-53800000D03*
X151125000Y-67300000D03*
X192300000Y-54800000D03*
X176300000Y-52800000D03*
X215300000Y-53800000D03*
X217300000Y-54800000D03*
X231800000Y-54800000D03*
X235800000Y-54800000D03*
X193300000Y-53800000D03*
X219300000Y-54800000D03*
X199300000Y-52800000D03*
X231800000Y-52800000D03*
X218300000Y-54800000D03*
X238800000Y-52800000D03*
X163200000Y-88150000D03*
X194300000Y-52800000D03*
X199300000Y-53800000D03*
X175300000Y-52800000D03*
X179300000Y-52800000D03*
X219300000Y-52800000D03*
X173300000Y-53800000D03*
X236800000Y-54800000D03*
X233800000Y-53800000D03*
X153725000Y-76550000D03*
X193300000Y-54800000D03*
X155425000Y-72900000D03*
X172200000Y-52800000D03*
X213300000Y-52800000D03*
%TO.N,CAN+*%
X162450000Y-82100000D03*
%TO.N,3.3v*%
X152525000Y-59350000D03*
X152775000Y-62600000D03*
X177400000Y-94700000D03*
X151200000Y-62575000D03*
X158725000Y-64662500D03*
X178175000Y-96725000D03*
%TO.N,CAN-*%
X161150000Y-82100000D03*
%TO.N,/SWDIO*%
X163500000Y-58500000D03*
X163570264Y-61792050D03*
%TO.N,TIM1 CH (PWM)*%
X181000000Y-55050000D03*
%TO.N,TIM1 CH2 (PWM)*%
X201000000Y-55050000D03*
%TO.N,TIM1 CH3 (PWM)*%
X221000000Y-55050000D03*
%TO.N,TIM1 CH4 (PWM)*%
X240500000Y-55050000D03*
%TO.N,USART2+*%
X157975000Y-73700000D03*
%TO.N,/SDA_IN*%
X158300000Y-62125000D03*
%TO.N,/SCL_IN*%
X160100000Y-62125000D03*
%TO.N,USART2-*%
X159025000Y-73700000D03*
%TO.N,FDCAN_TX*%
X162273752Y-73149999D03*
X163725000Y-76850000D03*
%TO.N,FDCAN_RX*%
X159925000Y-76825000D03*
X161275000Y-73200000D03*
%TD*%
D27*
%TO.N,LED*%
X153850000Y-62719178D02*
X154480822Y-63350000D01*
X153850000Y-58725000D02*
X153850000Y-62719178D01*
X154480822Y-63350000D02*
X155325000Y-63350000D01*
X153450000Y-58325000D02*
X153850000Y-58725000D01*
X152225000Y-58325000D02*
X153450000Y-58325000D01*
X151762500Y-57862500D02*
X152225000Y-58325000D01*
X151762500Y-55850000D02*
X151762500Y-57862500D01*
%TO.N,GND*%
X152075000Y-66350000D02*
X153925000Y-66350000D01*
X151125000Y-67300000D02*
X152075000Y-66350000D01*
X153925000Y-66350000D02*
X152775000Y-67500000D01*
X155325000Y-66350000D02*
X153925000Y-66350000D01*
X158725000Y-66350000D02*
X158825000Y-66250000D01*
X155325000Y-66350000D02*
X158725000Y-66350000D01*
X169300000Y-74200000D02*
X168900000Y-74600000D01*
X153662500Y-76612500D02*
X153725000Y-76550000D01*
X165575000Y-80275000D02*
X165575000Y-78875000D01*
X164250000Y-85975000D02*
X163132500Y-85975000D01*
X162430000Y-76920000D02*
X162475000Y-76875000D01*
X163700000Y-84900000D02*
X162897500Y-85702500D01*
X162430000Y-78576200D02*
X162430000Y-76920000D01*
X153662500Y-77925000D02*
X153662500Y-76612500D01*
X151175000Y-75000000D02*
X151775000Y-74400000D01*
X151750000Y-51825000D02*
X151625000Y-51700000D01*
X154650000Y-71000000D02*
X155425000Y-71775000D01*
X151175000Y-71000000D02*
X151175000Y-69975000D01*
X163237500Y-88187500D02*
X163200000Y-88150000D01*
X151175000Y-69975000D02*
X151150000Y-69950000D01*
X151750000Y-53325000D02*
X151750000Y-51825000D01*
X163132500Y-85975000D02*
X162897500Y-85740000D01*
X151175000Y-75750000D02*
X151175000Y-75000000D01*
X163237500Y-89825000D02*
X163237500Y-88187500D01*
X162897500Y-85702500D02*
X162897500Y-85740000D01*
X154635000Y-71000000D02*
X154650000Y-71000000D01*
X163700000Y-84900000D02*
X163700000Y-83503800D01*
X153975000Y-72700000D02*
X155375000Y-72700000D01*
D28*
%TO.N,CAN+*%
X162450000Y-83483800D02*
X162430000Y-83503800D01*
X162450000Y-82100000D02*
X162450000Y-83483800D01*
D29*
%TO.N,3.3v*%
X174900000Y-92650000D02*
X168900000Y-86650000D01*
X179231691Y-97250000D02*
X179900000Y-97918309D01*
X168900000Y-86650000D02*
X168900000Y-79600000D01*
X178175000Y-96725000D02*
X179231691Y-97250000D01*
X191262000Y-104902000D02*
X191262000Y-99822000D01*
X191262000Y-99822000D02*
X189540000Y-98100000D01*
X189540000Y-98100000D02*
X179900000Y-97918309D01*
X175350000Y-92650000D02*
X174900000Y-92650000D01*
X177400000Y-94700000D02*
X175350000Y-92650000D01*
D28*
%TO.N,CAN-*%
X161150000Y-83493800D02*
X161160000Y-83503800D01*
X161150000Y-82100000D02*
X161150000Y-83493800D01*
D27*
%TO.N,Net-(U5-PA14)*%
X169150000Y-63350000D02*
X169300000Y-63500000D01*
X166675000Y-63350000D02*
X169150000Y-63350000D01*
%TO.N,5V*%
X224282000Y-104902000D02*
X224282000Y-96600000D01*
X161160000Y-78576200D02*
X161160000Y-79035000D01*
D29*
X165312500Y-82612500D02*
X165575000Y-82350000D01*
D27*
X224282000Y-96600000D02*
X223282000Y-95600000D01*
X161160000Y-79282199D02*
X161160000Y-78576200D01*
X165312500Y-95112500D02*
X165312500Y-89825000D01*
X223282000Y-95600000D02*
X165800000Y-95600000D01*
X164475000Y-82350000D02*
X165575000Y-82350000D01*
X161160000Y-79035000D02*
X164475000Y-82350000D01*
X165312500Y-89825000D02*
X165312500Y-82612500D01*
X165800000Y-95600000D02*
X165312500Y-95112500D01*
%TO.N,/SWCLK*%
X158620000Y-55400000D02*
X157750000Y-56270000D01*
X157750000Y-56270000D02*
X157750000Y-60425000D01*
%TO.N,/NRST*%
X161160000Y-55400000D02*
X161800000Y-55400000D01*
X160750000Y-55810000D02*
X160750000Y-60425000D01*
X161160000Y-55400000D02*
X160750000Y-55810000D01*
%TO.N,/SWDIO*%
X163500000Y-58500000D02*
X163700000Y-58300000D01*
X162512314Y-62850000D02*
X163570264Y-61792050D01*
X155325000Y-62850000D02*
X162512314Y-62850000D01*
X163700000Y-58300000D02*
X163700000Y-55400000D01*
%TO.N,Net-(R6-Pad2)*%
X169275000Y-69675000D02*
X169300000Y-69475000D01*
X168900000Y-65900000D02*
X169300000Y-65500000D01*
X169100000Y-69950000D02*
X169275000Y-69675000D01*
X167475000Y-76700000D02*
X167475000Y-71575000D01*
X168900000Y-77100000D02*
X167875000Y-77100000D01*
X169300000Y-69475000D02*
X169300000Y-65500000D01*
X167875000Y-77100000D02*
X167475000Y-76700000D01*
X167475000Y-71575000D02*
X169100000Y-69950000D01*
%TO.N,TIM1 CH (PWM)*%
X181000000Y-55050000D02*
X181000000Y-51600000D01*
X181000000Y-51600000D02*
X167149000Y-51551000D01*
X166675000Y-52025000D02*
X166675000Y-62350000D01*
X167149000Y-51551000D02*
X166675000Y-52025000D01*
%TO.N,TIM1 CH2 (PWM)*%
X201000000Y-51100000D02*
X201000000Y-55050000D01*
X164750000Y-60425000D02*
X164750000Y-59350000D01*
X165700000Y-58400000D02*
X165700000Y-51100000D01*
X165700000Y-51100000D02*
X201000000Y-51100000D01*
X164750000Y-59350000D02*
X165700000Y-58400000D01*
%TO.N,TIM1 CH3 (PWM)*%
X221000000Y-50500000D02*
X221000000Y-55050000D01*
X156800000Y-51600000D02*
X157900000Y-50500000D01*
X157900000Y-50500000D02*
X221000000Y-50500000D01*
X157250000Y-60425000D02*
X157250000Y-59399000D01*
X157250000Y-59399000D02*
X156800000Y-58800000D01*
X156800000Y-58800000D02*
X156800000Y-51600000D01*
%TO.N,TIM1 CH4 (PWM)*%
X240500000Y-55050000D02*
X240600000Y-49800000D01*
X156200000Y-61475000D02*
X156200000Y-49800000D01*
X155325000Y-62350000D02*
X156200000Y-61475000D01*
X240600000Y-49800000D02*
X156200000Y-49800000D01*
D28*
%TO.N,USART2+*%
X158250000Y-71775000D02*
X158274999Y-71799999D01*
X158274999Y-71799999D02*
X158274999Y-73400001D01*
X158274999Y-73400001D02*
X157975000Y-73700000D01*
D27*
%TO.N,/SDA_IN*%
X158300000Y-62125000D02*
X158750000Y-61675000D01*
X158750000Y-61675000D02*
X158750000Y-60425000D01*
%TO.N,/SCL_IN*%
X160100000Y-62125000D02*
X159250000Y-61275000D01*
X159250000Y-61275000D02*
X159250000Y-60425000D01*
D28*
%TO.N,USART2-*%
X158750000Y-71775000D02*
X158725001Y-71799999D01*
X158725001Y-73400001D02*
X159025000Y-73700000D01*
X158725001Y-71799999D02*
X158725001Y-73400001D01*
D27*
%TO.N,RCC_OSC_OUT*%
X154224000Y-67606822D02*
X154480822Y-67350000D01*
X154480822Y-67350000D02*
X155325000Y-67350000D01*
X153975000Y-74400000D02*
X152949000Y-73374000D01*
X154224000Y-70138032D02*
X154224000Y-67606822D01*
X152949000Y-73374000D02*
X152949000Y-71413032D01*
X152949000Y-71413032D02*
X154224000Y-70138032D01*
%TO.N,RCC_OSC_IN*%
X151775000Y-72700000D02*
X151775000Y-71535000D01*
X153773000Y-69537000D02*
X153773000Y-67420012D01*
X152310000Y-71000000D02*
X153773000Y-69537000D01*
X153773000Y-67420012D02*
X154343012Y-66850000D01*
X151775000Y-71535000D02*
X152310000Y-71000000D01*
X154343012Y-66850000D02*
X155325000Y-66850000D01*
%TO.N,FDCAN_TX*%
X163700000Y-78576200D02*
X163700000Y-76875000D01*
X162273752Y-73149999D02*
X161750000Y-72626247D01*
X163700000Y-76875000D02*
X163725000Y-76850000D01*
X161750000Y-72626247D02*
X161750000Y-71775000D01*
%TO.N,FDCAN_RX*%
X161275000Y-73200000D02*
X161275000Y-71800000D01*
X161275000Y-71800000D02*
X161250000Y-71775000D01*
X159890000Y-76860000D02*
X159925000Y-76825000D01*
X159890000Y-78576200D02*
X159890000Y-76860000D01*
%TO.N,Net-(D1-K)*%
X154737500Y-53437500D02*
X154850000Y-53325000D01*
X154737500Y-55850000D02*
X154737500Y-53437500D01*
%TD*%
%TA.AperFunction,Conductor*%
%TO.N,GND*%
G36*
X179876209Y-52021527D02*
G01*
X179943177Y-52041448D01*
X179988745Y-52094414D01*
X179999769Y-52145642D01*
X179996562Y-55575616D01*
X179976815Y-55642637D01*
X179923968Y-55688342D01*
X179872562Y-55699500D01*
X172548090Y-55699500D01*
X172546043Y-55699112D01*
X172415137Y-55699991D01*
X172414341Y-55699997D01*
X172413511Y-55700000D01*
X171624000Y-55700000D01*
X171556961Y-55680315D01*
X171511206Y-55627511D01*
X171500000Y-55576000D01*
X171500000Y-52116334D01*
X171519685Y-52049295D01*
X171572489Y-52003540D01*
X171624437Y-51992335D01*
X179876209Y-52021527D01*
G37*
%TD.AperFunction*%
%TD*%
%TA.AperFunction,Conductor*%
%TO.N,3.3v*%
G36*
X171442431Y-73367052D02*
G01*
X171488494Y-73419587D01*
X171500003Y-73471728D01*
X171503058Y-86017664D01*
X171503106Y-86017900D01*
X171503106Y-86080427D01*
X171533502Y-86252819D01*
X171540562Y-86272220D01*
X171543676Y-86280776D01*
X171544295Y-86283887D01*
X171548529Y-86294111D01*
X171549456Y-86296656D01*
X171549456Y-86296658D01*
X171593370Y-86417315D01*
X171593374Y-86417325D01*
X171593377Y-86417330D01*
X171594991Y-86420792D01*
X171606604Y-86472463D01*
X171611812Y-87357713D01*
X171592522Y-87424867D01*
X171539988Y-87470931D01*
X171487237Y-87482441D01*
X166061423Y-87457204D01*
X165994476Y-87437207D01*
X165948967Y-87384191D01*
X165938000Y-87333205D01*
X165938000Y-83561999D01*
X165957685Y-83494960D01*
X166010489Y-83449205D01*
X166062000Y-83437999D01*
X166100002Y-83437999D01*
X166100008Y-83437999D01*
X166202797Y-83427499D01*
X166369334Y-83372314D01*
X166518656Y-83280212D01*
X166642712Y-83156156D01*
X166734814Y-83006834D01*
X166789999Y-82840297D01*
X166800500Y-82737509D01*
X166800499Y-81962492D01*
X166789999Y-81859703D01*
X166734814Y-81693166D01*
X166642712Y-81543844D01*
X166518656Y-81419788D01*
X166515819Y-81418038D01*
X166514283Y-81416330D01*
X166512989Y-81415307D01*
X166513163Y-81415085D01*
X166469096Y-81366094D01*
X166457872Y-81297132D01*
X166485713Y-81233049D01*
X166515817Y-81206962D01*
X166518656Y-81205212D01*
X166642712Y-81081156D01*
X166734814Y-80931834D01*
X166789999Y-80765297D01*
X166800500Y-80662509D01*
X166800499Y-79887492D01*
X166789999Y-79784703D01*
X166734814Y-79618166D01*
X166642712Y-79468844D01*
X166518656Y-79344788D01*
X166518652Y-79344785D01*
X166478257Y-79319869D01*
X166431532Y-79267921D01*
X166420311Y-79198959D01*
X166428792Y-79166881D01*
X166440894Y-79137666D01*
X166475500Y-78963691D01*
X166475500Y-78786309D01*
X166475500Y-78786306D01*
X166475499Y-78786304D01*
X166440896Y-78612341D01*
X166440893Y-78612332D01*
X166373016Y-78448459D01*
X166373009Y-78448446D01*
X166274464Y-78300965D01*
X166274461Y-78300961D01*
X166149038Y-78175538D01*
X166149034Y-78175535D01*
X166001553Y-78076990D01*
X166001540Y-78076983D01*
X165837667Y-78009106D01*
X165837658Y-78009103D01*
X165663694Y-77974500D01*
X165663691Y-77974500D01*
X165486309Y-77974500D01*
X165486306Y-77974500D01*
X165312341Y-78009103D01*
X165312332Y-78009106D01*
X165148459Y-78076983D01*
X165148446Y-78076990D01*
X165000965Y-78175535D01*
X165000961Y-78175538D01*
X164875538Y-78300961D01*
X164875535Y-78300965D01*
X164776990Y-78448446D01*
X164776983Y-78448459D01*
X164718060Y-78590717D01*
X164674220Y-78645121D01*
X164607926Y-78667186D01*
X164540226Y-78649907D01*
X164492615Y-78598770D01*
X164479499Y-78543265D01*
X164479499Y-77543329D01*
X164479498Y-77543323D01*
X164479497Y-77543316D01*
X164473091Y-77483717D01*
X164463562Y-77458168D01*
X164458578Y-77388477D01*
X164476639Y-77345948D01*
X164523013Y-77276547D01*
X164590894Y-77112666D01*
X164593666Y-77098733D01*
X164617015Y-76981348D01*
X164625500Y-76938691D01*
X164625500Y-76761309D01*
X164625500Y-76761306D01*
X164625499Y-76761304D01*
X164590896Y-76587341D01*
X164590893Y-76587332D01*
X164523016Y-76423459D01*
X164523009Y-76423446D01*
X164424464Y-76275965D01*
X164424461Y-76275961D01*
X164299038Y-76150538D01*
X164299034Y-76150535D01*
X164151553Y-76051990D01*
X164151540Y-76051983D01*
X163987667Y-75984106D01*
X163987658Y-75984103D01*
X163813694Y-75949500D01*
X163813691Y-75949500D01*
X163636309Y-75949500D01*
X163636306Y-75949500D01*
X163462341Y-75984103D01*
X163462332Y-75984106D01*
X163298459Y-76051983D01*
X163298446Y-76051990D01*
X163150183Y-76151057D01*
X163083505Y-76171935D01*
X163016125Y-76153450D01*
X163012401Y-76151057D01*
X162901553Y-76076990D01*
X162901540Y-76076983D01*
X162737667Y-76009106D01*
X162737658Y-76009103D01*
X162563694Y-75974500D01*
X162563691Y-75974500D01*
X162386309Y-75974500D01*
X162386306Y-75974500D01*
X162212341Y-76009103D01*
X162212332Y-76009106D01*
X162048459Y-76076983D01*
X162048446Y-76076990D01*
X161900965Y-76175535D01*
X161900961Y-76175538D01*
X161775538Y-76300961D01*
X161775535Y-76300965D01*
X161676990Y-76448446D01*
X161676983Y-76448459D01*
X161609106Y-76612332D01*
X161609103Y-76612341D01*
X161574500Y-76786304D01*
X161574500Y-76966700D01*
X161554815Y-77033739D01*
X161502011Y-77079494D01*
X161450500Y-77090700D01*
X160941385Y-77090700D01*
X160874346Y-77071015D01*
X160828591Y-77018211D01*
X160818647Y-76949053D01*
X160819768Y-76942507D01*
X160825500Y-76913692D01*
X160825500Y-76736306D01*
X160825499Y-76736304D01*
X160790896Y-76562341D01*
X160790893Y-76562332D01*
X160723016Y-76398459D01*
X160723009Y-76398446D01*
X160624464Y-76250965D01*
X160624461Y-76250961D01*
X160499038Y-76125538D01*
X160499034Y-76125535D01*
X160351553Y-76026990D01*
X160351540Y-76026983D01*
X160187667Y-75959106D01*
X160187658Y-75959103D01*
X160013694Y-75924500D01*
X160013691Y-75924500D01*
X159836309Y-75924500D01*
X159836306Y-75924500D01*
X159662341Y-75959103D01*
X159662332Y-75959106D01*
X159498459Y-76026983D01*
X159498446Y-76026990D01*
X159350965Y-76125535D01*
X159350961Y-76125538D01*
X159225538Y-76250961D01*
X159225535Y-76250965D01*
X159126990Y-76398446D01*
X159126983Y-76398459D01*
X159059106Y-76562332D01*
X159059103Y-76562341D01*
X159024500Y-76736304D01*
X159024500Y-76913695D01*
X159059103Y-77087658D01*
X159059106Y-77087667D01*
X159126983Y-77251540D01*
X159126988Y-77251549D01*
X159140834Y-77272270D01*
X159161713Y-77338947D01*
X159153915Y-77384495D01*
X159116909Y-77483714D01*
X159116908Y-77483716D01*
X159110501Y-77543316D01*
X159110501Y-77543323D01*
X159110500Y-77543335D01*
X159110500Y-79609070D01*
X159110501Y-79609076D01*
X159116908Y-79668683D01*
X159167202Y-79803528D01*
X159167206Y-79803535D01*
X159253452Y-79918744D01*
X159253455Y-79918747D01*
X159368664Y-80004993D01*
X159368671Y-80004997D01*
X159407832Y-80019603D01*
X159503517Y-80055291D01*
X159563127Y-80061700D01*
X160216872Y-80061699D01*
X160276483Y-80055291D01*
X160411331Y-80004996D01*
X160450688Y-79975532D01*
X160516152Y-79951115D01*
X160584425Y-79965966D01*
X160599312Y-79975533D01*
X160638668Y-80004995D01*
X160638671Y-80004997D01*
X160677832Y-80019603D01*
X160773517Y-80055291D01*
X160833127Y-80061700D01*
X161250747Y-80061699D01*
X161317786Y-80081383D01*
X161338428Y-80098018D01*
X162262829Y-81022419D01*
X162296314Y-81083742D01*
X162291330Y-81153434D01*
X162249458Y-81209367D01*
X162199343Y-81231717D01*
X162187336Y-81234105D01*
X162187332Y-81234106D01*
X162023459Y-81301983D01*
X162023446Y-81301990D01*
X161870900Y-81403920D01*
X161869704Y-81402131D01*
X161814328Y-81425635D01*
X161745463Y-81413829D01*
X161729383Y-81403495D01*
X161729100Y-81403920D01*
X161576553Y-81301990D01*
X161576540Y-81301983D01*
X161412667Y-81234106D01*
X161412658Y-81234103D01*
X161238694Y-81199500D01*
X161238691Y-81199500D01*
X161061309Y-81199500D01*
X161061306Y-81199500D01*
X160887341Y-81234103D01*
X160887332Y-81234106D01*
X160723459Y-81301983D01*
X160723446Y-81301990D01*
X160575965Y-81400535D01*
X160575961Y-81400538D01*
X160450538Y-81525961D01*
X160450535Y-81525965D01*
X160351990Y-81673446D01*
X160351983Y-81673459D01*
X160284106Y-81837332D01*
X160284103Y-81837341D01*
X160249500Y-82011304D01*
X160249500Y-82188695D01*
X160284103Y-82362658D01*
X160284106Y-82362667D01*
X160351984Y-82526542D01*
X160351985Y-82526543D01*
X160351987Y-82526547D01*
X160359602Y-82537943D01*
X160380480Y-82604620D01*
X160380500Y-82606834D01*
X160380500Y-84536670D01*
X160380501Y-84536676D01*
X160386908Y-84596283D01*
X160437202Y-84731128D01*
X160437206Y-84731135D01*
X160523452Y-84846344D01*
X160523455Y-84846347D01*
X160638664Y-84932593D01*
X160638671Y-84932597D01*
X160683618Y-84949361D01*
X160773517Y-84982891D01*
X160833127Y-84989300D01*
X161486872Y-84989299D01*
X161546483Y-84982891D01*
X161593111Y-84965500D01*
X161665041Y-84938672D01*
X161734733Y-84933688D01*
X161796056Y-84967173D01*
X161829540Y-85028496D01*
X161826080Y-85093857D01*
X161820001Y-85112200D01*
X161820000Y-85112204D01*
X161809500Y-85214983D01*
X161809500Y-86265001D01*
X161809501Y-86265019D01*
X161820000Y-86367796D01*
X161820001Y-86367799D01*
X161854684Y-86472463D01*
X161875186Y-86534334D01*
X161967288Y-86683656D01*
X162091344Y-86807712D01*
X162240666Y-86899814D01*
X162407203Y-86954999D01*
X162509991Y-86965500D01*
X163285008Y-86965499D01*
X163285016Y-86965498D01*
X163285019Y-86965498D01*
X163341302Y-86959748D01*
X163387797Y-86954999D01*
X163554334Y-86899814D01*
X163703656Y-86807712D01*
X163704686Y-86806682D01*
X163705569Y-86806199D01*
X163709324Y-86803231D01*
X163709830Y-86803872D01*
X163766006Y-86773192D01*
X163835698Y-86778171D01*
X163839826Y-86779795D01*
X163987334Y-86840894D01*
X163987336Y-86840894D01*
X163987341Y-86840896D01*
X164161304Y-86875499D01*
X164161307Y-86875500D01*
X164161309Y-86875500D01*
X164338693Y-86875500D01*
X164338694Y-86875499D01*
X164398989Y-86863506D01*
X164512658Y-86840896D01*
X164512660Y-86840895D01*
X164512666Y-86840894D01*
X164515549Y-86839699D01*
X164517178Y-86839524D01*
X164518489Y-86839127D01*
X164518564Y-86839375D01*
X164585016Y-86832231D01*
X164647495Y-86863506D01*
X164683148Y-86923594D01*
X164687000Y-86954261D01*
X164687000Y-87326233D01*
X164667315Y-87393272D01*
X164614511Y-87439027D01*
X164562423Y-87450232D01*
X163805350Y-87446711D01*
X163738403Y-87426715D01*
X163737036Y-87425814D01*
X163635116Y-87357713D01*
X163626547Y-87351987D01*
X163626546Y-87351986D01*
X163626544Y-87351985D01*
X163626542Y-87351984D01*
X163462667Y-87284106D01*
X163462658Y-87284103D01*
X163288694Y-87249500D01*
X163288691Y-87249500D01*
X163111309Y-87249500D01*
X163111306Y-87249500D01*
X162937341Y-87284103D01*
X162937332Y-87284106D01*
X162773460Y-87351983D01*
X162773449Y-87351989D01*
X162671339Y-87420217D01*
X162604662Y-87441094D01*
X162601872Y-87441113D01*
X150272857Y-87383770D01*
X150205910Y-87363774D01*
X150160401Y-87310757D01*
X150149434Y-87259771D01*
X150149434Y-83373870D01*
X152549500Y-83373870D01*
X152549500Y-83606129D01*
X152585831Y-83835514D01*
X152657601Y-84056400D01*
X152763039Y-84263331D01*
X152899551Y-84451224D01*
X153063776Y-84615449D01*
X153251669Y-84751961D01*
X153349436Y-84801776D01*
X153458599Y-84857398D01*
X153458601Y-84857398D01*
X153458604Y-84857400D01*
X153679486Y-84929169D01*
X153797668Y-84947886D01*
X153908871Y-84965500D01*
X153908876Y-84965500D01*
X154141129Y-84965500D01*
X154242502Y-84949443D01*
X154370514Y-84929169D01*
X154591396Y-84857400D01*
X154798331Y-84751961D01*
X154986224Y-84615449D01*
X155150449Y-84451224D01*
X155286961Y-84263331D01*
X155392400Y-84056396D01*
X155464169Y-83835514D01*
X155484443Y-83707502D01*
X155500500Y-83606129D01*
X155500500Y-83373870D01*
X155466017Y-83156156D01*
X155464169Y-83144486D01*
X155392400Y-82923604D01*
X155392398Y-82923601D01*
X155392398Y-82923599D01*
X155297583Y-82737516D01*
X155286961Y-82716669D01*
X155150449Y-82528776D01*
X154986224Y-82364551D01*
X154798331Y-82228039D01*
X154591400Y-82122601D01*
X154370514Y-82050831D01*
X154141129Y-82014500D01*
X154141124Y-82014500D01*
X153908876Y-82014500D01*
X153908871Y-82014500D01*
X153679485Y-82050831D01*
X153458599Y-82122601D01*
X153251668Y-82228039D01*
X153063773Y-82364553D01*
X152899553Y-82528773D01*
X152763039Y-82716668D01*
X152657601Y-82923599D01*
X152585831Y-83144485D01*
X152549500Y-83373870D01*
X150149434Y-83373870D01*
X150149434Y-78580121D01*
X150149488Y-78576476D01*
X150164179Y-78076983D01*
X150215279Y-76339579D01*
X150236926Y-76273150D01*
X150291052Y-76228967D01*
X150360473Y-76221061D01*
X150423148Y-76251942D01*
X150442326Y-76274335D01*
X150475533Y-76324032D01*
X150475538Y-76324038D01*
X150600961Y-76449461D01*
X150600965Y-76449464D01*
X150748446Y-76548009D01*
X150748459Y-76548016D01*
X150843378Y-76587332D01*
X150912334Y-76615894D01*
X150912336Y-76615894D01*
X150912341Y-76615896D01*
X151086304Y-76650499D01*
X151086307Y-76650500D01*
X151086309Y-76650500D01*
X151263693Y-76650500D01*
X151263694Y-76650499D01*
X151324557Y-76638393D01*
X151437658Y-76615896D01*
X151437661Y-76615894D01*
X151437666Y-76615894D01*
X151601547Y-76548013D01*
X151749035Y-76449464D01*
X151874464Y-76324035D01*
X151973013Y-76176547D01*
X152040894Y-76012666D01*
X152041603Y-76009106D01*
X152075499Y-75838695D01*
X152075500Y-75838693D01*
X152075500Y-75661309D01*
X152072990Y-75648690D01*
X152079219Y-75579099D01*
X152122082Y-75523922D01*
X152187972Y-75500678D01*
X152194608Y-75500500D01*
X152349995Y-75500500D01*
X152349998Y-75500500D01*
X152418564Y-75494269D01*
X152576337Y-75445106D01*
X152649125Y-75401103D01*
X152717754Y-75359617D01*
X152717755Y-75359615D01*
X152717760Y-75359613D01*
X152787319Y-75290054D01*
X152848642Y-75256569D01*
X152918334Y-75261553D01*
X152962681Y-75290054D01*
X153032240Y-75359613D01*
X153032245Y-75359617D01*
X153173661Y-75445105D01*
X153173663Y-75445106D01*
X153331436Y-75494269D01*
X153331438Y-75494269D01*
X153337699Y-75496220D01*
X153337093Y-75498163D01*
X153390459Y-75526061D01*
X153425048Y-75586769D01*
X153421326Y-75656539D01*
X153380474Y-75713221D01*
X153351833Y-75729876D01*
X153298452Y-75751987D01*
X153298446Y-75751990D01*
X153150965Y-75850535D01*
X153150961Y-75850538D01*
X153025538Y-75975961D01*
X153025535Y-75975965D01*
X152926990Y-76123446D01*
X152926983Y-76123459D01*
X152859106Y-76287332D01*
X152859103Y-76287341D01*
X152824500Y-76461304D01*
X152824500Y-76461309D01*
X152824500Y-76638691D01*
X152824500Y-76638693D01*
X152824499Y-76638693D01*
X152853120Y-76782574D01*
X152846893Y-76852166D01*
X152819185Y-76894447D01*
X152732287Y-76981345D01*
X152640187Y-77130663D01*
X152640186Y-77130666D01*
X152585001Y-77297203D01*
X152585001Y-77297204D01*
X152585000Y-77297204D01*
X152574500Y-77399983D01*
X152574500Y-78450001D01*
X152574501Y-78450019D01*
X152585000Y-78552796D01*
X152585001Y-78552799D01*
X152604732Y-78612341D01*
X152640186Y-78719334D01*
X152732288Y-78868656D01*
X152856344Y-78992712D01*
X153005666Y-79084814D01*
X153172203Y-79139999D01*
X153274991Y-79150500D01*
X154050008Y-79150499D01*
X154050016Y-79150498D01*
X154050019Y-79150498D01*
X154106302Y-79144748D01*
X154152797Y-79139999D01*
X154319334Y-79084814D01*
X154468656Y-78992712D01*
X154592712Y-78868656D01*
X154684814Y-78719334D01*
X154739999Y-78552797D01*
X154750500Y-78450009D01*
X154750499Y-77399992D01*
X154739999Y-77297203D01*
X154684814Y-77130666D01*
X154592712Y-76981344D01*
X154592701Y-76981333D01*
X154590827Y-76978962D01*
X154590041Y-76977015D01*
X154588920Y-76975197D01*
X154589230Y-76975005D01*
X154564682Y-76914168D01*
X154573527Y-76854592D01*
X154590894Y-76812666D01*
X154625500Y-76638691D01*
X154625500Y-76461309D01*
X154625500Y-76461306D01*
X154625499Y-76461304D01*
X154590896Y-76287341D01*
X154590893Y-76287332D01*
X154523016Y-76123459D01*
X154523009Y-76123446D01*
X154424464Y-75975965D01*
X154424461Y-75975961D01*
X154299038Y-75850538D01*
X154299034Y-75850535D01*
X154151553Y-75751990D01*
X154151540Y-75751983D01*
X154120342Y-75739061D01*
X154065938Y-75695220D01*
X154043873Y-75628926D01*
X154061152Y-75561227D01*
X154112289Y-75513616D01*
X154167794Y-75500500D01*
X154549995Y-75500500D01*
X154549998Y-75500500D01*
X154618564Y-75494269D01*
X154776337Y-75445106D01*
X154849125Y-75401103D01*
X154917754Y-75359617D01*
X154917755Y-75359615D01*
X154917760Y-75359613D01*
X155034613Y-75242760D01*
X155048589Y-75219642D01*
X155087518Y-75155244D01*
X155120106Y-75101337D01*
X155169269Y-74943564D01*
X155175500Y-74874998D01*
X155175500Y-73925002D01*
X155175500Y-73922192D01*
X155176255Y-73922192D01*
X155192118Y-73857369D01*
X155242782Y-73809255D01*
X155311415Y-73796169D01*
X155323573Y-73797967D01*
X155336306Y-73800500D01*
X155336309Y-73800500D01*
X155513693Y-73800500D01*
X155513694Y-73800499D01*
X155573058Y-73788691D01*
X155687658Y-73765896D01*
X155687661Y-73765894D01*
X155687666Y-73765894D01*
X155837436Y-73703858D01*
X155851540Y-73698016D01*
X155851540Y-73698015D01*
X155851547Y-73698013D01*
X155999035Y-73599464D01*
X156124464Y-73474035D01*
X156124468Y-73474029D01*
X156125645Y-73472852D01*
X156186968Y-73439367D01*
X156212594Y-73436535D01*
X156958314Y-73432169D01*
X157025466Y-73451461D01*
X157071529Y-73503996D01*
X157081877Y-73573095D01*
X157080656Y-73580356D01*
X157074500Y-73611307D01*
X157074500Y-73788695D01*
X157109103Y-73962658D01*
X157109106Y-73962667D01*
X157176983Y-74126540D01*
X157176990Y-74126553D01*
X157275535Y-74274034D01*
X157275538Y-74274038D01*
X157400961Y-74399461D01*
X157400965Y-74399464D01*
X157548446Y-74498009D01*
X157548459Y-74498016D01*
X157671363Y-74548923D01*
X157712334Y-74565894D01*
X157712336Y-74565894D01*
X157712341Y-74565896D01*
X157886304Y-74600499D01*
X157886307Y-74600500D01*
X157886309Y-74600500D01*
X158063693Y-74600500D01*
X158063694Y-74600499D01*
X158121682Y-74588964D01*
X158237658Y-74565896D01*
X158237661Y-74565894D01*
X158237666Y-74565894D01*
X158401547Y-74498013D01*
X158431110Y-74478258D01*
X158497784Y-74457381D01*
X158565165Y-74475864D01*
X158568838Y-74478224D01*
X158598453Y-74498013D01*
X158762334Y-74565894D01*
X158762336Y-74565894D01*
X158762341Y-74565896D01*
X158936304Y-74600499D01*
X158936307Y-74600500D01*
X158936309Y-74600500D01*
X159113693Y-74600500D01*
X159113694Y-74600499D01*
X159171682Y-74588964D01*
X159287658Y-74565896D01*
X159287661Y-74565894D01*
X159287666Y-74565894D01*
X159451547Y-74498013D01*
X159599035Y-74399464D01*
X159724464Y-74274035D01*
X159823013Y-74126547D01*
X159890894Y-73962666D01*
X159892367Y-73955265D01*
X159919491Y-73818901D01*
X159925500Y-73788691D01*
X159925500Y-73611309D01*
X159925500Y-73611307D01*
X159925500Y-73611306D01*
X159915759Y-73562336D01*
X159921986Y-73492744D01*
X159964849Y-73437567D01*
X160030739Y-73414322D01*
X160036624Y-73414146D01*
X160304779Y-73412576D01*
X160371931Y-73431868D01*
X160417994Y-73484403D01*
X160420064Y-73489122D01*
X160476983Y-73626540D01*
X160476990Y-73626553D01*
X160575535Y-73774034D01*
X160575538Y-73774038D01*
X160700961Y-73899461D01*
X160700965Y-73899464D01*
X160848446Y-73998009D01*
X160848459Y-73998016D01*
X160891624Y-74015895D01*
X161012334Y-74065894D01*
X161012336Y-74065894D01*
X161012341Y-74065896D01*
X161186304Y-74100499D01*
X161186307Y-74100500D01*
X161186309Y-74100500D01*
X161363693Y-74100500D01*
X161363694Y-74100499D01*
X161421682Y-74088964D01*
X161537658Y-74065896D01*
X161537661Y-74065894D01*
X161537666Y-74065894D01*
X161701547Y-73998013D01*
X161748372Y-73966724D01*
X161815048Y-73945846D01*
X161864715Y-73955265D01*
X161943281Y-73987807D01*
X162011086Y-74015893D01*
X162011088Y-74015893D01*
X162011093Y-74015895D01*
X162185056Y-74050498D01*
X162185059Y-74050499D01*
X162185061Y-74050499D01*
X162362445Y-74050499D01*
X162362446Y-74050498D01*
X162420434Y-74038963D01*
X162536410Y-74015895D01*
X162536413Y-74015893D01*
X162536418Y-74015893D01*
X162700299Y-73948012D01*
X162847787Y-73849463D01*
X162973216Y-73724034D01*
X163071765Y-73576546D01*
X163115069Y-73471999D01*
X163158908Y-73417598D01*
X163225202Y-73395532D01*
X163228799Y-73395457D01*
X166724776Y-73374988D01*
X166791928Y-73394280D01*
X166837991Y-73446815D01*
X166849500Y-73498986D01*
X166849500Y-76638393D01*
X166849500Y-76761607D01*
X166849500Y-76761609D01*
X166849499Y-76761609D01*
X166857592Y-76802292D01*
X166857596Y-76802307D01*
X166858332Y-76806007D01*
X166873537Y-76882452D01*
X166884445Y-76908786D01*
X166887661Y-76916550D01*
X166887662Y-76916554D01*
X166920685Y-76996281D01*
X166920687Y-76996284D01*
X166920688Y-76996286D01*
X166935339Y-77018211D01*
X166954914Y-77047507D01*
X166954915Y-77047509D01*
X166989140Y-77098731D01*
X166989141Y-77098732D01*
X166989142Y-77098733D01*
X167076267Y-77185858D01*
X167076268Y-77185858D01*
X167083335Y-77192925D01*
X167083334Y-77192925D01*
X167083337Y-77192927D01*
X167389141Y-77498732D01*
X167389142Y-77498733D01*
X167433725Y-77543316D01*
X167476268Y-77585859D01*
X167569283Y-77648010D01*
X167571679Y-77649611D01*
X167578714Y-77654311D01*
X167692548Y-77701463D01*
X167813393Y-77725500D01*
X167813394Y-77725500D01*
X167813398Y-77725500D01*
X167819454Y-77726097D01*
X167819223Y-77728435D01*
X167876265Y-77745185D01*
X167909543Y-77776614D01*
X167985454Y-77881096D01*
X168118904Y-78014546D01*
X168271587Y-78125477D01*
X168439744Y-78211157D01*
X168619233Y-78269477D01*
X168689134Y-78280548D01*
X168805632Y-78299000D01*
X168805637Y-78299000D01*
X168994368Y-78299000D01*
X169097920Y-78282598D01*
X169180767Y-78269477D01*
X169360256Y-78211157D01*
X169528413Y-78125477D01*
X169681096Y-78014546D01*
X169814546Y-77881096D01*
X169925477Y-77728413D01*
X170011157Y-77560256D01*
X170069477Y-77380767D01*
X170089943Y-77251547D01*
X170099000Y-77194368D01*
X170099000Y-77005631D01*
X170069477Y-76819236D01*
X170069477Y-76819233D01*
X170011157Y-76639744D01*
X169925477Y-76471587D01*
X169814546Y-76318904D01*
X169681096Y-76185454D01*
X169528413Y-76074523D01*
X169360256Y-75988843D01*
X169295894Y-75967930D01*
X169238219Y-75928493D01*
X169211021Y-75864135D01*
X169222936Y-75795288D01*
X169270180Y-75743813D01*
X169295892Y-75732070D01*
X169360256Y-75711157D01*
X169528413Y-75625477D01*
X169681096Y-75514546D01*
X169814546Y-75381096D01*
X169925477Y-75228413D01*
X170011157Y-75060256D01*
X170069477Y-74880767D01*
X170082598Y-74797920D01*
X170099000Y-74694368D01*
X170099000Y-74505631D01*
X170069477Y-74319236D01*
X170069477Y-74319233D01*
X170011157Y-74139744D01*
X169925477Y-73971587D01*
X169814546Y-73818904D01*
X169681096Y-73685454D01*
X169539259Y-73582403D01*
X169496594Y-73527073D01*
X169490615Y-73457459D01*
X169523221Y-73395664D01*
X169584060Y-73361307D01*
X169611409Y-73358088D01*
X171375280Y-73347760D01*
X171442431Y-73367052D01*
G37*
%TD.AperFunction*%
%TD*%
%TA.AperFunction,Conductor*%
%TO.N,GND*%
G36*
X239443039Y-51919685D02*
G01*
X239488794Y-51972489D01*
X239500000Y-52024000D01*
X239500000Y-55575500D01*
X239480315Y-55642539D01*
X239427511Y-55688294D01*
X239376000Y-55699500D01*
X232000496Y-55699500D01*
X232000496Y-55699497D01*
X231999996Y-55699500D01*
X231986556Y-55699500D01*
X231985768Y-55699594D01*
X231925303Y-55699997D01*
X231924477Y-55700000D01*
X231124000Y-55700000D01*
X231056961Y-55680315D01*
X231011206Y-55627511D01*
X231000000Y-55576000D01*
X231000000Y-52024000D01*
X231019685Y-51956961D01*
X231072489Y-51911206D01*
X231124000Y-51900000D01*
X239376000Y-51900000D01*
X239443039Y-51919685D01*
G37*
%TD.AperFunction*%
%TD*%
%TA.AperFunction,Conductor*%
%TO.N,GND*%
G36*
X199943039Y-51919685D02*
G01*
X199988794Y-51972489D01*
X200000000Y-52024000D01*
X200000000Y-55576000D01*
X199980315Y-55643039D01*
X199927511Y-55688794D01*
X199876000Y-55700000D01*
X191624000Y-55700000D01*
X191556961Y-55680315D01*
X191511206Y-55627511D01*
X191500000Y-55576000D01*
X191500000Y-52024000D01*
X191519685Y-51956961D01*
X191572489Y-51911206D01*
X191624000Y-51900000D01*
X199876000Y-51900000D01*
X199943039Y-51919685D01*
G37*
%TD.AperFunction*%
%TD*%
%TA.AperFunction,Conductor*%
%TO.N,GND*%
G36*
X219943039Y-51919685D02*
G01*
X219988794Y-51972489D01*
X220000000Y-52024000D01*
X220000000Y-55575500D01*
X219980315Y-55642539D01*
X219927511Y-55688294D01*
X219876000Y-55699500D01*
X212500496Y-55699500D01*
X212500496Y-55699497D01*
X212499996Y-55699500D01*
X212486556Y-55699500D01*
X212485768Y-55699594D01*
X212425303Y-55699997D01*
X212424477Y-55700000D01*
X211624000Y-55700000D01*
X211556961Y-55680315D01*
X211511206Y-55627511D01*
X211500000Y-55576000D01*
X211500000Y-52024000D01*
X211519685Y-51956961D01*
X211572489Y-51911206D01*
X211624000Y-51900000D01*
X219876000Y-51900000D01*
X219943039Y-51919685D01*
G37*
%TD.AperFunction*%
%TD*%
%TA.AperFunction,Conductor*%
%TO.N,3.3v*%
G36*
X152006212Y-58708846D02*
G01*
X152052068Y-58721241D01*
X152053249Y-58718391D01*
X152060758Y-58721500D01*
X152060763Y-58721503D01*
X152168982Y-58750500D01*
X152281019Y-58750500D01*
X153222390Y-58750500D01*
X153251830Y-58759144D01*
X153281817Y-58765668D01*
X153286832Y-58769422D01*
X153289429Y-58770185D01*
X153310071Y-58786819D01*
X153388181Y-58864929D01*
X153421666Y-58926252D01*
X153424500Y-58952610D01*
X153424500Y-62663160D01*
X153424500Y-62775196D01*
X153453497Y-62883415D01*
X153509515Y-62980441D01*
X153509517Y-62980443D01*
X154213181Y-63684107D01*
X154246666Y-63745430D01*
X154249500Y-63771788D01*
X154249500Y-63960636D01*
X154260134Y-64033625D01*
X154265960Y-64045542D01*
X154277717Y-64114416D01*
X154265960Y-64154456D01*
X154260134Y-64166375D01*
X154249500Y-64239364D01*
X154249500Y-64460636D01*
X154260134Y-64533625D01*
X154260134Y-64533626D01*
X154260135Y-64533628D01*
X154315172Y-64646210D01*
X154403789Y-64734827D01*
X154511572Y-64787518D01*
X154516375Y-64789866D01*
X154589364Y-64800500D01*
X154589370Y-64800500D01*
X156060630Y-64800500D01*
X156060636Y-64800500D01*
X156133625Y-64789866D01*
X156191118Y-64761759D01*
X156246210Y-64734827D01*
X156334827Y-64646210D01*
X156361759Y-64591118D01*
X156389866Y-64533625D01*
X156400500Y-64460636D01*
X156400500Y-64239364D01*
X156389866Y-64166375D01*
X156384041Y-64154460D01*
X156372281Y-64085592D01*
X156384040Y-64045541D01*
X156389866Y-64033625D01*
X156400500Y-63960636D01*
X156400500Y-63739364D01*
X156389866Y-63666375D01*
X156384041Y-63654460D01*
X156372281Y-63585592D01*
X156372723Y-63582214D01*
X156375508Y-63562993D01*
X156389866Y-63533625D01*
X156400500Y-63460636D01*
X156400500Y-63390559D01*
X156401782Y-63381714D01*
X156412760Y-63357747D01*
X156420185Y-63332461D01*
X156427078Y-63326487D01*
X156430879Y-63318191D01*
X156453073Y-63303962D01*
X156472989Y-63286706D01*
X156483590Y-63284399D01*
X156489700Y-63280483D01*
X156501532Y-63280496D01*
X156524500Y-63275500D01*
X160375381Y-63275500D01*
X160442420Y-63295185D01*
X160488175Y-63347989D01*
X160499379Y-63400183D01*
X160475671Y-67703159D01*
X160455617Y-67770089D01*
X160402562Y-67815552D01*
X160353167Y-67826467D01*
X156525994Y-67872578D01*
X156458722Y-67853703D01*
X156412334Y-67801454D01*
X156402805Y-67772387D01*
X156400500Y-67760600D01*
X156400500Y-67739364D01*
X156389866Y-67666375D01*
X156376875Y-67639803D01*
X156373746Y-67623800D01*
X156375526Y-67604598D01*
X156372281Y-67585592D01*
X156379601Y-67560659D01*
X156380198Y-67554228D01*
X156382266Y-67551582D01*
X156384040Y-67545541D01*
X156389866Y-67533625D01*
X156400500Y-67460636D01*
X156400500Y-67239364D01*
X156389866Y-67166375D01*
X156384041Y-67154460D01*
X156372281Y-67085592D01*
X156372723Y-67082214D01*
X156375508Y-67062993D01*
X156389866Y-67033625D01*
X156400500Y-66960636D01*
X156400500Y-66890559D01*
X156401782Y-66881714D01*
X156412760Y-66857747D01*
X156420185Y-66832461D01*
X156427078Y-66826487D01*
X156430879Y-66818191D01*
X156453073Y-66803962D01*
X156472989Y-66786706D01*
X156483590Y-66784399D01*
X156489700Y-66780483D01*
X156501532Y-66780496D01*
X156524500Y-66775500D01*
X158312985Y-66775500D01*
X158380024Y-66795185D01*
X158381876Y-66796398D01*
X158493182Y-66870771D01*
X158493195Y-66870778D01*
X158620667Y-66923578D01*
X158620672Y-66923580D01*
X158620676Y-66923580D01*
X158620677Y-66923581D01*
X158756004Y-66950500D01*
X158756007Y-66950500D01*
X158893995Y-66950500D01*
X158985041Y-66932389D01*
X159029328Y-66923580D01*
X159156811Y-66870775D01*
X159271542Y-66794114D01*
X159369114Y-66696542D01*
X159445775Y-66581811D01*
X159498580Y-66454328D01*
X159525500Y-66318993D01*
X159525500Y-66181007D01*
X159525500Y-66181004D01*
X159498581Y-66045677D01*
X159498580Y-66045676D01*
X159498580Y-66045672D01*
X159483604Y-66009517D01*
X159445778Y-65918195D01*
X159445771Y-65918182D01*
X159369114Y-65803458D01*
X159369111Y-65803454D01*
X159271545Y-65705888D01*
X159271541Y-65705885D01*
X159156817Y-65629228D01*
X159156804Y-65629221D01*
X159029332Y-65576421D01*
X159029322Y-65576418D01*
X158893995Y-65549500D01*
X158893993Y-65549500D01*
X158756007Y-65549500D01*
X158756005Y-65549500D01*
X158620677Y-65576418D01*
X158620667Y-65576421D01*
X158493195Y-65629221D01*
X158493182Y-65629228D01*
X158378458Y-65705885D01*
X158378454Y-65705888D01*
X158280888Y-65803454D01*
X158280882Y-65803462D01*
X158236831Y-65869390D01*
X158183219Y-65914196D01*
X158133729Y-65924500D01*
X156191699Y-65924500D01*
X156137239Y-65911900D01*
X156133628Y-65910135D01*
X156133626Y-65910134D01*
X156133625Y-65910134D01*
X156060636Y-65899500D01*
X154589364Y-65899500D01*
X154516375Y-65910134D01*
X154516373Y-65910134D01*
X154516371Y-65910135D01*
X154512761Y-65911900D01*
X154458301Y-65924500D01*
X152018982Y-65924500D01*
X151910763Y-65953497D01*
X151910760Y-65953498D01*
X151813740Y-66009513D01*
X151813734Y-66009517D01*
X151260070Y-66563181D01*
X151198747Y-66596666D01*
X151172389Y-66599500D01*
X151056005Y-66599500D01*
X150920677Y-66626418D01*
X150920667Y-66626421D01*
X150793195Y-66679221D01*
X150793182Y-66679228D01*
X150678458Y-66755885D01*
X150678454Y-66755888D01*
X150580888Y-66853454D01*
X150580885Y-66853458D01*
X150504228Y-66968182D01*
X150504221Y-66968195D01*
X150451421Y-67095667D01*
X150451418Y-67095677D01*
X150424500Y-67231004D01*
X150424500Y-67231007D01*
X150424500Y-67368993D01*
X150424500Y-67368995D01*
X150424499Y-67368995D01*
X150451418Y-67504322D01*
X150451421Y-67504332D01*
X150504221Y-67631804D01*
X150504228Y-67631817D01*
X150584270Y-67751607D01*
X150582134Y-67753033D01*
X150605067Y-67807053D01*
X150593266Y-67875918D01*
X150546106Y-67927471D01*
X150483392Y-67945380D01*
X150226514Y-67948474D01*
X150159243Y-67929598D01*
X150112855Y-67877349D01*
X150101025Y-67823481D01*
X150156602Y-60968995D01*
X150624499Y-60968995D01*
X150651418Y-61104322D01*
X150651421Y-61104332D01*
X150704221Y-61231804D01*
X150704228Y-61231817D01*
X150780885Y-61346541D01*
X150780888Y-61346545D01*
X150878454Y-61444111D01*
X150878458Y-61444114D01*
X150993182Y-61520771D01*
X150993195Y-61520778D01*
X151077375Y-61555646D01*
X151120672Y-61573580D01*
X151120676Y-61573580D01*
X151120677Y-61573581D01*
X151256004Y-61600500D01*
X151256007Y-61600500D01*
X151393995Y-61600500D01*
X151485041Y-61582389D01*
X151529328Y-61573580D01*
X151656811Y-61520775D01*
X151771542Y-61444114D01*
X151869114Y-61346542D01*
X151945775Y-61231811D01*
X151998580Y-61104328D01*
X152025500Y-60968993D01*
X152025500Y-60831007D01*
X152025500Y-60831004D01*
X151998581Y-60695677D01*
X151998580Y-60695676D01*
X151998580Y-60695672D01*
X151998578Y-60695667D01*
X151945778Y-60568195D01*
X151945771Y-60568182D01*
X151869114Y-60453458D01*
X151869111Y-60453454D01*
X151771545Y-60355888D01*
X151771541Y-60355885D01*
X151656817Y-60279228D01*
X151656804Y-60279221D01*
X151529332Y-60226421D01*
X151529322Y-60226418D01*
X151393995Y-60199500D01*
X151393993Y-60199500D01*
X151256007Y-60199500D01*
X151256005Y-60199500D01*
X151120677Y-60226418D01*
X151120667Y-60226421D01*
X150993195Y-60279221D01*
X150993182Y-60279228D01*
X150878458Y-60355885D01*
X150878454Y-60355888D01*
X150780888Y-60453454D01*
X150780885Y-60453458D01*
X150704228Y-60568182D01*
X150704221Y-60568195D01*
X150651421Y-60695667D01*
X150651418Y-60695677D01*
X150624500Y-60831004D01*
X150624500Y-60831007D01*
X150624500Y-60968993D01*
X150624500Y-60968995D01*
X150624499Y-60968995D01*
X150156602Y-60968995D01*
X150173997Y-58823587D01*
X150194225Y-58756713D01*
X150247398Y-58711388D01*
X150298591Y-58700597D01*
X152006212Y-58708846D01*
G37*
%TD.AperFunction*%
%TD*%
M02*
