%TF.GenerationSoftware,KiCad,Pcbnew,9.0.0*%
%TF.CreationDate,2025-04-06T17:48:58-04:00*%
%TF.ProjectId,Thruster_Control_Card_COPY,54687275-7374-4657-925f-436f6e74726f,rev?*%
%TF.SameCoordinates,Original*%
%TF.FileFunction,Soldermask,Bot*%
%TF.FilePolarity,Negative*%
%FSLAX46Y46*%
G04 Gerber Fmt 4.6, Leading zero omitted, Abs format (unit mm)*
G04 Created by KiCad (PCBNEW 9.0.0) date 2025-04-06 17:48:58*
%MOMM*%
%LPD*%
G01*
G04 APERTURE LIST*
G04 Aperture macros list*
%AMRoundRect*
0 Rectangle with rounded corners*
0 $1 Rounding radius*
0 $2 $3 $4 $5 $6 $7 $8 $9 X,Y pos of 4 corners*
0 Add a 4 corners polygon primitive as box body*
4,1,4,$2,$3,$4,$5,$6,$7,$8,$9,$2,$3,0*
0 Add four circle primitives for the rounded corners*
1,1,$1+$1,$2,$3*
1,1,$1+$1,$4,$5*
1,1,$1+$1,$6,$7*
1,1,$1+$1,$8,$9*
0 Add four rect primitives between the rounded corners*
20,1,$1+$1,$2,$3,$4,$5,0*
20,1,$1+$1,$4,$5,$6,$7,0*
20,1,$1+$1,$6,$7,$8,$9,0*
20,1,$1+$1,$8,$9,$2,$3,0*%
G04 Aperture macros list end*
%ADD10C,1.950000*%
%ADD11C,1.397000*%
%ADD12R,1.605000X1.605000*%
%ADD13C,1.605000*%
%ADD14C,4.335000*%
%ADD15RoundRect,0.437500X1.562500X0.437500X-1.562500X0.437500X-1.562500X-0.437500X1.562500X-0.437500X0*%
%ADD16RoundRect,0.250000X0.350000X0.250000X-0.350000X0.250000X-0.350000X-0.250000X0.350000X-0.250000X0*%
%ADD17RoundRect,0.250000X0.475000X-0.337500X0.475000X0.337500X-0.475000X0.337500X-0.475000X-0.337500X0*%
%ADD18RoundRect,0.250000X-0.337500X-0.475000X0.337500X-0.475000X0.337500X0.475000X-0.337500X0.475000X0*%
%ADD19RoundRect,0.250000X-0.475000X0.337500X-0.475000X-0.337500X0.475000X-0.337500X0.475000X0.337500X0*%
G04 APERTURE END LIST*
D10*
%TO.C,J7*%
X154025000Y-80950000D03*
X154025000Y-83490000D03*
%TD*%
D11*
%TO.C,BOOT*%
X168900000Y-79600000D03*
X168900000Y-77100000D03*
X168900000Y-74600000D03*
%TD*%
D12*
%TO.C,J1*%
X239522000Y-104902000D03*
D13*
X236982000Y-104902000D03*
X234442000Y-104902000D03*
X231902000Y-104902000D03*
X229362000Y-104902000D03*
X226822000Y-104902000D03*
X224282000Y-104902000D03*
X221742000Y-104902000D03*
X219202000Y-104902000D03*
X216662000Y-104902000D03*
X214122000Y-104902000D03*
X211582000Y-104902000D03*
X209042000Y-104902000D03*
X206502000Y-104902000D03*
X203962000Y-104902000D03*
X201422000Y-104902000D03*
X198882000Y-104902000D03*
X196342000Y-104902000D03*
X193802000Y-104902000D03*
X191262000Y-104902000D03*
X188722000Y-104902000D03*
X186182000Y-104902000D03*
X183642000Y-104902000D03*
X181102000Y-104902000D03*
X178562000Y-104902000D03*
X176022000Y-104902000D03*
X173482000Y-104902000D03*
X170942000Y-104902000D03*
X168402000Y-104902000D03*
X165862000Y-104902000D03*
X163322000Y-104902000D03*
X160782000Y-104902000D03*
X239522000Y-102362000D03*
X236982000Y-102362000D03*
X234442000Y-102362000D03*
X231902000Y-102362000D03*
X229362000Y-102362000D03*
X226822000Y-102362000D03*
X224282000Y-102362000D03*
X221742000Y-102362000D03*
X219202000Y-102362000D03*
X216662000Y-102362000D03*
X214122000Y-102362000D03*
X211582000Y-102362000D03*
X209042000Y-102362000D03*
X206502000Y-102362000D03*
X203962000Y-102362000D03*
X201422000Y-102362000D03*
X198882000Y-102362000D03*
X196342000Y-102362000D03*
X193802000Y-102362000D03*
X191262000Y-102362000D03*
X188722000Y-102362000D03*
X186182000Y-102362000D03*
X183642000Y-102362000D03*
X181102000Y-102362000D03*
X178562000Y-102362000D03*
X176022000Y-102362000D03*
X173482000Y-102362000D03*
X170942000Y-102362000D03*
X168402000Y-102362000D03*
X165862000Y-102362000D03*
X163322000Y-102362000D03*
X160782000Y-102362000D03*
X239522000Y-99822000D03*
X236982000Y-99822000D03*
X234442000Y-99822000D03*
X231902000Y-99822000D03*
X229362000Y-99822000D03*
X226822000Y-99822000D03*
X224282000Y-99822000D03*
X221742000Y-99822000D03*
X219202000Y-99822000D03*
X216662000Y-99822000D03*
X214122000Y-99822000D03*
X211582000Y-99822000D03*
X209042000Y-99822000D03*
X206502000Y-99822000D03*
X203962000Y-99822000D03*
X201422000Y-99822000D03*
X198882000Y-99822000D03*
X196342000Y-99822000D03*
X193802000Y-99822000D03*
X191262000Y-99822000D03*
X188722000Y-99822000D03*
X186182000Y-99822000D03*
X183642000Y-99822000D03*
X181102000Y-99822000D03*
X178562000Y-99822000D03*
X176022000Y-99822000D03*
X173482000Y-99822000D03*
X170942000Y-99822000D03*
X168402000Y-99822000D03*
X165862000Y-99822000D03*
X163322000Y-99822000D03*
X160782000Y-99822000D03*
D14*
X244602000Y-107442000D03*
X155702000Y-107442000D03*
%TD*%
D10*
%TO.C,SWCLK NRST SWDIO*%
X163700000Y-55400000D03*
X161160000Y-55400000D03*
X158620000Y-55400000D03*
%TD*%
D15*
%TO.C,U2*%
X206500000Y-54800000D03*
X193500000Y-54800000D03*
X205500000Y-87900000D03*
X200000000Y-87900000D03*
X194500000Y-87900000D03*
D16*
X201000000Y-55050000D03*
X199000000Y-55050000D03*
%TD*%
D17*
%TO.C,100nf*%
X151300000Y-66025000D03*
X151300000Y-63950000D03*
%TD*%
D15*
%TO.C,U1*%
X186500000Y-54800000D03*
X173500000Y-54800000D03*
X185500000Y-87900000D03*
X180000000Y-87900000D03*
X174500000Y-87900000D03*
D16*
X181000000Y-55050000D03*
X179000000Y-55050000D03*
%TD*%
D15*
%TO.C,U4*%
X246000000Y-54800000D03*
X233000000Y-54800000D03*
X245000000Y-87900000D03*
X239500000Y-87900000D03*
X234000000Y-87900000D03*
D16*
X240500000Y-55050000D03*
X238500000Y-55050000D03*
%TD*%
D18*
%TO.C,1uF*%
X152762500Y-60800000D03*
X154837500Y-60800000D03*
%TD*%
D19*
%TO.C,C7*%
X157300000Y-64662500D03*
X157300000Y-66737500D03*
%TD*%
D15*
%TO.C,U3*%
X226500000Y-54800000D03*
X213500000Y-54800000D03*
X225500000Y-87900000D03*
X220000000Y-87900000D03*
X214500000Y-87900000D03*
D16*
X221000000Y-55050000D03*
X219000000Y-55050000D03*
%TD*%
D19*
%TO.C,C6*%
X153300000Y-63950000D03*
X153300000Y-66025000D03*
%TD*%
M02*
