%TF.GenerationSoftware,KiCad,Pcbnew,9.0.0*%
%TF.CreationDate,2025-04-06T17:48:58-04:00*%
%TF.ProjectId,Thruster_Control_Card_COPY,54687275-7374-4657-925f-436f6e74726f,rev?*%
%TF.SameCoordinates,Original*%
%TF.FileFunction,Profile,NP*%
%FSLAX46Y46*%
G04 Gerber Fmt 4.6, Leading zero omitted, Abs format (unit mm)*
G04 Created by KiCad (PCBNEW 9.0.0) date 2025-04-06 17:48:58*
%MOMM*%
%LPD*%
G01*
G04 APERTURE LIST*
%TA.AperFunction,Profile*%
%ADD10C,0.100000*%
%TD*%
G04 APERTURE END LIST*
D10*
X187496446Y-55700000D02*
G75*
G02*
X188503600Y-56707107I-46J-1007200D01*
G01*
X208507107Y-56714214D02*
X208500000Y-86000000D01*
X208500000Y-86000000D02*
G75*
G02*
X207500000Y-87000000I-1000000J0D01*
G01*
X230999975Y-56707107D02*
X231007107Y-85992893D01*
X247000000Y-55700000D02*
G75*
G02*
X248007100Y-56707107I0J-1007100D01*
G01*
X211499975Y-56707107D02*
X211507107Y-85992893D01*
X248000000Y-85992893D02*
G75*
G02*
X247000000Y-86992900I-1000000J-7D01*
G01*
X207500000Y-55707107D02*
G75*
G02*
X208507093Y-56714214I0J-1007093D01*
G01*
X192507107Y-87000000D02*
G75*
G02*
X191507100Y-86000000I-7J1000000D01*
G01*
X150100000Y-49000000D02*
X250100000Y-49000000D01*
X250100000Y-110900000D01*
X150100000Y-110900000D01*
X150100000Y-49000000D01*
X230999975Y-56707107D02*
G75*
G02*
X232000000Y-55700000I1007125J7D01*
G01*
X232000000Y-55700000D02*
X247000000Y-55700000D01*
X171496421Y-56707107D02*
X171503553Y-85992893D01*
X192500000Y-55707107D02*
X207500000Y-55707107D01*
X191499975Y-56714214D02*
G75*
G02*
X192500000Y-55707100I1007125J14D01*
G01*
X172503553Y-86992893D02*
G75*
G02*
X171503607Y-85992893I47J999993D01*
G01*
X212500000Y-55700000D02*
X227500000Y-55700000D01*
X192507107Y-87000000D02*
X207500000Y-87000000D01*
X188503553Y-56707107D02*
X188496446Y-85992893D01*
X227500000Y-55700000D02*
G75*
G02*
X228507100Y-56707107I0J-1007100D01*
G01*
X171496421Y-56707107D02*
G75*
G02*
X172496446Y-55699946I1007179J7D01*
G01*
X212507107Y-86992893D02*
X227500000Y-86992893D01*
X172496446Y-55700000D02*
X187496446Y-55700000D01*
X232007107Y-86992893D02*
X247000000Y-86992893D01*
X211499975Y-56707107D02*
G75*
G02*
X212500000Y-55700000I1007125J7D01*
G01*
X228507107Y-56707107D02*
X228500000Y-85992893D01*
X172503553Y-86992893D02*
X187496446Y-86992893D01*
X212507107Y-86992893D02*
G75*
G02*
X211507107Y-85992893I-7J999993D01*
G01*
X228500000Y-85992893D02*
G75*
G02*
X227500000Y-86992900I-1000000J-7D01*
G01*
X232007107Y-86992893D02*
G75*
G02*
X231007107Y-85992893I-7J999993D01*
G01*
X188496446Y-85992893D02*
G75*
G02*
X187496446Y-86992846I-999946J-7D01*
G01*
X248007107Y-56707107D02*
X248000000Y-85992893D01*
X191499975Y-56714214D02*
X191507107Y-86000000D01*
M02*
