%TF.GenerationSoftware,KiCad,Pcbnew,7.0.7*%
%TF.CreationDate,2024-03-27T23:01:23-04:00*%
%TF.ProjectId,pneu_pwr_brd,706e6575-5f70-4777-925f-6272642e6b69,rev?*%
%TF.SameCoordinates,Original*%
%TF.FileFunction,Drillmap*%
%TF.FilePolarity,Positive*%
%FSLAX45Y45*%
G04 Gerber Fmt 4.5, Leading zero omitted, Abs format (unit mm)*
G04 Created by KiCad (PCBNEW 7.0.7) date 2024-03-27 23:01:23*
%MOMM*%
%LPD*%
G01*
G04 APERTURE LIST*
%ADD10C,0.100000*%
%ADD11C,0.200000*%
%ADD12C,0.040000*%
%ADD13C,0.075000*%
%ADD14C,0.080000*%
%ADD15C,0.110000*%
G04 APERTURE END LIST*
D10*
X13728700Y-5092700D02*
X18491200Y-5092700D01*
X18491200Y-10439400D01*
X13728700Y-10439400D01*
X13728700Y-5092700D01*
D11*
D12*
X16985300Y-5301300D02*
X17025300Y-5341300D01*
X17025300Y-5301300D02*
X16985300Y-5341300D01*
X17874300Y-7701600D02*
X17914300Y-7741600D01*
X17914300Y-7701600D02*
X17874300Y-7741600D01*
X17988600Y-5237800D02*
X18028600Y-5277800D01*
X18028600Y-5237800D02*
X17988600Y-5277800D01*
X18064800Y-8552500D02*
X18104800Y-8592500D01*
X18104800Y-8552500D02*
X18064800Y-8592500D01*
D13*
X15580700Y-6726800D02*
G75*
G03*
X15580700Y-6726800I-37500J0D01*
G01*
X15582300Y-8068800D02*
G75*
G03*
X15582300Y-8068800I-37500J0D01*
G01*
X15582300Y-9402300D02*
G75*
G03*
X15582300Y-9402300I-37500J0D01*
G01*
X15583900Y-5380600D02*
G75*
G03*
X15583900Y-5380600I-37500J0D01*
G01*
X15780700Y-6726800D02*
G75*
G03*
X15780700Y-6726800I-37500J0D01*
G01*
X15782300Y-8068800D02*
G75*
G03*
X15782300Y-8068800I-37500J0D01*
G01*
X15782300Y-9402300D02*
G75*
G03*
X15782300Y-9402300I-37500J0D01*
G01*
X15783900Y-5380600D02*
G75*
G03*
X15783900Y-5380600I-37500J0D01*
G01*
X16993600Y-10075300D02*
G75*
G03*
X16993600Y-10075300I-37500J0D01*
G01*
X17193600Y-10075300D02*
G75*
G03*
X17193600Y-10075300I-37500J0D01*
G01*
X18085800Y-10075300D02*
G75*
G03*
X18085800Y-10075300I-37500J0D01*
G01*
X18285800Y-10075300D02*
G75*
G03*
X18285800Y-10075300I-37500J0D01*
G01*
D14*
X16427189Y-5675000D02*
X16427189Y-5755000D01*
X16387189Y-5715000D02*
X16467189Y-5715000D01*
X16627189Y-5675000D02*
X16627189Y-5755000D01*
X16587189Y-5715000D02*
X16667189Y-5715000D01*
X17081500Y-9237089D02*
X17081500Y-9317089D01*
X17041500Y-9277089D02*
X17121500Y-9277089D01*
X17081500Y-9437089D02*
X17081500Y-9517089D01*
X17041500Y-9477089D02*
X17121500Y-9477089D01*
X17180211Y-7897500D02*
X17180211Y-7977500D01*
X17140211Y-7937500D02*
X17220211Y-7937500D01*
X17380211Y-7897500D02*
X17380211Y-7977500D01*
X17340211Y-7937500D02*
X17420211Y-7937500D01*
X18090889Y-6068700D02*
X18090889Y-6148700D01*
X18050889Y-6108700D02*
X18130889Y-6108700D01*
X18290889Y-6068700D02*
X18290889Y-6148700D01*
X18250889Y-6108700D02*
X18330889Y-6108700D01*
D15*
X14523991Y-5449091D02*
X14523991Y-5371309D01*
X14446209Y-5371309D01*
X14446209Y-5449091D01*
X14523991Y-5449091D01*
X14523991Y-5703091D02*
X14523991Y-5625309D01*
X14446209Y-5625309D01*
X14446209Y-5703091D01*
X14523991Y-5703091D01*
X14523991Y-5957091D02*
X14523991Y-5879309D01*
X14446209Y-5879309D01*
X14446209Y-5957091D01*
X14523991Y-5957091D01*
X14523991Y-6795291D02*
X14523991Y-6717509D01*
X14446209Y-6717509D01*
X14446209Y-6795291D01*
X14523991Y-6795291D01*
X14523991Y-7049291D02*
X14523991Y-6971509D01*
X14446209Y-6971509D01*
X14446209Y-7049291D01*
X14523991Y-7049291D01*
X14523991Y-7303291D02*
X14523991Y-7225509D01*
X14446209Y-7225509D01*
X14446209Y-7303291D01*
X14523991Y-7303291D01*
X14536691Y-8141491D02*
X14536691Y-8063709D01*
X14458909Y-8063709D01*
X14458909Y-8141491D01*
X14536691Y-8141491D01*
X14536691Y-8395491D02*
X14536691Y-8317709D01*
X14458909Y-8317709D01*
X14458909Y-8395491D01*
X14536691Y-8395491D01*
X14536691Y-8649491D02*
X14536691Y-8571709D01*
X14458909Y-8571709D01*
X14458909Y-8649491D01*
X14536691Y-8649491D01*
X14536691Y-9474991D02*
X14536691Y-9397209D01*
X14458909Y-9397209D01*
X14458909Y-9474991D01*
X14536691Y-9474991D01*
X14536691Y-9728991D02*
X14536691Y-9651209D01*
X14458909Y-9651209D01*
X14458909Y-9728991D01*
X14536691Y-9728991D01*
X14536691Y-9982991D02*
X14536691Y-9905209D01*
X14458909Y-9905209D01*
X14458909Y-9982991D01*
X14536691Y-9982991D01*
X15175691Y-6067191D02*
X15175691Y-5989409D01*
X15097909Y-5989409D01*
X15097909Y-6067191D01*
X15175691Y-6067191D01*
X15175691Y-7413391D02*
X15175691Y-7335609D01*
X15097909Y-7335609D01*
X15097909Y-7413391D01*
X15175691Y-7413391D01*
X15175691Y-8759591D02*
X15175691Y-8681809D01*
X15097909Y-8681809D01*
X15097909Y-8759591D01*
X15175691Y-8759591D01*
X15175691Y-10093091D02*
X15175691Y-10015309D01*
X15097909Y-10015309D01*
X15097909Y-10093091D01*
X15175691Y-10093091D01*
X16191691Y-6067191D02*
X16191691Y-5989409D01*
X16113909Y-5989409D01*
X16113909Y-6067191D01*
X16191691Y-6067191D01*
X16191691Y-7413391D02*
X16191691Y-7335609D01*
X16113909Y-7335609D01*
X16113909Y-7413391D01*
X16191691Y-7413391D01*
X16191691Y-8759591D02*
X16191691Y-8681809D01*
X16113909Y-8681809D01*
X16113909Y-8759591D01*
X16191691Y-8759591D01*
X16191691Y-10093091D02*
X16191691Y-10015309D01*
X16113909Y-10015309D01*
X16113909Y-10093091D01*
X16191691Y-10093091D01*
X17773691Y-6820691D02*
X17773691Y-6742909D01*
X17695909Y-6742909D01*
X17695909Y-6820691D01*
X17773691Y-6820691D01*
X17773691Y-7074691D02*
X17773691Y-6996909D01*
X17695909Y-6996909D01*
X17695909Y-7074691D01*
X17773691Y-7074691D01*
X17773691Y-7328691D02*
X17773691Y-7250909D01*
X17695909Y-7250909D01*
X17695909Y-7328691D01*
X17773691Y-7328691D01*
X17773691Y-8560591D02*
X17773691Y-8482809D01*
X17695909Y-8482809D01*
X17695909Y-8560591D01*
X17773691Y-8560591D01*
X17773691Y-8814591D02*
X17773691Y-8736809D01*
X17695909Y-8736809D01*
X17695909Y-8814591D01*
X17773691Y-8814591D01*
X17773691Y-9068591D02*
X17773691Y-8990809D01*
X17695909Y-8990809D01*
X17695909Y-9068591D01*
X17773691Y-9068591D01*
D11*
X13984477Y-10755884D02*
X13984477Y-10555884D01*
X13984477Y-10555884D02*
X14032096Y-10555884D01*
X14032096Y-10555884D02*
X14060667Y-10565408D01*
X14060667Y-10565408D02*
X14079715Y-10584455D01*
X14079715Y-10584455D02*
X14089239Y-10603503D01*
X14089239Y-10603503D02*
X14098762Y-10641598D01*
X14098762Y-10641598D02*
X14098762Y-10670170D01*
X14098762Y-10670170D02*
X14089239Y-10708265D01*
X14089239Y-10708265D02*
X14079715Y-10727312D01*
X14079715Y-10727312D02*
X14060667Y-10746360D01*
X14060667Y-10746360D02*
X14032096Y-10755884D01*
X14032096Y-10755884D02*
X13984477Y-10755884D01*
X14184477Y-10755884D02*
X14184477Y-10622550D01*
X14184477Y-10660646D02*
X14194001Y-10641598D01*
X14194001Y-10641598D02*
X14203524Y-10632074D01*
X14203524Y-10632074D02*
X14222572Y-10622550D01*
X14222572Y-10622550D02*
X14241620Y-10622550D01*
X14308286Y-10755884D02*
X14308286Y-10622550D01*
X14308286Y-10555884D02*
X14298762Y-10565408D01*
X14298762Y-10565408D02*
X14308286Y-10574931D01*
X14308286Y-10574931D02*
X14317810Y-10565408D01*
X14317810Y-10565408D02*
X14308286Y-10555884D01*
X14308286Y-10555884D02*
X14308286Y-10574931D01*
X14432096Y-10755884D02*
X14413048Y-10746360D01*
X14413048Y-10746360D02*
X14403524Y-10727312D01*
X14403524Y-10727312D02*
X14403524Y-10555884D01*
X14536858Y-10755884D02*
X14517810Y-10746360D01*
X14517810Y-10746360D02*
X14508286Y-10727312D01*
X14508286Y-10727312D02*
X14508286Y-10555884D01*
X14765429Y-10755884D02*
X14765429Y-10555884D01*
X14765429Y-10555884D02*
X14832096Y-10698741D01*
X14832096Y-10698741D02*
X14898762Y-10555884D01*
X14898762Y-10555884D02*
X14898762Y-10755884D01*
X15079715Y-10755884D02*
X15079715Y-10651122D01*
X15079715Y-10651122D02*
X15070191Y-10632074D01*
X15070191Y-10632074D02*
X15051143Y-10622550D01*
X15051143Y-10622550D02*
X15013048Y-10622550D01*
X15013048Y-10622550D02*
X14994001Y-10632074D01*
X15079715Y-10746360D02*
X15060667Y-10755884D01*
X15060667Y-10755884D02*
X15013048Y-10755884D01*
X15013048Y-10755884D02*
X14994001Y-10746360D01*
X14994001Y-10746360D02*
X14984477Y-10727312D01*
X14984477Y-10727312D02*
X14984477Y-10708265D01*
X14984477Y-10708265D02*
X14994001Y-10689217D01*
X14994001Y-10689217D02*
X15013048Y-10679693D01*
X15013048Y-10679693D02*
X15060667Y-10679693D01*
X15060667Y-10679693D02*
X15079715Y-10670170D01*
X15174953Y-10622550D02*
X15174953Y-10822550D01*
X15174953Y-10632074D02*
X15194001Y-10622550D01*
X15194001Y-10622550D02*
X15232096Y-10622550D01*
X15232096Y-10622550D02*
X15251143Y-10632074D01*
X15251143Y-10632074D02*
X15260667Y-10641598D01*
X15260667Y-10641598D02*
X15270191Y-10660646D01*
X15270191Y-10660646D02*
X15270191Y-10717789D01*
X15270191Y-10717789D02*
X15260667Y-10736836D01*
X15260667Y-10736836D02*
X15251143Y-10746360D01*
X15251143Y-10746360D02*
X15232096Y-10755884D01*
X15232096Y-10755884D02*
X15194001Y-10755884D01*
X15194001Y-10755884D02*
X15174953Y-10746360D01*
X15355905Y-10736836D02*
X15365429Y-10746360D01*
X15365429Y-10746360D02*
X15355905Y-10755884D01*
X15355905Y-10755884D02*
X15346382Y-10746360D01*
X15346382Y-10746360D02*
X15355905Y-10736836D01*
X15355905Y-10736836D02*
X15355905Y-10755884D01*
X15355905Y-10632074D02*
X15365429Y-10641598D01*
X15365429Y-10641598D02*
X15355905Y-10651122D01*
X15355905Y-10651122D02*
X15346382Y-10641598D01*
X15346382Y-10641598D02*
X15355905Y-10632074D01*
X15355905Y-10632074D02*
X15355905Y-10651122D01*
D12*
X13683700Y-11064400D02*
X13723700Y-11104400D01*
X13723700Y-11064400D02*
X13683700Y-11104400D01*
D11*
X14022572Y-10975884D02*
X14041620Y-10975884D01*
X14041620Y-10975884D02*
X14060667Y-10985408D01*
X14060667Y-10985408D02*
X14070191Y-10994931D01*
X14070191Y-10994931D02*
X14079715Y-11013979D01*
X14079715Y-11013979D02*
X14089239Y-11052074D01*
X14089239Y-11052074D02*
X14089239Y-11099693D01*
X14089239Y-11099693D02*
X14079715Y-11137789D01*
X14079715Y-11137789D02*
X14070191Y-11156836D01*
X14070191Y-11156836D02*
X14060667Y-11166360D01*
X14060667Y-11166360D02*
X14041620Y-11175884D01*
X14041620Y-11175884D02*
X14022572Y-11175884D01*
X14022572Y-11175884D02*
X14003524Y-11166360D01*
X14003524Y-11166360D02*
X13994001Y-11156836D01*
X13994001Y-11156836D02*
X13984477Y-11137789D01*
X13984477Y-11137789D02*
X13974953Y-11099693D01*
X13974953Y-11099693D02*
X13974953Y-11052074D01*
X13974953Y-11052074D02*
X13984477Y-11013979D01*
X13984477Y-11013979D02*
X13994001Y-10994931D01*
X13994001Y-10994931D02*
X14003524Y-10985408D01*
X14003524Y-10985408D02*
X14022572Y-10975884D01*
X14174953Y-11156836D02*
X14184477Y-11166360D01*
X14184477Y-11166360D02*
X14174953Y-11175884D01*
X14174953Y-11175884D02*
X14165429Y-11166360D01*
X14165429Y-11166360D02*
X14174953Y-11156836D01*
X14174953Y-11156836D02*
X14174953Y-11175884D01*
X14355905Y-11042550D02*
X14355905Y-11175884D01*
X14308286Y-10966360D02*
X14260667Y-11109217D01*
X14260667Y-11109217D02*
X14384477Y-11109217D01*
X14498762Y-10975884D02*
X14517810Y-10975884D01*
X14517810Y-10975884D02*
X14536858Y-10985408D01*
X14536858Y-10985408D02*
X14546382Y-10994931D01*
X14546382Y-10994931D02*
X14555905Y-11013979D01*
X14555905Y-11013979D02*
X14565429Y-11052074D01*
X14565429Y-11052074D02*
X14565429Y-11099693D01*
X14565429Y-11099693D02*
X14555905Y-11137789D01*
X14555905Y-11137789D02*
X14546382Y-11156836D01*
X14546382Y-11156836D02*
X14536858Y-11166360D01*
X14536858Y-11166360D02*
X14517810Y-11175884D01*
X14517810Y-11175884D02*
X14498762Y-11175884D01*
X14498762Y-11175884D02*
X14479715Y-11166360D01*
X14479715Y-11166360D02*
X14470191Y-11156836D01*
X14470191Y-11156836D02*
X14460667Y-11137789D01*
X14460667Y-11137789D02*
X14451143Y-11099693D01*
X14451143Y-11099693D02*
X14451143Y-11052074D01*
X14451143Y-11052074D02*
X14460667Y-11013979D01*
X14460667Y-11013979D02*
X14470191Y-10994931D01*
X14470191Y-10994931D02*
X14479715Y-10985408D01*
X14479715Y-10985408D02*
X14498762Y-10975884D01*
X14689239Y-10975884D02*
X14708286Y-10975884D01*
X14708286Y-10975884D02*
X14727334Y-10985408D01*
X14727334Y-10985408D02*
X14736858Y-10994931D01*
X14736858Y-10994931D02*
X14746382Y-11013979D01*
X14746382Y-11013979D02*
X14755905Y-11052074D01*
X14755905Y-11052074D02*
X14755905Y-11099693D01*
X14755905Y-11099693D02*
X14746382Y-11137789D01*
X14746382Y-11137789D02*
X14736858Y-11156836D01*
X14736858Y-11156836D02*
X14727334Y-11166360D01*
X14727334Y-11166360D02*
X14708286Y-11175884D01*
X14708286Y-11175884D02*
X14689239Y-11175884D01*
X14689239Y-11175884D02*
X14670191Y-11166360D01*
X14670191Y-11166360D02*
X14660667Y-11156836D01*
X14660667Y-11156836D02*
X14651143Y-11137789D01*
X14651143Y-11137789D02*
X14641620Y-11099693D01*
X14641620Y-11099693D02*
X14641620Y-11052074D01*
X14641620Y-11052074D02*
X14651143Y-11013979D01*
X14651143Y-11013979D02*
X14660667Y-10994931D01*
X14660667Y-10994931D02*
X14670191Y-10985408D01*
X14670191Y-10985408D02*
X14689239Y-10975884D01*
X14841620Y-11175884D02*
X14841620Y-11042550D01*
X14841620Y-11061598D02*
X14851143Y-11052074D01*
X14851143Y-11052074D02*
X14870191Y-11042550D01*
X14870191Y-11042550D02*
X14898763Y-11042550D01*
X14898763Y-11042550D02*
X14917810Y-11052074D01*
X14917810Y-11052074D02*
X14927334Y-11071122D01*
X14927334Y-11071122D02*
X14927334Y-11175884D01*
X14927334Y-11071122D02*
X14936858Y-11052074D01*
X14936858Y-11052074D02*
X14955905Y-11042550D01*
X14955905Y-11042550D02*
X14984477Y-11042550D01*
X14984477Y-11042550D02*
X15003524Y-11052074D01*
X15003524Y-11052074D02*
X15013048Y-11071122D01*
X15013048Y-11071122D02*
X15013048Y-11175884D01*
X15108286Y-11175884D02*
X15108286Y-11042550D01*
X15108286Y-11061598D02*
X15117810Y-11052074D01*
X15117810Y-11052074D02*
X15136858Y-11042550D01*
X15136858Y-11042550D02*
X15165429Y-11042550D01*
X15165429Y-11042550D02*
X15184477Y-11052074D01*
X15184477Y-11052074D02*
X15194001Y-11071122D01*
X15194001Y-11071122D02*
X15194001Y-11175884D01*
X15194001Y-11071122D02*
X15203524Y-11052074D01*
X15203524Y-11052074D02*
X15222572Y-11042550D01*
X15222572Y-11042550D02*
X15251143Y-11042550D01*
X15251143Y-11042550D02*
X15270191Y-11052074D01*
X15270191Y-11052074D02*
X15279715Y-11071122D01*
X15279715Y-11071122D02*
X15279715Y-11175884D01*
X15670191Y-10966360D02*
X15498763Y-11223503D01*
X15927334Y-10975884D02*
X15946382Y-10975884D01*
X15946382Y-10975884D02*
X15965429Y-10985408D01*
X15965429Y-10985408D02*
X15974953Y-10994931D01*
X15974953Y-10994931D02*
X15984477Y-11013979D01*
X15984477Y-11013979D02*
X15994001Y-11052074D01*
X15994001Y-11052074D02*
X15994001Y-11099693D01*
X15994001Y-11099693D02*
X15984477Y-11137789D01*
X15984477Y-11137789D02*
X15974953Y-11156836D01*
X15974953Y-11156836D02*
X15965429Y-11166360D01*
X15965429Y-11166360D02*
X15946382Y-11175884D01*
X15946382Y-11175884D02*
X15927334Y-11175884D01*
X15927334Y-11175884D02*
X15908286Y-11166360D01*
X15908286Y-11166360D02*
X15898763Y-11156836D01*
X15898763Y-11156836D02*
X15889239Y-11137789D01*
X15889239Y-11137789D02*
X15879715Y-11099693D01*
X15879715Y-11099693D02*
X15879715Y-11052074D01*
X15879715Y-11052074D02*
X15889239Y-11013979D01*
X15889239Y-11013979D02*
X15898763Y-10994931D01*
X15898763Y-10994931D02*
X15908286Y-10985408D01*
X15908286Y-10985408D02*
X15927334Y-10975884D01*
X16079715Y-11156836D02*
X16089239Y-11166360D01*
X16089239Y-11166360D02*
X16079715Y-11175884D01*
X16079715Y-11175884D02*
X16070191Y-11166360D01*
X16070191Y-11166360D02*
X16079715Y-11156836D01*
X16079715Y-11156836D02*
X16079715Y-11175884D01*
X16213048Y-10975884D02*
X16232096Y-10975884D01*
X16232096Y-10975884D02*
X16251144Y-10985408D01*
X16251144Y-10985408D02*
X16260667Y-10994931D01*
X16260667Y-10994931D02*
X16270191Y-11013979D01*
X16270191Y-11013979D02*
X16279715Y-11052074D01*
X16279715Y-11052074D02*
X16279715Y-11099693D01*
X16279715Y-11099693D02*
X16270191Y-11137789D01*
X16270191Y-11137789D02*
X16260667Y-11156836D01*
X16260667Y-11156836D02*
X16251144Y-11166360D01*
X16251144Y-11166360D02*
X16232096Y-11175884D01*
X16232096Y-11175884D02*
X16213048Y-11175884D01*
X16213048Y-11175884D02*
X16194001Y-11166360D01*
X16194001Y-11166360D02*
X16184477Y-11156836D01*
X16184477Y-11156836D02*
X16174953Y-11137789D01*
X16174953Y-11137789D02*
X16165429Y-11099693D01*
X16165429Y-11099693D02*
X16165429Y-11052074D01*
X16165429Y-11052074D02*
X16174953Y-11013979D01*
X16174953Y-11013979D02*
X16184477Y-10994931D01*
X16184477Y-10994931D02*
X16194001Y-10985408D01*
X16194001Y-10985408D02*
X16213048Y-10975884D01*
X16470191Y-11175884D02*
X16355906Y-11175884D01*
X16413048Y-11175884D02*
X16413048Y-10975884D01*
X16413048Y-10975884D02*
X16394001Y-11004455D01*
X16394001Y-11004455D02*
X16374953Y-11023503D01*
X16374953Y-11023503D02*
X16355906Y-11033027D01*
X16651144Y-10975884D02*
X16555906Y-10975884D01*
X16555906Y-10975884D02*
X16546382Y-11071122D01*
X16546382Y-11071122D02*
X16555906Y-11061598D01*
X16555906Y-11061598D02*
X16574953Y-11052074D01*
X16574953Y-11052074D02*
X16622572Y-11052074D01*
X16622572Y-11052074D02*
X16641620Y-11061598D01*
X16641620Y-11061598D02*
X16651144Y-11071122D01*
X16651144Y-11071122D02*
X16660667Y-11090170D01*
X16660667Y-11090170D02*
X16660667Y-11137789D01*
X16660667Y-11137789D02*
X16651144Y-11156836D01*
X16651144Y-11156836D02*
X16641620Y-11166360D01*
X16641620Y-11166360D02*
X16622572Y-11175884D01*
X16622572Y-11175884D02*
X16574953Y-11175884D01*
X16574953Y-11175884D02*
X16555906Y-11166360D01*
X16555906Y-11166360D02*
X16546382Y-11156836D01*
X16727334Y-10975884D02*
X16860668Y-10975884D01*
X16860668Y-10975884D02*
X16774953Y-11175884D01*
X16927334Y-10975884D02*
X16927334Y-11013979D01*
X17003525Y-10975884D02*
X17003525Y-11013979D01*
X17298763Y-11252074D02*
X17289239Y-11242550D01*
X17289239Y-11242550D02*
X17270191Y-11213979D01*
X17270191Y-11213979D02*
X17260668Y-11194931D01*
X17260668Y-11194931D02*
X17251144Y-11166360D01*
X17251144Y-11166360D02*
X17241620Y-11118741D01*
X17241620Y-11118741D02*
X17241620Y-11080646D01*
X17241620Y-11080646D02*
X17251144Y-11033027D01*
X17251144Y-11033027D02*
X17260668Y-11004455D01*
X17260668Y-11004455D02*
X17270191Y-10985408D01*
X17270191Y-10985408D02*
X17289239Y-10956836D01*
X17289239Y-10956836D02*
X17298763Y-10947312D01*
X17460668Y-11042550D02*
X17460668Y-11175884D01*
X17413049Y-10966360D02*
X17365430Y-11109217D01*
X17365430Y-11109217D02*
X17489239Y-11109217D01*
X17717811Y-11175884D02*
X17717811Y-10975884D01*
X17803525Y-11175884D02*
X17803525Y-11071122D01*
X17803525Y-11071122D02*
X17794001Y-11052074D01*
X17794001Y-11052074D02*
X17774953Y-11042550D01*
X17774953Y-11042550D02*
X17746382Y-11042550D01*
X17746382Y-11042550D02*
X17727334Y-11052074D01*
X17727334Y-11052074D02*
X17717811Y-11061598D01*
X17927334Y-11175884D02*
X17908287Y-11166360D01*
X17908287Y-11166360D02*
X17898763Y-11156836D01*
X17898763Y-11156836D02*
X17889239Y-11137789D01*
X17889239Y-11137789D02*
X17889239Y-11080646D01*
X17889239Y-11080646D02*
X17898763Y-11061598D01*
X17898763Y-11061598D02*
X17908287Y-11052074D01*
X17908287Y-11052074D02*
X17927334Y-11042550D01*
X17927334Y-11042550D02*
X17955906Y-11042550D01*
X17955906Y-11042550D02*
X17974953Y-11052074D01*
X17974953Y-11052074D02*
X17984477Y-11061598D01*
X17984477Y-11061598D02*
X17994001Y-11080646D01*
X17994001Y-11080646D02*
X17994001Y-11137789D01*
X17994001Y-11137789D02*
X17984477Y-11156836D01*
X17984477Y-11156836D02*
X17974953Y-11166360D01*
X17974953Y-11166360D02*
X17955906Y-11175884D01*
X17955906Y-11175884D02*
X17927334Y-11175884D01*
X18108287Y-11175884D02*
X18089239Y-11166360D01*
X18089239Y-11166360D02*
X18079715Y-11147312D01*
X18079715Y-11147312D02*
X18079715Y-10975884D01*
X18260668Y-11166360D02*
X18241620Y-11175884D01*
X18241620Y-11175884D02*
X18203525Y-11175884D01*
X18203525Y-11175884D02*
X18184477Y-11166360D01*
X18184477Y-11166360D02*
X18174953Y-11147312D01*
X18174953Y-11147312D02*
X18174953Y-11071122D01*
X18174953Y-11071122D02*
X18184477Y-11052074D01*
X18184477Y-11052074D02*
X18203525Y-11042550D01*
X18203525Y-11042550D02*
X18241620Y-11042550D01*
X18241620Y-11042550D02*
X18260668Y-11052074D01*
X18260668Y-11052074D02*
X18270192Y-11071122D01*
X18270192Y-11071122D02*
X18270192Y-11090170D01*
X18270192Y-11090170D02*
X18174953Y-11109217D01*
X18346382Y-11166360D02*
X18365430Y-11175884D01*
X18365430Y-11175884D02*
X18403525Y-11175884D01*
X18403525Y-11175884D02*
X18422573Y-11166360D01*
X18422573Y-11166360D02*
X18432096Y-11147312D01*
X18432096Y-11147312D02*
X18432096Y-11137789D01*
X18432096Y-11137789D02*
X18422573Y-11118741D01*
X18422573Y-11118741D02*
X18403525Y-11109217D01*
X18403525Y-11109217D02*
X18374953Y-11109217D01*
X18374953Y-11109217D02*
X18355906Y-11099693D01*
X18355906Y-11099693D02*
X18346382Y-11080646D01*
X18346382Y-11080646D02*
X18346382Y-11071122D01*
X18346382Y-11071122D02*
X18355906Y-11052074D01*
X18355906Y-11052074D02*
X18374953Y-11042550D01*
X18374953Y-11042550D02*
X18403525Y-11042550D01*
X18403525Y-11042550D02*
X18422573Y-11052074D01*
X18498763Y-11252074D02*
X18508287Y-11242550D01*
X18508287Y-11242550D02*
X18527334Y-11213979D01*
X18527334Y-11213979D02*
X18536858Y-11194931D01*
X18536858Y-11194931D02*
X18546382Y-11166360D01*
X18546382Y-11166360D02*
X18555906Y-11118741D01*
X18555906Y-11118741D02*
X18555906Y-11080646D01*
X18555906Y-11080646D02*
X18546382Y-11033027D01*
X18546382Y-11033027D02*
X18536858Y-11004455D01*
X18536858Y-11004455D02*
X18527334Y-10985408D01*
X18527334Y-10985408D02*
X18508287Y-10956836D01*
X18508287Y-10956836D02*
X18498763Y-10947312D01*
D13*
X13723700Y-11348400D02*
G75*
G03*
X13723700Y-11348400I-37500J0D01*
G01*
D11*
X14022572Y-11239884D02*
X14041620Y-11239884D01*
X14041620Y-11239884D02*
X14060667Y-11249408D01*
X14060667Y-11249408D02*
X14070191Y-11258931D01*
X14070191Y-11258931D02*
X14079715Y-11277979D01*
X14079715Y-11277979D02*
X14089239Y-11316074D01*
X14089239Y-11316074D02*
X14089239Y-11363693D01*
X14089239Y-11363693D02*
X14079715Y-11401788D01*
X14079715Y-11401788D02*
X14070191Y-11420836D01*
X14070191Y-11420836D02*
X14060667Y-11430360D01*
X14060667Y-11430360D02*
X14041620Y-11439884D01*
X14041620Y-11439884D02*
X14022572Y-11439884D01*
X14022572Y-11439884D02*
X14003524Y-11430360D01*
X14003524Y-11430360D02*
X13994001Y-11420836D01*
X13994001Y-11420836D02*
X13984477Y-11401788D01*
X13984477Y-11401788D02*
X13974953Y-11363693D01*
X13974953Y-11363693D02*
X13974953Y-11316074D01*
X13974953Y-11316074D02*
X13984477Y-11277979D01*
X13984477Y-11277979D02*
X13994001Y-11258931D01*
X13994001Y-11258931D02*
X14003524Y-11249408D01*
X14003524Y-11249408D02*
X14022572Y-11239884D01*
X14174953Y-11420836D02*
X14184477Y-11430360D01*
X14184477Y-11430360D02*
X14174953Y-11439884D01*
X14174953Y-11439884D02*
X14165429Y-11430360D01*
X14165429Y-11430360D02*
X14174953Y-11420836D01*
X14174953Y-11420836D02*
X14174953Y-11439884D01*
X14251143Y-11239884D02*
X14384477Y-11239884D01*
X14384477Y-11239884D02*
X14298762Y-11439884D01*
X14555905Y-11239884D02*
X14460667Y-11239884D01*
X14460667Y-11239884D02*
X14451143Y-11335122D01*
X14451143Y-11335122D02*
X14460667Y-11325598D01*
X14460667Y-11325598D02*
X14479715Y-11316074D01*
X14479715Y-11316074D02*
X14527334Y-11316074D01*
X14527334Y-11316074D02*
X14546382Y-11325598D01*
X14546382Y-11325598D02*
X14555905Y-11335122D01*
X14555905Y-11335122D02*
X14565429Y-11354169D01*
X14565429Y-11354169D02*
X14565429Y-11401788D01*
X14565429Y-11401788D02*
X14555905Y-11420836D01*
X14555905Y-11420836D02*
X14546382Y-11430360D01*
X14546382Y-11430360D02*
X14527334Y-11439884D01*
X14527334Y-11439884D02*
X14479715Y-11439884D01*
X14479715Y-11439884D02*
X14460667Y-11430360D01*
X14460667Y-11430360D02*
X14451143Y-11420836D01*
X14689239Y-11239884D02*
X14708286Y-11239884D01*
X14708286Y-11239884D02*
X14727334Y-11249408D01*
X14727334Y-11249408D02*
X14736858Y-11258931D01*
X14736858Y-11258931D02*
X14746382Y-11277979D01*
X14746382Y-11277979D02*
X14755905Y-11316074D01*
X14755905Y-11316074D02*
X14755905Y-11363693D01*
X14755905Y-11363693D02*
X14746382Y-11401788D01*
X14746382Y-11401788D02*
X14736858Y-11420836D01*
X14736858Y-11420836D02*
X14727334Y-11430360D01*
X14727334Y-11430360D02*
X14708286Y-11439884D01*
X14708286Y-11439884D02*
X14689239Y-11439884D01*
X14689239Y-11439884D02*
X14670191Y-11430360D01*
X14670191Y-11430360D02*
X14660667Y-11420836D01*
X14660667Y-11420836D02*
X14651143Y-11401788D01*
X14651143Y-11401788D02*
X14641620Y-11363693D01*
X14641620Y-11363693D02*
X14641620Y-11316074D01*
X14641620Y-11316074D02*
X14651143Y-11277979D01*
X14651143Y-11277979D02*
X14660667Y-11258931D01*
X14660667Y-11258931D02*
X14670191Y-11249408D01*
X14670191Y-11249408D02*
X14689239Y-11239884D01*
X14841620Y-11439884D02*
X14841620Y-11306550D01*
X14841620Y-11325598D02*
X14851143Y-11316074D01*
X14851143Y-11316074D02*
X14870191Y-11306550D01*
X14870191Y-11306550D02*
X14898763Y-11306550D01*
X14898763Y-11306550D02*
X14917810Y-11316074D01*
X14917810Y-11316074D02*
X14927334Y-11335122D01*
X14927334Y-11335122D02*
X14927334Y-11439884D01*
X14927334Y-11335122D02*
X14936858Y-11316074D01*
X14936858Y-11316074D02*
X14955905Y-11306550D01*
X14955905Y-11306550D02*
X14984477Y-11306550D01*
X14984477Y-11306550D02*
X15003524Y-11316074D01*
X15003524Y-11316074D02*
X15013048Y-11335122D01*
X15013048Y-11335122D02*
X15013048Y-11439884D01*
X15108286Y-11439884D02*
X15108286Y-11306550D01*
X15108286Y-11325598D02*
X15117810Y-11316074D01*
X15117810Y-11316074D02*
X15136858Y-11306550D01*
X15136858Y-11306550D02*
X15165429Y-11306550D01*
X15165429Y-11306550D02*
X15184477Y-11316074D01*
X15184477Y-11316074D02*
X15194001Y-11335122D01*
X15194001Y-11335122D02*
X15194001Y-11439884D01*
X15194001Y-11335122D02*
X15203524Y-11316074D01*
X15203524Y-11316074D02*
X15222572Y-11306550D01*
X15222572Y-11306550D02*
X15251143Y-11306550D01*
X15251143Y-11306550D02*
X15270191Y-11316074D01*
X15270191Y-11316074D02*
X15279715Y-11335122D01*
X15279715Y-11335122D02*
X15279715Y-11439884D01*
X15670191Y-11230360D02*
X15498763Y-11487503D01*
X15927334Y-11239884D02*
X15946382Y-11239884D01*
X15946382Y-11239884D02*
X15965429Y-11249408D01*
X15965429Y-11249408D02*
X15974953Y-11258931D01*
X15974953Y-11258931D02*
X15984477Y-11277979D01*
X15984477Y-11277979D02*
X15994001Y-11316074D01*
X15994001Y-11316074D02*
X15994001Y-11363693D01*
X15994001Y-11363693D02*
X15984477Y-11401788D01*
X15984477Y-11401788D02*
X15974953Y-11420836D01*
X15974953Y-11420836D02*
X15965429Y-11430360D01*
X15965429Y-11430360D02*
X15946382Y-11439884D01*
X15946382Y-11439884D02*
X15927334Y-11439884D01*
X15927334Y-11439884D02*
X15908286Y-11430360D01*
X15908286Y-11430360D02*
X15898763Y-11420836D01*
X15898763Y-11420836D02*
X15889239Y-11401788D01*
X15889239Y-11401788D02*
X15879715Y-11363693D01*
X15879715Y-11363693D02*
X15879715Y-11316074D01*
X15879715Y-11316074D02*
X15889239Y-11277979D01*
X15889239Y-11277979D02*
X15898763Y-11258931D01*
X15898763Y-11258931D02*
X15908286Y-11249408D01*
X15908286Y-11249408D02*
X15927334Y-11239884D01*
X16079715Y-11420836D02*
X16089239Y-11430360D01*
X16089239Y-11430360D02*
X16079715Y-11439884D01*
X16079715Y-11439884D02*
X16070191Y-11430360D01*
X16070191Y-11430360D02*
X16079715Y-11420836D01*
X16079715Y-11420836D02*
X16079715Y-11439884D01*
X16213048Y-11239884D02*
X16232096Y-11239884D01*
X16232096Y-11239884D02*
X16251144Y-11249408D01*
X16251144Y-11249408D02*
X16260667Y-11258931D01*
X16260667Y-11258931D02*
X16270191Y-11277979D01*
X16270191Y-11277979D02*
X16279715Y-11316074D01*
X16279715Y-11316074D02*
X16279715Y-11363693D01*
X16279715Y-11363693D02*
X16270191Y-11401788D01*
X16270191Y-11401788D02*
X16260667Y-11420836D01*
X16260667Y-11420836D02*
X16251144Y-11430360D01*
X16251144Y-11430360D02*
X16232096Y-11439884D01*
X16232096Y-11439884D02*
X16213048Y-11439884D01*
X16213048Y-11439884D02*
X16194001Y-11430360D01*
X16194001Y-11430360D02*
X16184477Y-11420836D01*
X16184477Y-11420836D02*
X16174953Y-11401788D01*
X16174953Y-11401788D02*
X16165429Y-11363693D01*
X16165429Y-11363693D02*
X16165429Y-11316074D01*
X16165429Y-11316074D02*
X16174953Y-11277979D01*
X16174953Y-11277979D02*
X16184477Y-11258931D01*
X16184477Y-11258931D02*
X16194001Y-11249408D01*
X16194001Y-11249408D02*
X16213048Y-11239884D01*
X16355906Y-11258931D02*
X16365429Y-11249408D01*
X16365429Y-11249408D02*
X16384477Y-11239884D01*
X16384477Y-11239884D02*
X16432096Y-11239884D01*
X16432096Y-11239884D02*
X16451144Y-11249408D01*
X16451144Y-11249408D02*
X16460667Y-11258931D01*
X16460667Y-11258931D02*
X16470191Y-11277979D01*
X16470191Y-11277979D02*
X16470191Y-11297027D01*
X16470191Y-11297027D02*
X16460667Y-11325598D01*
X16460667Y-11325598D02*
X16346382Y-11439884D01*
X16346382Y-11439884D02*
X16470191Y-11439884D01*
X16565429Y-11439884D02*
X16603525Y-11439884D01*
X16603525Y-11439884D02*
X16622572Y-11430360D01*
X16622572Y-11430360D02*
X16632096Y-11420836D01*
X16632096Y-11420836D02*
X16651144Y-11392265D01*
X16651144Y-11392265D02*
X16660667Y-11354169D01*
X16660667Y-11354169D02*
X16660667Y-11277979D01*
X16660667Y-11277979D02*
X16651144Y-11258931D01*
X16651144Y-11258931D02*
X16641620Y-11249408D01*
X16641620Y-11249408D02*
X16622572Y-11239884D01*
X16622572Y-11239884D02*
X16584477Y-11239884D01*
X16584477Y-11239884D02*
X16565429Y-11249408D01*
X16565429Y-11249408D02*
X16555906Y-11258931D01*
X16555906Y-11258931D02*
X16546382Y-11277979D01*
X16546382Y-11277979D02*
X16546382Y-11325598D01*
X16546382Y-11325598D02*
X16555906Y-11344646D01*
X16555906Y-11344646D02*
X16565429Y-11354169D01*
X16565429Y-11354169D02*
X16584477Y-11363693D01*
X16584477Y-11363693D02*
X16622572Y-11363693D01*
X16622572Y-11363693D02*
X16641620Y-11354169D01*
X16641620Y-11354169D02*
X16651144Y-11344646D01*
X16651144Y-11344646D02*
X16660667Y-11325598D01*
X16841620Y-11239884D02*
X16746382Y-11239884D01*
X16746382Y-11239884D02*
X16736858Y-11335122D01*
X16736858Y-11335122D02*
X16746382Y-11325598D01*
X16746382Y-11325598D02*
X16765429Y-11316074D01*
X16765429Y-11316074D02*
X16813049Y-11316074D01*
X16813049Y-11316074D02*
X16832096Y-11325598D01*
X16832096Y-11325598D02*
X16841620Y-11335122D01*
X16841620Y-11335122D02*
X16851144Y-11354169D01*
X16851144Y-11354169D02*
X16851144Y-11401788D01*
X16851144Y-11401788D02*
X16841620Y-11420836D01*
X16841620Y-11420836D02*
X16832096Y-11430360D01*
X16832096Y-11430360D02*
X16813049Y-11439884D01*
X16813049Y-11439884D02*
X16765429Y-11439884D01*
X16765429Y-11439884D02*
X16746382Y-11430360D01*
X16746382Y-11430360D02*
X16736858Y-11420836D01*
X16927334Y-11239884D02*
X16927334Y-11277979D01*
X17003525Y-11239884D02*
X17003525Y-11277979D01*
X17298763Y-11516074D02*
X17289239Y-11506550D01*
X17289239Y-11506550D02*
X17270191Y-11477979D01*
X17270191Y-11477979D02*
X17260668Y-11458931D01*
X17260668Y-11458931D02*
X17251144Y-11430360D01*
X17251144Y-11430360D02*
X17241620Y-11382741D01*
X17241620Y-11382741D02*
X17241620Y-11344646D01*
X17241620Y-11344646D02*
X17251144Y-11297027D01*
X17251144Y-11297027D02*
X17260668Y-11268455D01*
X17260668Y-11268455D02*
X17270191Y-11249408D01*
X17270191Y-11249408D02*
X17289239Y-11220836D01*
X17289239Y-11220836D02*
X17298763Y-11211312D01*
X17479715Y-11439884D02*
X17365430Y-11439884D01*
X17422572Y-11439884D02*
X17422572Y-11239884D01*
X17422572Y-11239884D02*
X17403525Y-11268455D01*
X17403525Y-11268455D02*
X17384477Y-11287503D01*
X17384477Y-11287503D02*
X17365430Y-11297027D01*
X17555906Y-11258931D02*
X17565430Y-11249408D01*
X17565430Y-11249408D02*
X17584477Y-11239884D01*
X17584477Y-11239884D02*
X17632096Y-11239884D01*
X17632096Y-11239884D02*
X17651144Y-11249408D01*
X17651144Y-11249408D02*
X17660668Y-11258931D01*
X17660668Y-11258931D02*
X17670191Y-11277979D01*
X17670191Y-11277979D02*
X17670191Y-11297027D01*
X17670191Y-11297027D02*
X17660668Y-11325598D01*
X17660668Y-11325598D02*
X17546382Y-11439884D01*
X17546382Y-11439884D02*
X17670191Y-11439884D01*
X17908287Y-11439884D02*
X17908287Y-11239884D01*
X17994001Y-11439884D02*
X17994001Y-11335122D01*
X17994001Y-11335122D02*
X17984477Y-11316074D01*
X17984477Y-11316074D02*
X17965430Y-11306550D01*
X17965430Y-11306550D02*
X17936858Y-11306550D01*
X17936858Y-11306550D02*
X17917811Y-11316074D01*
X17917811Y-11316074D02*
X17908287Y-11325598D01*
X18117811Y-11439884D02*
X18098763Y-11430360D01*
X18098763Y-11430360D02*
X18089239Y-11420836D01*
X18089239Y-11420836D02*
X18079715Y-11401788D01*
X18079715Y-11401788D02*
X18079715Y-11344646D01*
X18079715Y-11344646D02*
X18089239Y-11325598D01*
X18089239Y-11325598D02*
X18098763Y-11316074D01*
X18098763Y-11316074D02*
X18117811Y-11306550D01*
X18117811Y-11306550D02*
X18146382Y-11306550D01*
X18146382Y-11306550D02*
X18165430Y-11316074D01*
X18165430Y-11316074D02*
X18174953Y-11325598D01*
X18174953Y-11325598D02*
X18184477Y-11344646D01*
X18184477Y-11344646D02*
X18184477Y-11401788D01*
X18184477Y-11401788D02*
X18174953Y-11420836D01*
X18174953Y-11420836D02*
X18165430Y-11430360D01*
X18165430Y-11430360D02*
X18146382Y-11439884D01*
X18146382Y-11439884D02*
X18117811Y-11439884D01*
X18298763Y-11439884D02*
X18279715Y-11430360D01*
X18279715Y-11430360D02*
X18270192Y-11411312D01*
X18270192Y-11411312D02*
X18270192Y-11239884D01*
X18451144Y-11430360D02*
X18432096Y-11439884D01*
X18432096Y-11439884D02*
X18394001Y-11439884D01*
X18394001Y-11439884D02*
X18374953Y-11430360D01*
X18374953Y-11430360D02*
X18365430Y-11411312D01*
X18365430Y-11411312D02*
X18365430Y-11335122D01*
X18365430Y-11335122D02*
X18374953Y-11316074D01*
X18374953Y-11316074D02*
X18394001Y-11306550D01*
X18394001Y-11306550D02*
X18432096Y-11306550D01*
X18432096Y-11306550D02*
X18451144Y-11316074D01*
X18451144Y-11316074D02*
X18460668Y-11335122D01*
X18460668Y-11335122D02*
X18460668Y-11354169D01*
X18460668Y-11354169D02*
X18365430Y-11373217D01*
X18536858Y-11430360D02*
X18555906Y-11439884D01*
X18555906Y-11439884D02*
X18594001Y-11439884D01*
X18594001Y-11439884D02*
X18613049Y-11430360D01*
X18613049Y-11430360D02*
X18622573Y-11411312D01*
X18622573Y-11411312D02*
X18622573Y-11401788D01*
X18622573Y-11401788D02*
X18613049Y-11382741D01*
X18613049Y-11382741D02*
X18594001Y-11373217D01*
X18594001Y-11373217D02*
X18565430Y-11373217D01*
X18565430Y-11373217D02*
X18546382Y-11363693D01*
X18546382Y-11363693D02*
X18536858Y-11344646D01*
X18536858Y-11344646D02*
X18536858Y-11335122D01*
X18536858Y-11335122D02*
X18546382Y-11316074D01*
X18546382Y-11316074D02*
X18565430Y-11306550D01*
X18565430Y-11306550D02*
X18594001Y-11306550D01*
X18594001Y-11306550D02*
X18613049Y-11316074D01*
X18689239Y-11516074D02*
X18698763Y-11506550D01*
X18698763Y-11506550D02*
X18717811Y-11477979D01*
X18717811Y-11477979D02*
X18727334Y-11458931D01*
X18727334Y-11458931D02*
X18736858Y-11430360D01*
X18736858Y-11430360D02*
X18746382Y-11382741D01*
X18746382Y-11382741D02*
X18746382Y-11344646D01*
X18746382Y-11344646D02*
X18736858Y-11297027D01*
X18736858Y-11297027D02*
X18727334Y-11268455D01*
X18727334Y-11268455D02*
X18717811Y-11249408D01*
X18717811Y-11249408D02*
X18698763Y-11220836D01*
X18698763Y-11220836D02*
X18689239Y-11211312D01*
D14*
X13683700Y-11572400D02*
X13683700Y-11652400D01*
X13643700Y-11612400D02*
X13723700Y-11612400D01*
D11*
X14022572Y-11503884D02*
X14041620Y-11503884D01*
X14041620Y-11503884D02*
X14060667Y-11513408D01*
X14060667Y-11513408D02*
X14070191Y-11522931D01*
X14070191Y-11522931D02*
X14079715Y-11541979D01*
X14079715Y-11541979D02*
X14089239Y-11580074D01*
X14089239Y-11580074D02*
X14089239Y-11627693D01*
X14089239Y-11627693D02*
X14079715Y-11665788D01*
X14079715Y-11665788D02*
X14070191Y-11684836D01*
X14070191Y-11684836D02*
X14060667Y-11694360D01*
X14060667Y-11694360D02*
X14041620Y-11703884D01*
X14041620Y-11703884D02*
X14022572Y-11703884D01*
X14022572Y-11703884D02*
X14003524Y-11694360D01*
X14003524Y-11694360D02*
X13994001Y-11684836D01*
X13994001Y-11684836D02*
X13984477Y-11665788D01*
X13984477Y-11665788D02*
X13974953Y-11627693D01*
X13974953Y-11627693D02*
X13974953Y-11580074D01*
X13974953Y-11580074D02*
X13984477Y-11541979D01*
X13984477Y-11541979D02*
X13994001Y-11522931D01*
X13994001Y-11522931D02*
X14003524Y-11513408D01*
X14003524Y-11513408D02*
X14022572Y-11503884D01*
X14174953Y-11684836D02*
X14184477Y-11694360D01*
X14184477Y-11694360D02*
X14174953Y-11703884D01*
X14174953Y-11703884D02*
X14165429Y-11694360D01*
X14165429Y-11694360D02*
X14174953Y-11684836D01*
X14174953Y-11684836D02*
X14174953Y-11703884D01*
X14298762Y-11589598D02*
X14279715Y-11580074D01*
X14279715Y-11580074D02*
X14270191Y-11570550D01*
X14270191Y-11570550D02*
X14260667Y-11551503D01*
X14260667Y-11551503D02*
X14260667Y-11541979D01*
X14260667Y-11541979D02*
X14270191Y-11522931D01*
X14270191Y-11522931D02*
X14279715Y-11513408D01*
X14279715Y-11513408D02*
X14298762Y-11503884D01*
X14298762Y-11503884D02*
X14336858Y-11503884D01*
X14336858Y-11503884D02*
X14355905Y-11513408D01*
X14355905Y-11513408D02*
X14365429Y-11522931D01*
X14365429Y-11522931D02*
X14374953Y-11541979D01*
X14374953Y-11541979D02*
X14374953Y-11551503D01*
X14374953Y-11551503D02*
X14365429Y-11570550D01*
X14365429Y-11570550D02*
X14355905Y-11580074D01*
X14355905Y-11580074D02*
X14336858Y-11589598D01*
X14336858Y-11589598D02*
X14298762Y-11589598D01*
X14298762Y-11589598D02*
X14279715Y-11599122D01*
X14279715Y-11599122D02*
X14270191Y-11608646D01*
X14270191Y-11608646D02*
X14260667Y-11627693D01*
X14260667Y-11627693D02*
X14260667Y-11665788D01*
X14260667Y-11665788D02*
X14270191Y-11684836D01*
X14270191Y-11684836D02*
X14279715Y-11694360D01*
X14279715Y-11694360D02*
X14298762Y-11703884D01*
X14298762Y-11703884D02*
X14336858Y-11703884D01*
X14336858Y-11703884D02*
X14355905Y-11694360D01*
X14355905Y-11694360D02*
X14365429Y-11684836D01*
X14365429Y-11684836D02*
X14374953Y-11665788D01*
X14374953Y-11665788D02*
X14374953Y-11627693D01*
X14374953Y-11627693D02*
X14365429Y-11608646D01*
X14365429Y-11608646D02*
X14355905Y-11599122D01*
X14355905Y-11599122D02*
X14336858Y-11589598D01*
X14498762Y-11503884D02*
X14517810Y-11503884D01*
X14517810Y-11503884D02*
X14536858Y-11513408D01*
X14536858Y-11513408D02*
X14546382Y-11522931D01*
X14546382Y-11522931D02*
X14555905Y-11541979D01*
X14555905Y-11541979D02*
X14565429Y-11580074D01*
X14565429Y-11580074D02*
X14565429Y-11627693D01*
X14565429Y-11627693D02*
X14555905Y-11665788D01*
X14555905Y-11665788D02*
X14546382Y-11684836D01*
X14546382Y-11684836D02*
X14536858Y-11694360D01*
X14536858Y-11694360D02*
X14517810Y-11703884D01*
X14517810Y-11703884D02*
X14498762Y-11703884D01*
X14498762Y-11703884D02*
X14479715Y-11694360D01*
X14479715Y-11694360D02*
X14470191Y-11684836D01*
X14470191Y-11684836D02*
X14460667Y-11665788D01*
X14460667Y-11665788D02*
X14451143Y-11627693D01*
X14451143Y-11627693D02*
X14451143Y-11580074D01*
X14451143Y-11580074D02*
X14460667Y-11541979D01*
X14460667Y-11541979D02*
X14470191Y-11522931D01*
X14470191Y-11522931D02*
X14479715Y-11513408D01*
X14479715Y-11513408D02*
X14498762Y-11503884D01*
X14689239Y-11503884D02*
X14708286Y-11503884D01*
X14708286Y-11503884D02*
X14727334Y-11513408D01*
X14727334Y-11513408D02*
X14736858Y-11522931D01*
X14736858Y-11522931D02*
X14746382Y-11541979D01*
X14746382Y-11541979D02*
X14755905Y-11580074D01*
X14755905Y-11580074D02*
X14755905Y-11627693D01*
X14755905Y-11627693D02*
X14746382Y-11665788D01*
X14746382Y-11665788D02*
X14736858Y-11684836D01*
X14736858Y-11684836D02*
X14727334Y-11694360D01*
X14727334Y-11694360D02*
X14708286Y-11703884D01*
X14708286Y-11703884D02*
X14689239Y-11703884D01*
X14689239Y-11703884D02*
X14670191Y-11694360D01*
X14670191Y-11694360D02*
X14660667Y-11684836D01*
X14660667Y-11684836D02*
X14651143Y-11665788D01*
X14651143Y-11665788D02*
X14641620Y-11627693D01*
X14641620Y-11627693D02*
X14641620Y-11580074D01*
X14641620Y-11580074D02*
X14651143Y-11541979D01*
X14651143Y-11541979D02*
X14660667Y-11522931D01*
X14660667Y-11522931D02*
X14670191Y-11513408D01*
X14670191Y-11513408D02*
X14689239Y-11503884D01*
X14841620Y-11703884D02*
X14841620Y-11570550D01*
X14841620Y-11589598D02*
X14851143Y-11580074D01*
X14851143Y-11580074D02*
X14870191Y-11570550D01*
X14870191Y-11570550D02*
X14898763Y-11570550D01*
X14898763Y-11570550D02*
X14917810Y-11580074D01*
X14917810Y-11580074D02*
X14927334Y-11599122D01*
X14927334Y-11599122D02*
X14927334Y-11703884D01*
X14927334Y-11599122D02*
X14936858Y-11580074D01*
X14936858Y-11580074D02*
X14955905Y-11570550D01*
X14955905Y-11570550D02*
X14984477Y-11570550D01*
X14984477Y-11570550D02*
X15003524Y-11580074D01*
X15003524Y-11580074D02*
X15013048Y-11599122D01*
X15013048Y-11599122D02*
X15013048Y-11703884D01*
X15108286Y-11703884D02*
X15108286Y-11570550D01*
X15108286Y-11589598D02*
X15117810Y-11580074D01*
X15117810Y-11580074D02*
X15136858Y-11570550D01*
X15136858Y-11570550D02*
X15165429Y-11570550D01*
X15165429Y-11570550D02*
X15184477Y-11580074D01*
X15184477Y-11580074D02*
X15194001Y-11599122D01*
X15194001Y-11599122D02*
X15194001Y-11703884D01*
X15194001Y-11599122D02*
X15203524Y-11580074D01*
X15203524Y-11580074D02*
X15222572Y-11570550D01*
X15222572Y-11570550D02*
X15251143Y-11570550D01*
X15251143Y-11570550D02*
X15270191Y-11580074D01*
X15270191Y-11580074D02*
X15279715Y-11599122D01*
X15279715Y-11599122D02*
X15279715Y-11703884D01*
X15670191Y-11494360D02*
X15498763Y-11751503D01*
X15927334Y-11503884D02*
X15946382Y-11503884D01*
X15946382Y-11503884D02*
X15965429Y-11513408D01*
X15965429Y-11513408D02*
X15974953Y-11522931D01*
X15974953Y-11522931D02*
X15984477Y-11541979D01*
X15984477Y-11541979D02*
X15994001Y-11580074D01*
X15994001Y-11580074D02*
X15994001Y-11627693D01*
X15994001Y-11627693D02*
X15984477Y-11665788D01*
X15984477Y-11665788D02*
X15974953Y-11684836D01*
X15974953Y-11684836D02*
X15965429Y-11694360D01*
X15965429Y-11694360D02*
X15946382Y-11703884D01*
X15946382Y-11703884D02*
X15927334Y-11703884D01*
X15927334Y-11703884D02*
X15908286Y-11694360D01*
X15908286Y-11694360D02*
X15898763Y-11684836D01*
X15898763Y-11684836D02*
X15889239Y-11665788D01*
X15889239Y-11665788D02*
X15879715Y-11627693D01*
X15879715Y-11627693D02*
X15879715Y-11580074D01*
X15879715Y-11580074D02*
X15889239Y-11541979D01*
X15889239Y-11541979D02*
X15898763Y-11522931D01*
X15898763Y-11522931D02*
X15908286Y-11513408D01*
X15908286Y-11513408D02*
X15927334Y-11503884D01*
X16079715Y-11684836D02*
X16089239Y-11694360D01*
X16089239Y-11694360D02*
X16079715Y-11703884D01*
X16079715Y-11703884D02*
X16070191Y-11694360D01*
X16070191Y-11694360D02*
X16079715Y-11684836D01*
X16079715Y-11684836D02*
X16079715Y-11703884D01*
X16213048Y-11503884D02*
X16232096Y-11503884D01*
X16232096Y-11503884D02*
X16251144Y-11513408D01*
X16251144Y-11513408D02*
X16260667Y-11522931D01*
X16260667Y-11522931D02*
X16270191Y-11541979D01*
X16270191Y-11541979D02*
X16279715Y-11580074D01*
X16279715Y-11580074D02*
X16279715Y-11627693D01*
X16279715Y-11627693D02*
X16270191Y-11665788D01*
X16270191Y-11665788D02*
X16260667Y-11684836D01*
X16260667Y-11684836D02*
X16251144Y-11694360D01*
X16251144Y-11694360D02*
X16232096Y-11703884D01*
X16232096Y-11703884D02*
X16213048Y-11703884D01*
X16213048Y-11703884D02*
X16194001Y-11694360D01*
X16194001Y-11694360D02*
X16184477Y-11684836D01*
X16184477Y-11684836D02*
X16174953Y-11665788D01*
X16174953Y-11665788D02*
X16165429Y-11627693D01*
X16165429Y-11627693D02*
X16165429Y-11580074D01*
X16165429Y-11580074D02*
X16174953Y-11541979D01*
X16174953Y-11541979D02*
X16184477Y-11522931D01*
X16184477Y-11522931D02*
X16194001Y-11513408D01*
X16194001Y-11513408D02*
X16213048Y-11503884D01*
X16346382Y-11503884D02*
X16470191Y-11503884D01*
X16470191Y-11503884D02*
X16403525Y-11580074D01*
X16403525Y-11580074D02*
X16432096Y-11580074D01*
X16432096Y-11580074D02*
X16451144Y-11589598D01*
X16451144Y-11589598D02*
X16460667Y-11599122D01*
X16460667Y-11599122D02*
X16470191Y-11618169D01*
X16470191Y-11618169D02*
X16470191Y-11665788D01*
X16470191Y-11665788D02*
X16460667Y-11684836D01*
X16460667Y-11684836D02*
X16451144Y-11694360D01*
X16451144Y-11694360D02*
X16432096Y-11703884D01*
X16432096Y-11703884D02*
X16374953Y-11703884D01*
X16374953Y-11703884D02*
X16355906Y-11694360D01*
X16355906Y-11694360D02*
X16346382Y-11684836D01*
X16660667Y-11703884D02*
X16546382Y-11703884D01*
X16603525Y-11703884D02*
X16603525Y-11503884D01*
X16603525Y-11503884D02*
X16584477Y-11532455D01*
X16584477Y-11532455D02*
X16565429Y-11551503D01*
X16565429Y-11551503D02*
X16546382Y-11561027D01*
X16841620Y-11503884D02*
X16746382Y-11503884D01*
X16746382Y-11503884D02*
X16736858Y-11599122D01*
X16736858Y-11599122D02*
X16746382Y-11589598D01*
X16746382Y-11589598D02*
X16765429Y-11580074D01*
X16765429Y-11580074D02*
X16813049Y-11580074D01*
X16813049Y-11580074D02*
X16832096Y-11589598D01*
X16832096Y-11589598D02*
X16841620Y-11599122D01*
X16841620Y-11599122D02*
X16851144Y-11618169D01*
X16851144Y-11618169D02*
X16851144Y-11665788D01*
X16851144Y-11665788D02*
X16841620Y-11684836D01*
X16841620Y-11684836D02*
X16832096Y-11694360D01*
X16832096Y-11694360D02*
X16813049Y-11703884D01*
X16813049Y-11703884D02*
X16765429Y-11703884D01*
X16765429Y-11703884D02*
X16746382Y-11694360D01*
X16746382Y-11694360D02*
X16736858Y-11684836D01*
X16927334Y-11503884D02*
X16927334Y-11541979D01*
X17003525Y-11503884D02*
X17003525Y-11541979D01*
X17298763Y-11780074D02*
X17289239Y-11770550D01*
X17289239Y-11770550D02*
X17270191Y-11741979D01*
X17270191Y-11741979D02*
X17260668Y-11722931D01*
X17260668Y-11722931D02*
X17251144Y-11694360D01*
X17251144Y-11694360D02*
X17241620Y-11646741D01*
X17241620Y-11646741D02*
X17241620Y-11608646D01*
X17241620Y-11608646D02*
X17251144Y-11561027D01*
X17251144Y-11561027D02*
X17260668Y-11532455D01*
X17260668Y-11532455D02*
X17270191Y-11513408D01*
X17270191Y-11513408D02*
X17289239Y-11484836D01*
X17289239Y-11484836D02*
X17298763Y-11475312D01*
X17403525Y-11589598D02*
X17384477Y-11580074D01*
X17384477Y-11580074D02*
X17374953Y-11570550D01*
X17374953Y-11570550D02*
X17365430Y-11551503D01*
X17365430Y-11551503D02*
X17365430Y-11541979D01*
X17365430Y-11541979D02*
X17374953Y-11522931D01*
X17374953Y-11522931D02*
X17384477Y-11513408D01*
X17384477Y-11513408D02*
X17403525Y-11503884D01*
X17403525Y-11503884D02*
X17441620Y-11503884D01*
X17441620Y-11503884D02*
X17460668Y-11513408D01*
X17460668Y-11513408D02*
X17470191Y-11522931D01*
X17470191Y-11522931D02*
X17479715Y-11541979D01*
X17479715Y-11541979D02*
X17479715Y-11551503D01*
X17479715Y-11551503D02*
X17470191Y-11570550D01*
X17470191Y-11570550D02*
X17460668Y-11580074D01*
X17460668Y-11580074D02*
X17441620Y-11589598D01*
X17441620Y-11589598D02*
X17403525Y-11589598D01*
X17403525Y-11589598D02*
X17384477Y-11599122D01*
X17384477Y-11599122D02*
X17374953Y-11608646D01*
X17374953Y-11608646D02*
X17365430Y-11627693D01*
X17365430Y-11627693D02*
X17365430Y-11665788D01*
X17365430Y-11665788D02*
X17374953Y-11684836D01*
X17374953Y-11684836D02*
X17384477Y-11694360D01*
X17384477Y-11694360D02*
X17403525Y-11703884D01*
X17403525Y-11703884D02*
X17441620Y-11703884D01*
X17441620Y-11703884D02*
X17460668Y-11694360D01*
X17460668Y-11694360D02*
X17470191Y-11684836D01*
X17470191Y-11684836D02*
X17479715Y-11665788D01*
X17479715Y-11665788D02*
X17479715Y-11627693D01*
X17479715Y-11627693D02*
X17470191Y-11608646D01*
X17470191Y-11608646D02*
X17460668Y-11599122D01*
X17460668Y-11599122D02*
X17441620Y-11589598D01*
X17717811Y-11703884D02*
X17717811Y-11503884D01*
X17803525Y-11703884D02*
X17803525Y-11599122D01*
X17803525Y-11599122D02*
X17794001Y-11580074D01*
X17794001Y-11580074D02*
X17774953Y-11570550D01*
X17774953Y-11570550D02*
X17746382Y-11570550D01*
X17746382Y-11570550D02*
X17727334Y-11580074D01*
X17727334Y-11580074D02*
X17717811Y-11589598D01*
X17927334Y-11703884D02*
X17908287Y-11694360D01*
X17908287Y-11694360D02*
X17898763Y-11684836D01*
X17898763Y-11684836D02*
X17889239Y-11665788D01*
X17889239Y-11665788D02*
X17889239Y-11608646D01*
X17889239Y-11608646D02*
X17898763Y-11589598D01*
X17898763Y-11589598D02*
X17908287Y-11580074D01*
X17908287Y-11580074D02*
X17927334Y-11570550D01*
X17927334Y-11570550D02*
X17955906Y-11570550D01*
X17955906Y-11570550D02*
X17974953Y-11580074D01*
X17974953Y-11580074D02*
X17984477Y-11589598D01*
X17984477Y-11589598D02*
X17994001Y-11608646D01*
X17994001Y-11608646D02*
X17994001Y-11665788D01*
X17994001Y-11665788D02*
X17984477Y-11684836D01*
X17984477Y-11684836D02*
X17974953Y-11694360D01*
X17974953Y-11694360D02*
X17955906Y-11703884D01*
X17955906Y-11703884D02*
X17927334Y-11703884D01*
X18108287Y-11703884D02*
X18089239Y-11694360D01*
X18089239Y-11694360D02*
X18079715Y-11675312D01*
X18079715Y-11675312D02*
X18079715Y-11503884D01*
X18260668Y-11694360D02*
X18241620Y-11703884D01*
X18241620Y-11703884D02*
X18203525Y-11703884D01*
X18203525Y-11703884D02*
X18184477Y-11694360D01*
X18184477Y-11694360D02*
X18174953Y-11675312D01*
X18174953Y-11675312D02*
X18174953Y-11599122D01*
X18174953Y-11599122D02*
X18184477Y-11580074D01*
X18184477Y-11580074D02*
X18203525Y-11570550D01*
X18203525Y-11570550D02*
X18241620Y-11570550D01*
X18241620Y-11570550D02*
X18260668Y-11580074D01*
X18260668Y-11580074D02*
X18270192Y-11599122D01*
X18270192Y-11599122D02*
X18270192Y-11618169D01*
X18270192Y-11618169D02*
X18174953Y-11637217D01*
X18346382Y-11694360D02*
X18365430Y-11703884D01*
X18365430Y-11703884D02*
X18403525Y-11703884D01*
X18403525Y-11703884D02*
X18422573Y-11694360D01*
X18422573Y-11694360D02*
X18432096Y-11675312D01*
X18432096Y-11675312D02*
X18432096Y-11665788D01*
X18432096Y-11665788D02*
X18422573Y-11646741D01*
X18422573Y-11646741D02*
X18403525Y-11637217D01*
X18403525Y-11637217D02*
X18374953Y-11637217D01*
X18374953Y-11637217D02*
X18355906Y-11627693D01*
X18355906Y-11627693D02*
X18346382Y-11608646D01*
X18346382Y-11608646D02*
X18346382Y-11599122D01*
X18346382Y-11599122D02*
X18355906Y-11580074D01*
X18355906Y-11580074D02*
X18374953Y-11570550D01*
X18374953Y-11570550D02*
X18403525Y-11570550D01*
X18403525Y-11570550D02*
X18422573Y-11580074D01*
X18498763Y-11780074D02*
X18508287Y-11770550D01*
X18508287Y-11770550D02*
X18527334Y-11741979D01*
X18527334Y-11741979D02*
X18536858Y-11722931D01*
X18536858Y-11722931D02*
X18546382Y-11694360D01*
X18546382Y-11694360D02*
X18555906Y-11646741D01*
X18555906Y-11646741D02*
X18555906Y-11608646D01*
X18555906Y-11608646D02*
X18546382Y-11561027D01*
X18546382Y-11561027D02*
X18536858Y-11532455D01*
X18536858Y-11532455D02*
X18527334Y-11513408D01*
X18527334Y-11513408D02*
X18508287Y-11484836D01*
X18508287Y-11484836D02*
X18498763Y-11475312D01*
D15*
X13707591Y-11915291D02*
X13707591Y-11837509D01*
X13629809Y-11837509D01*
X13629809Y-11915291D01*
X13707591Y-11915291D01*
D11*
X14089239Y-11967884D02*
X13974953Y-11967884D01*
X14032096Y-11967884D02*
X14032096Y-11767884D01*
X14032096Y-11767884D02*
X14013048Y-11796455D01*
X14013048Y-11796455D02*
X13994001Y-11815503D01*
X13994001Y-11815503D02*
X13974953Y-11825027D01*
X14174953Y-11948836D02*
X14184477Y-11958360D01*
X14184477Y-11958360D02*
X14174953Y-11967884D01*
X14174953Y-11967884D02*
X14165429Y-11958360D01*
X14165429Y-11958360D02*
X14174953Y-11948836D01*
X14174953Y-11948836D02*
X14174953Y-11967884D01*
X14374953Y-11967884D02*
X14260667Y-11967884D01*
X14317810Y-11967884D02*
X14317810Y-11767884D01*
X14317810Y-11767884D02*
X14298762Y-11796455D01*
X14298762Y-11796455D02*
X14279715Y-11815503D01*
X14279715Y-11815503D02*
X14260667Y-11825027D01*
X14498762Y-11767884D02*
X14517810Y-11767884D01*
X14517810Y-11767884D02*
X14536858Y-11777408D01*
X14536858Y-11777408D02*
X14546382Y-11786931D01*
X14546382Y-11786931D02*
X14555905Y-11805979D01*
X14555905Y-11805979D02*
X14565429Y-11844074D01*
X14565429Y-11844074D02*
X14565429Y-11891693D01*
X14565429Y-11891693D02*
X14555905Y-11929788D01*
X14555905Y-11929788D02*
X14546382Y-11948836D01*
X14546382Y-11948836D02*
X14536858Y-11958360D01*
X14536858Y-11958360D02*
X14517810Y-11967884D01*
X14517810Y-11967884D02*
X14498762Y-11967884D01*
X14498762Y-11967884D02*
X14479715Y-11958360D01*
X14479715Y-11958360D02*
X14470191Y-11948836D01*
X14470191Y-11948836D02*
X14460667Y-11929788D01*
X14460667Y-11929788D02*
X14451143Y-11891693D01*
X14451143Y-11891693D02*
X14451143Y-11844074D01*
X14451143Y-11844074D02*
X14460667Y-11805979D01*
X14460667Y-11805979D02*
X14470191Y-11786931D01*
X14470191Y-11786931D02*
X14479715Y-11777408D01*
X14479715Y-11777408D02*
X14498762Y-11767884D01*
X14689239Y-11767884D02*
X14708286Y-11767884D01*
X14708286Y-11767884D02*
X14727334Y-11777408D01*
X14727334Y-11777408D02*
X14736858Y-11786931D01*
X14736858Y-11786931D02*
X14746382Y-11805979D01*
X14746382Y-11805979D02*
X14755905Y-11844074D01*
X14755905Y-11844074D02*
X14755905Y-11891693D01*
X14755905Y-11891693D02*
X14746382Y-11929788D01*
X14746382Y-11929788D02*
X14736858Y-11948836D01*
X14736858Y-11948836D02*
X14727334Y-11958360D01*
X14727334Y-11958360D02*
X14708286Y-11967884D01*
X14708286Y-11967884D02*
X14689239Y-11967884D01*
X14689239Y-11967884D02*
X14670191Y-11958360D01*
X14670191Y-11958360D02*
X14660667Y-11948836D01*
X14660667Y-11948836D02*
X14651143Y-11929788D01*
X14651143Y-11929788D02*
X14641620Y-11891693D01*
X14641620Y-11891693D02*
X14641620Y-11844074D01*
X14641620Y-11844074D02*
X14651143Y-11805979D01*
X14651143Y-11805979D02*
X14660667Y-11786931D01*
X14660667Y-11786931D02*
X14670191Y-11777408D01*
X14670191Y-11777408D02*
X14689239Y-11767884D01*
X14841620Y-11967884D02*
X14841620Y-11834550D01*
X14841620Y-11853598D02*
X14851143Y-11844074D01*
X14851143Y-11844074D02*
X14870191Y-11834550D01*
X14870191Y-11834550D02*
X14898763Y-11834550D01*
X14898763Y-11834550D02*
X14917810Y-11844074D01*
X14917810Y-11844074D02*
X14927334Y-11863122D01*
X14927334Y-11863122D02*
X14927334Y-11967884D01*
X14927334Y-11863122D02*
X14936858Y-11844074D01*
X14936858Y-11844074D02*
X14955905Y-11834550D01*
X14955905Y-11834550D02*
X14984477Y-11834550D01*
X14984477Y-11834550D02*
X15003524Y-11844074D01*
X15003524Y-11844074D02*
X15013048Y-11863122D01*
X15013048Y-11863122D02*
X15013048Y-11967884D01*
X15108286Y-11967884D02*
X15108286Y-11834550D01*
X15108286Y-11853598D02*
X15117810Y-11844074D01*
X15117810Y-11844074D02*
X15136858Y-11834550D01*
X15136858Y-11834550D02*
X15165429Y-11834550D01*
X15165429Y-11834550D02*
X15184477Y-11844074D01*
X15184477Y-11844074D02*
X15194001Y-11863122D01*
X15194001Y-11863122D02*
X15194001Y-11967884D01*
X15194001Y-11863122D02*
X15203524Y-11844074D01*
X15203524Y-11844074D02*
X15222572Y-11834550D01*
X15222572Y-11834550D02*
X15251143Y-11834550D01*
X15251143Y-11834550D02*
X15270191Y-11844074D01*
X15270191Y-11844074D02*
X15279715Y-11863122D01*
X15279715Y-11863122D02*
X15279715Y-11967884D01*
X15670191Y-11758360D02*
X15498763Y-12015503D01*
X15927334Y-11767884D02*
X15946382Y-11767884D01*
X15946382Y-11767884D02*
X15965429Y-11777408D01*
X15965429Y-11777408D02*
X15974953Y-11786931D01*
X15974953Y-11786931D02*
X15984477Y-11805979D01*
X15984477Y-11805979D02*
X15994001Y-11844074D01*
X15994001Y-11844074D02*
X15994001Y-11891693D01*
X15994001Y-11891693D02*
X15984477Y-11929788D01*
X15984477Y-11929788D02*
X15974953Y-11948836D01*
X15974953Y-11948836D02*
X15965429Y-11958360D01*
X15965429Y-11958360D02*
X15946382Y-11967884D01*
X15946382Y-11967884D02*
X15927334Y-11967884D01*
X15927334Y-11967884D02*
X15908286Y-11958360D01*
X15908286Y-11958360D02*
X15898763Y-11948836D01*
X15898763Y-11948836D02*
X15889239Y-11929788D01*
X15889239Y-11929788D02*
X15879715Y-11891693D01*
X15879715Y-11891693D02*
X15879715Y-11844074D01*
X15879715Y-11844074D02*
X15889239Y-11805979D01*
X15889239Y-11805979D02*
X15898763Y-11786931D01*
X15898763Y-11786931D02*
X15908286Y-11777408D01*
X15908286Y-11777408D02*
X15927334Y-11767884D01*
X16079715Y-11948836D02*
X16089239Y-11958360D01*
X16089239Y-11958360D02*
X16079715Y-11967884D01*
X16079715Y-11967884D02*
X16070191Y-11958360D01*
X16070191Y-11958360D02*
X16079715Y-11948836D01*
X16079715Y-11948836D02*
X16079715Y-11967884D01*
X16213048Y-11767884D02*
X16232096Y-11767884D01*
X16232096Y-11767884D02*
X16251144Y-11777408D01*
X16251144Y-11777408D02*
X16260667Y-11786931D01*
X16260667Y-11786931D02*
X16270191Y-11805979D01*
X16270191Y-11805979D02*
X16279715Y-11844074D01*
X16279715Y-11844074D02*
X16279715Y-11891693D01*
X16279715Y-11891693D02*
X16270191Y-11929788D01*
X16270191Y-11929788D02*
X16260667Y-11948836D01*
X16260667Y-11948836D02*
X16251144Y-11958360D01*
X16251144Y-11958360D02*
X16232096Y-11967884D01*
X16232096Y-11967884D02*
X16213048Y-11967884D01*
X16213048Y-11967884D02*
X16194001Y-11958360D01*
X16194001Y-11958360D02*
X16184477Y-11948836D01*
X16184477Y-11948836D02*
X16174953Y-11929788D01*
X16174953Y-11929788D02*
X16165429Y-11891693D01*
X16165429Y-11891693D02*
X16165429Y-11844074D01*
X16165429Y-11844074D02*
X16174953Y-11805979D01*
X16174953Y-11805979D02*
X16184477Y-11786931D01*
X16184477Y-11786931D02*
X16194001Y-11777408D01*
X16194001Y-11777408D02*
X16213048Y-11767884D01*
X16451144Y-11834550D02*
X16451144Y-11967884D01*
X16403525Y-11758360D02*
X16355906Y-11901217D01*
X16355906Y-11901217D02*
X16479715Y-11901217D01*
X16536858Y-11767884D02*
X16660667Y-11767884D01*
X16660667Y-11767884D02*
X16594001Y-11844074D01*
X16594001Y-11844074D02*
X16622572Y-11844074D01*
X16622572Y-11844074D02*
X16641620Y-11853598D01*
X16641620Y-11853598D02*
X16651144Y-11863122D01*
X16651144Y-11863122D02*
X16660667Y-11882169D01*
X16660667Y-11882169D02*
X16660667Y-11929788D01*
X16660667Y-11929788D02*
X16651144Y-11948836D01*
X16651144Y-11948836D02*
X16641620Y-11958360D01*
X16641620Y-11958360D02*
X16622572Y-11967884D01*
X16622572Y-11967884D02*
X16565429Y-11967884D01*
X16565429Y-11967884D02*
X16546382Y-11958360D01*
X16546382Y-11958360D02*
X16536858Y-11948836D01*
X16727334Y-11767884D02*
X16851144Y-11767884D01*
X16851144Y-11767884D02*
X16784477Y-11844074D01*
X16784477Y-11844074D02*
X16813049Y-11844074D01*
X16813049Y-11844074D02*
X16832096Y-11853598D01*
X16832096Y-11853598D02*
X16841620Y-11863122D01*
X16841620Y-11863122D02*
X16851144Y-11882169D01*
X16851144Y-11882169D02*
X16851144Y-11929788D01*
X16851144Y-11929788D02*
X16841620Y-11948836D01*
X16841620Y-11948836D02*
X16832096Y-11958360D01*
X16832096Y-11958360D02*
X16813049Y-11967884D01*
X16813049Y-11967884D02*
X16755906Y-11967884D01*
X16755906Y-11967884D02*
X16736858Y-11958360D01*
X16736858Y-11958360D02*
X16727334Y-11948836D01*
X16927334Y-11767884D02*
X16927334Y-11805979D01*
X17003525Y-11767884D02*
X17003525Y-11805979D01*
X17298763Y-12044074D02*
X17289239Y-12034550D01*
X17289239Y-12034550D02*
X17270191Y-12005979D01*
X17270191Y-12005979D02*
X17260668Y-11986931D01*
X17260668Y-11986931D02*
X17251144Y-11958360D01*
X17251144Y-11958360D02*
X17241620Y-11910741D01*
X17241620Y-11910741D02*
X17241620Y-11872646D01*
X17241620Y-11872646D02*
X17251144Y-11825027D01*
X17251144Y-11825027D02*
X17260668Y-11796455D01*
X17260668Y-11796455D02*
X17270191Y-11777408D01*
X17270191Y-11777408D02*
X17289239Y-11748836D01*
X17289239Y-11748836D02*
X17298763Y-11739312D01*
X17365430Y-11786931D02*
X17374953Y-11777408D01*
X17374953Y-11777408D02*
X17394001Y-11767884D01*
X17394001Y-11767884D02*
X17441620Y-11767884D01*
X17441620Y-11767884D02*
X17460668Y-11777408D01*
X17460668Y-11777408D02*
X17470191Y-11786931D01*
X17470191Y-11786931D02*
X17479715Y-11805979D01*
X17479715Y-11805979D02*
X17479715Y-11825027D01*
X17479715Y-11825027D02*
X17470191Y-11853598D01*
X17470191Y-11853598D02*
X17355906Y-11967884D01*
X17355906Y-11967884D02*
X17479715Y-11967884D01*
X17651144Y-11767884D02*
X17613049Y-11767884D01*
X17613049Y-11767884D02*
X17594001Y-11777408D01*
X17594001Y-11777408D02*
X17584477Y-11786931D01*
X17584477Y-11786931D02*
X17565430Y-11815503D01*
X17565430Y-11815503D02*
X17555906Y-11853598D01*
X17555906Y-11853598D02*
X17555906Y-11929788D01*
X17555906Y-11929788D02*
X17565430Y-11948836D01*
X17565430Y-11948836D02*
X17574953Y-11958360D01*
X17574953Y-11958360D02*
X17594001Y-11967884D01*
X17594001Y-11967884D02*
X17632096Y-11967884D01*
X17632096Y-11967884D02*
X17651144Y-11958360D01*
X17651144Y-11958360D02*
X17660668Y-11948836D01*
X17660668Y-11948836D02*
X17670191Y-11929788D01*
X17670191Y-11929788D02*
X17670191Y-11882169D01*
X17670191Y-11882169D02*
X17660668Y-11863122D01*
X17660668Y-11863122D02*
X17651144Y-11853598D01*
X17651144Y-11853598D02*
X17632096Y-11844074D01*
X17632096Y-11844074D02*
X17594001Y-11844074D01*
X17594001Y-11844074D02*
X17574953Y-11853598D01*
X17574953Y-11853598D02*
X17565430Y-11863122D01*
X17565430Y-11863122D02*
X17555906Y-11882169D01*
X17908287Y-11967884D02*
X17908287Y-11767884D01*
X17994001Y-11967884D02*
X17994001Y-11863122D01*
X17994001Y-11863122D02*
X17984477Y-11844074D01*
X17984477Y-11844074D02*
X17965430Y-11834550D01*
X17965430Y-11834550D02*
X17936858Y-11834550D01*
X17936858Y-11834550D02*
X17917811Y-11844074D01*
X17917811Y-11844074D02*
X17908287Y-11853598D01*
X18117811Y-11967884D02*
X18098763Y-11958360D01*
X18098763Y-11958360D02*
X18089239Y-11948836D01*
X18089239Y-11948836D02*
X18079715Y-11929788D01*
X18079715Y-11929788D02*
X18079715Y-11872646D01*
X18079715Y-11872646D02*
X18089239Y-11853598D01*
X18089239Y-11853598D02*
X18098763Y-11844074D01*
X18098763Y-11844074D02*
X18117811Y-11834550D01*
X18117811Y-11834550D02*
X18146382Y-11834550D01*
X18146382Y-11834550D02*
X18165430Y-11844074D01*
X18165430Y-11844074D02*
X18174953Y-11853598D01*
X18174953Y-11853598D02*
X18184477Y-11872646D01*
X18184477Y-11872646D02*
X18184477Y-11929788D01*
X18184477Y-11929788D02*
X18174953Y-11948836D01*
X18174953Y-11948836D02*
X18165430Y-11958360D01*
X18165430Y-11958360D02*
X18146382Y-11967884D01*
X18146382Y-11967884D02*
X18117811Y-11967884D01*
X18298763Y-11967884D02*
X18279715Y-11958360D01*
X18279715Y-11958360D02*
X18270192Y-11939312D01*
X18270192Y-11939312D02*
X18270192Y-11767884D01*
X18451144Y-11958360D02*
X18432096Y-11967884D01*
X18432096Y-11967884D02*
X18394001Y-11967884D01*
X18394001Y-11967884D02*
X18374953Y-11958360D01*
X18374953Y-11958360D02*
X18365430Y-11939312D01*
X18365430Y-11939312D02*
X18365430Y-11863122D01*
X18365430Y-11863122D02*
X18374953Y-11844074D01*
X18374953Y-11844074D02*
X18394001Y-11834550D01*
X18394001Y-11834550D02*
X18432096Y-11834550D01*
X18432096Y-11834550D02*
X18451144Y-11844074D01*
X18451144Y-11844074D02*
X18460668Y-11863122D01*
X18460668Y-11863122D02*
X18460668Y-11882169D01*
X18460668Y-11882169D02*
X18365430Y-11901217D01*
X18536858Y-11958360D02*
X18555906Y-11967884D01*
X18555906Y-11967884D02*
X18594001Y-11967884D01*
X18594001Y-11967884D02*
X18613049Y-11958360D01*
X18613049Y-11958360D02*
X18622573Y-11939312D01*
X18622573Y-11939312D02*
X18622573Y-11929788D01*
X18622573Y-11929788D02*
X18613049Y-11910741D01*
X18613049Y-11910741D02*
X18594001Y-11901217D01*
X18594001Y-11901217D02*
X18565430Y-11901217D01*
X18565430Y-11901217D02*
X18546382Y-11891693D01*
X18546382Y-11891693D02*
X18536858Y-11872646D01*
X18536858Y-11872646D02*
X18536858Y-11863122D01*
X18536858Y-11863122D02*
X18546382Y-11844074D01*
X18546382Y-11844074D02*
X18565430Y-11834550D01*
X18565430Y-11834550D02*
X18594001Y-11834550D01*
X18594001Y-11834550D02*
X18613049Y-11844074D01*
X18689239Y-12044074D02*
X18698763Y-12034550D01*
X18698763Y-12034550D02*
X18717811Y-12005979D01*
X18717811Y-12005979D02*
X18727334Y-11986931D01*
X18727334Y-11986931D02*
X18736858Y-11958360D01*
X18736858Y-11958360D02*
X18746382Y-11910741D01*
X18746382Y-11910741D02*
X18746382Y-11872646D01*
X18746382Y-11872646D02*
X18736858Y-11825027D01*
X18736858Y-11825027D02*
X18727334Y-11796455D01*
X18727334Y-11796455D02*
X18717811Y-11777408D01*
X18717811Y-11777408D02*
X18698763Y-11748836D01*
X18698763Y-11748836D02*
X18689239Y-11739312D01*
M02*
