M48
; DRILL file {KiCad 7.0.7} date Mon Jun 24 16:16:12 2024
; FORMAT={-:-/ absolute / inch / decimal}
; #@! TF.CreationDate,2024-06-24T16:16:12-04:00
; #@! TF.GenerationSoftware,Kicad,Pcbnew,7.0.7
; #@! TF.FileFunction,Plated,1,2,PTH
FMAT,2
INCH
; #@! TA.AperFunction,Plated,PTH,ViaDrill
T1C0.0157
; #@! TA.AperFunction,Plated,PTH,ComponentDrill
T2C0.0256
; #@! TA.AperFunction,Plated,PTH,ComponentDrill
T3C0.0394
; #@! TA.AperFunction,Plated,PTH,ComponentDrill
T4C0.0421
; #@! TA.AperFunction,Plated,PTH,ComponentDrill
T5C0.0433
; #@! TA.AperFunction,Plated,PTH,ComponentDrill
T6C0.0669
; #@! TA.AperFunction,Plated,PTH,ComponentDrill
T7C0.0689
; #@! TA.AperFunction,Plated,PTH,ComponentDrill
T8C0.0866
; #@! TA.AperFunction,Plated,PTH,ComponentDrill
T9C0.1000
; #@! TA.AperFunction,Plated,PTH,ComponentDrill
T10C0.1138
%
G90
G05
T1
X8.8701Y-2.6929
X8.9154Y-2.748
T2
X8.5138Y-2.9945
X8.5138Y-3.0945
X8.5138Y-3.1945
X8.9016Y-2.9945
X8.9016Y-3.0945
X8.9016Y-3.1945
T3
X5.9567Y-3.4167
X5.9567Y-3.5167
X6.0709Y-3.2165
X6.0709Y-3.3665
X6.0709Y-3.5165
X8.0709Y-3.0665
X8.0709Y-3.3665
X8.0709Y-3.6665
T4
X6.3277Y-3.9639
X6.3277Y-4.0639
X6.3277Y-4.1639
X6.4277Y-3.9639
X6.4277Y-4.0639
X6.4277Y-4.1639
X6.5277Y-3.9639
X6.5277Y-4.0639
X6.5277Y-4.1639
X6.6277Y-3.9639
X6.6277Y-4.0639
X6.6277Y-4.1639
X6.7277Y-3.9639
X6.7277Y-4.0639
X6.7277Y-4.1639
X6.8277Y-3.9639
X6.8277Y-4.0639
X6.8277Y-4.1639
X6.9277Y-3.9639
X6.9277Y-4.0639
X6.9277Y-4.1639
X7.0277Y-3.9639
X7.0277Y-4.0639
X7.0277Y-4.1639
X7.1277Y-3.9639
X7.1277Y-4.0639
X7.1277Y-4.1639
X7.2277Y-3.9639
X7.2277Y-4.0639
X7.2277Y-4.1639
X7.3277Y-3.9639
X7.3277Y-4.0639
X7.3277Y-4.1639
X7.4277Y-3.9639
X7.4277Y-4.0639
X7.4277Y-4.1639
X7.5277Y-3.9639
X7.5277Y-4.0639
X7.5277Y-4.1639
X7.6277Y-3.9639
X7.6277Y-4.0639
X7.6277Y-4.1639
X7.7277Y-3.9639
X7.7277Y-4.0639
X7.7277Y-4.1639
X7.8277Y-3.9639
X7.8277Y-4.0639
X7.8277Y-4.1639
X7.9277Y-3.9639
X7.9277Y-4.0639
X7.9277Y-4.1639
X8.0277Y-3.9639
X8.0277Y-4.0639
X8.0277Y-4.1639
X8.1277Y-3.9639
X8.1277Y-4.0639
X8.1277Y-4.1639
X8.2277Y-3.9639
X8.2277Y-4.0639
X8.2277Y-4.1639
X8.3277Y-3.9639
X8.3277Y-4.0639
X8.3277Y-4.1639
X8.4277Y-3.9639
X8.4277Y-4.0639
X8.4277Y-4.1639
X8.5277Y-3.9639
X8.5277Y-4.0639
X8.5277Y-4.1639
X8.6277Y-3.9639
X8.6277Y-4.0639
X8.6277Y-4.1639
X8.7277Y-3.9639
X8.7277Y-4.0639
X8.7277Y-4.1639
X8.8277Y-3.9639
X8.8277Y-4.0639
X8.8277Y-4.1639
X8.9277Y-3.9639
X8.9277Y-4.0639
X8.9277Y-4.1639
X9.0277Y-3.9639
X9.0277Y-4.0639
X9.0277Y-4.1639
X9.1277Y-3.9639
X9.1277Y-4.0639
X9.1277Y-4.1639
X9.2277Y-3.9639
X9.2277Y-4.0639
X9.2277Y-4.1639
X9.3277Y-3.9639
X9.3277Y-4.0639
X9.3277Y-4.1639
X9.4277Y-3.9639
X9.4277Y-4.0639
X9.4277Y-4.1639
T5
X9.2974Y-3.5142
X9.2974Y-3.6142
X9.2974Y-3.7142
T6
X8.0689Y-2.0945
X8.0709Y-2.3937
X8.0709Y-2.6929
T7
X6.0709Y-3.0665
X6.0709Y-3.6665
T8
X6.0709Y-2.0945
X6.0709Y-2.6929
T9
X9.6811Y-2.0548
X9.6811Y-2.3548
X9.6811Y-3.1018
X9.6811Y-3.4018
T10
X6.1277Y-4.2639
X9.6277Y-4.2639
T0
M30
