M48
; DRILL file {KiCad 7.0.7} date Wed Mar 27 23:04:01 2024
; FORMAT={-:-/ absolute / inch / decimal}
; #@! TF.CreationDate,2024-03-27T23:04:01-04:00
; #@! TF.GenerationSoftware,Kicad,Pcbnew,7.0.7
; #@! TF.FileFunction,Plated,1,2,PTH
FMAT,2
INCH
; #@! TA.AperFunction,Plated,PTH,ViaDrill
T1C0.0157
; #@! TA.AperFunction,Plated,PTH,ComponentDrill
T2C0.0295
; #@! TA.AperFunction,Plated,PTH,ComponentDrill
T3C0.0315
; #@! TA.AperFunction,Plated,PTH,ComponentDrill
T4C0.0433
%
G90
G05
T1
X6.695Y-2.095
X7.045Y-3.04
X7.09Y-2.07
X7.12Y-3.375
T2
X6.1194Y-2.6483
X6.12Y-3.1767
X6.12Y-3.7017
X6.1206Y-2.1183
X6.1981Y-2.6483
X6.1987Y-3.1767
X6.1987Y-3.7017
X6.1994Y-2.1183
X6.6756Y-3.9667
X6.7544Y-3.9667
X7.1056Y-3.9667
X7.1844Y-3.9667
T3
X6.4674Y-2.25
X6.5461Y-2.25
X6.725Y-3.6524
X6.725Y-3.7311
X6.7639Y-3.125
X6.8426Y-3.125
X7.1224Y-2.405
X7.2011Y-2.405
T4
X5.7028Y-2.13
X5.7028Y-2.23
X5.7028Y-2.33
X5.7028Y-2.66
X5.7028Y-2.76
X5.7028Y-2.86
X5.7078Y-3.19
X5.7078Y-3.29
X5.7078Y-3.39
X5.7078Y-3.715
X5.7078Y-3.815
X5.7078Y-3.915
X5.9594Y-2.3733
X5.9594Y-2.9033
X5.9594Y-3.4333
X5.9594Y-3.9583
X6.3594Y-2.3733
X6.3594Y-2.9033
X6.3594Y-3.4333
X6.3594Y-3.9583
X6.9822Y-2.67
X6.9822Y-2.77
X6.9822Y-2.87
X6.9822Y-3.355
X6.9822Y-3.455
X6.9822Y-3.555
T0
M30
