%TF.GenerationSoftware,KiCad,Pcbnew,7.0.7*%
%TF.CreationDate,2024-03-27T23:03:56-04:00*%
%TF.ProjectId,pneu_pwr_brd,706e6575-5f70-4777-925f-6272642e6b69,rev?*%
%TF.SameCoordinates,Original*%
%TF.FileFunction,Legend,Top*%
%TF.FilePolarity,Positive*%
%FSLAX46Y46*%
G04 Gerber Fmt 4.6, Leading zero omitted, Abs format (unit mm)*
G04 Created by KiCad (PCBNEW 7.0.7) date 2024-03-27 23:03:56*
%MOMM*%
%LPD*%
G01*
G04 APERTURE LIST*
%ADD10C,0.150000*%
%ADD11C,0.120000*%
G04 APERTURE END LIST*
D10*
X163893666Y-66342819D02*
X163560333Y-65866628D01*
X163322238Y-66342819D02*
X163322238Y-65342819D01*
X163322238Y-65342819D02*
X163703190Y-65342819D01*
X163703190Y-65342819D02*
X163798428Y-65390438D01*
X163798428Y-65390438D02*
X163846047Y-65438057D01*
X163846047Y-65438057D02*
X163893666Y-65533295D01*
X163893666Y-65533295D02*
X163893666Y-65676152D01*
X163893666Y-65676152D02*
X163846047Y-65771390D01*
X163846047Y-65771390D02*
X163798428Y-65819009D01*
X163798428Y-65819009D02*
X163703190Y-65866628D01*
X163703190Y-65866628D02*
X163322238Y-65866628D01*
X164322238Y-65819009D02*
X164655571Y-65819009D01*
X164798428Y-66342819D02*
X164322238Y-66342819D01*
X164322238Y-66342819D02*
X164322238Y-65342819D01*
X164322238Y-65342819D02*
X164798428Y-65342819D01*
X165560333Y-65819009D02*
X165227000Y-65819009D01*
X165227000Y-66342819D02*
X165227000Y-65342819D01*
X165227000Y-65342819D02*
X165703190Y-65342819D01*
X166227000Y-65342819D02*
X166227000Y-65580914D01*
X165988905Y-65485676D02*
X166227000Y-65580914D01*
X166227000Y-65580914D02*
X166465095Y-65485676D01*
X166084143Y-65771390D02*
X166227000Y-65580914D01*
X166227000Y-65580914D02*
X166369857Y-65771390D01*
X166988905Y-65342819D02*
X166988905Y-65580914D01*
X166750810Y-65485676D02*
X166988905Y-65580914D01*
X166988905Y-65580914D02*
X167227000Y-65485676D01*
X166846048Y-65771390D02*
X166988905Y-65580914D01*
X166988905Y-65580914D02*
X167131762Y-65771390D01*
X156114666Y-90577819D02*
X156114666Y-91292104D01*
X156114666Y-91292104D02*
X156067047Y-91434961D01*
X156067047Y-91434961D02*
X155971809Y-91530200D01*
X155971809Y-91530200D02*
X155828952Y-91577819D01*
X155828952Y-91577819D02*
X155733714Y-91577819D01*
X157019428Y-90577819D02*
X156828952Y-90577819D01*
X156828952Y-90577819D02*
X156733714Y-90625438D01*
X156733714Y-90625438D02*
X156686095Y-90673057D01*
X156686095Y-90673057D02*
X156590857Y-90815914D01*
X156590857Y-90815914D02*
X156543238Y-91006390D01*
X156543238Y-91006390D02*
X156543238Y-91387342D01*
X156543238Y-91387342D02*
X156590857Y-91482580D01*
X156590857Y-91482580D02*
X156638476Y-91530200D01*
X156638476Y-91530200D02*
X156733714Y-91577819D01*
X156733714Y-91577819D02*
X156924190Y-91577819D01*
X156924190Y-91577819D02*
X157019428Y-91530200D01*
X157019428Y-91530200D02*
X157067047Y-91482580D01*
X157067047Y-91482580D02*
X157114666Y-91387342D01*
X157114666Y-91387342D02*
X157114666Y-91149247D01*
X157114666Y-91149247D02*
X157067047Y-91054009D01*
X157067047Y-91054009D02*
X157019428Y-91006390D01*
X157019428Y-91006390D02*
X156924190Y-90958771D01*
X156924190Y-90958771D02*
X156733714Y-90958771D01*
X156733714Y-90958771D02*
X156638476Y-91006390D01*
X156638476Y-91006390D02*
X156590857Y-91054009D01*
X156590857Y-91054009D02*
X156543238Y-91149247D01*
X172532819Y-71119904D02*
X173342342Y-71119904D01*
X173342342Y-71119904D02*
X173437580Y-71072285D01*
X173437580Y-71072285D02*
X173485200Y-71024666D01*
X173485200Y-71024666D02*
X173532819Y-70929428D01*
X173532819Y-70929428D02*
X173532819Y-70738952D01*
X173532819Y-70738952D02*
X173485200Y-70643714D01*
X173485200Y-70643714D02*
X173437580Y-70596095D01*
X173437580Y-70596095D02*
X173342342Y-70548476D01*
X173342342Y-70548476D02*
X172532819Y-70548476D01*
X173532819Y-69548476D02*
X173532819Y-70119904D01*
X173532819Y-69834190D02*
X172532819Y-69834190D01*
X172532819Y-69834190D02*
X172675676Y-69929428D01*
X172675676Y-69929428D02*
X172770914Y-70024666D01*
X172770914Y-70024666D02*
X172818533Y-70119904D01*
X149798057Y-96996238D02*
X149750438Y-97091476D01*
X149750438Y-97091476D02*
X149655200Y-97186714D01*
X149655200Y-97186714D02*
X149512342Y-97329571D01*
X149512342Y-97329571D02*
X149464723Y-97424809D01*
X149464723Y-97424809D02*
X149464723Y-97520047D01*
X149702819Y-97472428D02*
X149655200Y-97567666D01*
X149655200Y-97567666D02*
X149559961Y-97662904D01*
X149559961Y-97662904D02*
X149369485Y-97710523D01*
X149369485Y-97710523D02*
X149036152Y-97710523D01*
X149036152Y-97710523D02*
X148845676Y-97662904D01*
X148845676Y-97662904D02*
X148750438Y-97567666D01*
X148750438Y-97567666D02*
X148702819Y-97472428D01*
X148702819Y-97472428D02*
X148702819Y-97281952D01*
X148702819Y-97281952D02*
X148750438Y-97186714D01*
X148750438Y-97186714D02*
X148845676Y-97091476D01*
X148845676Y-97091476D02*
X149036152Y-97043857D01*
X149036152Y-97043857D02*
X149369485Y-97043857D01*
X149369485Y-97043857D02*
X149559961Y-97091476D01*
X149559961Y-97091476D02*
X149655200Y-97186714D01*
X149655200Y-97186714D02*
X149702819Y-97281952D01*
X149702819Y-97281952D02*
X149702819Y-97472428D01*
X148702819Y-96186714D02*
X148702819Y-96377190D01*
X148702819Y-96377190D02*
X148750438Y-96472428D01*
X148750438Y-96472428D02*
X148798057Y-96520047D01*
X148798057Y-96520047D02*
X148940914Y-96615285D01*
X148940914Y-96615285D02*
X149131390Y-96662904D01*
X149131390Y-96662904D02*
X149512342Y-96662904D01*
X149512342Y-96662904D02*
X149607580Y-96615285D01*
X149607580Y-96615285D02*
X149655200Y-96567666D01*
X149655200Y-96567666D02*
X149702819Y-96472428D01*
X149702819Y-96472428D02*
X149702819Y-96281952D01*
X149702819Y-96281952D02*
X149655200Y-96186714D01*
X149655200Y-96186714D02*
X149607580Y-96139095D01*
X149607580Y-96139095D02*
X149512342Y-96091476D01*
X149512342Y-96091476D02*
X149274247Y-96091476D01*
X149274247Y-96091476D02*
X149179009Y-96139095D01*
X149179009Y-96139095D02*
X149131390Y-96186714D01*
X149131390Y-96186714D02*
X149083771Y-96281952D01*
X149083771Y-96281952D02*
X149083771Y-96472428D01*
X149083771Y-96472428D02*
X149131390Y-96567666D01*
X149131390Y-96567666D02*
X149179009Y-96615285D01*
X149179009Y-96615285D02*
X149274247Y-96662904D01*
X160575666Y-53302819D02*
X160575666Y-54017104D01*
X160575666Y-54017104D02*
X160528047Y-54159961D01*
X160528047Y-54159961D02*
X160432809Y-54255200D01*
X160432809Y-54255200D02*
X160289952Y-54302819D01*
X160289952Y-54302819D02*
X160194714Y-54302819D01*
X160956619Y-53302819D02*
X161575666Y-53302819D01*
X161575666Y-53302819D02*
X161242333Y-53683771D01*
X161242333Y-53683771D02*
X161385190Y-53683771D01*
X161385190Y-53683771D02*
X161480428Y-53731390D01*
X161480428Y-53731390D02*
X161528047Y-53779009D01*
X161528047Y-53779009D02*
X161575666Y-53874247D01*
X161575666Y-53874247D02*
X161575666Y-54112342D01*
X161575666Y-54112342D02*
X161528047Y-54207580D01*
X161528047Y-54207580D02*
X161480428Y-54255200D01*
X161480428Y-54255200D02*
X161385190Y-54302819D01*
X161385190Y-54302819D02*
X161099476Y-54302819D01*
X161099476Y-54302819D02*
X161004238Y-54255200D01*
X161004238Y-54255200D02*
X160956619Y-54207580D01*
X140409819Y-85256666D02*
X139933628Y-85589999D01*
X140409819Y-85828094D02*
X139409819Y-85828094D01*
X139409819Y-85828094D02*
X139409819Y-85447142D01*
X139409819Y-85447142D02*
X139457438Y-85351904D01*
X139457438Y-85351904D02*
X139505057Y-85304285D01*
X139505057Y-85304285D02*
X139600295Y-85256666D01*
X139600295Y-85256666D02*
X139743152Y-85256666D01*
X139743152Y-85256666D02*
X139838390Y-85304285D01*
X139838390Y-85304285D02*
X139886009Y-85351904D01*
X139886009Y-85351904D02*
X139933628Y-85447142D01*
X139933628Y-85447142D02*
X139933628Y-85828094D01*
X140409819Y-84780475D02*
X140409819Y-84589999D01*
X140409819Y-84589999D02*
X140362200Y-84494761D01*
X140362200Y-84494761D02*
X140314580Y-84447142D01*
X140314580Y-84447142D02*
X140171723Y-84351904D01*
X140171723Y-84351904D02*
X139981247Y-84304285D01*
X139981247Y-84304285D02*
X139600295Y-84304285D01*
X139600295Y-84304285D02*
X139505057Y-84351904D01*
X139505057Y-84351904D02*
X139457438Y-84399523D01*
X139457438Y-84399523D02*
X139409819Y-84494761D01*
X139409819Y-84494761D02*
X139409819Y-84685237D01*
X139409819Y-84685237D02*
X139457438Y-84780475D01*
X139457438Y-84780475D02*
X139505057Y-84828094D01*
X139505057Y-84828094D02*
X139600295Y-84875713D01*
X139600295Y-84875713D02*
X139838390Y-84875713D01*
X139838390Y-84875713D02*
X139933628Y-84828094D01*
X139933628Y-84828094D02*
X139981247Y-84780475D01*
X139981247Y-84780475D02*
X140028866Y-84685237D01*
X140028866Y-84685237D02*
X140028866Y-84494761D01*
X140028866Y-84494761D02*
X139981247Y-84399523D01*
X139981247Y-84399523D02*
X139933628Y-84351904D01*
X139933628Y-84351904D02*
X139838390Y-84304285D01*
X155709905Y-98526819D02*
X155709905Y-97526819D01*
X155709905Y-97526819D02*
X155948000Y-97526819D01*
X155948000Y-97526819D02*
X156090857Y-97574438D01*
X156090857Y-97574438D02*
X156186095Y-97669676D01*
X156186095Y-97669676D02*
X156233714Y-97764914D01*
X156233714Y-97764914D02*
X156281333Y-97955390D01*
X156281333Y-97955390D02*
X156281333Y-98098247D01*
X156281333Y-98098247D02*
X156233714Y-98288723D01*
X156233714Y-98288723D02*
X156186095Y-98383961D01*
X156186095Y-98383961D02*
X156090857Y-98479200D01*
X156090857Y-98479200D02*
X155948000Y-98526819D01*
X155948000Y-98526819D02*
X155709905Y-98526819D01*
X157138476Y-97860152D02*
X157138476Y-98526819D01*
X156900381Y-97479200D02*
X156662286Y-98193485D01*
X156662286Y-98193485D02*
X157281333Y-98193485D01*
X151106095Y-98896819D02*
X151106095Y-97896819D01*
X151677523Y-98896819D02*
X151248952Y-98325390D01*
X151677523Y-97896819D02*
X151106095Y-98468247D01*
X164020666Y-80439819D02*
X163687333Y-79963628D01*
X163449238Y-80439819D02*
X163449238Y-79439819D01*
X163449238Y-79439819D02*
X163830190Y-79439819D01*
X163830190Y-79439819D02*
X163925428Y-79487438D01*
X163925428Y-79487438D02*
X163973047Y-79535057D01*
X163973047Y-79535057D02*
X164020666Y-79630295D01*
X164020666Y-79630295D02*
X164020666Y-79773152D01*
X164020666Y-79773152D02*
X163973047Y-79868390D01*
X163973047Y-79868390D02*
X163925428Y-79916009D01*
X163925428Y-79916009D02*
X163830190Y-79963628D01*
X163830190Y-79963628D02*
X163449238Y-79963628D01*
X164449238Y-79916009D02*
X164782571Y-79916009D01*
X164925428Y-80439819D02*
X164449238Y-80439819D01*
X164449238Y-80439819D02*
X164449238Y-79439819D01*
X164449238Y-79439819D02*
X164925428Y-79439819D01*
X165687333Y-79916009D02*
X165354000Y-79916009D01*
X165354000Y-80439819D02*
X165354000Y-79439819D01*
X165354000Y-79439819D02*
X165830190Y-79439819D01*
X166354000Y-79439819D02*
X166354000Y-79677914D01*
X166115905Y-79582676D02*
X166354000Y-79677914D01*
X166354000Y-79677914D02*
X166592095Y-79582676D01*
X166211143Y-79868390D02*
X166354000Y-79677914D01*
X166354000Y-79677914D02*
X166496857Y-79868390D01*
X167115905Y-79439819D02*
X167115905Y-79677914D01*
X166877810Y-79582676D02*
X167115905Y-79677914D01*
X167115905Y-79677914D02*
X167354000Y-79582676D01*
X166973048Y-79868390D02*
X167115905Y-79677914D01*
X167115905Y-79677914D02*
X167258762Y-79868390D01*
X174924580Y-93937554D02*
X174972200Y-93985173D01*
X174972200Y-93985173D02*
X175019819Y-94128030D01*
X175019819Y-94128030D02*
X175019819Y-94223268D01*
X175019819Y-94223268D02*
X174972200Y-94366125D01*
X174972200Y-94366125D02*
X174876961Y-94461363D01*
X174876961Y-94461363D02*
X174781723Y-94508982D01*
X174781723Y-94508982D02*
X174591247Y-94556601D01*
X174591247Y-94556601D02*
X174448390Y-94556601D01*
X174448390Y-94556601D02*
X174257914Y-94508982D01*
X174257914Y-94508982D02*
X174162676Y-94461363D01*
X174162676Y-94461363D02*
X174067438Y-94366125D01*
X174067438Y-94366125D02*
X174019819Y-94223268D01*
X174019819Y-94223268D02*
X174019819Y-94128030D01*
X174019819Y-94128030D02*
X174067438Y-93985173D01*
X174067438Y-93985173D02*
X174115057Y-93937554D01*
X174353152Y-93080411D02*
X175019819Y-93080411D01*
X173972200Y-93318506D02*
X174686485Y-93556601D01*
X174686485Y-93556601D02*
X174686485Y-92937554D01*
X155709905Y-71729819D02*
X155709905Y-70729819D01*
X155709905Y-70729819D02*
X155948000Y-70729819D01*
X155948000Y-70729819D02*
X156090857Y-70777438D01*
X156090857Y-70777438D02*
X156186095Y-70872676D01*
X156186095Y-70872676D02*
X156233714Y-70967914D01*
X156233714Y-70967914D02*
X156281333Y-71158390D01*
X156281333Y-71158390D02*
X156281333Y-71301247D01*
X156281333Y-71301247D02*
X156233714Y-71491723D01*
X156233714Y-71491723D02*
X156186095Y-71586961D01*
X156186095Y-71586961D02*
X156090857Y-71682200D01*
X156090857Y-71682200D02*
X155948000Y-71729819D01*
X155948000Y-71729819D02*
X155709905Y-71729819D01*
X156662286Y-70825057D02*
X156709905Y-70777438D01*
X156709905Y-70777438D02*
X156805143Y-70729819D01*
X156805143Y-70729819D02*
X157043238Y-70729819D01*
X157043238Y-70729819D02*
X157138476Y-70777438D01*
X157138476Y-70777438D02*
X157186095Y-70825057D01*
X157186095Y-70825057D02*
X157233714Y-70920295D01*
X157233714Y-70920295D02*
X157233714Y-71015533D01*
X157233714Y-71015533D02*
X157186095Y-71158390D01*
X157186095Y-71158390D02*
X156614667Y-71729819D01*
X156614667Y-71729819D02*
X157233714Y-71729819D01*
X151106095Y-72099819D02*
X151106095Y-71099819D01*
X151677523Y-72099819D02*
X151248952Y-71528390D01*
X151677523Y-71099819D02*
X151106095Y-71671247D01*
X179787057Y-80740238D02*
X179739438Y-80835476D01*
X179739438Y-80835476D02*
X179644200Y-80930714D01*
X179644200Y-80930714D02*
X179501342Y-81073571D01*
X179501342Y-81073571D02*
X179453723Y-81168809D01*
X179453723Y-81168809D02*
X179453723Y-81264047D01*
X179691819Y-81216428D02*
X179644200Y-81311666D01*
X179644200Y-81311666D02*
X179548961Y-81406904D01*
X179548961Y-81406904D02*
X179358485Y-81454523D01*
X179358485Y-81454523D02*
X179025152Y-81454523D01*
X179025152Y-81454523D02*
X178834676Y-81406904D01*
X178834676Y-81406904D02*
X178739438Y-81311666D01*
X178739438Y-81311666D02*
X178691819Y-81216428D01*
X178691819Y-81216428D02*
X178691819Y-81025952D01*
X178691819Y-81025952D02*
X178739438Y-80930714D01*
X178739438Y-80930714D02*
X178834676Y-80835476D01*
X178834676Y-80835476D02*
X179025152Y-80787857D01*
X179025152Y-80787857D02*
X179358485Y-80787857D01*
X179358485Y-80787857D02*
X179548961Y-80835476D01*
X179548961Y-80835476D02*
X179644200Y-80930714D01*
X179644200Y-80930714D02*
X179691819Y-81025952D01*
X179691819Y-81025952D02*
X179691819Y-81216428D01*
X179691819Y-79835476D02*
X179691819Y-80406904D01*
X179691819Y-80121190D02*
X178691819Y-80121190D01*
X178691819Y-80121190D02*
X178834676Y-80216428D01*
X178834676Y-80216428D02*
X178929914Y-80311666D01*
X178929914Y-80311666D02*
X178977533Y-80406904D01*
X179787057Y-74263238D02*
X179739438Y-74358476D01*
X179739438Y-74358476D02*
X179644200Y-74453714D01*
X179644200Y-74453714D02*
X179501342Y-74596571D01*
X179501342Y-74596571D02*
X179453723Y-74691809D01*
X179453723Y-74691809D02*
X179453723Y-74787047D01*
X179691819Y-74739428D02*
X179644200Y-74834666D01*
X179644200Y-74834666D02*
X179548961Y-74929904D01*
X179548961Y-74929904D02*
X179358485Y-74977523D01*
X179358485Y-74977523D02*
X179025152Y-74977523D01*
X179025152Y-74977523D02*
X178834676Y-74929904D01*
X178834676Y-74929904D02*
X178739438Y-74834666D01*
X178739438Y-74834666D02*
X178691819Y-74739428D01*
X178691819Y-74739428D02*
X178691819Y-74548952D01*
X178691819Y-74548952D02*
X178739438Y-74453714D01*
X178739438Y-74453714D02*
X178834676Y-74358476D01*
X178834676Y-74358476D02*
X179025152Y-74310857D01*
X179025152Y-74310857D02*
X179358485Y-74310857D01*
X179358485Y-74310857D02*
X179548961Y-74358476D01*
X179548961Y-74358476D02*
X179644200Y-74453714D01*
X179644200Y-74453714D02*
X179691819Y-74548952D01*
X179691819Y-74548952D02*
X179691819Y-74739428D01*
X178787057Y-73929904D02*
X178739438Y-73882285D01*
X178739438Y-73882285D02*
X178691819Y-73787047D01*
X178691819Y-73787047D02*
X178691819Y-73548952D01*
X178691819Y-73548952D02*
X178739438Y-73453714D01*
X178739438Y-73453714D02*
X178787057Y-73406095D01*
X178787057Y-73406095D02*
X178882295Y-73358476D01*
X178882295Y-73358476D02*
X178977533Y-73358476D01*
X178977533Y-73358476D02*
X179120390Y-73406095D01*
X179120390Y-73406095D02*
X179691819Y-73977523D01*
X179691819Y-73977523D02*
X179691819Y-73358476D01*
X170227666Y-103107819D02*
X170227666Y-103822104D01*
X170227666Y-103822104D02*
X170180047Y-103964961D01*
X170180047Y-103964961D02*
X170084809Y-104060200D01*
X170084809Y-104060200D02*
X169941952Y-104107819D01*
X169941952Y-104107819D02*
X169846714Y-104107819D01*
X170656238Y-103203057D02*
X170703857Y-103155438D01*
X170703857Y-103155438D02*
X170799095Y-103107819D01*
X170799095Y-103107819D02*
X171037190Y-103107819D01*
X171037190Y-103107819D02*
X171132428Y-103155438D01*
X171132428Y-103155438D02*
X171180047Y-103203057D01*
X171180047Y-103203057D02*
X171227666Y-103298295D01*
X171227666Y-103298295D02*
X171227666Y-103393533D01*
X171227666Y-103393533D02*
X171180047Y-103536390D01*
X171180047Y-103536390D02*
X170608619Y-104107819D01*
X170608619Y-104107819D02*
X171227666Y-104107819D01*
X140536819Y-99067857D02*
X140060628Y-99401190D01*
X140536819Y-99639285D02*
X139536819Y-99639285D01*
X139536819Y-99639285D02*
X139536819Y-99258333D01*
X139536819Y-99258333D02*
X139584438Y-99163095D01*
X139584438Y-99163095D02*
X139632057Y-99115476D01*
X139632057Y-99115476D02*
X139727295Y-99067857D01*
X139727295Y-99067857D02*
X139870152Y-99067857D01*
X139870152Y-99067857D02*
X139965390Y-99115476D01*
X139965390Y-99115476D02*
X140013009Y-99163095D01*
X140013009Y-99163095D02*
X140060628Y-99258333D01*
X140060628Y-99258333D02*
X140060628Y-99639285D01*
X140536819Y-98115476D02*
X140536819Y-98686904D01*
X140536819Y-98401190D02*
X139536819Y-98401190D01*
X139536819Y-98401190D02*
X139679676Y-98496428D01*
X139679676Y-98496428D02*
X139774914Y-98591666D01*
X139774914Y-98591666D02*
X139822533Y-98686904D01*
X140536819Y-97163095D02*
X140536819Y-97734523D01*
X140536819Y-97448809D02*
X139536819Y-97448809D01*
X139536819Y-97448809D02*
X139679676Y-97544047D01*
X139679676Y-97544047D02*
X139774914Y-97639285D01*
X139774914Y-97639285D02*
X139822533Y-97734523D01*
X155709905Y-58267819D02*
X155709905Y-57267819D01*
X155709905Y-57267819D02*
X155948000Y-57267819D01*
X155948000Y-57267819D02*
X156090857Y-57315438D01*
X156090857Y-57315438D02*
X156186095Y-57410676D01*
X156186095Y-57410676D02*
X156233714Y-57505914D01*
X156233714Y-57505914D02*
X156281333Y-57696390D01*
X156281333Y-57696390D02*
X156281333Y-57839247D01*
X156281333Y-57839247D02*
X156233714Y-58029723D01*
X156233714Y-58029723D02*
X156186095Y-58124961D01*
X156186095Y-58124961D02*
X156090857Y-58220200D01*
X156090857Y-58220200D02*
X155948000Y-58267819D01*
X155948000Y-58267819D02*
X155709905Y-58267819D01*
X157233714Y-58267819D02*
X156662286Y-58267819D01*
X156948000Y-58267819D02*
X156948000Y-57267819D01*
X156948000Y-57267819D02*
X156852762Y-57410676D01*
X156852762Y-57410676D02*
X156757524Y-57505914D01*
X156757524Y-57505914D02*
X156662286Y-57553533D01*
X151106095Y-58637819D02*
X151106095Y-57637819D01*
X151677523Y-58637819D02*
X151248952Y-58066390D01*
X151677523Y-57637819D02*
X151106095Y-58209247D01*
X138493666Y-50721819D02*
X138160333Y-50245628D01*
X137922238Y-50721819D02*
X137922238Y-49721819D01*
X137922238Y-49721819D02*
X138303190Y-49721819D01*
X138303190Y-49721819D02*
X138398428Y-49769438D01*
X138398428Y-49769438D02*
X138446047Y-49817057D01*
X138446047Y-49817057D02*
X138493666Y-49912295D01*
X138493666Y-49912295D02*
X138493666Y-50055152D01*
X138493666Y-50055152D02*
X138446047Y-50150390D01*
X138446047Y-50150390D02*
X138398428Y-50198009D01*
X138398428Y-50198009D02*
X138303190Y-50245628D01*
X138303190Y-50245628D02*
X137922238Y-50245628D01*
X138922238Y-50198009D02*
X139255571Y-50198009D01*
X139398428Y-50721819D02*
X138922238Y-50721819D01*
X138922238Y-50721819D02*
X138922238Y-49721819D01*
X138922238Y-49721819D02*
X139398428Y-49721819D01*
X140160333Y-50198009D02*
X139827000Y-50198009D01*
X139827000Y-50721819D02*
X139827000Y-49721819D01*
X139827000Y-49721819D02*
X140303190Y-49721819D01*
X140827000Y-49721819D02*
X140827000Y-49959914D01*
X140588905Y-49864676D02*
X140827000Y-49959914D01*
X140827000Y-49959914D02*
X141065095Y-49864676D01*
X140684143Y-50150390D02*
X140827000Y-49959914D01*
X140827000Y-49959914D02*
X140969857Y-50150390D01*
X141588905Y-49721819D02*
X141588905Y-49959914D01*
X141350810Y-49864676D02*
X141588905Y-49959914D01*
X141588905Y-49959914D02*
X141827000Y-49864676D01*
X141446048Y-50150390D02*
X141588905Y-49959914D01*
X141588905Y-49959914D02*
X141731762Y-50150390D01*
X140282819Y-71794666D02*
X139806628Y-72127999D01*
X140282819Y-72366094D02*
X139282819Y-72366094D01*
X139282819Y-72366094D02*
X139282819Y-71985142D01*
X139282819Y-71985142D02*
X139330438Y-71889904D01*
X139330438Y-71889904D02*
X139378057Y-71842285D01*
X139378057Y-71842285D02*
X139473295Y-71794666D01*
X139473295Y-71794666D02*
X139616152Y-71794666D01*
X139616152Y-71794666D02*
X139711390Y-71842285D01*
X139711390Y-71842285D02*
X139759009Y-71889904D01*
X139759009Y-71889904D02*
X139806628Y-71985142D01*
X139806628Y-71985142D02*
X139806628Y-72366094D01*
X139282819Y-71461332D02*
X139282819Y-70794666D01*
X139282819Y-70794666D02*
X140282819Y-71223237D01*
X182332333Y-65224819D02*
X181999000Y-64748628D01*
X181760905Y-65224819D02*
X181760905Y-64224819D01*
X181760905Y-64224819D02*
X182141857Y-64224819D01*
X182141857Y-64224819D02*
X182237095Y-64272438D01*
X182237095Y-64272438D02*
X182284714Y-64320057D01*
X182284714Y-64320057D02*
X182332333Y-64415295D01*
X182332333Y-64415295D02*
X182332333Y-64558152D01*
X182332333Y-64558152D02*
X182284714Y-64653390D01*
X182284714Y-64653390D02*
X182237095Y-64701009D01*
X182237095Y-64701009D02*
X182141857Y-64748628D01*
X182141857Y-64748628D02*
X181760905Y-64748628D01*
X183284714Y-65224819D02*
X182713286Y-65224819D01*
X182999000Y-65224819D02*
X182999000Y-64224819D01*
X182999000Y-64224819D02*
X182903762Y-64367676D01*
X182903762Y-64367676D02*
X182808524Y-64462914D01*
X182808524Y-64462914D02*
X182713286Y-64510533D01*
X149671057Y-56737238D02*
X149623438Y-56832476D01*
X149623438Y-56832476D02*
X149528200Y-56927714D01*
X149528200Y-56927714D02*
X149385342Y-57070571D01*
X149385342Y-57070571D02*
X149337723Y-57165809D01*
X149337723Y-57165809D02*
X149337723Y-57261047D01*
X149575819Y-57213428D02*
X149528200Y-57308666D01*
X149528200Y-57308666D02*
X149432961Y-57403904D01*
X149432961Y-57403904D02*
X149242485Y-57451523D01*
X149242485Y-57451523D02*
X148909152Y-57451523D01*
X148909152Y-57451523D02*
X148718676Y-57403904D01*
X148718676Y-57403904D02*
X148623438Y-57308666D01*
X148623438Y-57308666D02*
X148575819Y-57213428D01*
X148575819Y-57213428D02*
X148575819Y-57022952D01*
X148575819Y-57022952D02*
X148623438Y-56927714D01*
X148623438Y-56927714D02*
X148718676Y-56832476D01*
X148718676Y-56832476D02*
X148909152Y-56784857D01*
X148909152Y-56784857D02*
X149242485Y-56784857D01*
X149242485Y-56784857D02*
X149432961Y-56832476D01*
X149432961Y-56832476D02*
X149528200Y-56927714D01*
X149528200Y-56927714D02*
X149575819Y-57022952D01*
X149575819Y-57022952D02*
X149575819Y-57213428D01*
X148575819Y-56451523D02*
X148575819Y-55832476D01*
X148575819Y-55832476D02*
X148956771Y-56165809D01*
X148956771Y-56165809D02*
X148956771Y-56022952D01*
X148956771Y-56022952D02*
X149004390Y-55927714D01*
X149004390Y-55927714D02*
X149052009Y-55880095D01*
X149052009Y-55880095D02*
X149147247Y-55832476D01*
X149147247Y-55832476D02*
X149385342Y-55832476D01*
X149385342Y-55832476D02*
X149480580Y-55880095D01*
X149480580Y-55880095D02*
X149528200Y-55927714D01*
X149528200Y-55927714D02*
X149575819Y-56022952D01*
X149575819Y-56022952D02*
X149575819Y-56308666D01*
X149575819Y-56308666D02*
X149528200Y-56403904D01*
X149528200Y-56403904D02*
X149480580Y-56451523D01*
X169164095Y-51905819D02*
X169164095Y-52715342D01*
X169164095Y-52715342D02*
X169211714Y-52810580D01*
X169211714Y-52810580D02*
X169259333Y-52858200D01*
X169259333Y-52858200D02*
X169354571Y-52905819D01*
X169354571Y-52905819D02*
X169545047Y-52905819D01*
X169545047Y-52905819D02*
X169640285Y-52858200D01*
X169640285Y-52858200D02*
X169687904Y-52810580D01*
X169687904Y-52810580D02*
X169735523Y-52715342D01*
X169735523Y-52715342D02*
X169735523Y-51905819D01*
X170116476Y-51905819D02*
X170735523Y-51905819D01*
X170735523Y-51905819D02*
X170402190Y-52286771D01*
X170402190Y-52286771D02*
X170545047Y-52286771D01*
X170545047Y-52286771D02*
X170640285Y-52334390D01*
X170640285Y-52334390D02*
X170687904Y-52382009D01*
X170687904Y-52382009D02*
X170735523Y-52477247D01*
X170735523Y-52477247D02*
X170735523Y-52715342D01*
X170735523Y-52715342D02*
X170687904Y-52810580D01*
X170687904Y-52810580D02*
X170640285Y-52858200D01*
X170640285Y-52858200D02*
X170545047Y-52905819D01*
X170545047Y-52905819D02*
X170259333Y-52905819D01*
X170259333Y-52905819D02*
X170164095Y-52858200D01*
X170164095Y-52858200D02*
X170116476Y-52810580D01*
X181149666Y-103107819D02*
X181149666Y-103822104D01*
X181149666Y-103822104D02*
X181102047Y-103964961D01*
X181102047Y-103964961D02*
X181006809Y-104060200D01*
X181006809Y-104060200D02*
X180863952Y-104107819D01*
X180863952Y-104107819D02*
X180768714Y-104107819D01*
X182149666Y-104107819D02*
X181578238Y-104107819D01*
X181863952Y-104107819D02*
X181863952Y-103107819D01*
X181863952Y-103107819D02*
X181768714Y-103250676D01*
X181768714Y-103250676D02*
X181673476Y-103345914D01*
X181673476Y-103345914D02*
X181578238Y-103393533D01*
X182332333Y-68781819D02*
X181999000Y-68305628D01*
X181760905Y-68781819D02*
X181760905Y-67781819D01*
X181760905Y-67781819D02*
X182141857Y-67781819D01*
X182141857Y-67781819D02*
X182237095Y-67829438D01*
X182237095Y-67829438D02*
X182284714Y-67877057D01*
X182284714Y-67877057D02*
X182332333Y-67972295D01*
X182332333Y-67972295D02*
X182332333Y-68115152D01*
X182332333Y-68115152D02*
X182284714Y-68210390D01*
X182284714Y-68210390D02*
X182237095Y-68258009D01*
X182237095Y-68258009D02*
X182141857Y-68305628D01*
X182141857Y-68305628D02*
X181760905Y-68305628D01*
X182713286Y-67877057D02*
X182760905Y-67829438D01*
X182760905Y-67829438D02*
X182856143Y-67781819D01*
X182856143Y-67781819D02*
X183094238Y-67781819D01*
X183094238Y-67781819D02*
X183189476Y-67829438D01*
X183189476Y-67829438D02*
X183237095Y-67877057D01*
X183237095Y-67877057D02*
X183284714Y-67972295D01*
X183284714Y-67972295D02*
X183284714Y-68067533D01*
X183284714Y-68067533D02*
X183237095Y-68210390D01*
X183237095Y-68210390D02*
X182665667Y-68781819D01*
X182665667Y-68781819D02*
X183284714Y-68781819D01*
X166965333Y-54682819D02*
X166632000Y-54206628D01*
X166393905Y-54682819D02*
X166393905Y-53682819D01*
X166393905Y-53682819D02*
X166774857Y-53682819D01*
X166774857Y-53682819D02*
X166870095Y-53730438D01*
X166870095Y-53730438D02*
X166917714Y-53778057D01*
X166917714Y-53778057D02*
X166965333Y-53873295D01*
X166965333Y-53873295D02*
X166965333Y-54016152D01*
X166965333Y-54016152D02*
X166917714Y-54111390D01*
X166917714Y-54111390D02*
X166870095Y-54159009D01*
X166870095Y-54159009D02*
X166774857Y-54206628D01*
X166774857Y-54206628D02*
X166393905Y-54206628D01*
X167822476Y-54016152D02*
X167822476Y-54682819D01*
X167584381Y-53635200D02*
X167346286Y-54349485D01*
X167346286Y-54349485D02*
X167965333Y-54349485D01*
X172635446Y-83484580D02*
X172587827Y-83532200D01*
X172587827Y-83532200D02*
X172444970Y-83579819D01*
X172444970Y-83579819D02*
X172349732Y-83579819D01*
X172349732Y-83579819D02*
X172206875Y-83532200D01*
X172206875Y-83532200D02*
X172111637Y-83436961D01*
X172111637Y-83436961D02*
X172064018Y-83341723D01*
X172064018Y-83341723D02*
X172016399Y-83151247D01*
X172016399Y-83151247D02*
X172016399Y-83008390D01*
X172016399Y-83008390D02*
X172064018Y-82817914D01*
X172064018Y-82817914D02*
X172111637Y-82722676D01*
X172111637Y-82722676D02*
X172206875Y-82627438D01*
X172206875Y-82627438D02*
X172349732Y-82579819D01*
X172349732Y-82579819D02*
X172444970Y-82579819D01*
X172444970Y-82579819D02*
X172587827Y-82627438D01*
X172587827Y-82627438D02*
X172635446Y-82675057D01*
X173016399Y-82675057D02*
X173064018Y-82627438D01*
X173064018Y-82627438D02*
X173159256Y-82579819D01*
X173159256Y-82579819D02*
X173397351Y-82579819D01*
X173397351Y-82579819D02*
X173492589Y-82627438D01*
X173492589Y-82627438D02*
X173540208Y-82675057D01*
X173540208Y-82675057D02*
X173587827Y-82770295D01*
X173587827Y-82770295D02*
X173587827Y-82865533D01*
X173587827Y-82865533D02*
X173540208Y-83008390D01*
X173540208Y-83008390D02*
X172968780Y-83579819D01*
X172968780Y-83579819D02*
X173587827Y-83579819D01*
X149798057Y-83661238D02*
X149750438Y-83756476D01*
X149750438Y-83756476D02*
X149655200Y-83851714D01*
X149655200Y-83851714D02*
X149512342Y-83994571D01*
X149512342Y-83994571D02*
X149464723Y-84089809D01*
X149464723Y-84089809D02*
X149464723Y-84185047D01*
X149702819Y-84137428D02*
X149655200Y-84232666D01*
X149655200Y-84232666D02*
X149559961Y-84327904D01*
X149559961Y-84327904D02*
X149369485Y-84375523D01*
X149369485Y-84375523D02*
X149036152Y-84375523D01*
X149036152Y-84375523D02*
X148845676Y-84327904D01*
X148845676Y-84327904D02*
X148750438Y-84232666D01*
X148750438Y-84232666D02*
X148702819Y-84137428D01*
X148702819Y-84137428D02*
X148702819Y-83946952D01*
X148702819Y-83946952D02*
X148750438Y-83851714D01*
X148750438Y-83851714D02*
X148845676Y-83756476D01*
X148845676Y-83756476D02*
X149036152Y-83708857D01*
X149036152Y-83708857D02*
X149369485Y-83708857D01*
X149369485Y-83708857D02*
X149559961Y-83756476D01*
X149559961Y-83756476D02*
X149655200Y-83851714D01*
X149655200Y-83851714D02*
X149702819Y-83946952D01*
X149702819Y-83946952D02*
X149702819Y-84137428D01*
X148702819Y-82804095D02*
X148702819Y-83280285D01*
X148702819Y-83280285D02*
X149179009Y-83327904D01*
X149179009Y-83327904D02*
X149131390Y-83280285D01*
X149131390Y-83280285D02*
X149083771Y-83185047D01*
X149083771Y-83185047D02*
X149083771Y-82946952D01*
X149083771Y-82946952D02*
X149131390Y-82851714D01*
X149131390Y-82851714D02*
X149179009Y-82804095D01*
X149179009Y-82804095D02*
X149274247Y-82756476D01*
X149274247Y-82756476D02*
X149512342Y-82756476D01*
X149512342Y-82756476D02*
X149607580Y-82804095D01*
X149607580Y-82804095D02*
X149655200Y-82851714D01*
X149655200Y-82851714D02*
X149702819Y-82946952D01*
X149702819Y-82946952D02*
X149702819Y-83185047D01*
X149702819Y-83185047D02*
X149655200Y-83280285D01*
X149655200Y-83280285D02*
X149607580Y-83327904D01*
X155709905Y-85191819D02*
X155709905Y-84191819D01*
X155709905Y-84191819D02*
X155948000Y-84191819D01*
X155948000Y-84191819D02*
X156090857Y-84239438D01*
X156090857Y-84239438D02*
X156186095Y-84334676D01*
X156186095Y-84334676D02*
X156233714Y-84429914D01*
X156233714Y-84429914D02*
X156281333Y-84620390D01*
X156281333Y-84620390D02*
X156281333Y-84763247D01*
X156281333Y-84763247D02*
X156233714Y-84953723D01*
X156233714Y-84953723D02*
X156186095Y-85048961D01*
X156186095Y-85048961D02*
X156090857Y-85144200D01*
X156090857Y-85144200D02*
X155948000Y-85191819D01*
X155948000Y-85191819D02*
X155709905Y-85191819D01*
X156614667Y-84191819D02*
X157233714Y-84191819D01*
X157233714Y-84191819D02*
X156900381Y-84572771D01*
X156900381Y-84572771D02*
X157043238Y-84572771D01*
X157043238Y-84572771D02*
X157138476Y-84620390D01*
X157138476Y-84620390D02*
X157186095Y-84668009D01*
X157186095Y-84668009D02*
X157233714Y-84763247D01*
X157233714Y-84763247D02*
X157233714Y-85001342D01*
X157233714Y-85001342D02*
X157186095Y-85096580D01*
X157186095Y-85096580D02*
X157138476Y-85144200D01*
X157138476Y-85144200D02*
X157043238Y-85191819D01*
X157043238Y-85191819D02*
X156757524Y-85191819D01*
X156757524Y-85191819D02*
X156662286Y-85144200D01*
X156662286Y-85144200D02*
X156614667Y-85096580D01*
X151106095Y-85561819D02*
X151106095Y-84561819D01*
X151677523Y-85561819D02*
X151248952Y-84990390D01*
X151677523Y-84561819D02*
X151106095Y-85133247D01*
X156098666Y-63822819D02*
X156098666Y-64537104D01*
X156098666Y-64537104D02*
X156051047Y-64679961D01*
X156051047Y-64679961D02*
X155955809Y-64775200D01*
X155955809Y-64775200D02*
X155812952Y-64822819D01*
X155812952Y-64822819D02*
X155717714Y-64822819D01*
X157003428Y-64156152D02*
X157003428Y-64822819D01*
X156765333Y-63775200D02*
X156527238Y-64489485D01*
X156527238Y-64489485D02*
X157146285Y-64489485D01*
X166981333Y-78304819D02*
X166648000Y-77828628D01*
X166409905Y-78304819D02*
X166409905Y-77304819D01*
X166409905Y-77304819D02*
X166790857Y-77304819D01*
X166790857Y-77304819D02*
X166886095Y-77352438D01*
X166886095Y-77352438D02*
X166933714Y-77400057D01*
X166933714Y-77400057D02*
X166981333Y-77495295D01*
X166981333Y-77495295D02*
X166981333Y-77638152D01*
X166981333Y-77638152D02*
X166933714Y-77733390D01*
X166933714Y-77733390D02*
X166886095Y-77781009D01*
X166886095Y-77781009D02*
X166790857Y-77828628D01*
X166790857Y-77828628D02*
X166409905Y-77828628D01*
X167552762Y-77733390D02*
X167457524Y-77685771D01*
X167457524Y-77685771D02*
X167409905Y-77638152D01*
X167409905Y-77638152D02*
X167362286Y-77542914D01*
X167362286Y-77542914D02*
X167362286Y-77495295D01*
X167362286Y-77495295D02*
X167409905Y-77400057D01*
X167409905Y-77400057D02*
X167457524Y-77352438D01*
X167457524Y-77352438D02*
X167552762Y-77304819D01*
X167552762Y-77304819D02*
X167743238Y-77304819D01*
X167743238Y-77304819D02*
X167838476Y-77352438D01*
X167838476Y-77352438D02*
X167886095Y-77400057D01*
X167886095Y-77400057D02*
X167933714Y-77495295D01*
X167933714Y-77495295D02*
X167933714Y-77542914D01*
X167933714Y-77542914D02*
X167886095Y-77638152D01*
X167886095Y-77638152D02*
X167838476Y-77685771D01*
X167838476Y-77685771D02*
X167743238Y-77733390D01*
X167743238Y-77733390D02*
X167552762Y-77733390D01*
X167552762Y-77733390D02*
X167457524Y-77781009D01*
X167457524Y-77781009D02*
X167409905Y-77828628D01*
X167409905Y-77828628D02*
X167362286Y-77923866D01*
X167362286Y-77923866D02*
X167362286Y-78114342D01*
X167362286Y-78114342D02*
X167409905Y-78209580D01*
X167409905Y-78209580D02*
X167457524Y-78257200D01*
X167457524Y-78257200D02*
X167552762Y-78304819D01*
X167552762Y-78304819D02*
X167743238Y-78304819D01*
X167743238Y-78304819D02*
X167838476Y-78257200D01*
X167838476Y-78257200D02*
X167886095Y-78209580D01*
X167886095Y-78209580D02*
X167933714Y-78114342D01*
X167933714Y-78114342D02*
X167933714Y-77923866D01*
X167933714Y-77923866D02*
X167886095Y-77828628D01*
X167886095Y-77828628D02*
X167838476Y-77781009D01*
X167838476Y-77781009D02*
X167743238Y-77733390D01*
X163949142Y-92020819D02*
X163615809Y-91544628D01*
X163377714Y-92020819D02*
X163377714Y-91020819D01*
X163377714Y-91020819D02*
X163758666Y-91020819D01*
X163758666Y-91020819D02*
X163853904Y-91068438D01*
X163853904Y-91068438D02*
X163901523Y-91116057D01*
X163901523Y-91116057D02*
X163949142Y-91211295D01*
X163949142Y-91211295D02*
X163949142Y-91354152D01*
X163949142Y-91354152D02*
X163901523Y-91449390D01*
X163901523Y-91449390D02*
X163853904Y-91497009D01*
X163853904Y-91497009D02*
X163758666Y-91544628D01*
X163758666Y-91544628D02*
X163377714Y-91544628D01*
X164901523Y-92020819D02*
X164330095Y-92020819D01*
X164615809Y-92020819D02*
X164615809Y-91020819D01*
X164615809Y-91020819D02*
X164520571Y-91163676D01*
X164520571Y-91163676D02*
X164425333Y-91258914D01*
X164425333Y-91258914D02*
X164330095Y-91306533D01*
X165520571Y-91020819D02*
X165615809Y-91020819D01*
X165615809Y-91020819D02*
X165711047Y-91068438D01*
X165711047Y-91068438D02*
X165758666Y-91116057D01*
X165758666Y-91116057D02*
X165806285Y-91211295D01*
X165806285Y-91211295D02*
X165853904Y-91401771D01*
X165853904Y-91401771D02*
X165853904Y-91639866D01*
X165853904Y-91639866D02*
X165806285Y-91830342D01*
X165806285Y-91830342D02*
X165758666Y-91925580D01*
X165758666Y-91925580D02*
X165711047Y-91973200D01*
X165711047Y-91973200D02*
X165615809Y-92020819D01*
X165615809Y-92020819D02*
X165520571Y-92020819D01*
X165520571Y-92020819D02*
X165425333Y-91973200D01*
X165425333Y-91973200D02*
X165377714Y-91925580D01*
X165377714Y-91925580D02*
X165330095Y-91830342D01*
X165330095Y-91830342D02*
X165282476Y-91639866D01*
X165282476Y-91639866D02*
X165282476Y-91401771D01*
X165282476Y-91401771D02*
X165330095Y-91211295D01*
X165330095Y-91211295D02*
X165377714Y-91116057D01*
X165377714Y-91116057D02*
X165425333Y-91068438D01*
X165425333Y-91068438D02*
X165520571Y-91020819D01*
X156114666Y-77242819D02*
X156114666Y-77957104D01*
X156114666Y-77957104D02*
X156067047Y-78099961D01*
X156067047Y-78099961D02*
X155971809Y-78195200D01*
X155971809Y-78195200D02*
X155828952Y-78242819D01*
X155828952Y-78242819D02*
X155733714Y-78242819D01*
X157067047Y-77242819D02*
X156590857Y-77242819D01*
X156590857Y-77242819D02*
X156543238Y-77719009D01*
X156543238Y-77719009D02*
X156590857Y-77671390D01*
X156590857Y-77671390D02*
X156686095Y-77623771D01*
X156686095Y-77623771D02*
X156924190Y-77623771D01*
X156924190Y-77623771D02*
X157019428Y-77671390D01*
X157019428Y-77671390D02*
X157067047Y-77719009D01*
X157067047Y-77719009D02*
X157114666Y-77814247D01*
X157114666Y-77814247D02*
X157114666Y-78052342D01*
X157114666Y-78052342D02*
X157067047Y-78147580D01*
X157067047Y-78147580D02*
X157019428Y-78195200D01*
X157019428Y-78195200D02*
X156924190Y-78242819D01*
X156924190Y-78242819D02*
X156686095Y-78242819D01*
X156686095Y-78242819D02*
X156590857Y-78195200D01*
X156590857Y-78195200D02*
X156543238Y-78147580D01*
X182586333Y-58144580D02*
X182538714Y-58192200D01*
X182538714Y-58192200D02*
X182395857Y-58239819D01*
X182395857Y-58239819D02*
X182300619Y-58239819D01*
X182300619Y-58239819D02*
X182157762Y-58192200D01*
X182157762Y-58192200D02*
X182062524Y-58096961D01*
X182062524Y-58096961D02*
X182014905Y-58001723D01*
X182014905Y-58001723D02*
X181967286Y-57811247D01*
X181967286Y-57811247D02*
X181967286Y-57668390D01*
X181967286Y-57668390D02*
X182014905Y-57477914D01*
X182014905Y-57477914D02*
X182062524Y-57382676D01*
X182062524Y-57382676D02*
X182157762Y-57287438D01*
X182157762Y-57287438D02*
X182300619Y-57239819D01*
X182300619Y-57239819D02*
X182395857Y-57239819D01*
X182395857Y-57239819D02*
X182538714Y-57287438D01*
X182538714Y-57287438D02*
X182586333Y-57335057D01*
X182919667Y-57239819D02*
X183538714Y-57239819D01*
X183538714Y-57239819D02*
X183205381Y-57620771D01*
X183205381Y-57620771D02*
X183348238Y-57620771D01*
X183348238Y-57620771D02*
X183443476Y-57668390D01*
X183443476Y-57668390D02*
X183491095Y-57716009D01*
X183491095Y-57716009D02*
X183538714Y-57811247D01*
X183538714Y-57811247D02*
X183538714Y-58049342D01*
X183538714Y-58049342D02*
X183491095Y-58144580D01*
X183491095Y-58144580D02*
X183443476Y-58192200D01*
X183443476Y-58192200D02*
X183348238Y-58239819D01*
X183348238Y-58239819D02*
X183062524Y-58239819D01*
X183062524Y-58239819D02*
X182967286Y-58192200D01*
X182967286Y-58192200D02*
X182919667Y-58144580D01*
X140282819Y-58332666D02*
X139806628Y-58665999D01*
X140282819Y-58904094D02*
X139282819Y-58904094D01*
X139282819Y-58904094D02*
X139282819Y-58523142D01*
X139282819Y-58523142D02*
X139330438Y-58427904D01*
X139330438Y-58427904D02*
X139378057Y-58380285D01*
X139378057Y-58380285D02*
X139473295Y-58332666D01*
X139473295Y-58332666D02*
X139616152Y-58332666D01*
X139616152Y-58332666D02*
X139711390Y-58380285D01*
X139711390Y-58380285D02*
X139759009Y-58427904D01*
X139759009Y-58427904D02*
X139806628Y-58523142D01*
X139806628Y-58523142D02*
X139806628Y-58904094D01*
X139282819Y-57427904D02*
X139282819Y-57904094D01*
X139282819Y-57904094D02*
X139759009Y-57951713D01*
X139759009Y-57951713D02*
X139711390Y-57904094D01*
X139711390Y-57904094D02*
X139663771Y-57808856D01*
X139663771Y-57808856D02*
X139663771Y-57570761D01*
X139663771Y-57570761D02*
X139711390Y-57475523D01*
X139711390Y-57475523D02*
X139759009Y-57427904D01*
X139759009Y-57427904D02*
X139854247Y-57380285D01*
X139854247Y-57380285D02*
X140092342Y-57380285D01*
X140092342Y-57380285D02*
X140187580Y-57427904D01*
X140187580Y-57427904D02*
X140235200Y-57475523D01*
X140235200Y-57475523D02*
X140282819Y-57570761D01*
X140282819Y-57570761D02*
X140282819Y-57808856D01*
X140282819Y-57808856D02*
X140235200Y-57904094D01*
X140235200Y-57904094D02*
X140187580Y-57951713D01*
X149671057Y-70199238D02*
X149623438Y-70294476D01*
X149623438Y-70294476D02*
X149528200Y-70389714D01*
X149528200Y-70389714D02*
X149385342Y-70532571D01*
X149385342Y-70532571D02*
X149337723Y-70627809D01*
X149337723Y-70627809D02*
X149337723Y-70723047D01*
X149575819Y-70675428D02*
X149528200Y-70770666D01*
X149528200Y-70770666D02*
X149432961Y-70865904D01*
X149432961Y-70865904D02*
X149242485Y-70913523D01*
X149242485Y-70913523D02*
X148909152Y-70913523D01*
X148909152Y-70913523D02*
X148718676Y-70865904D01*
X148718676Y-70865904D02*
X148623438Y-70770666D01*
X148623438Y-70770666D02*
X148575819Y-70675428D01*
X148575819Y-70675428D02*
X148575819Y-70484952D01*
X148575819Y-70484952D02*
X148623438Y-70389714D01*
X148623438Y-70389714D02*
X148718676Y-70294476D01*
X148718676Y-70294476D02*
X148909152Y-70246857D01*
X148909152Y-70246857D02*
X149242485Y-70246857D01*
X149242485Y-70246857D02*
X149432961Y-70294476D01*
X149432961Y-70294476D02*
X149528200Y-70389714D01*
X149528200Y-70389714D02*
X149575819Y-70484952D01*
X149575819Y-70484952D02*
X149575819Y-70675428D01*
X148909152Y-69389714D02*
X149575819Y-69389714D01*
X148528200Y-69627809D02*
X149242485Y-69865904D01*
X149242485Y-69865904D02*
X149242485Y-69246857D01*
X166965333Y-64842819D02*
X166632000Y-64366628D01*
X166393905Y-64842819D02*
X166393905Y-63842819D01*
X166393905Y-63842819D02*
X166774857Y-63842819D01*
X166774857Y-63842819D02*
X166870095Y-63890438D01*
X166870095Y-63890438D02*
X166917714Y-63938057D01*
X166917714Y-63938057D02*
X166965333Y-64033295D01*
X166965333Y-64033295D02*
X166965333Y-64176152D01*
X166965333Y-64176152D02*
X166917714Y-64271390D01*
X166917714Y-64271390D02*
X166870095Y-64319009D01*
X166870095Y-64319009D02*
X166774857Y-64366628D01*
X166774857Y-64366628D02*
X166393905Y-64366628D01*
X167822476Y-63842819D02*
X167632000Y-63842819D01*
X167632000Y-63842819D02*
X167536762Y-63890438D01*
X167536762Y-63890438D02*
X167489143Y-63938057D01*
X167489143Y-63938057D02*
X167393905Y-64080914D01*
X167393905Y-64080914D02*
X167346286Y-64271390D01*
X167346286Y-64271390D02*
X167346286Y-64652342D01*
X167346286Y-64652342D02*
X167393905Y-64747580D01*
X167393905Y-64747580D02*
X167441524Y-64795200D01*
X167441524Y-64795200D02*
X167536762Y-64842819D01*
X167536762Y-64842819D02*
X167727238Y-64842819D01*
X167727238Y-64842819D02*
X167822476Y-64795200D01*
X167822476Y-64795200D02*
X167870095Y-64747580D01*
X167870095Y-64747580D02*
X167917714Y-64652342D01*
X167917714Y-64652342D02*
X167917714Y-64414247D01*
X167917714Y-64414247D02*
X167870095Y-64319009D01*
X167870095Y-64319009D02*
X167822476Y-64271390D01*
X167822476Y-64271390D02*
X167727238Y-64223771D01*
X167727238Y-64223771D02*
X167536762Y-64223771D01*
X167536762Y-64223771D02*
X167441524Y-64271390D01*
X167441524Y-64271390D02*
X167393905Y-64319009D01*
X167393905Y-64319009D02*
X167346286Y-64414247D01*
X172532819Y-88518904D02*
X173342342Y-88518904D01*
X173342342Y-88518904D02*
X173437580Y-88471285D01*
X173437580Y-88471285D02*
X173485200Y-88423666D01*
X173485200Y-88423666D02*
X173532819Y-88328428D01*
X173532819Y-88328428D02*
X173532819Y-88137952D01*
X173532819Y-88137952D02*
X173485200Y-88042714D01*
X173485200Y-88042714D02*
X173437580Y-87995095D01*
X173437580Y-87995095D02*
X173342342Y-87947476D01*
X173342342Y-87947476D02*
X172532819Y-87947476D01*
X172628057Y-87518904D02*
X172580438Y-87471285D01*
X172580438Y-87471285D02*
X172532819Y-87376047D01*
X172532819Y-87376047D02*
X172532819Y-87137952D01*
X172532819Y-87137952D02*
X172580438Y-87042714D01*
X172580438Y-87042714D02*
X172628057Y-86995095D01*
X172628057Y-86995095D02*
X172723295Y-86947476D01*
X172723295Y-86947476D02*
X172818533Y-86947476D01*
X172818533Y-86947476D02*
X172961390Y-86995095D01*
X172961390Y-86995095D02*
X173532819Y-87566523D01*
X173532819Y-87566523D02*
X173532819Y-86947476D01*
X178832009Y-95075333D02*
X178832009Y-95408666D01*
X179355819Y-95408666D02*
X178355819Y-95408666D01*
X178355819Y-95408666D02*
X178355819Y-94932476D01*
X179355819Y-94027714D02*
X179355819Y-94599142D01*
X179355819Y-94313428D02*
X178355819Y-94313428D01*
X178355819Y-94313428D02*
X178498676Y-94408666D01*
X178498676Y-94408666D02*
X178593914Y-94503904D01*
X178593914Y-94503904D02*
X178641533Y-94599142D01*
X179525819Y-55665666D02*
X179049628Y-55998999D01*
X179525819Y-56237094D02*
X178525819Y-56237094D01*
X178525819Y-56237094D02*
X178525819Y-55856142D01*
X178525819Y-55856142D02*
X178573438Y-55760904D01*
X178573438Y-55760904D02*
X178621057Y-55713285D01*
X178621057Y-55713285D02*
X178716295Y-55665666D01*
X178716295Y-55665666D02*
X178859152Y-55665666D01*
X178859152Y-55665666D02*
X178954390Y-55713285D01*
X178954390Y-55713285D02*
X179002009Y-55760904D01*
X179002009Y-55760904D02*
X179049628Y-55856142D01*
X179049628Y-55856142D02*
X179049628Y-56237094D01*
X178525819Y-55332332D02*
X178525819Y-54713285D01*
X178525819Y-54713285D02*
X178906771Y-55046618D01*
X178906771Y-55046618D02*
X178906771Y-54903761D01*
X178906771Y-54903761D02*
X178954390Y-54808523D01*
X178954390Y-54808523D02*
X179002009Y-54760904D01*
X179002009Y-54760904D02*
X179097247Y-54713285D01*
X179097247Y-54713285D02*
X179335342Y-54713285D01*
X179335342Y-54713285D02*
X179430580Y-54760904D01*
X179430580Y-54760904D02*
X179478200Y-54808523D01*
X179478200Y-54808523D02*
X179525819Y-54903761D01*
X179525819Y-54903761D02*
X179525819Y-55189475D01*
X179525819Y-55189475D02*
X179478200Y-55284713D01*
X179478200Y-55284713D02*
X179430580Y-55332332D01*
X163282333Y-54207580D02*
X163234714Y-54255200D01*
X163234714Y-54255200D02*
X163091857Y-54302819D01*
X163091857Y-54302819D02*
X162996619Y-54302819D01*
X162996619Y-54302819D02*
X162853762Y-54255200D01*
X162853762Y-54255200D02*
X162758524Y-54159961D01*
X162758524Y-54159961D02*
X162710905Y-54064723D01*
X162710905Y-54064723D02*
X162663286Y-53874247D01*
X162663286Y-53874247D02*
X162663286Y-53731390D01*
X162663286Y-53731390D02*
X162710905Y-53540914D01*
X162710905Y-53540914D02*
X162758524Y-53445676D01*
X162758524Y-53445676D02*
X162853762Y-53350438D01*
X162853762Y-53350438D02*
X162996619Y-53302819D01*
X162996619Y-53302819D02*
X163091857Y-53302819D01*
X163091857Y-53302819D02*
X163234714Y-53350438D01*
X163234714Y-53350438D02*
X163282333Y-53398057D01*
X164234714Y-54302819D02*
X163663286Y-54302819D01*
X163949000Y-54302819D02*
X163949000Y-53302819D01*
X163949000Y-53302819D02*
X163853762Y-53445676D01*
X163853762Y-53445676D02*
X163758524Y-53540914D01*
X163758524Y-53540914D02*
X163663286Y-53588533D01*
D11*
%TO.C,J6*%
X153088000Y-91913000D02*
X153088000Y-93163000D01*
X153388000Y-92213000D02*
X153388000Y-96933000D01*
X153388000Y-93523000D02*
X153998000Y-93523000D01*
X153388000Y-94823000D02*
X153998000Y-94823000D01*
X153388000Y-96933000D02*
X159508000Y-96933000D01*
X153998000Y-92823000D02*
X153998000Y-96323000D01*
X153998000Y-96323000D02*
X158898000Y-96323000D01*
X154338000Y-91913000D02*
X153088000Y-91913000D01*
X154848000Y-92013000D02*
X154848000Y-92213000D01*
X155148000Y-92013000D02*
X154848000Y-92013000D01*
X155148000Y-92113000D02*
X154848000Y-92113000D01*
X155148000Y-92213000D02*
X155148000Y-92013000D01*
X155948000Y-92213000D02*
X155948000Y-92823000D01*
X155948000Y-92823000D02*
X153998000Y-92823000D01*
X156348000Y-95823000D02*
X156548000Y-95823000D01*
X156348000Y-96323000D02*
X156348000Y-95823000D01*
X156448000Y-96323000D02*
X156448000Y-95823000D01*
X156548000Y-95823000D02*
X156548000Y-96323000D01*
X156948000Y-92823000D02*
X156948000Y-92213000D01*
X158898000Y-92823000D02*
X156948000Y-92823000D01*
X158898000Y-96323000D02*
X158898000Y-92823000D01*
X159508000Y-92213000D02*
X153388000Y-92213000D01*
X159508000Y-93523000D02*
X158898000Y-93523000D01*
X159508000Y-94823000D02*
X158898000Y-94823000D01*
X159508000Y-96933000D02*
X159508000Y-92213000D01*
%TO.C,U1*%
X174078000Y-75478000D02*
X178719000Y-75478000D01*
X174078000Y-75478000D02*
X174078000Y-65238000D01*
X175588000Y-75478000D02*
X175588000Y-65238000D01*
X178719000Y-75478000D02*
X178719000Y-65238000D01*
X174078000Y-72208000D02*
X175588000Y-72208000D01*
X174078000Y-68507000D02*
X175588000Y-68507000D01*
X174078000Y-65238000D02*
X178719000Y-65238000D01*
%TO.C,Q6*%
X148248000Y-91781000D02*
X143607000Y-91781000D01*
X148248000Y-91781000D02*
X148248000Y-102021000D01*
X146738000Y-91781000D02*
X146738000Y-102021000D01*
X143607000Y-91781000D02*
X143607000Y-102021000D01*
X148248000Y-95051000D02*
X146738000Y-95051000D01*
X148248000Y-98752000D02*
X146738000Y-98752000D01*
X148248000Y-102021000D02*
X143607000Y-102021000D01*
%TO.C,J3*%
X153104000Y-51696000D02*
X153104000Y-52946000D01*
X153404000Y-51996000D02*
X153404000Y-56716000D01*
X153404000Y-53306000D02*
X154014000Y-53306000D01*
X153404000Y-54606000D02*
X154014000Y-54606000D01*
X153404000Y-56716000D02*
X159524000Y-56716000D01*
X154014000Y-52606000D02*
X154014000Y-56106000D01*
X154014000Y-56106000D02*
X158914000Y-56106000D01*
X154354000Y-51696000D02*
X153104000Y-51696000D01*
X154864000Y-51796000D02*
X154864000Y-51996000D01*
X155164000Y-51796000D02*
X154864000Y-51796000D01*
X155164000Y-51896000D02*
X154864000Y-51896000D01*
X155164000Y-51996000D02*
X155164000Y-51796000D01*
X155964000Y-51996000D02*
X155964000Y-52606000D01*
X155964000Y-52606000D02*
X154014000Y-52606000D01*
X156364000Y-55606000D02*
X156564000Y-55606000D01*
X156364000Y-56106000D02*
X156364000Y-55606000D01*
X156464000Y-56106000D02*
X156464000Y-55606000D01*
X156564000Y-55606000D02*
X156564000Y-56106000D01*
X156964000Y-52606000D02*
X156964000Y-51996000D01*
X158914000Y-52606000D02*
X156964000Y-52606000D01*
X158914000Y-56106000D02*
X158914000Y-52606000D01*
X159524000Y-51996000D02*
X153404000Y-51996000D01*
X159524000Y-53306000D02*
X158914000Y-53306000D01*
X159524000Y-54606000D02*
X158914000Y-54606000D01*
X159524000Y-56716000D02*
X159524000Y-51996000D01*
%TO.C,R9*%
X140870000Y-85317064D02*
X140870000Y-84862936D01*
X142340000Y-85317064D02*
X142340000Y-84862936D01*
%TO.C,D4*%
X152708000Y-100542000D02*
X153728000Y-100542000D01*
X153728000Y-99072000D02*
X153728000Y-102012000D01*
X153728000Y-102012000D02*
X159168000Y-102012000D01*
X154508000Y-99072000D02*
X154508000Y-102012000D01*
X154628000Y-99072000D02*
X154628000Y-102012000D01*
X154748000Y-99072000D02*
X154748000Y-102012000D01*
X159168000Y-99072000D02*
X153728000Y-99072000D01*
X159168000Y-102012000D02*
X159168000Y-99072000D01*
X160188000Y-100542000D02*
X159168000Y-100542000D01*
%TO.C,C4*%
X172290000Y-90966113D02*
X172290000Y-91466113D01*
X172540000Y-91216113D02*
X172040000Y-91216113D01*
X173395000Y-93770888D02*
X171855000Y-93770888D01*
X169775000Y-93770888D02*
X168235000Y-93770888D01*
X173395000Y-93810888D02*
X171855000Y-93810888D01*
X169775000Y-93810888D02*
X168235000Y-93810888D01*
X173394000Y-93850888D02*
X171855000Y-93850888D01*
X169775000Y-93850888D02*
X168236000Y-93850888D01*
X173393000Y-93890888D02*
X171855000Y-93890888D01*
X169775000Y-93890888D02*
X168237000Y-93890888D01*
X173391000Y-93930888D02*
X171855000Y-93930888D01*
X169775000Y-93930888D02*
X168239000Y-93930888D01*
X173388000Y-93970888D02*
X171855000Y-93970888D01*
X169775000Y-93970888D02*
X168242000Y-93970888D01*
X173384000Y-94010888D02*
X171855000Y-94010888D01*
X169775000Y-94010888D02*
X168246000Y-94010888D01*
X173380000Y-94050888D02*
X171855000Y-94050888D01*
X169775000Y-94050888D02*
X168250000Y-94050888D01*
X173376000Y-94090888D02*
X171855000Y-94090888D01*
X169775000Y-94090888D02*
X168254000Y-94090888D01*
X173371000Y-94130888D02*
X171855000Y-94130888D01*
X169775000Y-94130888D02*
X168259000Y-94130888D01*
X173365000Y-94170888D02*
X171855000Y-94170888D01*
X169775000Y-94170888D02*
X168265000Y-94170888D01*
X173358000Y-94210888D02*
X171855000Y-94210888D01*
X169775000Y-94210888D02*
X168272000Y-94210888D01*
X173351000Y-94250888D02*
X171855000Y-94250888D01*
X169775000Y-94250888D02*
X168279000Y-94250888D01*
X173343000Y-94290888D02*
X171855000Y-94290888D01*
X169775000Y-94290888D02*
X168287000Y-94290888D01*
X173335000Y-94330888D02*
X171855000Y-94330888D01*
X169775000Y-94330888D02*
X168295000Y-94330888D01*
X173326000Y-94370888D02*
X171855000Y-94370888D01*
X169775000Y-94370888D02*
X168304000Y-94370888D01*
X173316000Y-94410888D02*
X171855000Y-94410888D01*
X169775000Y-94410888D02*
X168314000Y-94410888D01*
X173306000Y-94450888D02*
X171855000Y-94450888D01*
X169775000Y-94450888D02*
X168324000Y-94450888D01*
X173295000Y-94491888D02*
X171855000Y-94491888D01*
X169775000Y-94491888D02*
X168335000Y-94491888D01*
X173283000Y-94531888D02*
X171855000Y-94531888D01*
X169775000Y-94531888D02*
X168347000Y-94531888D01*
X173270000Y-94571888D02*
X171855000Y-94571888D01*
X169775000Y-94571888D02*
X168360000Y-94571888D01*
X173257000Y-94611888D02*
X171855000Y-94611888D01*
X169775000Y-94611888D02*
X168373000Y-94611888D01*
X173243000Y-94651888D02*
X171855000Y-94651888D01*
X169775000Y-94651888D02*
X168387000Y-94651888D01*
X173229000Y-94691888D02*
X171855000Y-94691888D01*
X169775000Y-94691888D02*
X168401000Y-94691888D01*
X173213000Y-94731888D02*
X171855000Y-94731888D01*
X169775000Y-94731888D02*
X168417000Y-94731888D01*
X173197000Y-94771888D02*
X171855000Y-94771888D01*
X169775000Y-94771888D02*
X168433000Y-94771888D01*
X173180000Y-94811888D02*
X171855000Y-94811888D01*
X169775000Y-94811888D02*
X168450000Y-94811888D01*
X173163000Y-94851888D02*
X171855000Y-94851888D01*
X169775000Y-94851888D02*
X168467000Y-94851888D01*
X173144000Y-94891888D02*
X171855000Y-94891888D01*
X169775000Y-94891888D02*
X168486000Y-94891888D01*
X173125000Y-94931888D02*
X171855000Y-94931888D01*
X169775000Y-94931888D02*
X168505000Y-94931888D01*
X173105000Y-94971888D02*
X171855000Y-94971888D01*
X169775000Y-94971888D02*
X168525000Y-94971888D01*
X173083000Y-95011888D02*
X171855000Y-95011888D01*
X169775000Y-95011888D02*
X168547000Y-95011888D01*
X173062000Y-95051888D02*
X171855000Y-95051888D01*
X169775000Y-95051888D02*
X168568000Y-95051888D01*
X173039000Y-95091888D02*
X171855000Y-95091888D01*
X169775000Y-95091888D02*
X168591000Y-95091888D01*
X173015000Y-95131888D02*
X171855000Y-95131888D01*
X169775000Y-95131888D02*
X168615000Y-95131888D01*
X172990000Y-95171888D02*
X171855000Y-95171888D01*
X169775000Y-95171888D02*
X168640000Y-95171888D01*
X172964000Y-95211888D02*
X171855000Y-95211888D01*
X169775000Y-95211888D02*
X168666000Y-95211888D01*
X172937000Y-95251888D02*
X171855000Y-95251888D01*
X169775000Y-95251888D02*
X168693000Y-95251888D01*
X172910000Y-95291888D02*
X171855000Y-95291888D01*
X169775000Y-95291888D02*
X168720000Y-95291888D01*
X172880000Y-95331888D02*
X171855000Y-95331888D01*
X169775000Y-95331888D02*
X168750000Y-95331888D01*
X172850000Y-95371888D02*
X171855000Y-95371888D01*
X169775000Y-95371888D02*
X168780000Y-95371888D01*
X172819000Y-95411888D02*
X171855000Y-95411888D01*
X169775000Y-95411888D02*
X168811000Y-95411888D01*
X172786000Y-95451888D02*
X171855000Y-95451888D01*
X169775000Y-95451888D02*
X168844000Y-95451888D01*
X172752000Y-95491888D02*
X171855000Y-95491888D01*
X169775000Y-95491888D02*
X168878000Y-95491888D01*
X172716000Y-95531888D02*
X171855000Y-95531888D01*
X169775000Y-95531888D02*
X168914000Y-95531888D01*
X172679000Y-95571888D02*
X171855000Y-95571888D01*
X169775000Y-95571888D02*
X168951000Y-95571888D01*
X172641000Y-95611888D02*
X171855000Y-95611888D01*
X169775000Y-95611888D02*
X168989000Y-95611888D01*
X172600000Y-95651888D02*
X171855000Y-95651888D01*
X169775000Y-95651888D02*
X169030000Y-95651888D01*
X172558000Y-95691888D02*
X171855000Y-95691888D01*
X169775000Y-95691888D02*
X169072000Y-95691888D01*
X172514000Y-95731888D02*
X171855000Y-95731888D01*
X169775000Y-95731888D02*
X169116000Y-95731888D01*
X172468000Y-95771888D02*
X171855000Y-95771888D01*
X169775000Y-95771888D02*
X169162000Y-95771888D01*
X172420000Y-95811888D02*
X169210000Y-95811888D01*
X172369000Y-95851888D02*
X169261000Y-95851888D01*
X172315000Y-95891888D02*
X169315000Y-95891888D01*
X172258000Y-95931888D02*
X169372000Y-95931888D01*
X172198000Y-95971888D02*
X169432000Y-95971888D01*
X172134000Y-96011888D02*
X169496000Y-96011888D01*
X172066000Y-96051888D02*
X169564000Y-96051888D01*
X171993000Y-96091888D02*
X169637000Y-96091888D01*
X171913000Y-96131888D02*
X169717000Y-96131888D01*
X171826000Y-96171888D02*
X169804000Y-96171888D01*
X171730000Y-96211888D02*
X169900000Y-96211888D01*
X171620000Y-96251888D02*
X170010000Y-96251888D01*
X171492000Y-96291888D02*
X170138000Y-96291888D01*
X171333000Y-96331888D02*
X170297000Y-96331888D01*
X171099000Y-96371888D02*
X170531000Y-96371888D01*
X173435000Y-93770888D02*
G75*
G03*
X173435000Y-93770888I-2620000J0D01*
G01*
%TO.C,D2*%
X152708000Y-73745000D02*
X153728000Y-73745000D01*
X153728000Y-72275000D02*
X153728000Y-75215000D01*
X153728000Y-75215000D02*
X159168000Y-75215000D01*
X154508000Y-72275000D02*
X154508000Y-75215000D01*
X154628000Y-72275000D02*
X154628000Y-75215000D01*
X154748000Y-72275000D02*
X154748000Y-75215000D01*
X159168000Y-72275000D02*
X153728000Y-72275000D01*
X159168000Y-75215000D02*
X159168000Y-72275000D01*
X160188000Y-73745000D02*
X159168000Y-73745000D01*
%TO.C,Q1*%
X180157000Y-79885000D02*
X180157000Y-83045000D01*
X180157000Y-79885000D02*
X181087000Y-79885000D01*
X183317000Y-79885000D02*
X183317000Y-81345000D01*
X183317000Y-79885000D02*
X182387000Y-79885000D01*
%TO.C,Q2*%
X180157000Y-73408000D02*
X180157000Y-76568000D01*
X180157000Y-73408000D02*
X181087000Y-73408000D01*
X183317000Y-73408000D02*
X183317000Y-74868000D01*
X183317000Y-73408000D02*
X182387000Y-73408000D01*
%TO.C,J2*%
X173921000Y-102863000D02*
X173921000Y-101613000D01*
X173621000Y-102563000D02*
X173621000Y-97843000D01*
X173621000Y-101253000D02*
X173011000Y-101253000D01*
X173621000Y-99953000D02*
X173011000Y-99953000D01*
X173621000Y-97843000D02*
X167501000Y-97843000D01*
X173011000Y-101953000D02*
X173011000Y-98453000D01*
X173011000Y-98453000D02*
X168111000Y-98453000D01*
X172671000Y-102863000D02*
X173921000Y-102863000D01*
X172161000Y-102763000D02*
X172161000Y-102563000D01*
X171861000Y-102763000D02*
X172161000Y-102763000D01*
X171861000Y-102663000D02*
X172161000Y-102663000D01*
X171861000Y-102563000D02*
X171861000Y-102763000D01*
X171061000Y-102563000D02*
X171061000Y-101953000D01*
X171061000Y-101953000D02*
X173011000Y-101953000D01*
X170661000Y-98953000D02*
X170461000Y-98953000D01*
X170661000Y-98453000D02*
X170661000Y-98953000D01*
X170561000Y-98453000D02*
X170561000Y-98953000D01*
X170461000Y-98953000D02*
X170461000Y-98453000D01*
X170061000Y-101953000D02*
X170061000Y-102563000D01*
X168111000Y-101953000D02*
X170061000Y-101953000D01*
X168111000Y-98453000D02*
X168111000Y-101953000D01*
X167501000Y-102563000D02*
X173621000Y-102563000D01*
X167501000Y-101253000D02*
X168111000Y-101253000D01*
X167501000Y-99953000D02*
X168111000Y-99953000D01*
X167501000Y-97843000D02*
X167501000Y-102563000D01*
%TO.C,R11*%
X140997000Y-98652064D02*
X140997000Y-98197936D01*
X142467000Y-98652064D02*
X142467000Y-98197936D01*
%TO.C,D1*%
X152708000Y-60283000D02*
X153728000Y-60283000D01*
X153728000Y-58813000D02*
X153728000Y-61753000D01*
X153728000Y-61753000D02*
X159168000Y-61753000D01*
X154508000Y-58813000D02*
X154508000Y-61753000D01*
X154628000Y-58813000D02*
X154628000Y-61753000D01*
X154748000Y-58813000D02*
X154748000Y-61753000D01*
X159168000Y-58813000D02*
X153728000Y-58813000D01*
X159168000Y-61753000D02*
X159168000Y-58813000D01*
X160188000Y-60283000D02*
X159168000Y-60283000D01*
%TO.C,R7*%
X140743000Y-71855064D02*
X140743000Y-71400936D01*
X142213000Y-71855064D02*
X142213000Y-71400936D01*
%TO.C,R1*%
X182726064Y-67410000D02*
X182271936Y-67410000D01*
X182726064Y-65940000D02*
X182271936Y-65940000D01*
%TO.C,Q3*%
X148121000Y-51522000D02*
X143480000Y-51522000D01*
X148121000Y-51522000D02*
X148121000Y-61762000D01*
X146611000Y-51522000D02*
X146611000Y-61762000D01*
X143480000Y-51522000D02*
X143480000Y-61762000D01*
X148121000Y-54792000D02*
X146611000Y-54792000D01*
X148121000Y-58493000D02*
X146611000Y-58493000D01*
X148121000Y-61762000D02*
X143480000Y-61762000D01*
%TO.C,U3*%
X172569000Y-51809000D02*
X172569000Y-52084000D01*
X172569000Y-52084000D02*
X171279000Y-52084000D01*
X172569000Y-61729000D02*
X172569000Y-61454000D01*
X174879000Y-51809000D02*
X172569000Y-51809000D01*
X174879000Y-51809000D02*
X177189000Y-51809000D01*
X174879000Y-61729000D02*
X172569000Y-61729000D01*
X174879000Y-61729000D02*
X177189000Y-61729000D01*
X177189000Y-51809000D02*
X177189000Y-52084000D01*
X177189000Y-61729000D02*
X177189000Y-61454000D01*
%TO.C,J1*%
X184843000Y-102863000D02*
X184843000Y-101613000D01*
X184543000Y-102563000D02*
X184543000Y-97843000D01*
X184543000Y-101253000D02*
X183933000Y-101253000D01*
X184543000Y-99953000D02*
X183933000Y-99953000D01*
X184543000Y-97843000D02*
X178423000Y-97843000D01*
X183933000Y-101953000D02*
X183933000Y-98453000D01*
X183933000Y-98453000D02*
X179033000Y-98453000D01*
X183593000Y-102863000D02*
X184843000Y-102863000D01*
X183083000Y-102763000D02*
X183083000Y-102563000D01*
X182783000Y-102763000D02*
X183083000Y-102763000D01*
X182783000Y-102663000D02*
X183083000Y-102663000D01*
X182783000Y-102563000D02*
X182783000Y-102763000D01*
X181983000Y-102563000D02*
X181983000Y-101953000D01*
X181983000Y-101953000D02*
X183933000Y-101953000D01*
X181583000Y-98953000D02*
X181383000Y-98953000D01*
X181583000Y-98453000D02*
X181583000Y-98953000D01*
X181483000Y-98453000D02*
X181483000Y-98953000D01*
X181383000Y-98953000D02*
X181383000Y-98453000D01*
X180983000Y-101953000D02*
X180983000Y-102563000D01*
X179033000Y-101953000D02*
X180983000Y-101953000D01*
X179033000Y-98453000D02*
X179033000Y-101953000D01*
X178423000Y-102563000D02*
X184543000Y-102563000D01*
X178423000Y-101253000D02*
X179033000Y-101253000D01*
X178423000Y-99953000D02*
X179033000Y-99953000D01*
X178423000Y-97843000D02*
X178423000Y-102563000D01*
%TO.C,R2*%
X182271936Y-69242000D02*
X182726064Y-69242000D01*
X182271936Y-70712000D02*
X182726064Y-70712000D01*
%TO.C,R4*%
X167359064Y-53313000D02*
X166904936Y-53313000D01*
X167359064Y-51843000D02*
X166904936Y-51843000D01*
%TO.C,C2*%
X175606888Y-80850000D02*
X175106888Y-80850000D01*
X175356888Y-81100000D02*
X175356888Y-80600000D01*
X172802113Y-81955000D02*
X172802113Y-80415000D01*
X172802113Y-78335000D02*
X172802113Y-76795000D01*
X172762113Y-81955000D02*
X172762113Y-80415000D01*
X172762113Y-78335000D02*
X172762113Y-76795000D01*
X172722113Y-81954000D02*
X172722113Y-80415000D01*
X172722113Y-78335000D02*
X172722113Y-76796000D01*
X172682113Y-81953000D02*
X172682113Y-80415000D01*
X172682113Y-78335000D02*
X172682113Y-76797000D01*
X172642113Y-81951000D02*
X172642113Y-80415000D01*
X172642113Y-78335000D02*
X172642113Y-76799000D01*
X172602113Y-81948000D02*
X172602113Y-80415000D01*
X172602113Y-78335000D02*
X172602113Y-76802000D01*
X172562113Y-81944000D02*
X172562113Y-80415000D01*
X172562113Y-78335000D02*
X172562113Y-76806000D01*
X172522113Y-81940000D02*
X172522113Y-80415000D01*
X172522113Y-78335000D02*
X172522113Y-76810000D01*
X172482113Y-81936000D02*
X172482113Y-80415000D01*
X172482113Y-78335000D02*
X172482113Y-76814000D01*
X172442113Y-81931000D02*
X172442113Y-80415000D01*
X172442113Y-78335000D02*
X172442113Y-76819000D01*
X172402113Y-81925000D02*
X172402113Y-80415000D01*
X172402113Y-78335000D02*
X172402113Y-76825000D01*
X172362113Y-81918000D02*
X172362113Y-80415000D01*
X172362113Y-78335000D02*
X172362113Y-76832000D01*
X172322113Y-81911000D02*
X172322113Y-80415000D01*
X172322113Y-78335000D02*
X172322113Y-76839000D01*
X172282113Y-81903000D02*
X172282113Y-80415000D01*
X172282113Y-78335000D02*
X172282113Y-76847000D01*
X172242113Y-81895000D02*
X172242113Y-80415000D01*
X172242113Y-78335000D02*
X172242113Y-76855000D01*
X172202113Y-81886000D02*
X172202113Y-80415000D01*
X172202113Y-78335000D02*
X172202113Y-76864000D01*
X172162113Y-81876000D02*
X172162113Y-80415000D01*
X172162113Y-78335000D02*
X172162113Y-76874000D01*
X172122113Y-81866000D02*
X172122113Y-80415000D01*
X172122113Y-78335000D02*
X172122113Y-76884000D01*
X172081113Y-81855000D02*
X172081113Y-80415000D01*
X172081113Y-78335000D02*
X172081113Y-76895000D01*
X172041113Y-81843000D02*
X172041113Y-80415000D01*
X172041113Y-78335000D02*
X172041113Y-76907000D01*
X172001113Y-81830000D02*
X172001113Y-80415000D01*
X172001113Y-78335000D02*
X172001113Y-76920000D01*
X171961113Y-81817000D02*
X171961113Y-80415000D01*
X171961113Y-78335000D02*
X171961113Y-76933000D01*
X171921113Y-81803000D02*
X171921113Y-80415000D01*
X171921113Y-78335000D02*
X171921113Y-76947000D01*
X171881113Y-81789000D02*
X171881113Y-80415000D01*
X171881113Y-78335000D02*
X171881113Y-76961000D01*
X171841113Y-81773000D02*
X171841113Y-80415000D01*
X171841113Y-78335000D02*
X171841113Y-76977000D01*
X171801113Y-81757000D02*
X171801113Y-80415000D01*
X171801113Y-78335000D02*
X171801113Y-76993000D01*
X171761113Y-81740000D02*
X171761113Y-80415000D01*
X171761113Y-78335000D02*
X171761113Y-77010000D01*
X171721113Y-81723000D02*
X171721113Y-80415000D01*
X171721113Y-78335000D02*
X171721113Y-77027000D01*
X171681113Y-81704000D02*
X171681113Y-80415000D01*
X171681113Y-78335000D02*
X171681113Y-77046000D01*
X171641113Y-81685000D02*
X171641113Y-80415000D01*
X171641113Y-78335000D02*
X171641113Y-77065000D01*
X171601113Y-81665000D02*
X171601113Y-80415000D01*
X171601113Y-78335000D02*
X171601113Y-77085000D01*
X171561113Y-81643000D02*
X171561113Y-80415000D01*
X171561113Y-78335000D02*
X171561113Y-77107000D01*
X171521113Y-81622000D02*
X171521113Y-80415000D01*
X171521113Y-78335000D02*
X171521113Y-77128000D01*
X171481113Y-81599000D02*
X171481113Y-80415000D01*
X171481113Y-78335000D02*
X171481113Y-77151000D01*
X171441113Y-81575000D02*
X171441113Y-80415000D01*
X171441113Y-78335000D02*
X171441113Y-77175000D01*
X171401113Y-81550000D02*
X171401113Y-80415000D01*
X171401113Y-78335000D02*
X171401113Y-77200000D01*
X171361113Y-81524000D02*
X171361113Y-80415000D01*
X171361113Y-78335000D02*
X171361113Y-77226000D01*
X171321113Y-81497000D02*
X171321113Y-80415000D01*
X171321113Y-78335000D02*
X171321113Y-77253000D01*
X171281113Y-81470000D02*
X171281113Y-80415000D01*
X171281113Y-78335000D02*
X171281113Y-77280000D01*
X171241113Y-81440000D02*
X171241113Y-80415000D01*
X171241113Y-78335000D02*
X171241113Y-77310000D01*
X171201113Y-81410000D02*
X171201113Y-80415000D01*
X171201113Y-78335000D02*
X171201113Y-77340000D01*
X171161113Y-81379000D02*
X171161113Y-80415000D01*
X171161113Y-78335000D02*
X171161113Y-77371000D01*
X171121113Y-81346000D02*
X171121113Y-80415000D01*
X171121113Y-78335000D02*
X171121113Y-77404000D01*
X171081113Y-81312000D02*
X171081113Y-80415000D01*
X171081113Y-78335000D02*
X171081113Y-77438000D01*
X171041113Y-81276000D02*
X171041113Y-80415000D01*
X171041113Y-78335000D02*
X171041113Y-77474000D01*
X171001113Y-81239000D02*
X171001113Y-80415000D01*
X171001113Y-78335000D02*
X171001113Y-77511000D01*
X170961113Y-81201000D02*
X170961113Y-80415000D01*
X170961113Y-78335000D02*
X170961113Y-77549000D01*
X170921113Y-81160000D02*
X170921113Y-80415000D01*
X170921113Y-78335000D02*
X170921113Y-77590000D01*
X170881113Y-81118000D02*
X170881113Y-80415000D01*
X170881113Y-78335000D02*
X170881113Y-77632000D01*
X170841113Y-81074000D02*
X170841113Y-80415000D01*
X170841113Y-78335000D02*
X170841113Y-77676000D01*
X170801113Y-81028000D02*
X170801113Y-80415000D01*
X170801113Y-78335000D02*
X170801113Y-77722000D01*
X170761113Y-80980000D02*
X170761113Y-77770000D01*
X170721113Y-80929000D02*
X170721113Y-77821000D01*
X170681113Y-80875000D02*
X170681113Y-77875000D01*
X170641113Y-80818000D02*
X170641113Y-77932000D01*
X170601113Y-80758000D02*
X170601113Y-77992000D01*
X170561113Y-80694000D02*
X170561113Y-78056000D01*
X170521113Y-80626000D02*
X170521113Y-78124000D01*
X170481113Y-80553000D02*
X170481113Y-78197000D01*
X170441113Y-80473000D02*
X170441113Y-78277000D01*
X170401113Y-80386000D02*
X170401113Y-78364000D01*
X170361113Y-80290000D02*
X170361113Y-78460000D01*
X170321113Y-80180000D02*
X170321113Y-78570000D01*
X170281113Y-80052000D02*
X170281113Y-78698000D01*
X170241113Y-79893000D02*
X170241113Y-78857000D01*
X170201113Y-79659000D02*
X170201113Y-79091000D01*
X175422113Y-79375000D02*
G75*
G03*
X175422113Y-79375000I-2620000J0D01*
G01*
%TO.C,Q5*%
X148248000Y-78446000D02*
X143607000Y-78446000D01*
X148248000Y-78446000D02*
X148248000Y-88686000D01*
X146738000Y-78446000D02*
X146738000Y-88686000D01*
X143607000Y-78446000D02*
X143607000Y-88686000D01*
X148248000Y-81716000D02*
X146738000Y-81716000D01*
X148248000Y-85417000D02*
X146738000Y-85417000D01*
X148248000Y-88686000D02*
X143607000Y-88686000D01*
%TO.C,D3*%
X152708000Y-87207000D02*
X153728000Y-87207000D01*
X153728000Y-85737000D02*
X153728000Y-88677000D01*
X153728000Y-88677000D02*
X159168000Y-88677000D01*
X154508000Y-85737000D02*
X154508000Y-88677000D01*
X154628000Y-85737000D02*
X154628000Y-88677000D01*
X154748000Y-85737000D02*
X154748000Y-88677000D01*
X159168000Y-85737000D02*
X153728000Y-85737000D01*
X159168000Y-88677000D02*
X159168000Y-85737000D01*
X160188000Y-87207000D02*
X159168000Y-87207000D01*
%TO.C,J4*%
X153072000Y-65158000D02*
X153072000Y-66408000D01*
X153372000Y-65458000D02*
X153372000Y-70178000D01*
X153372000Y-66768000D02*
X153982000Y-66768000D01*
X153372000Y-68068000D02*
X153982000Y-68068000D01*
X153372000Y-70178000D02*
X159492000Y-70178000D01*
X153982000Y-66068000D02*
X153982000Y-69568000D01*
X153982000Y-69568000D02*
X158882000Y-69568000D01*
X154322000Y-65158000D02*
X153072000Y-65158000D01*
X154832000Y-65258000D02*
X154832000Y-65458000D01*
X155132000Y-65258000D02*
X154832000Y-65258000D01*
X155132000Y-65358000D02*
X154832000Y-65358000D01*
X155132000Y-65458000D02*
X155132000Y-65258000D01*
X155932000Y-65458000D02*
X155932000Y-66068000D01*
X155932000Y-66068000D02*
X153982000Y-66068000D01*
X156332000Y-69068000D02*
X156532000Y-69068000D01*
X156332000Y-69568000D02*
X156332000Y-69068000D01*
X156432000Y-69568000D02*
X156432000Y-69068000D01*
X156532000Y-69068000D02*
X156532000Y-69568000D01*
X156932000Y-66068000D02*
X156932000Y-65458000D01*
X158882000Y-66068000D02*
X156932000Y-66068000D01*
X158882000Y-69568000D02*
X158882000Y-66068000D01*
X159492000Y-65458000D02*
X153372000Y-65458000D01*
X159492000Y-66768000D02*
X158882000Y-66768000D01*
X159492000Y-68068000D02*
X158882000Y-68068000D01*
X159492000Y-70178000D02*
X159492000Y-65458000D01*
%TO.C,R8*%
X167375064Y-76935000D02*
X166920936Y-76935000D01*
X167375064Y-75465000D02*
X166920936Y-75465000D01*
%TO.C,R10*%
X164819064Y-90651000D02*
X164364936Y-90651000D01*
X164819064Y-89181000D02*
X164364936Y-89181000D01*
%TO.C,J5*%
X153088000Y-78578000D02*
X153088000Y-79828000D01*
X153388000Y-78878000D02*
X153388000Y-83598000D01*
X153388000Y-80188000D02*
X153998000Y-80188000D01*
X153388000Y-81488000D02*
X153998000Y-81488000D01*
X153388000Y-83598000D02*
X159508000Y-83598000D01*
X153998000Y-79488000D02*
X153998000Y-82988000D01*
X153998000Y-82988000D02*
X158898000Y-82988000D01*
X154338000Y-78578000D02*
X153088000Y-78578000D01*
X154848000Y-78678000D02*
X154848000Y-78878000D01*
X155148000Y-78678000D02*
X154848000Y-78678000D01*
X155148000Y-78778000D02*
X154848000Y-78778000D01*
X155148000Y-78878000D02*
X155148000Y-78678000D01*
X155948000Y-78878000D02*
X155948000Y-79488000D01*
X155948000Y-79488000D02*
X153998000Y-79488000D01*
X156348000Y-82488000D02*
X156548000Y-82488000D01*
X156348000Y-82988000D02*
X156348000Y-82488000D01*
X156448000Y-82988000D02*
X156448000Y-82488000D01*
X156548000Y-82488000D02*
X156548000Y-82988000D01*
X156948000Y-79488000D02*
X156948000Y-78878000D01*
X158898000Y-79488000D02*
X156948000Y-79488000D01*
X158898000Y-82988000D02*
X158898000Y-79488000D01*
X159508000Y-78878000D02*
X153388000Y-78878000D01*
X159508000Y-80188000D02*
X158898000Y-80188000D01*
X159508000Y-81488000D02*
X158898000Y-81488000D01*
X159508000Y-83598000D02*
X159508000Y-78878000D01*
%TO.C,C3*%
X179104113Y-59612000D02*
X179604113Y-59612000D01*
X179354113Y-59362000D02*
X179354113Y-59862000D01*
X181908888Y-58507000D02*
X181908888Y-60047000D01*
X181908888Y-62127000D02*
X181908888Y-63667000D01*
X181948888Y-58507000D02*
X181948888Y-60047000D01*
X181948888Y-62127000D02*
X181948888Y-63667000D01*
X181988888Y-58508000D02*
X181988888Y-60047000D01*
X181988888Y-62127000D02*
X181988888Y-63666000D01*
X182028888Y-58509000D02*
X182028888Y-60047000D01*
X182028888Y-62127000D02*
X182028888Y-63665000D01*
X182068888Y-58511000D02*
X182068888Y-60047000D01*
X182068888Y-62127000D02*
X182068888Y-63663000D01*
X182108888Y-58514000D02*
X182108888Y-60047000D01*
X182108888Y-62127000D02*
X182108888Y-63660000D01*
X182148888Y-58518000D02*
X182148888Y-60047000D01*
X182148888Y-62127000D02*
X182148888Y-63656000D01*
X182188888Y-58522000D02*
X182188888Y-60047000D01*
X182188888Y-62127000D02*
X182188888Y-63652000D01*
X182228888Y-58526000D02*
X182228888Y-60047000D01*
X182228888Y-62127000D02*
X182228888Y-63648000D01*
X182268888Y-58531000D02*
X182268888Y-60047000D01*
X182268888Y-62127000D02*
X182268888Y-63643000D01*
X182308888Y-58537000D02*
X182308888Y-60047000D01*
X182308888Y-62127000D02*
X182308888Y-63637000D01*
X182348888Y-58544000D02*
X182348888Y-60047000D01*
X182348888Y-62127000D02*
X182348888Y-63630000D01*
X182388888Y-58551000D02*
X182388888Y-60047000D01*
X182388888Y-62127000D02*
X182388888Y-63623000D01*
X182428888Y-58559000D02*
X182428888Y-60047000D01*
X182428888Y-62127000D02*
X182428888Y-63615000D01*
X182468888Y-58567000D02*
X182468888Y-60047000D01*
X182468888Y-62127000D02*
X182468888Y-63607000D01*
X182508888Y-58576000D02*
X182508888Y-60047000D01*
X182508888Y-62127000D02*
X182508888Y-63598000D01*
X182548888Y-58586000D02*
X182548888Y-60047000D01*
X182548888Y-62127000D02*
X182548888Y-63588000D01*
X182588888Y-58596000D02*
X182588888Y-60047000D01*
X182588888Y-62127000D02*
X182588888Y-63578000D01*
X182629888Y-58607000D02*
X182629888Y-60047000D01*
X182629888Y-62127000D02*
X182629888Y-63567000D01*
X182669888Y-58619000D02*
X182669888Y-60047000D01*
X182669888Y-62127000D02*
X182669888Y-63555000D01*
X182709888Y-58632000D02*
X182709888Y-60047000D01*
X182709888Y-62127000D02*
X182709888Y-63542000D01*
X182749888Y-58645000D02*
X182749888Y-60047000D01*
X182749888Y-62127000D02*
X182749888Y-63529000D01*
X182789888Y-58659000D02*
X182789888Y-60047000D01*
X182789888Y-62127000D02*
X182789888Y-63515000D01*
X182829888Y-58673000D02*
X182829888Y-60047000D01*
X182829888Y-62127000D02*
X182829888Y-63501000D01*
X182869888Y-58689000D02*
X182869888Y-60047000D01*
X182869888Y-62127000D02*
X182869888Y-63485000D01*
X182909888Y-58705000D02*
X182909888Y-60047000D01*
X182909888Y-62127000D02*
X182909888Y-63469000D01*
X182949888Y-58722000D02*
X182949888Y-60047000D01*
X182949888Y-62127000D02*
X182949888Y-63452000D01*
X182989888Y-58739000D02*
X182989888Y-60047000D01*
X182989888Y-62127000D02*
X182989888Y-63435000D01*
X183029888Y-58758000D02*
X183029888Y-60047000D01*
X183029888Y-62127000D02*
X183029888Y-63416000D01*
X183069888Y-58777000D02*
X183069888Y-60047000D01*
X183069888Y-62127000D02*
X183069888Y-63397000D01*
X183109888Y-58797000D02*
X183109888Y-60047000D01*
X183109888Y-62127000D02*
X183109888Y-63377000D01*
X183149888Y-58819000D02*
X183149888Y-60047000D01*
X183149888Y-62127000D02*
X183149888Y-63355000D01*
X183189888Y-58840000D02*
X183189888Y-60047000D01*
X183189888Y-62127000D02*
X183189888Y-63334000D01*
X183229888Y-58863000D02*
X183229888Y-60047000D01*
X183229888Y-62127000D02*
X183229888Y-63311000D01*
X183269888Y-58887000D02*
X183269888Y-60047000D01*
X183269888Y-62127000D02*
X183269888Y-63287000D01*
X183309888Y-58912000D02*
X183309888Y-60047000D01*
X183309888Y-62127000D02*
X183309888Y-63262000D01*
X183349888Y-58938000D02*
X183349888Y-60047000D01*
X183349888Y-62127000D02*
X183349888Y-63236000D01*
X183389888Y-58965000D02*
X183389888Y-60047000D01*
X183389888Y-62127000D02*
X183389888Y-63209000D01*
X183429888Y-58992000D02*
X183429888Y-60047000D01*
X183429888Y-62127000D02*
X183429888Y-63182000D01*
X183469888Y-59022000D02*
X183469888Y-60047000D01*
X183469888Y-62127000D02*
X183469888Y-63152000D01*
X183509888Y-59052000D02*
X183509888Y-60047000D01*
X183509888Y-62127000D02*
X183509888Y-63122000D01*
X183549888Y-59083000D02*
X183549888Y-60047000D01*
X183549888Y-62127000D02*
X183549888Y-63091000D01*
X183589888Y-59116000D02*
X183589888Y-60047000D01*
X183589888Y-62127000D02*
X183589888Y-63058000D01*
X183629888Y-59150000D02*
X183629888Y-60047000D01*
X183629888Y-62127000D02*
X183629888Y-63024000D01*
X183669888Y-59186000D02*
X183669888Y-60047000D01*
X183669888Y-62127000D02*
X183669888Y-62988000D01*
X183709888Y-59223000D02*
X183709888Y-60047000D01*
X183709888Y-62127000D02*
X183709888Y-62951000D01*
X183749888Y-59261000D02*
X183749888Y-60047000D01*
X183749888Y-62127000D02*
X183749888Y-62913000D01*
X183789888Y-59302000D02*
X183789888Y-60047000D01*
X183789888Y-62127000D02*
X183789888Y-62872000D01*
X183829888Y-59344000D02*
X183829888Y-60047000D01*
X183829888Y-62127000D02*
X183829888Y-62830000D01*
X183869888Y-59388000D02*
X183869888Y-60047000D01*
X183869888Y-62127000D02*
X183869888Y-62786000D01*
X183909888Y-59434000D02*
X183909888Y-60047000D01*
X183909888Y-62127000D02*
X183909888Y-62740000D01*
X183949888Y-59482000D02*
X183949888Y-62692000D01*
X183989888Y-59533000D02*
X183989888Y-62641000D01*
X184029888Y-59587000D02*
X184029888Y-62587000D01*
X184069888Y-59644000D02*
X184069888Y-62530000D01*
X184109888Y-59704000D02*
X184109888Y-62470000D01*
X184149888Y-59768000D02*
X184149888Y-62406000D01*
X184189888Y-59836000D02*
X184189888Y-62338000D01*
X184229888Y-59909000D02*
X184229888Y-62265000D01*
X184269888Y-59989000D02*
X184269888Y-62185000D01*
X184309888Y-60076000D02*
X184309888Y-62098000D01*
X184349888Y-60172000D02*
X184349888Y-62002000D01*
X184389888Y-60282000D02*
X184389888Y-61892000D01*
X184429888Y-60410000D02*
X184429888Y-61764000D01*
X184469888Y-60569000D02*
X184469888Y-61605000D01*
X184509888Y-60803000D02*
X184509888Y-61371000D01*
X184528888Y-61087000D02*
G75*
G03*
X184528888Y-61087000I-2620000J0D01*
G01*
%TO.C,R5*%
X140743000Y-58393064D02*
X140743000Y-57938936D01*
X142213000Y-58393064D02*
X142213000Y-57938936D01*
%TO.C,Q4*%
X148121000Y-64984000D02*
X143480000Y-64984000D01*
X148121000Y-64984000D02*
X148121000Y-75224000D01*
X146611000Y-64984000D02*
X146611000Y-75224000D01*
X143480000Y-64984000D02*
X143480000Y-75224000D01*
X148121000Y-68254000D02*
X146611000Y-68254000D01*
X148121000Y-71955000D02*
X146611000Y-71955000D01*
X148121000Y-75224000D02*
X143480000Y-75224000D01*
%TO.C,R6*%
X167359064Y-63473000D02*
X166904936Y-63473000D01*
X167359064Y-62003000D02*
X166904936Y-62003000D01*
%TO.C,U2*%
X174078000Y-92877000D02*
X178719000Y-92877000D01*
X174078000Y-92877000D02*
X174078000Y-82637000D01*
X175588000Y-92877000D02*
X175588000Y-82637000D01*
X178719000Y-92877000D02*
X178719000Y-82637000D01*
X174078000Y-89607000D02*
X175588000Y-89607000D01*
X174078000Y-85906000D02*
X175588000Y-85906000D01*
X174078000Y-82637000D02*
X178719000Y-82637000D01*
%TO.C,F1*%
X179811000Y-95344064D02*
X179811000Y-94139936D01*
X181631000Y-95344064D02*
X181631000Y-94139936D01*
%TO.C,R3*%
X179986000Y-55726064D02*
X179986000Y-55271936D01*
X181456000Y-55726064D02*
X181456000Y-55271936D01*
%TO.C,C1*%
X162467113Y-55675000D02*
X162967113Y-55675000D01*
X162717113Y-55425000D02*
X162717113Y-55925000D01*
X165271888Y-54570000D02*
X165271888Y-56110000D01*
X165271888Y-58190000D02*
X165271888Y-59730000D01*
X165311888Y-54570000D02*
X165311888Y-56110000D01*
X165311888Y-58190000D02*
X165311888Y-59730000D01*
X165351888Y-54571000D02*
X165351888Y-56110000D01*
X165351888Y-58190000D02*
X165351888Y-59729000D01*
X165391888Y-54572000D02*
X165391888Y-56110000D01*
X165391888Y-58190000D02*
X165391888Y-59728000D01*
X165431888Y-54574000D02*
X165431888Y-56110000D01*
X165431888Y-58190000D02*
X165431888Y-59726000D01*
X165471888Y-54577000D02*
X165471888Y-56110000D01*
X165471888Y-58190000D02*
X165471888Y-59723000D01*
X165511888Y-54581000D02*
X165511888Y-56110000D01*
X165511888Y-58190000D02*
X165511888Y-59719000D01*
X165551888Y-54585000D02*
X165551888Y-56110000D01*
X165551888Y-58190000D02*
X165551888Y-59715000D01*
X165591888Y-54589000D02*
X165591888Y-56110000D01*
X165591888Y-58190000D02*
X165591888Y-59711000D01*
X165631888Y-54594000D02*
X165631888Y-56110000D01*
X165631888Y-58190000D02*
X165631888Y-59706000D01*
X165671888Y-54600000D02*
X165671888Y-56110000D01*
X165671888Y-58190000D02*
X165671888Y-59700000D01*
X165711888Y-54607000D02*
X165711888Y-56110000D01*
X165711888Y-58190000D02*
X165711888Y-59693000D01*
X165751888Y-54614000D02*
X165751888Y-56110000D01*
X165751888Y-58190000D02*
X165751888Y-59686000D01*
X165791888Y-54622000D02*
X165791888Y-56110000D01*
X165791888Y-58190000D02*
X165791888Y-59678000D01*
X165831888Y-54630000D02*
X165831888Y-56110000D01*
X165831888Y-58190000D02*
X165831888Y-59670000D01*
X165871888Y-54639000D02*
X165871888Y-56110000D01*
X165871888Y-58190000D02*
X165871888Y-59661000D01*
X165911888Y-54649000D02*
X165911888Y-56110000D01*
X165911888Y-58190000D02*
X165911888Y-59651000D01*
X165951888Y-54659000D02*
X165951888Y-56110000D01*
X165951888Y-58190000D02*
X165951888Y-59641000D01*
X165992888Y-54670000D02*
X165992888Y-56110000D01*
X165992888Y-58190000D02*
X165992888Y-59630000D01*
X166032888Y-54682000D02*
X166032888Y-56110000D01*
X166032888Y-58190000D02*
X166032888Y-59618000D01*
X166072888Y-54695000D02*
X166072888Y-56110000D01*
X166072888Y-58190000D02*
X166072888Y-59605000D01*
X166112888Y-54708000D02*
X166112888Y-56110000D01*
X166112888Y-58190000D02*
X166112888Y-59592000D01*
X166152888Y-54722000D02*
X166152888Y-56110000D01*
X166152888Y-58190000D02*
X166152888Y-59578000D01*
X166192888Y-54736000D02*
X166192888Y-56110000D01*
X166192888Y-58190000D02*
X166192888Y-59564000D01*
X166232888Y-54752000D02*
X166232888Y-56110000D01*
X166232888Y-58190000D02*
X166232888Y-59548000D01*
X166272888Y-54768000D02*
X166272888Y-56110000D01*
X166272888Y-58190000D02*
X166272888Y-59532000D01*
X166312888Y-54785000D02*
X166312888Y-56110000D01*
X166312888Y-58190000D02*
X166312888Y-59515000D01*
X166352888Y-54802000D02*
X166352888Y-56110000D01*
X166352888Y-58190000D02*
X166352888Y-59498000D01*
X166392888Y-54821000D02*
X166392888Y-56110000D01*
X166392888Y-58190000D02*
X166392888Y-59479000D01*
X166432888Y-54840000D02*
X166432888Y-56110000D01*
X166432888Y-58190000D02*
X166432888Y-59460000D01*
X166472888Y-54860000D02*
X166472888Y-56110000D01*
X166472888Y-58190000D02*
X166472888Y-59440000D01*
X166512888Y-54882000D02*
X166512888Y-56110000D01*
X166512888Y-58190000D02*
X166512888Y-59418000D01*
X166552888Y-54903000D02*
X166552888Y-56110000D01*
X166552888Y-58190000D02*
X166552888Y-59397000D01*
X166592888Y-54926000D02*
X166592888Y-56110000D01*
X166592888Y-58190000D02*
X166592888Y-59374000D01*
X166632888Y-54950000D02*
X166632888Y-56110000D01*
X166632888Y-58190000D02*
X166632888Y-59350000D01*
X166672888Y-54975000D02*
X166672888Y-56110000D01*
X166672888Y-58190000D02*
X166672888Y-59325000D01*
X166712888Y-55001000D02*
X166712888Y-56110000D01*
X166712888Y-58190000D02*
X166712888Y-59299000D01*
X166752888Y-55028000D02*
X166752888Y-56110000D01*
X166752888Y-58190000D02*
X166752888Y-59272000D01*
X166792888Y-55055000D02*
X166792888Y-56110000D01*
X166792888Y-58190000D02*
X166792888Y-59245000D01*
X166832888Y-55085000D02*
X166832888Y-56110000D01*
X166832888Y-58190000D02*
X166832888Y-59215000D01*
X166872888Y-55115000D02*
X166872888Y-56110000D01*
X166872888Y-58190000D02*
X166872888Y-59185000D01*
X166912888Y-55146000D02*
X166912888Y-56110000D01*
X166912888Y-58190000D02*
X166912888Y-59154000D01*
X166952888Y-55179000D02*
X166952888Y-56110000D01*
X166952888Y-58190000D02*
X166952888Y-59121000D01*
X166992888Y-55213000D02*
X166992888Y-56110000D01*
X166992888Y-58190000D02*
X166992888Y-59087000D01*
X167032888Y-55249000D02*
X167032888Y-56110000D01*
X167032888Y-58190000D02*
X167032888Y-59051000D01*
X167072888Y-55286000D02*
X167072888Y-56110000D01*
X167072888Y-58190000D02*
X167072888Y-59014000D01*
X167112888Y-55324000D02*
X167112888Y-56110000D01*
X167112888Y-58190000D02*
X167112888Y-58976000D01*
X167152888Y-55365000D02*
X167152888Y-56110000D01*
X167152888Y-58190000D02*
X167152888Y-58935000D01*
X167192888Y-55407000D02*
X167192888Y-56110000D01*
X167192888Y-58190000D02*
X167192888Y-58893000D01*
X167232888Y-55451000D02*
X167232888Y-56110000D01*
X167232888Y-58190000D02*
X167232888Y-58849000D01*
X167272888Y-55497000D02*
X167272888Y-56110000D01*
X167272888Y-58190000D02*
X167272888Y-58803000D01*
X167312888Y-55545000D02*
X167312888Y-58755000D01*
X167352888Y-55596000D02*
X167352888Y-58704000D01*
X167392888Y-55650000D02*
X167392888Y-58650000D01*
X167432888Y-55707000D02*
X167432888Y-58593000D01*
X167472888Y-55767000D02*
X167472888Y-58533000D01*
X167512888Y-55831000D02*
X167512888Y-58469000D01*
X167552888Y-55899000D02*
X167552888Y-58401000D01*
X167592888Y-55972000D02*
X167592888Y-58328000D01*
X167632888Y-56052000D02*
X167632888Y-58248000D01*
X167672888Y-56139000D02*
X167672888Y-58161000D01*
X167712888Y-56235000D02*
X167712888Y-58065000D01*
X167752888Y-56345000D02*
X167752888Y-57955000D01*
X167792888Y-56473000D02*
X167792888Y-57827000D01*
X167832888Y-56632000D02*
X167832888Y-57668000D01*
X167872888Y-56866000D02*
X167872888Y-57434000D01*
X167891888Y-57150000D02*
G75*
G03*
X167891888Y-57150000I-2620000J0D01*
G01*
%TD*%
M02*
